<?xml version="1.0" ?>
<svg xmlns="http://www.w3.org/2000/svg" xmlns:ev="http://www.w3.org/2001/xml-events" xmlns:xlink="http://www.w3.org/1999/xlink" style="background-color: white;" baseProfile="full" height="546px" version="1.1" viewBox="-52.142 -13.241999999999997 581.284 528.484" width="600px">
	<defs/>
	<path d="M 60.0,195.5 L 57.5,219.5" fill="none" stroke="#000000" stroke-width="0.484"/>
	<path d="M 57.5,219.5 L 74.0,471.0" fill="none" stroke="#000000" stroke-width="0.484"/>
	<path d="M 368.0,171.0 L 337.5,170.5" fill="none" stroke="#000000" stroke-width="0.484"/>
	<path d="M 337.5,170.5 L 328.0,170.5" fill="none" stroke="#000000" stroke-width="0.484"/>
	<path d="M 328.0,170.5 L 318.5,170.0" fill="none" stroke="#000000" stroke-width="0.484"/>
	<path d="M 318.5,170.0 L 285.0,170.0" fill="none" stroke="#000000" stroke-width="0.484"/>
	<path d="M 297.0,170.0 L 285.0,170.0" fill="none" stroke="#000000" stroke-width="0.484"/>
	<path d="M 285.0,170.0 L 274.5,169.5" fill="none" stroke="#000000" stroke-width="0.484"/>
	<path d="M 274.5,169.5 L 57.5,169.5" fill="none" stroke="#000000" stroke-width="0.484"/>
	<path d="M 57.5,169.5 L 55.0,176.0" fill="none" stroke="#000000" stroke-width="0.484"/>
	<path d="M 55.5,174.5 L 56.0,215.0" fill="none" stroke="#000000" stroke-width="0.484"/>
	<path d="M 363.0,174.5 L 364.0,209.0" fill="none" stroke="#000000" stroke-width="0.484"/>
	<path d="M 364.0,209.0 L 364.0,384.5" fill="none" stroke="#000000" stroke-width="0.484"/>
	<path d="M 364.0,384.5 L 239.5,384.5" fill="none" stroke="#000000" stroke-width="0.484"/>
	<path d="M 251.5,384.5 L 239.5,384.5" fill="none" stroke="#000000" stroke-width="0.484"/>
	<path d="M 239.5,384.5 L 153.5,378.0" fill="none" stroke="#000000" stroke-width="0.484"/>
	<path d="M 165.0,379.0 L 153.5,378.0" fill="none" stroke="#000000" stroke-width="0.484"/>
	<path d="M 153.5,378.0 L 53.0,378.0" fill="none" stroke="#000000" stroke-width="0.484"/>
	<path d="M 170.5,385.5 L 170.0,413.5" fill="none" stroke="#000000" stroke-width="0.484"/>
	<path d="M 170.0,413.5 L 170.5,464.0" fill="none" stroke="#000000" stroke-width="0.484"/>
	<path d="M 170.5,464.0 L 84.0,465.0" fill="none" stroke="#000000" stroke-width="0.484"/>
	<path d="M 76.0,384.0 L 102.0,401.5" fill="none" stroke="#000000" stroke-width="0.484"/>
	<path d="M 102.0,401.5 L 171.0,457.5" fill="none" stroke="#000000" stroke-width="0.484"/>
	<path d="M 347.0,433.5 L 313.0,433.5" fill="none" stroke="#000000" stroke-width="0.484"/>
	<path d="M 313.0,433.5 L 207.5,433.5" fill="none" stroke="#000000" stroke-width="0.484"/>
	<path d="M 216.5,433.5 L 207.5,433.5" fill="none" stroke="#000000" stroke-width="0.484"/>
	<path d="M 207.5,433.5 L 181.5,430.5" fill="none" stroke="#000000" stroke-width="0.484"/>
	<path d="M 187.5,431.0 L 181.5,430.5" fill="none" stroke="#000000" stroke-width="0.484"/>
	<path d="M 181.5,430.5 L 167.5,430.5" fill="none" stroke="#000000" stroke-width="0.484"/>
	<path d="M 308.0,421.5 L 309.5,455.0" fill="none" stroke="#000000" stroke-width="0.484"/>
	<path d="M 309.5,455.0 L 309.5,462.0" fill="none" stroke="#000000" stroke-width="0.484"/>
	<path d="M 229.5,431.0 L 227.0,390.5" fill="none" stroke="#000000" stroke-width="0.484"/>
	<path d="M 227.0,390.5 L 202.5,95.0" fill="none" stroke="#000000" stroke-width="0.484"/>
	<path d="M 199.0,98.5 L 223.5,100.5" fill="none" stroke="#000000" stroke-width="0.484"/>
	<path d="M 223.5,100.5 L 361.0,168.0" fill="none" stroke="#000000" stroke-width="0.484"/>
	<path d="M 359.0,166.5 L 365.5,174.0" fill="none" stroke="#000000" stroke-width="0.484"/>
	<path d="M 355.5,178.0 L 373.5,184.5" fill="none" stroke="#000000" stroke-width="0.484"/>
	<path d="M 373.5,184.5 L 453.5,267.5" fill="none" stroke="#000000" stroke-width="0.484"/>
	<path d="M 454.0,269.5 L 367.0,384.5" fill="none" stroke="#000000" stroke-width="0.484"/>
	<path d="M 391.5,194.5 L 391.0,224.5" fill="none" stroke="#000000" stroke-width="0.484"/>
	<path d="M 391.0,224.5 L 392.0,357.5" fill="none" stroke="#000000" stroke-width="0.484"/>
	<path d="M 443.5,262.5 L 419.0,265.0" fill="none" stroke="#000000" stroke-width="0.484"/>
	<path d="M 419.0,265.0 L 66.5,277.0" fill="none" stroke="#000000" stroke-width="0.484"/>
	<path d="M 368.5,179.0 L 333.5,194.5" fill="none" stroke="#000000" stroke-width="0.484"/>
	<path d="M 333.5,194.5 L 72.0,365.5" fill="none" stroke="#000000" stroke-width="0.484"/>
	<path d="M 59.0,178.5 L 93.0,197.0" fill="none" stroke="#000000" stroke-width="0.484"/>
	<path d="M 93.0,197.0 L 323.0,348.0" fill="none" stroke="#000000" stroke-width="0.484"/>
	<path d="M 320.5,345.5 L 334.0,360.0" fill="none" stroke="#000000" stroke-width="0.484"/>
	<path d="M 334.0,360.0 L 351.5,375.0" fill="none" stroke="#000000" stroke-width="0.484"/>
	<path d="M 253.5,175.5 L 253.0,203.5" fill="none" stroke="#000000" stroke-width="0.484"/>
	<path d="M 253.0,203.5 L 254.0,246.0" fill="none" stroke="#000000" stroke-width="0.484"/>
	<path d="M 277.5,290.5 L 262.5,312.0" fill="none" stroke="#000000" stroke-width="0.484"/>
	<path d="M 262.5,312.0 L 248.0,334.0" fill="none" stroke="#000000" stroke-width="0.484"/>
	<path d="M 310.0,310.5 L 293.5,335.0" fill="none" stroke="#000000" stroke-width="0.484"/>
	<path d="M 293.5,335.0 L 286.5,347.5" fill="none" stroke="#000000" stroke-width="0.484"/>
	<path d="M 341.5,335.5 L 327.5,359.5" fill="none" stroke="#000000" stroke-width="0.484"/>
	<path d="M 327.5,359.5 L 322.0,367.5" fill="none" stroke="#000000" stroke-width="0.484"/>
	<path d="M 323.5,366.0 L 316.5,372.5" fill="none" stroke="#000000" stroke-width="0.484"/>
	<path d="M 454.0,267.5 L 442.5,294.0" fill="none" stroke="#000000" stroke-width="0.484"/>
	<path d="M 442.5,294.0 L 432.5,327.5" fill="none" stroke="#000000" stroke-width="0.484"/>
	<path d="M 434.5,328.0 L 461.5,365.0" fill="none" stroke="#000000" stroke-width="0.484"/>
	<path d="M 463.0,365.0 L 480.5,315.5" fill="none" stroke="#000000" stroke-width="0.484"/>
	<path d="M 480.5,315.5 L 453.5,270.5" fill="none" stroke="#000000" stroke-width="0.484"/>
	<path d="M 60.0,247.0 L 38.0,246.0" fill="none" stroke="#000000" stroke-width="0.484"/>
	<path d="M 38.0,246.0 L 32.5,246.0" fill="none" stroke="#000000" stroke-width="0.484"/>
	<path d="M 31.0,245.5 L 27.0,31.0" fill="none" stroke="#000000" stroke-width="0.484"/>
	<path d="M 57.0,81.0 L 27.5,80.5" fill="none" stroke="#000000" stroke-width="0.484"/>
	<path d="M 27.5,80.5 L -3.5,82.0" fill="none" stroke="#000000" stroke-width="0.484"/>
	<path d="M 24.5,184.5 L 25.0,202.5" fill="none" stroke="#000000" stroke-width="0.484"/>
	<path d="M 25.0,202.5 L 26.0,222.5" fill="none" stroke="#000000" stroke-width="0.484"/>
	<path d="M 25.5,219.5 L 28.0,229.0" fill="none" stroke="#000000" stroke-width="0.484"/>
	<path d="M 27.5,227.0 L 29.0,236.5" fill="none" stroke="#000000" stroke-width="0.484"/>
	<path d="M 28.5,233.0 L 30.0,239.0" fill="none" stroke="#000000" stroke-width="0.484"/>
	<path d="M 30.0,239.0 L 37.0,322.0" fill="none" stroke="#000000" stroke-width="0.484"/>
	<path d="M 130.0,224.5 L 110.0,223.0" fill="none" stroke="#000000" stroke-width="0.484"/>
	<path d="M 110.0,223.0 L 104.5,222.0" fill="none" stroke="#000000" stroke-width="0.484"/>
	<path d="M 104.5,222.0 L 55.0,222.0" fill="none" stroke="#000000" stroke-width="0.484"/>
	<path d="M 132.0,219.5 L 130.0,243.5" fill="none" stroke="#000000" stroke-width="0.484"/>
	<path d="M 130.0,243.5 L 130.0,326.5" fill="none" stroke="#000000" stroke-width="0.484"/>
	<path d="M 130.0,326.5 L 71.0,329.0" fill="none" stroke="#000000" stroke-width="0.484"/>
	<path d="M 129.0,221.5 L 112.0,252.0" fill="none" stroke="#000000" stroke-width="0.484"/>
	<path d="M 112.0,252.0 L 72.0,324.0" fill="none" stroke="#000000" stroke-width="0.484"/>
	<path d="M 64.0,226.0 L 83.5,252.0" fill="none" stroke="#000000" stroke-width="0.484"/>
	<path d="M 83.5,252.0 L 130.5,317.0" fill="none" stroke="#000000" stroke-width="0.484"/>
	<path d="M 211.0,194.0 L 182.5,192.5" fill="none" stroke="#000000" stroke-width="0.484"/>
	<path d="M 182.5,192.5 L 139.0,192.5" fill="none" stroke="#000000" stroke-width="0.484"/>
	<path d="M 144.0,192.5 L 139.0,192.5" fill="none" stroke="#000000" stroke-width="0.484"/>
	<path d="M 139.0,192.5 L 130.5,191.5" fill="none" stroke="#000000" stroke-width="0.484"/>
	<path d="M 130.5,191.5 L 112.5,191.5" fill="none" stroke="#000000" stroke-width="0.484"/>
	<path d="M 107.5,191.0 L 100.5,189.0" fill="none" stroke="#000000" stroke-width="0.484"/>
	<path d="M 216.0,222.5 L 185.0,221.0" fill="none" stroke="#000000" stroke-width="0.484"/>
	<path d="M 185.0,221.0 L 142.0,221.0" fill="none" stroke="#000000" stroke-width="0.484"/>
	<path d="M 219.5,252.5 L 195.5,251.5" fill="none" stroke="#000000" stroke-width="0.484"/>
	<path d="M 195.5,251.5 L 172.5,251.5" fill="none" stroke="#000000" stroke-width="0.484"/>
	<path d="M 112.0,208.0 L 93.0,208.0" fill="none" stroke="#000000" stroke-width="0.484"/>
	<path d="M 89.5,207.5 L 58.5,207.5" fill="none" stroke="#000000" stroke-width="0.484"/>
</svg>
