<?xml version="1.0" ?>
<svg xmlns="http://www.w3.org/2000/svg" xmlns:ev="http://www.w3.org/2001/xml-events" xmlns:xlink="http://www.w3.org/1999/xlink" baseProfile="full" height="496px" version="1.1" viewBox="-17.951917830467224 68.64563027286529 463.02436674308774 382.03909986686705" width="600px">
	<defs/>
	<path d="M 68.77567291259766,149.18470764160156 L 79.14508819580078,350.24664306640625" fill="none" stroke="#000000" stroke-width="0.38553236198425295"/>
	<path d="M 327.79632568359375,155.12667846679688 L 69.78459930419922,155.29464721679688" fill="none" stroke="#000000" stroke-width="0.38553236198425295"/>
	<path d="M 330.9910583496094,160.78794860839844 L 346.6858215332031,347.4441833496094" fill="none" stroke="#000000" stroke-width="0.38553236198425295"/>
	<path d="M 347.86328125,346.71539306640625 L 90.29966735839844,346.4910583496094" fill="none" stroke="#000000" stroke-width="0.38553236198425295"/>
	<path d="M 90.29966735839844,346.4910583496094 L 82.95703125,346.9397277832031" fill="none" stroke="#000000" stroke-width="0.38553236198425295"/>
	<path d="M 330.9352722167969,158.04129028320312 L 348.98382568359375,354.89898681640625" fill="none" stroke="#000000" stroke-width="0.38553236198425295"/>
	<path d="M 330.20648193359375,166.67355346679688 L 79.31361389160156,350.6953125" fill="none" stroke="#000000" stroke-width="0.38553236198425295"/>
	<path d="M 71.12946319580078,159.10658264160156 L 346.8537902832031,351.6484375" fill="none" stroke="#000000" stroke-width="0.38553236198425295"/>
	<path d="M 215.41015625,159.10658264160156 L 230.48828125,345.1462097167969" fill="none" stroke="#000000" stroke-width="0.38553236198425295"/>
	<path d="M 406.3264465332031,244.2505645751953 L 68.77567291259766,271.4921875" fill="none" stroke="#000000" stroke-width="0.38553236198425295"/>
	<path d="M 357.3359375,189.31863403320312 L 368.21038818359375,320.8191833496094" fill="none" stroke="#000000" stroke-width="0.38553236198425295"/>
	<path d="M 215.578125,179.50949096679688 L 100.83760833740234,174.8013458251953" fill="none" stroke="#000000" stroke-width="0.38553236198425295"/>
	<path d="M 219.50167846679688,199.96875 L 136.09486389160156,196.60546875" fill="none" stroke="#000000" stroke-width="0.38553236198425295"/>
	<path d="M 223.81808471679688,219.58761596679688 L 170.2310333251953,218.35435485839844" fill="none" stroke="#000000" stroke-width="0.38553236198425295"/>
	<path d="M 222.58482360839844,238.86941528320312 L 202.5736541748047,238.25279235839844" fill="none" stroke="#000000" stroke-width="0.38553236198425295"/>
	<path d="M 202.5736541748047,238.25279235839844 L 194.2779083251953,238.25279235839844" fill="none" stroke="#000000" stroke-width="0.38553236198425295"/>
	<path d="M 328.80523681640625,315.88616943359375 L 308.6261291503906,331.74945068359375" fill="none" stroke="#000000" stroke-width="0.38553236198425295"/>
	<path d="M 308.5139465332031,300.0234375 L 282.11273193359375,317.3995666503906" fill="none" stroke="#000000" stroke-width="0.38553236198425295"/>
	<path d="M 281.7204284667969,287.80413818359375 L 261.09320068359375,300.0792541503906" fill="none" stroke="#000000" stroke-width="0.38553236198425295"/>
	<path d="M 263.67132568359375,275.13616943359375 L 237.43861389160156,287.01898193359375" fill="none" stroke="#000000" stroke-width="0.38553236198425295"/>
	<path d="M 82.56417083740234,352.7131652832031 L 82.39620208740234,411.45648193359375" fill="none" stroke="#000000" stroke-width="0.38553236198425295"/>
	<path d="M 82.39620208740234,411.45648193359375 L 139.0658416748047,413.1941833496094" fill="none" stroke="#000000" stroke-width="0.38553236198425295"/>
	<path d="M 139.0658416748047,413.1941833496094 L 135.5904083251953,351.5362854003906" fill="none" stroke="#000000" stroke-width="0.38553236198425295"/>
	<path d="M 82.34040069580078,351.5362854003906 L 140.1869354248047,418.6875" fill="none" stroke="#000000" stroke-width="0.38553236198425295"/>
	<path d="M 270.7901916503906,394.4162902832031 L 147.47377014160156,390.9972229003906" fill="none" stroke="#000000" stroke-width="0.38553236198425295"/>
	<path d="M 147.47377014160156,390.9972229003906 L 139.17800903320312,391.2215270996094" fill="none" stroke="#000000" stroke-width="0.38553236198425295"/>
	<path d="M 72.81138610839844,207.59207153320312 L 60.64788055419922,206.2466583251953" fill="none" stroke="#000000" stroke-width="0.38553236198425295"/>
	<path d="M 60.64788055419922,206.2466583251953 L 47.81138229370117,206.80747985839844" fill="none" stroke="#000000" stroke-width="0.38553236198425295"/>
	<path d="M 33.85435104370117,144.70089721679688 L 50.22209930419922,273.6222229003906" fill="none" stroke="#000000" stroke-width="0.38553236198425295"/>
	<path d="M 50.22209930419922,273.6222229003906 L 50.44586944580078,267.4006652832031" fill="none" stroke="#000000" stroke-width="0.38553236198425295"/>
	<path d="M 46.46651840209961,168.13058471679688 L 20.794084548950195,172.44699096679688" fill="none" stroke="#000000" stroke-width="0.38553236198425295"/>
	<path d="M 254.14230346679688,383.8225402832031 L 254.1986541748047,413.4743347167969" fill="none" stroke="#000000" stroke-width="0.38553236198425295"/>
	<path d="M 216.47488403320312,166.05691528320312 L 213.39173889160156,100.97935485839844" fill="none" stroke="#000000" stroke-width="0.38553236198425295"/>
	<path d="M 213.8404083251953,100.64286041259766 L 332.8967590332031,160.11550903320312" fill="none" stroke="#000000" stroke-width="0.38553236198425295"/>
	<path d="M 138.84152221679688,198.0630645751953 L 151.1171875,310.6735534667969" fill="none" stroke="#000000" stroke-width="0.38553236198425295"/>
	<path d="M 149.09933471679688,309.2159729003906 L 142.54129028320312,314.6534729003906" fill="none" stroke="#000000" stroke-width="0.38553236198425295"/>
	<path d="M 142.54129028320312,314.6534729003906 L 86.60044860839844,315.26953125" fill="none" stroke="#000000" stroke-width="0.38553236198425295"/>
	<path d="M 86.60044860839844,315.26953125 L 77.68805694580078,315.60601806640625" fill="none" stroke="#000000" stroke-width="0.38553236198425295"/>
	<path d="M 137.88894653320312,201.48214721679688 L 71.29798889160156,208.1529083251953" fill="none" stroke="#000000" stroke-width="0.38553236198425295"/>
	<path d="M 137.328125,201.81863403320312 L 75.38951110839844,313.5881652832031" fill="none" stroke="#000000" stroke-width="0.38553236198425295"/>
	<path d="M 74.88504791259766,210.95535278320312 L 148.48269653320312,309.6082458496094" fill="none" stroke="#000000" stroke-width="0.38553236198425295"/>
</svg>
