<?xml version="1.0" ?>
<svg xmlns="http://www.w3.org/2000/svg" xmlns:ev="http://www.w3.org/2001/xml-events" xmlns:xlink="http://www.w3.org/1999/xlink" baseProfile="full" height="531px" version="1.1" viewBox="-35.27837701320648 24.60521921634674 572.2838830089569 505.5579636669159" width="600px">
	<defs/>
	<path d="M 81.61161041259766,152.5825958251953 L 86.31975555419922,395.85211181640625" fill="none" stroke="#000000" stroke-width="0.4765061473846436"/>
	<path d="M 412.2120666503906,140.41908264160156 L 177.29408264160156,133.4681854248047" fill="none" stroke="#000000" stroke-width="0.4765061473846436"/>
	<path d="M 177.29408264160156,133.4681854248047 L 89.45870208740234,138.2890625" fill="none" stroke="#000000" stroke-width="0.4765061473846436"/>
	<path d="M 418.3777770996094,150.84486389160156 L 428.5792541503906,382.7355041503906" fill="none" stroke="#000000" stroke-width="0.4765061473846436"/>
	<path d="M 429.0837097167969,413.2287902832031 L 94.78404235839844,406.89453125" fill="none" stroke="#000000" stroke-width="0.4765061473846436"/>
	<path d="M 423.42242431640625,140.0825958251953 L 79.9296875,414.8543395996094" fill="none" stroke="#000000" stroke-width="0.4765061473846436"/>
	<path d="M 114.79463958740234,168.38951110839844 L 445.4514465332031,413.45257568359375" fill="none" stroke="#000000" stroke-width="0.4765061473846436"/>
	<path d="M 260.7566833496094,137.16796875 L 253.2455291748047,286.94140625" fill="none" stroke="#000000" stroke-width="0.4765061473846436"/>
	<path d="M 347.9748840332031,144.28627014160156 L 255.26339721679688,263.1188659667969" fill="none" stroke="#000000" stroke-width="0.4765061473846436"/>
	<path d="M 182.28236389160156,141.3158416748047 L 254.42298889160156,275.73046875" fill="none" stroke="#000000" stroke-width="0.4765061473846436"/>
	<path d="M 180.20870971679688,217.4916229248047 L 185.30970764160156,322.7589416503906" fill="none" stroke="#000000" stroke-width="0.4765061473846436"/>
	<path d="M 131.77902221679688,178.81529235839844 L 153.19140625,347.9269104003906" fill="none" stroke="#000000" stroke-width="0.4765061473846436"/>
	<path d="M 242.93191528320312,267.6590270996094 L 210.36495971679688,266.8180847167969" fill="none" stroke="#000000" stroke-width="0.4765061473846436"/>
	<path d="M 210.36495971679688,266.8180847167969 L 83.74163055419922,280.7756652832031" fill="none" stroke="#000000" stroke-width="0.4765061473846436"/>
	<path d="M 48.93247604370117,154.93638610839844 L 28.809709548950195,205.72042846679688" fill="none" stroke="#000000" stroke-width="0.4765061473846436"/>
	<path d="M 52.35211944580078,160.4296875 L 79.70591735839844,206.33705139160156" fill="none" stroke="#000000" stroke-width="0.4765061473846436"/>
	<path d="M 77.07142639160156,208.13058471679688 L 49.04464340209961,253.36550903320312" fill="none" stroke="#000000" stroke-width="0.4765061473846436"/>
	<path d="M 33.46205520629883,211.83035278320312 L 55.15457534790039,251.90792846679688" fill="none" stroke="#000000" stroke-width="0.4765061473846436"/>
	<path d="M 342.1456604003906,204.26339721679688 L 417.7048034667969,286.6612854003906" fill="none" stroke="#000000" stroke-width="0.4765061473846436"/>
	<path d="M 23.1484375,66.93359375 L 16.02957534790039,289.6316833496094" fill="none" stroke="#000000" stroke-width="0.4765061473846436"/>
	<path d="M 51.28683090209961,109.36551666259766 L 12.610490798950195,116.42801666259766" fill="none" stroke="#000000" stroke-width="0.4765061473846436"/>
	<path d="M 90.46763610839844,405.3811340332031 L 90.57979583740234,396.7488708496094" fill="none" stroke="#000000" stroke-width="0.4765061473846436"/>
	<path d="M 90.57979583740234,396.7488708496094 L 93.15848541259766,476.45648193359375" fill="none" stroke="#000000" stroke-width="0.4765061473846436"/>
	<path d="M 190.41015625,405.94140625 L 192.0357208251953,475.8956604003906" fill="none" stroke="#000000" stroke-width="0.4765061473846436"/>
	<path d="M 194.05357360839844,476.7366027832031 L 93.55078125,481.8934020996094" fill="none" stroke="#000000" stroke-width="0.4765061473846436"/>
	<path d="M 96.24163055419922,411.21038818359375 L 191.58761596679688,487.8348083496094" fill="none" stroke="#000000" stroke-width="0.4765061473846436"/>
	<path d="M 393.9944152832031,437.4436340332031 L 179.6478729248047,444.1696472167969" fill="none" stroke="#000000" stroke-width="0.4765061473846436"/>
	<path d="M 337.60546875,411.1545715332031 L 332.5608215332031,468.49664306640625" fill="none" stroke="#000000" stroke-width="0.4765061473846436"/>
	<path d="M 263.4475402832031,78.87276458740234 L 261.6534729003906,157.62722778320312" fill="none" stroke="#000000" stroke-width="0.4765061473846436"/>
	<path d="M 261.09320068359375,71.30580139160156 L 430.2048034667969,163.2884979248047" fill="none" stroke="#000000" stroke-width="0.4765061473846436"/>
	<path d="M 420.05914306640625,153.75949096679688 L 489.11663818359375,283.3537902832031" fill="none" stroke="#000000" stroke-width="0.4765061473846436"/>
	<path d="M 485.8655090332031,279.3180847167969 L 418.6015625,394.05859375" fill="none" stroke="#000000" stroke-width="0.4765061473846436"/>
	<path d="M 139.68247985839844,185.37332153320312 L 85.31082916259766,188.9609375" fill="none" stroke="#000000" stroke-width="0.4765061473846436"/>
	<path d="M 154.53627014160156,344.9559020996094 L 129.6490020751953,346.91796875" fill="none" stroke="#000000" stroke-width="0.4765061473846436"/>
	<path d="M 129.6490020751953,346.91796875 L 76.34263610839844,341.0881652832031" fill="none" stroke="#000000" stroke-width="0.4765061473846436"/>
	<path d="M 140.0747833251953,189.12890625 L 86.60044860839844,345.2366027832031" fill="none" stroke="#000000" stroke-width="0.4765061473846436"/>
	<path d="M 82.62053680419922,187.83984375 L 160.9263458251953,350.7293395996094" fill="none" stroke="#000000" stroke-width="0.4765061473846436"/>
	<path d="M 442.14398193359375,207.68247985839844 L 448.9826965332031,345.29241943359375" fill="none" stroke="#000000" stroke-width="0.4765061473846436"/>
	<path d="M 487.0987854003906,280.4949645996094 L 480.98883056640625,275.2823791503906" fill="none" stroke="#000000" stroke-width="0.4765061473846436"/>
	<path d="M 480.98883056640625,275.2823791503906 L 75.44586944580078,298.0959777832031" fill="none" stroke="#000000" stroke-width="0.4765061473846436"/>
</svg>
