<?xml version="1.0" ?>
<svg xmlns="http://www.w3.org/2000/svg" xmlns:ev="http://www.w3.org/2001/xml-events" xmlns:xlink="http://www.w3.org/1999/xlink" baseProfile="full" height="563px" version="1.1" viewBox="58.128565368652346 132.87172637939452 357.87879455566406 335.76042297363284" width="600px">
	<defs/>
	<path d="M 88.07595825195312,160.97592163085938 L 111.11593627929688,426.70391845703125" fill="none" stroke="#000000" stroke-width="0.2979840087890625"/>
	<path d="M 117.25996398925781,423.6319580078125 L 123.40396118164062,419.02386474609375" fill="none" stroke="#000000" stroke-width="0.2979840087890625"/>
	<path d="M 123.40396118164062,419.02386474609375 L 313.8679504394531,422.095947265625" fill="none" stroke="#000000" stroke-width="0.2979840087890625"/>
	<path d="M 320.01190185546875,423.6319580078125 L 324.61993408203125,426.70391845703125" fill="none" stroke="#000000" stroke-width="0.2979840087890625"/>
	<path d="M 324.61993408203125,426.70391845703125 L 366.0919494628906,435.919921875" fill="none" stroke="#000000" stroke-width="0.2979840087890625"/>
	<path d="M 369.1639099121094,440.5279541015625 L 381.4518737792969,440.5279541015625" fill="none" stroke="#000000" stroke-width="0.2979840087890625"/>
	<path d="M 386.0599670410156,432.847900390625 L 384.5239562988281,263.88787841796875" fill="none" stroke="#000000" stroke-width="0.2979840087890625"/>
	<path d="M 381.4518737792969,262.3519287109375 L 378.3798828125,227.02392578125" fill="none" stroke="#000000" stroke-width="0.2979840087890625"/>
	<path d="M 376.84393310546875,227.02392578125 L 373.7719421386719,203.98391723632812" fill="none" stroke="#000000" stroke-width="0.2979840087890625"/>
	<path d="M 372.23590087890625,202.44790649414062 L 370.69989013671875,190.15994262695312" fill="none" stroke="#000000" stroke-width="0.2979840087890625"/>
	<path d="M 367.6279296875,187.08792114257812 L 367.6279296875,180.9439697265625" fill="none" stroke="#000000" stroke-width="0.2979840087890625"/>
	<path d="M 366.0919494628906,179.407958984375 L 366.0919494628906,173.26394653320312" fill="none" stroke="#000000" stroke-width="0.2979840087890625"/>
	<path d="M 361.48388671875,176.33590698242188 L 333.8359375,179.407958984375" fill="none" stroke="#000000" stroke-width="0.2979840087890625"/>
	<path d="M 332.2999572753906,180.9439697265625 L 324.61993408203125,180.9439697265625" fill="none" stroke="#000000" stroke-width="0.2979840087890625"/>
	<path d="M 321.5479431152344,184.01596069335938 L 141.83596801757812,171.72796630859375" fill="none" stroke="#000000" stroke-width="0.2979840087890625"/>
	<path d="M 141.83596801757812,171.72796630859375 L 118.79591369628906,171.72796630859375" fill="none" stroke="#000000" stroke-width="0.2979840087890625"/>
	<path d="M 115.72395324707031,168.65591430664062 L 106.50796508789062,168.65591430664062" fill="none" stroke="#000000" stroke-width="0.2979840087890625"/>
	<path d="M 104.97193908691406,167.11990356445312 L 92.68391418457031,167.11990356445312" fill="none" stroke="#000000" stroke-width="0.2979840087890625"/>
	<path d="M 97.29196166992188,302.2879638671875 L 352.26788330078125,306.8958740234375" fill="none" stroke="#000000" stroke-width="0.2979840087890625"/>
	<path d="M 353.80389404296875,308.431884765625 L 359.94793701171875,308.431884765625" fill="none" stroke="#000000" stroke-width="0.2979840087890625"/>
	<path d="M 361.48388671875,309.96795654296875 L 373.7719421386719,309.96795654296875" fill="none" stroke="#000000" stroke-width="0.2979840087890625"/>
	<path d="M 375.3079528808594,306.8958740234375 L 381.4518737792969,306.8958740234375" fill="none" stroke="#000000" stroke-width="0.2979840087890625"/>
	<path d="M 247.81997680664062,188.62396240234375 L 258.5719299316406,308.431884765625" fill="none" stroke="#000000" stroke-width="0.2979840087890625"/>
	<path d="M 258.5719299316406,308.431884765625 L 263.1799621582031,316.11187744140625" fill="none" stroke="#000000" stroke-width="0.2979840087890625"/>
	<path d="M 263.1799621582031,316.11187744140625 L 260.10791015625,414.41583251953125" fill="none" stroke="#000000" stroke-width="0.2979840087890625"/>
	<path d="M 92.68391418457031,171.72796630859375 L 115.72395324707031,182.47994995117188" fill="none" stroke="#000000" stroke-width="0.2979840087890625"/>
	<path d="M 115.72395324707031,182.47994995117188 L 169.48394775390625,234.7039794921875" fill="none" stroke="#000000" stroke-width="0.2979840087890625"/>
	<path d="M 172.55593872070312,239.31195068359375 L 180.23590087890625,246.99188232421875" fill="none" stroke="#000000" stroke-width="0.2979840087890625"/>
	<path d="M 181.77194213867188,246.99188232421875 L 187.9158935546875,256.2078857421875" fill="none" stroke="#000000" stroke-width="0.2979840087890625"/>
	<path d="M 189.45193481445312,256.2078857421875 L 194.05996704101562,260.81597900390625" fill="none" stroke="#000000" stroke-width="0.2979840087890625"/>
	<path d="M 194.05996704101562,262.3519287109375 L 229.387939453125,296.1439208984375" fill="none" stroke="#000000" stroke-width="0.2979840087890625"/>
	<path d="M 235.53192138671875,305.35992431640625 L 263.1799621582031,323.79193115234375" fill="none" stroke="#000000" stroke-width="0.2979840087890625"/>
	<path d="M 263.1799621582031,323.79193115234375 L 280.0759582519531,336.0799560546875" fill="none" stroke="#000000" stroke-width="0.2979840087890625"/>
	<path d="M 284.68389892578125,343.75994873046875 L 309.2598876953125,359.1199951171875" fill="none" stroke="#000000" stroke-width="0.2979840087890625"/>
	<path d="M 327.69189453125,377.552001953125 L 336.90789794921875,383.6959228515625" fill="none" stroke="#000000" stroke-width="0.2979840087890625"/>
	<path d="M 349.1959533691406,392.91192626953125 L 353.80389404296875,397.51983642578125" fill="none" stroke="#000000" stroke-width="0.2979840087890625"/>
	<path d="M 361.48388671875,405.199951171875 L 366.0919494628906,408.27191162109375" fill="none" stroke="#000000" stroke-width="0.2979840087890625"/>
</svg>
