<?xml version="1.0" ?>
<svg xmlns="http://www.w3.org/2000/svg" xmlns:ev="http://www.w3.org/2001/xml-events" xmlns:xlink="http://www.w3.org/1999/xlink" baseProfile="full" height="428px" version="1.1" viewBox="81.26248490905762 115.94085404968261 378.17092251586917 269.4220943908691" width="600px">
	<defs/>
	<path d="M 112.90792846679688,138.52389526367188 L 134.41189575195312,333.595947265625" fill="none" stroke="#000000" stroke-width="0.3148800354003906"/>
	<path d="M 135.94793701171875,335.1319580078125 L 318.73193359375,341.2760009765625" fill="none" stroke="#000000" stroke-width="0.3148800354003906"/>
	<path d="M 320.2679443359375,335.1319580078125 L 340.23590087890625,161.56393432617188" fill="none" stroke="#000000" stroke-width="0.3148800354003906"/>
	<path d="M 341.77197265625,161.56393432617188 L 341.77197265625,155.41995239257812" fill="none" stroke="#000000" stroke-width="0.3148800354003906"/>
	<path d="M 341.77197265625,155.41995239257812 L 283.4039306640625,146.20394897460938" fill="none" stroke="#000000" stroke-width="0.3148800354003906"/>
	<path d="M 283.4039306640625,146.20394897460938 L 148.23593139648438,146.20394897460938" fill="none" stroke="#000000" stroke-width="0.3148800354003906"/>
	<path d="M 143.6279296875,143.1319580078125 L 120.58792114257812,143.1319580078125" fill="none" stroke="#000000" stroke-width="0.3148800354003906"/>
	<path d="M 335.6279296875,160.0279541015625 L 358.66796875,173.8519287109375" fill="none" stroke="#000000" stroke-width="0.3148800354003906"/>
	<path d="M 358.66796875,175.38787841796875 L 381.7078857421875,184.60394287109375" fill="none" stroke="#000000" stroke-width="0.3148800354003906"/>
	<path d="M 383.243896484375,187.67596435546875 L 423.17987060546875,218.3958740234375" fill="none" stroke="#000000" stroke-width="0.3148800354003906"/>
	<path d="M 427.7879638671875,221.46795654296875 L 352.52392578125,355.09991455078125" fill="none" stroke="#000000" stroke-width="0.3148800354003906"/>
	<path d="M 352.52392578125,355.09991455078125 L 346.3798828125,361.243896484375" fill="none" stroke="#000000" stroke-width="0.3148800354003906"/>
	<path d="M 344.843994140625,362.7799072265625 L 321.80389404296875,362.7799072265625" fill="none" stroke="#000000" stroke-width="0.3148800354003906"/>
	<path d="M 119.05194091796875,160.0279541015625 L 318.73193359375,295.19586181640625" fill="none" stroke="#000000" stroke-width="0.3148800354003906"/>
	<path d="M 318.73193359375,296.73187255859375 L 324.8759765625,309.0198974609375" fill="none" stroke="#000000" stroke-width="0.3148800354003906"/>
	<path d="M 326.4119873046875,309.0198974609375 L 327.94793701171875,319.77191162109375" fill="none" stroke="#000000" stroke-width="0.3148800354003906"/>
</svg>
