
			<svg xmlns="http://www.w3.org/2000/svg" width="500" height="500" >
				<path d="M68,170.5 L68.5,193.5 L68.5,193.5 L69,200 L69,206.5 L69,213.5 L69,220 L69,226 L69,233 L69,239.5 L69,246 L69,251.5 L69,257.5 L69,264 L69,270.5 L69,276 L69,281 L69,287 L69,293 L68.5,298.5 L68,304 L67.5,310.5 L67.5,316.5 L67.5,322.5 L67,329 L67,335.5 L67,341 L67,346.5 L67,351.5 L67,356.5 L67,361.5 L67,366.5 L67,371 L66.5,376 L66.5,379 L66.5,381.5 L66.5,384 L66.5,385.5 L66.5,386.5 L66.5,387 L67.5,387 L68.5,387 L69.5,387 L71,387 L74,387 L79,387 L87,387 L96,387 L105.5,387 L115.5,387 L125.5,387.5 L135.5,388 L145,388.5 L155,388.5 L164,388.5 L173,389 L182.5,389.5 L193,389.5 L204,389.5 L216,389.5 L226.5,389.5 L236.5,389.5 L244.5,389.5 L253,389.5 L261.5,389.5 L269.5,389.5 L278,389.5 L285,389.5 L292.5,389.5 L299.5,389.5 L305.5,389.5 L311.5,389.5 L318,389.5 L323.5,389.5 L328,390 L332,390 L335,390.5 L337.5,390.5 L339.5,391 L340.5,391 L341.5,391 L341.5,389.5 L341.5,387.5 L341.5,385 L341.5,381.5 L341.5,375 L341.5,365.5 L342.5,356 L342.5,346.5 L342.5,338.5 L342.5,331 L342.5,322.5 L342.5,313.5 L342.5,303.5 L342.5,295 L342.5,287 L342.5,279.5 L342.5,272.5 L342.5,265.5 L341.5,257 L341,250 L340.5,243 L340,235.5 L339.5,229.5 L339,223.5 L338.5,217 L338.5,209 L338.5,201 L338.5,194.5 L338.5,189 L338.5,185.5 L338,182 L338,179.5 L338,177.5 L337.5,176.5 L337,176 L336.5,176 L335,176 L334.5,176 L334,176 L333,176 L331,176 L328.5,176 L326,176 L324,176 L322,176 L319,176 L314.5,176 L311,176.5 L306.5,176.5 L301,177 L294.5,177 L286,177 L278,177 L270,177 L262.5,177 L254.5,177 L245.5,177 L236,177 L227,177 L219,177 L211,177 L201.5,177 L192,177 L183,177 L175.5,177 L167.5,177 L160,177 L151.5,177 L143.5,177 L136.5,177 L130,177 L124,176.5 L118.5,176 L113.5,176 L109,176 L105,176 L101,175.5 L96.5,175 L92.5,175 L89.5,174.5 L87,174.5 L85,174 L83.5,174 L83,174 L82.5,174 L82,173.5 L81.5,173.5 L81,173.5 L80.5,173.5 L80.5,173 L80,173 L79.5,173" stroke="black" stroke-width="2" fill="none"/>
<path d="M326,174 L348.5,190 L348.5,190 L355,196.5 L362.5,203 L369,208.5 L375.5,214.5 L381.5,219 L386.5,224 L391,228.5 L395.5,233 L400,238 L404.5,242.5 L408.5,247 L412,251 L414.5,254.5 L417,258 L420,262 L422,265.5 L425,268.5 L427,271 L428,272.5 L428.5,273.5 L428.5,274.5 L428.5,275.5 L428.5,276 L428.5,277 L428,278 L426,279 L424,280.5 L421.5,284 L418.5,287.5 L415,293 L410,300 L404.5,308.5 L399,317 L394,324.5 L389.5,331.5 L385.5,337.5 L382,343 L378.5,348 L375,352.5 L371.5,356.5 L368.5,359.5 L365,363.5 L361.5,366.5 L358.5,369 L355,371.5 L352.5,373 L350.5,375 L349,376.5 L348,377.5 L347,378.5 L346.5,378.5" stroke="black" stroke-width="2" fill="none"/>
<path d="M338.5,184 L319,195.5 L319,195.5 L311.5,202 L303,210 L292.5,219 L283,227.5 L273.5,236 L264,244.5 L253.5,252.5 L243,260.5 L233,267.5 L223.5,274.5 L215,281 L207,287.5 L198.5,294 L190,300.5 L180.5,307.5 L171,314 L161.5,320 L152.5,326 L144,332 L135.5,337.5 L128.5,342.5 L121,347 L114,352 L107.5,357 L101,361.5 L96,365 L91.5,368.5 L87.5,371.5 L84,374.5 L81.5,376.5 L79,378 L76.5,379.5 L74.5,381 L72.5,382 L71,383 L70,384 L69,384.5 L68.5,385 L67.5,385.5 L67,386 L67,386.5" stroke="black" stroke-width="2" fill="none"/>
<path d="M67,165 L83,175.5 L83,175.5 L86.5,178.5 L90.5,182 L96,188 L102.5,195 L110,201 L116.5,206.5 L122,211 L128.5,216 L133.5,220.5 L139,224.5 L143.5,228 L149,232 L154,235.5 L159,240 L164,243.5 L168.5,246.5 L174,250.5 L179,254.5 L185,259 L192,264 L198.5,268.5 L205,273.5 L212.5,278.5 L219,284 L225.5,289 L233,294.5 L240,300 L247,306 L255.5,312.5 L263.5,319 L271.5,325.5 L279,331 L285.5,335.5 L291.5,339.5 L296.5,343 L300.5,346.5 L303.5,349.5 L306.5,353 L309.5,356.5 L312.5,359 L316,362 L318.5,364.5 L320.5,367.5 L322.5,370.5 L325,374.5 L327.5,378 L329.5,381 L331.5,383.5 L333,385.5 L334.5,387.5 L335.5,389 L336.5,390" stroke="black" stroke-width="2" fill="none"/>
<path d="M204.5,181 L205.5,206 L205.5,206 L206,216.5 L207,225.5 L208,233 L209,240.5 L210,248 L211.5,257 L212.5,266 L213.5,274.5 L214.5,281 L214.5,288 L215,294 L215.5,301 L215.5,308 L216,314 L216,321 L216.5,329.5 L217,338 L217.5,346.5 L218,355.5 L218.5,364 L218.5,371.5 L219,378.5 L219,383.5 L219.5,387 L220,389 L220.5,390 L220.5,390.5 L220.5,390" stroke="black" stroke-width="2" fill="none"/>
<path d="M433.5,282 L407,280 L407,280 L400,280 L393,280 L386,280 L376.5,281 L367,281 L356.5,281.5 L347.5,282 L339,282 L330.5,283 L321.5,283.5 L311.5,283.5 L302,283.5 L292,283.5 L284,284 L275.5,284 L266,284 L257,284 L247,284 L238.5,284 L230,284 L222,284.5 L213,284.5 L203,284.5 L193.5,284.5 L184.5,284.5 L176.5,284.5 L169.5,284.5 L162.5,284.5 L156,284.5 L150,284.5 L143.5,284.5 L138.5,284.5 L133.5,284.5 L128.5,284.5 L123.5,284.5 L119,284 L115,284 L111,284 L107.5,284 L103.5,283.5 L100,283.5 L96.5,283 L93.5,283 L90.5,283 L88,283 L84.5,283 L81.5,282 L79.5,282 L78,281.5 L77,281.5 L76,281.5 L75,281.5 L74.5,281 L74,281 L73.5,281 L73.5,280.5 L73,280.5 L72.5,280.5 L72,280.5 L71.5,279.5 L71.5,279" stroke="black" stroke-width="2" fill="none"/>
<path d="M201,188.5 L202,167 L202,167 L202,158.5 L202,151.5 L202,144 L202,138.5 L202,132 L202,126 L202,118.5 L202,112.5 L202,108 L202,105 L202,103 L202,100.5 L202,98 L202,96.5 L202,95 L202,94 L202.5,94 L203.5,94 L204.5,94 L207,94 L210,94.5 L215,96 L220,98.5 L225.5,101.5 L230.5,104.5 L236,107.5 L241,111 L246,114.5 L250.5,118.5 L255.5,123 L260.5,126.5 L264.5,130 L268.5,133.5 L272.5,137 L277,140.5 L281.5,144.5 L285.5,148.5 L290,152 L294.5,155 L298.5,158 L302,161 L306,164 L309.5,166.5 L313.5,169.5 L318,171.5 L321,173.5 L324,175.5 L326,177 L328,178 L329.5,179 L330.5,180 L330.5,180.5 L330,180.5" stroke="black" stroke-width="2" fill="none"/>
<path d="M357.5,200 L358,230.5 L358,230.5 L358,239.5 L359,247.5 L359.5,256 L360.5,266 L361,276 L361.5,286.5 L362,295 L362.5,303 L362.5,310.5 L363,317.5 L363,324.5 L363.5,331.5 L364,337 L364.5,342 L364.5,346.5 L364.5,350.5 L364.5,354 L364.5,356.5 L364.5,358.5 L364.5,359.5 L364.5,360" stroke="black" stroke-width="2" fill="none"/>
<path d="M232.5,174 L235.5,200 L235.5,200 L236.5,206.5 L237.5,215 L238.5,222.5 L239.5,228.5 L240.5,234 L241,239.5 L241.5,245.5 L242,250.5 L242.5,255 L242.5,258.5 L242.5,261 L243,263 L243.5,265 L244,266 L244,267" stroke="black" stroke-width="2" fill="none"/>
<path d="M197,204.5 L167,203.5 L167,203.5 L159.5,203 L152,202 L144,201.5 L136.5,201.5 L130,201 L124,201 L119.5,200.5 L115.5,200 L112.5,199.5 L111,199 L110.5,199" stroke="black" stroke-width="2" fill="none"/>
<path d="M205.5,229.5 L174.5,230 L174.5,230 L167.5,230 L161.5,230 L157,230 L153.5,230 L151.5,230 L150,230 L149.5,230" stroke="black" stroke-width="2" fill="none"/>
<path d="M208,252.5 L186.5,251.5 L186.5,251.5 L183,251.5 L180,251.5 L178,251.5 L177.5,251.5 L177,251.5" stroke="black" stroke-width="2" fill="none"/>
<path d="M139.5,222.5 L139.5,249.5 L139.5,249.5 L140,257.5 L141,265 L142,271 L143,276 L143.5,280 L143.5,284.5 L143.5,288.5 L144,292.5 L144.5,296 L145,299 L145.5,301.5 L145.5,304 L145.5,307 L146,309.5 L146,312.5 L146,314.5 L146,316 L146.5,318 L146.5,319.5 L146.5,321.5 L146.5,322.5 L146.5,323.5 L147,325 L147,326 L147,326.5 L146.5,326.5 L146,326.5 L145.5,326.5 L144.5,326.5 L143,326.5 L141,326.5 L139,326.5 L136,326.5 L132.5,326.5 L128.5,326.5 L124,326.5 L119.5,326.5 L115,326.5 L110.5,326.5 L105.5,326.5 L101.5,326.5 L98,326.5 L95,326.5 L91.5,326.5 L88.5,326.5 L85,326.5 L82,326.5 L79.5,326.5 L77,326.5 L74.5,326.5 L72,326.5 L70,326.5 L68.5,326.5 L68,326.5 L67,326.5 L66.5,326.5 L67,325.5" stroke="black" stroke-width="2" fill="none"/>
<path d="M142,226 L111.5,226 L111.5,226 L103,225.5 L95,224.5 L89,224 L84.5,223.5 L81.5,223 L79.5,223 L77.5,222.5 L76.5,222.5 L75.5,222.5 L75,222.5" stroke="black" stroke-width="2" fill="none"/>
<path d="M138,227.5 L121,251 L121,251 L116.5,257 L112.5,263.5 L108.5,269 L104.5,274 L101,279 L98,284 L95,288.5 L93,292.5 L90.5,296.5 L88,300 L84.5,304 L82,307.5 L79.5,310.5 L77,313.5 L75,316 L73,318.5 L71.5,320.5 L70.5,321.5 L69.5,323 L69,324 L68.5,325 L68.5,325.5" stroke="black" stroke-width="2" fill="none"/>
<path d="M70.5,221.5 L83.5,241 L83.5,241 L88,246 L92,252 L97,259 L101.5,266 L105.5,272 L110.5,278.5 L115,285.5 L119,292 L122.5,297.5 L126,303 L129.5,309.5 L133,315 L136.5,320.5 L139,324.5 L141.5,328.5 L143.5,331.5 L145,334 L146.5,336.5 L147.5,337.5 L147.5,338" stroke="black" stroke-width="2" fill="none"/>
<path d="M30.5,85.5 L30,113 L30,113 L30,125 L30.5,138 L31.5,151 L32.5,163 L33.5,174 L34.5,183 L35,193 L35,204 L35,216.5 L35,227 L34.5,236 L34.5,243.5 L34.5,249.5 L34.5,254 L34.5,257.5 L34.5,260 L34.5,261" stroke="black" stroke-width="2" fill="none"/>
<path d="M77,202 L54.5,202 L54.5,202 L48.5,202 L43,202 L39.5,202 L37,202 L36,202 L35,202 L35,202.5" stroke="black" stroke-width="2" fill="none"/>
<path d="M55.5,118.5 L20.5,119 L20.5,119 L14.5,119.5 L10.5,119.5 L9,119.5 L7.5,119.5" stroke="black" stroke-width="2" fill="none"/>
<path d="M66.5,376 L67,399 L67,399 L67,405.5 L67,412 L67,418 L67,423 L67,427 L67,430 L67,433 L67,435.5 L67,438 L67,439.5 L67,440.5 L67,441.5 L67,443 L67,443.5 L67,444 L68,444 L68.5,444 L69.5,444 L70.5,444 L71,444 L72,444 L73,444 L74.5,444 L77,444 L80,444 L85,444 L92.5,444 L99.5,444 L105.5,444 L110.5,444 L114,444 L117,444 L119.5,444 L121,444 L122,444 L123,444 L123,443.5 L123,441.5 L123,439 L123,435 L123,428.5 L123,421 L123,411 L122.5,401 L121.5,392 L121,385.5 L120.5,381 L120.5,378 L120.5,376 L120.5,375.5 L120,375.5" stroke="black" stroke-width="2" fill="none"/>
<path d="M56,378 L76.5,393 L76.5,393 L82.5,399 L88.5,405 L94.5,410.5 L99.5,415.5 L104.5,421 L110,425 L114.5,428.5 L119,432 L122,434.5 L124,436 L124.5,437" stroke="black" stroke-width="2" fill="none"/>
<path d="M268.5,299 L250.5,320 L250.5,320 L247.5,324 L244.5,328.5 L242.5,331.5 L241.5,333.5 L241,334.5" stroke="black" stroke-width="2" fill="none"/>
<path d="M286.5,317.5 L274.5,337.5 L274.5,337.5 L272.5,339.5 L271.5,341 L270.5,342 L269.5,343 L269.5,344 L269.5,344.5" stroke="black" stroke-width="2" fill="none"/>
<path d="M310,324.5 L296.5,346 L296.5,346 L295,349 L293.5,350.5 L292.5,352.5 L292,353.5 L291,354.5 L291,355" stroke="black" stroke-width="2" fill="none"/>
<path d="M319.5,348.5 L309.5,367 L309.5,367 L308.5,368.5 L307.5,370 L307,371 L306.5,371.5 L305,372" stroke="black" stroke-width="2" fill="none"/>
<path d="M130,411 L147.5,412 L147.5,412 L153.5,412 L160.5,412.5 L167.5,413.5 L175.5,414 L182,415 L188.5,415.5 L194.5,416 L200.5,416.5 L206,417 L212.5,417.5 L219,418 L225.5,419 L232.5,420 L239,420.5 L245,421 L250.5,421.5 L255.5,421.5 L260.5,421.5 L264.5,421.5 L268.5,421.5 L272.5,421.5 L276,421.5 L279,421.5 L281,421.5 L283.5,421.5 L285.5,421.5 L286.5,421.5 L287.5,421.5 L286.5,422.5" stroke="black" stroke-width="2" fill="none"/>
<path d="M253.5,402 L253,423.5 L253,423.5 L253,426.5 L253,428.5 L253,430 L253,431 L253,431.5" stroke="black" stroke-width="2" fill="none"/>
			</svg>
		