
			<svg xmlns="http://www.w3.org/2000/svg" width="500" height="500" style="background-color: white;">
				<path d="M60,195.5 L57.5,219.5 L57.5,219.5 L57.5,229 L58.5,240 L59.5,252 L60.5,264.5 L61.5,276.5 L63,289.5 L65,302 L66,314.5 L67,327 L68,340 L68.5,352 L69,362.5 L69.5,373 L70,382.5 L70.5,391.5 L71.5,401.5 L72.5,410.5 L73.5,419 L74,426.5 L74,433.5 L74,440.5 L74,446.5 L74,451.5 L74,456 L74,460.5 L74,464.5 L74,467 L74,468.5 L74,469.5 L74,470.5 L74,471" stroke="black" stroke-width="2" fill="none"/>
<path d="M368,171 L337.5,170.5 L337.5,170.5 L328,170.5 L318.5,170 L308,170 L297,170 L285,170 L274.5,169.5 L263,169.5 L252.5,169.5 L241,169.5 L229.5,169.5 L218.5,169.5 L207,169.5 L196.5,169.5 L185,169.5 L175,169.5 L164.5,169.5 L155,169.5 L146,169.5 L137.5,169.5 L129,169.5 L120.5,169.5 L112.5,169.5 L104.5,169.5 L97,169.5 L90,169.5 L83,169.5 L77,169.5 L71.5,169.5 L67,169.5 L62.5,169.5 L60,169.5 L58,169.5 L57.5,169.5 L57,170.5 L56.5,171.5 L56,173 L55.5,174.5 L55,176 L55,177.5 L54.5,179.5 L54.5,181.5 L54.5,184.5 L54.5,188 L55,192.5 L56,197 L56,204.5 L56,215" stroke="black" stroke-width="2" fill="none"/>
<path d="M363,174.5 L364,209 L364,209 L364,217.5 L364,225.5 L365,234.5 L365,244.5 L365,256.5 L365,269 L365,282 L365,294 L365,306 L365,317 L365,328 L364.5,338 L364,347.5 L364,356.5 L364,365 L364,372 L364,376.5 L364,379 L364,381 L364,382.5 L364,383.5 L364,384.5 L363,384.5 L361,384.5 L358,384.5 L353.5,384.5 L348,384.5 L342,384.5 L335,384.5 L328,384.5 L319,384.5 L308.5,384.5 L298,384.5 L286,384.5 L275.5,384.5 L263.5,384.5 L251.5,384.5 L239.5,384.5 L226.5,384 L214.5,383 L202,382.5 L190,381 L177.5,380 L165,379 L153.5,378 L142,378 L131,378 L120.5,378 L111,378 L101.5,378 L94,378 L87,378 L80,378 L74,378 L69,378 L64,378 L60.5,378 L58,378 L56,378 L54,378 L53,378 L53,377" stroke="black" stroke-width="2" fill="none"/>
<path d="M170.5,385.5 L170,413.5 L170,413.5 L170.5,423.5 L170.5,434.5 L170.5,444 L170.5,451 L170.5,456.5 L170.5,460 L170.5,462 L170.5,463.5 L170.5,464 L170,464 L166,464 L160,464 L153,464.5 L144.5,465 L136,465 L126.5,465 L118.5,465 L111.5,465 L105,465 L100.5,465 L97,465 L94.5,465 L92.5,465 L90,465 L88.5,465 L87.5,465 L87,465 L84,465" stroke="black" stroke-width="2" fill="none"/>
<path d="M76,384 L102,401.5 L102,401.5 L111.5,409 L120,416.5 L129.5,424.5 L138.5,432 L146.5,438 L154,443.5 L159.5,448 L164,451 L167.5,454 L170,456 L171,457.5 L171.5,458.5" stroke="black" stroke-width="2" fill="none"/>
<path d="M347,433.5 L313,433.5 L313,433.5 L303,433.5 L292,433.5 L281.5,433.5 L270,433.5 L259.5,433.5 L248,433.5 L237,433.5 L226,433.5 L216.5,433.5 L207.5,433.5 L201,432.5 L194.5,432 L187.5,431 L181.5,430.5 L176,430.5 L171.5,430.5 L168.5,430.5 L167.5,430.5 L167.5,430" stroke="black" stroke-width="2" fill="none"/>
<path d="M308,421.5 L309.5,455 L309.5,455 L309.5,459.5 L309.5,461.5 L309.5,462" stroke="black" stroke-width="2" fill="none"/>
<path d="M229.5,431 L227,390.5 L227,390.5 L226,376.5 L224.5,362 L223,348 L222,335 L221,319 L220.5,303 L220,287 L219.5,271.5 L219.5,256.5 L219,240 L218.5,224.5 L216.5,212.5 L214.5,201 L212.5,191.5 L211,181 L209,169 L207.5,156 L206.5,146 L206,138.5 L205.5,132.5 L205,125 L204,115.5 L203.5,108.5 L203,104.5 L203,102 L203,100.5 L202.5,98.5 L202.5,96.5 L202.5,95.5 L202.5,95 L201,95" stroke="black" stroke-width="2" fill="none"/>
<path d="M199,98.5 L223.5,100.5 L223.5,100.5 L229.5,103.5 L236.5,106.5 L243,109.5 L249,113 L255,115.5 L261,117.5 L266.5,119.5 L272,122 L278,124 L283,125.5 L287.5,127.5 L292.5,129 L297.5,131 L302,133.5 L306.5,135.5 L311,138 L316,140 L320,142.5 L324,145.5 L327.5,148.5 L331.5,150.5 L335.5,153 L340,155 L343.5,157 L347,158.5 L350.5,160.5 L353,162 L356,164 L359,166.5 L361,168 L362.5,169.5 L363.5,171 L364.5,172 L365,173 L365.5,174" stroke="black" stroke-width="2" fill="none"/>
<path d="M355.5,178 L373.5,184.5 L373.5,184.5 L376.5,187 L380.5,190.5 L384.5,194 L389,198.5 L393,203 L397,207.5 L401,212 L404,216 L407.5,220 L411,224 L415,228 L418.5,232.5 L422.5,237 L426,241 L429.5,244.5 L433,248 L436.5,250.5 L440,253.5 L443.5,255.5 L446,258.5 L448,260.5 L449.5,263 L451,264.5 L452,266 L453,267 L453.5,267.5 L454,267.5 L454,268 L454,268.5 L454,269 L454,269.5 L453,270.5 L451.5,272 L449,275 L445.5,280.5 L441,287.5 L435,296 L429.5,305 L424.5,312 L420,319 L415,326.5 L411,333.5 L406.5,340 L402,346 L397.5,351.5 L394,356 L390,360 L385.5,364 L382,367.5 L378.5,371.5 L375.5,374.5 L373,377.5 L371,380 L369,382 L368,383.5 L367,384.5 L367,385" stroke="black" stroke-width="2" fill="none"/>
<path d="M391.5,194.5 L391,224.5 L391,224.5 L391,232 L391,240 L391,248.5 L391,257.5 L391,265.5 L391,273 L391,281.5 L391,289 L391,296.5 L391,304 L391,311.5 L391,318 L391,325 L391,331 L391,336 L391,341 L391.5,345 L392,349 L392,352 L392,354.5 L392,356.5 L392,357.5" stroke="black" stroke-width="2" fill="none"/>
<path d="M443.5,262.5 L419,265 L419,265 L412.5,265.5 L405.5,266 L397,266 L388,266 L379,266.5 L370,267 L361,268 L351,268 L340.5,268.5 L330,269 L320.5,270 L310.5,271 L301.5,271.5 L291,271.5 L281,271.5 L270.5,271.5 L260.5,272 L250,272.5 L239.5,272.5 L228.5,272.5 L218,272.5 L207.5,272.5 L198,272.5 L188.5,273 L180,273.5 L171.5,273.5 L162.5,274 L154.5,274.5 L147,275 L140.5,275.5 L134.5,276 L129,276 L123,276.5 L117,276.5 L111.5,277 L106,277 L101.5,277 L97.5,277 L94,277 L91,277 L88,277 L85,277 L82.5,277 L80.5,277 L79,277 L77,277 L75,277 L73,277 L71,277 L69.5,277 L68,277 L67.5,277 L66.5,277" stroke="black" stroke-width="2" fill="none"/>
<path d="M368.5,179 L333.5,194.5 L333.5,194.5 L323,201 L312,207.5 L301.5,214.5 L291,220.5 L281.5,227.5 L271,235 L261,242.5 L250.5,249.5 L240.5,256.5 L230.5,263.5 L221,269.5 L211.5,275.5 L202.5,281.5 L194,286.5 L185.5,291.5 L178,295.5 L171,299.5 L164,303.5 L157.5,307 L151.5,310.5 L145,314.5 L139,318 L133.5,321.5 L129,325 L124,329 L120,331.5 L116.5,334 L113,336.5 L109,338.5 L105,341 L102,343 L99,344.5 L96.5,346 L94,348 L91.5,350 L89,352 L87,353.5 L85,354.5 L83.5,355.5 L82.5,356.5 L81.5,357 L81,357.5 L80.5,358 L79.5,359 L79,359.5 L78,360 L77.5,360.5 L76.5,361 L76,361.5 L75,362.5 L74,363.5 L73.5,364 L72.5,365 L72,365.5 L71.5,365.5" stroke="black" stroke-width="2" fill="none"/>
<path d="M59,178.5 L93,197 L93,197 L101,202.5 L109,207 L116,212 L123,217 L131,222 L138.5,227 L146,232 L154,238 L161.5,243 L168,247.5 L174.5,252 L181,257.5 L188,261.5 L194.5,265.5 L200.5,269 L205.5,272 L211.5,275.5 L217,279 L222.5,282.5 L228.5,286.5 L235,290 L240.5,293.5 L246,297 L251.5,300 L257,303.5 L262,306.5 L267,309.5 L272,312.5 L277.5,316 L282,319 L287,322 L291.5,325 L296.5,328.5 L300,331.5 L304,334 L307.5,336.5 L311,338.5 L314,341 L317.5,343.5 L320.5,345.5 L323,348 L325.5,351 L327.5,353 L330,355.5 L332,357.5 L334,360 L337,361.5 L338.5,363 L340.5,364.5 L342.5,366.5 L344,368 L345.5,369.5 L347,370.5 L348.5,372.5 L349.5,373.5 L350.5,374.5 L351.5,375 L352.5,375 L353,375 L353,375.5 L353,378.5" stroke="black" stroke-width="2" fill="none"/>
<path d="M253.5,175.5 L253,203.5 L253,203.5 L253,209 L254,215 L254,220 L254,225.5 L254,231 L254,235.5 L254,239 L254,241 L254,242.5 L254,244 L254,245 L254,246 L254.5,246" stroke="black" stroke-width="2" fill="none"/>
<path d="M277.5,290.5 L262.5,312 L262.5,312 L259.5,317.5 L256,323 L253,328 L250,331 L248.5,333 L248,334" stroke="black" stroke-width="2" fill="none"/>
<path d="M310,310.5 L293.5,335 L293.5,335 L290.5,339.5 L288.5,343 L287.5,345 L287,346 L286.5,347.5 L286.5,349" stroke="black" stroke-width="2" fill="none"/>
<path d="M341.5,335.5 L327.5,359.5 L327.5,359.5 L325,363 L323.5,366 L322,367.5 L319,369.5 L316.5,372.5" stroke="black" stroke-width="2" fill="none"/>
<path d="M454,267.5 L442.5,294 L442.5,294 L440,299.5 L438.5,305 L437,309.5 L435.5,314 L434.5,318 L433.5,321.5 L432.5,324 L432.5,326 L432.5,327 L432.5,327.5 L433,327.5 L433.5,327.5 L434.5,328 L435.5,330 L436.5,332 L438,334.5 L439.5,336.5 L442,339.5 L444,342.5 L446.5,346 L449.5,349.5 L452.5,353 L455,356 L457,359 L458.5,361.5 L459.5,363 L460.5,364 L461.5,365 L462,365 L462.5,365 L463,365 L464,363.5 L465,359.5 L467.5,352.5 L471,342.5 L474.5,333.5 L477,328 L478.5,324 L479.5,322 L480.5,320.5 L480.5,320 L480.5,319.5 L480.5,318 L480.5,315.5 L479,312 L476,307.5 L473,302 L470.5,297.5 L468,294 L466,290.5 L463.5,287 L461.5,283 L459,279 L457,276.5 L455.5,274 L454,272 L453.5,270.5 L453.5,270 L453.5,269.5 L453,269.5 L451,269.5" stroke="black" stroke-width="2" fill="none"/>
<path d="M60,247 L38,246 L38,246 L35.5,246 L33.5,246 L32.5,246 L32,245.5 L31,245.5 L31,245 L31,244 L30.5,242 L30,239 L29,235 L28.5,230 L27.5,225.5 L26.5,219.5 L26,212.5 L25.5,204 L25.5,195.5 L25.5,187 L25.5,179.5 L25,172.5 L25,165 L25,157 L25,149 L25,140.5 L25,133 L24.5,126.5 L24.5,121 L24.5,114.5 L24.5,108.5 L24.5,101 L24.5,93 L24.5,86.5 L24.5,81.5 L24.5,77.5 L24.5,73 L24.5,69 L24.5,65 L24.5,61.5 L24.5,58 L24.5,55 L25,52.5 L25.5,49.5 L26,47.5 L26.5,46 L26.5,44.5 L27,42.5 L27,41 L27,40 L27,39 L27,38 L27,36.5 L27,35.5 L27,34.5 L27,33.5 L27,33 L27,32.5 L27,31.5 L27,31" stroke="black" stroke-width="2" fill="none"/>
<path d="M57,81 L27.5,80.5 L27.5,80.5 L20,81.5 L13.5,82 L8,82 L3.5,82 L0,82 L-3.5,82" stroke="black" stroke-width="2" fill="none"/>
<path d="M24.5,184.5 L25,202.5 L25,202.5 L25,205 L25,207 L25,209 L25,212 L25,214.5 L25,217 L25.5,219.5 L26,222.5 L27,224.5 L27.5,227 L28,229 L28,231 L28.5,233 L29,236.5 L30,239 L30,241.5 L30.5,243.5 L30.5,246 L31,248.5 L31.5,251.5 L32,254 L32,256 L32.5,258.5 L33,260.5 L33,263.5 L33.5,266 L33.5,268.5 L33.5,270.5 L33.5,273 L33.5,275.5 L33.5,278 L34,281.5 L34,284 L34,287 L34,290 L34,293 L34.5,296.5 L34.5,299 L35,301.5 L35,304.5 L35.5,307 L35.5,309.5 L36,311.5 L36,313 L36,314.5 L36.5,316.5 L36.5,317.5 L37,319 L37,320 L37,321 L37,322 L37.5,322.5 L37.5,323.5 L37.5,324 L37.5,324.5 L37.5,325 L37.5,326" stroke="black" stroke-width="2" fill="none"/>
<path d="M130,224.5 L110,223 L110,223 L104.5,222 L99,222 L93.5,222 L88,222 L83.5,222 L80.5,222 L78.5,222 L77,222 L76,222 L75,222 L74,222 L73,222 L72.5,222 L72,222 L71.5,222 L71,222 L70,222 L68.5,222 L66.5,222 L65,222 L63,222 L62.5,222 L61.5,222 L60.5,222 L59,222 L57.5,222 L56.5,222 L55,222" stroke="black" stroke-width="2" fill="none"/>
<path d="M132,219.5 L130,243.5 L130,243.5 L130,248.5 L130,253.5 L130,259 L130,265 L130,271 L130,275.5 L130,279.5 L130,284 L130,288.5 L130,293 L130,297.5 L130,302 L130,306 L130,309.5 L130,313 L130,316 L130,319.5 L130,321.5 L130,322.5 L130,323.5 L130,324.5 L130,326 L130,326.5 L128.5,326.5 L122.5,327 L115,327.5 L107,328 L100,328.5 L95.5,328.5 L91.5,329 L88,329 L84.5,329 L81.5,329 L80,329 L79,329 L78,329 L77,329 L76,329 L75.5,329 L74.5,329 L74,329 L72.5,329 L71,329" stroke="black" stroke-width="2" fill="none"/>
<path d="M129,221.5 L112,252 L112,252 L108,261.5 L104,270 L101,277 L98,283.5 L95,288.5 L92.5,293.5 L90,298 L87.5,303 L85,306.5 L82.5,310 L81,312.5 L79.5,315 L78.5,317 L77.5,318 L76.5,319 L76,320 L75,321 L74,322 L72,324" stroke="black" stroke-width="2" fill="none"/>
<path d="M64,226 L83.5,252 L83.5,252 L90.5,261.5 L96.5,270 L102,277.5 L108,284 L113,288.5 L117,293 L120,297 L122.5,301 L124.5,305.5 L125.5,308.5 L126.5,311 L128,313.5 L129.5,315.5 L130.5,317 L130.5,318 L131,319 L131,319.5 L131,320 L131,322" stroke="black" stroke-width="2" fill="none"/>
<path d="M211,194 L182.5,192.5 L182.5,192.5 L175,192.5 L169.5,192.5 L163.5,192.5 L157.5,192.5 L150.5,192.5 L144,192.5 L139,192.5 L135,192 L130.5,191.5 L125.5,191.5 L120.5,191.5 L116,191.5 L112.5,191.5 L109.5,191 L107.5,191 L105,190.5 L102.5,190 L100.5,189 L99,188 L98.5,187.5 L98.5,187 L97.5,187" stroke="black" stroke-width="2" fill="none"/>
<path d="M216,222.5 L185,221 L185,221 L176.5,221 L170,221 L164,221 L160,221 L157,221 L154,221 L151.5,221 L149.5,221 L147,221 L145.5,221 L144.5,221 L143,221 L142.5,221 L142,221" stroke="black" stroke-width="2" fill="none"/>
<path d="M219.5,252.5 L195.5,251.5 L195.5,251.5 L189,251.5 L183.5,251.5 L179,251.5 L175,251.5 L173,251.5 L172.5,251.5" stroke="black" stroke-width="2" fill="none"/>
<path d="M112,208 L93,208 L93,208 L89.5,207.5 L86,207.5 L83,207.5 L80.5,207.5 L78,207.5 L75.5,207.5 L73,207.5 L71.5,207.5 L70,207.5 L69,207.5 L67.5,207.5 L66.5,207.5 L66,207.5 L65.5,207.5 L63.5,207.5 L62,207.5 L60.5,207.5 L59,207.5 L58.5,207.5" stroke="black" stroke-width="2" fill="none"/>
			</svg>
		