
			<svg xmlns="http://www.w3.org/2000/svg" width="500" height="500" >
				<path d="M65.5,384.5 L63,347.5 L63,347.5 L61.5,335.5 L60.5,323.5 L58.5,309 L56.5,292 L54.5,273.5 L53,256.5 L52,240 L52,225 L51.5,208 L51,192.5 L51,178.5 L51,166.5 L50.5,156.5 L50.5,149.5 L50,144 L50,139 L49.5,135.5 L49.5,133.5 L49.5,132.5 L49.5,132 L49,132 L49.5,131.5 L50.5,131.5 L52.5,130.5 L55.5,130 L59,129 L62.5,128.5 L67.5,128 L72,127 L77.5,126.5 L84,126.5 L91.5,126 L98.5,125.5 L106,125 L115,125 L123,124.5 L131,124.5 L139,124 L146,123.5 L154,123.5 L161,123 L168,122.5 L176,122 L183,122 L191,121.5 L198.5,121.5 L207,121 L216,120.5 L225,120.5 L234.5,120.5 L244.5,120.5 L254.5,120.5 L264.5,120.5 L274.5,120.5 L284,120.5 L292.5,120.5 L300,120.5 L306.5,120.5 L311.5,120.5 L316.5,120.5 L320,120.5 L322.5,120.5 L324,120.5 L326,120.5 L327,120.5 L327.5,120.5 L327.5,121 L327.5,121.5 L327.5,122 L327.5,123 L327.5,123.5 L327.5,124.5 L327.5,126 L327.5,128 L327.5,131.5 L327.5,136.5 L327.5,144 L327.5,152.5 L328,161.5 L329,171 L329.5,179.5 L330.5,189 L330.5,198 L330.5,207.5 L330.5,218 L330.5,228.5 L330.5,241.5 L330.5,257 L330.5,271 L330,286 L330,300.5 L330,313.5 L330,326.5 L330,339 L330,351.5 L330,361.5 L330,370 L330.5,376.5 L331.5,381 L332,384 L332.5,385.5 L332.5,386.5 L332,386.5 L330.5,386.5 L327,386.5 L322,386.5 L314,386.5 L305.5,386.5 L295.5,386.5 L284.5,386.5 L272.5,386.5 L260.5,386.5 L247.5,386 L234.5,385.5 L220.5,384.5 L207,383.5 L193.5,382.5 L179.5,381.5 L165.5,381 L152.5,380.5 L138.5,380 L125.5,379.5 L113.5,379.5 L102,379 L92,378.5 L83,378.5 L76.5,378 L71.5,377.5 L67.5,377.5 L64,377.5 L62,377.5 L60.5,377.5 L59.5,377.5 L59.5,376.5 L59.5,375" stroke="black" stroke-width="2" fill="none"/>
<path d="M326,127.5 L356.5,154.5 L356.5,154.5 L366.5,164 L377.5,173 L389.5,183 L400.5,192.5 L411,201.5 L421.5,211.5 L430.5,219.5 L438.5,227 L445.5,233 L450.5,237.5 L454,240.5 L455.5,242 L456.5,243.5 L457,244 L457,244.5 L457,245 L457,245.5 L456.5,246 L454.5,248 L451.5,252 L447,258 L441.5,264.5 L435,273 L427.5,283 L420,293 L412,304 L405,313.5 L397.5,324 L390.5,333 L383.5,342 L376.5,350.5 L370,357.5 L364,363.5 L358.5,369 L352.5,373.5 L348,377 L344,380 L340.5,382.5 L337.5,384 L335,385.5 L333.5,386.5 L333,387 L332.5,387 L332.5,387.5" stroke="black" stroke-width="2" fill="none"/>
<path d="M375.5,174.5 L375,222.5 L375,222.5 L375,239.5 L375,257 L376,274.5 L377.5,291.5 L379.5,307 L380.5,319 L381.5,328.5 L382,334 L382,337 L382,338 L382,338.5" stroke="black" stroke-width="2" fill="none"/>
<path d="M50.5,138.5 L73,153 L73,153 L80.5,159 L90,167 L99,175.5 L109.5,183.5 L119.5,193.5 L131,203 L141.5,213.5 L153.5,224 L164.5,234.5 L174.5,243 L184,251.5 L193.5,260 L202,267 L210,274 L218.5,281.5 L226.5,287.5 L234.5,294 L242.5,301 L250,307 L258,313.5 L265.5,320 L272.5,326.5 L280,332.5 L286,337.5 L292,342.5 L297.5,347.5 L301.5,351.5 L305,355 L308,358 L311,361 L313.5,364 L316.5,367 L319,370 L320.5,373 L322.5,376 L324.5,378.5 L326.5,380.5 L328,382 L329,384 L330,385 L331,386 L332,387 L332,387.5" stroke="black" stroke-width="2" fill="none"/>
<path d="M453.5,239 L434,243.5 L434,243.5 L428.5,245 L422,246.5 L414.5,248 L407,249.5 L399,250.5 L390.5,252 L381.5,253 L372,254.5 L362.5,255.5 L353.5,256.5 L345.5,258 L338,259 L330,260 L322.5,261 L313,262 L304,262.5 L295,263.5 L286,264.5 L278,265 L269,265.5 L259.5,266 L249.5,267 L239.5,267 L230,267.5 L221.5,268 L213.5,268 L206,268 L198.5,268.5 L191.5,268.5 L184,269 L178,269 L172.5,269 L167,269.5 L161.5,269.5 L156.5,269.5 L151.5,269.5 L146,269.5 L141.5,269.5 L137,269.5 L132.5,269.5 L128,269.5 L123,269.5 L118.5,269.5 L114.5,269.5 L111,270 L107.5,270 L103.5,270 L100.5,270 L97.5,270.5 L95,271 L92,271 L89.5,271 L86.5,271 L83.5,271 L81.5,271.5 L79.5,271.5 L78,272 L76,272 L74.5,272 L73,272 L71.5,272.5 L70.5,272.5 L69.5,272.5 L69,273 L68.5,273 L68,273 L67.5,273 L67,273 L66.5,273 L66,273 L65.5,273 L65,273 L64,273 L63.5,273 L63,273 L62.5,273 L62,273 L61.5,273 L61,273 L60.5,273 L58,273" stroke="black" stroke-width="2" fill="none"/>
<path d="M188.5,124.5 L188.5,152.5 L188.5,152.5 L188.5,159 L188.5,166.5 L188.5,173.5 L188.5,180 L188.5,188 L188.5,195.5 L188.5,202.5 L188.5,209.5 L190,216.5 L190.5,223.5 L191,230.5 L191.5,237.5 L192,244 L192.5,250 L192.5,256 L193,261.5 L193,267 L193,272.5 L193,278.5 L193,283.5 L193,287.5 L193,292.5 L193,297.5 L193.5,303 L193.5,307 L194,310.5 L194,314 L194,318 L194,323.5 L194,328 L194.5,332 L194.5,335 L194.5,337.5 L195,341 L195,344.5 L195.5,348.5 L196,351.5 L196,354.5 L196.5,357 L196.5,360 L196.5,362.5 L197,365 L197,367 L197,369 L197,370 L197,371 L197,371.5 L197,372 L197,372.5 L197,374.5 L197,376 L197,377.5 L197,379.5 L197,381 L197,382 L197,383 L197,383.5 L197.5,383.5" stroke="black" stroke-width="2" fill="none"/>
<path d="M326.5,125 L299,103.5 L299,103.5 L287.5,93.5 L275,83 L261.5,72.5 L249,62.5 L237.5,53 L227,45 L219,39 L213,35 L208.5,32.5 L205.5,31 L204,30.5 L203,30 L202.5,30 L202,30 L201.5,30 L200.5,30.5 L199,35.5 L197,43.5 L195,55 L193.5,68 L192,81.5 L191,95 L191,106.5 L190.5,116.5 L190.5,124.5 L190.5,132 L190.5,138.5 L190.5,144.5 L190.5,148 L190.5,149.5 L190.5,150.5 L190,150.5 L189,150.5 L188,150.5" stroke="black" stroke-width="2" fill="none"/>
<path d="M450,240 L463.5,263.5 L463.5,263.5 L466.5,268.5 L469,272.5 L471,275 L472,278 L473,279.5 L473.5,280.5 L473.5,281 L473.5,281.5 L473.5,282.5 L472.5,285.5 L470,289.5 L467,295 L464,301 L461.5,306 L459,310.5 L457,314.5 L455.5,318 L454.5,320.5 L454,322 L453.5,323.5 L453.5,324 L453.5,324.5 L453.5,323.5 L453,321.5 L452,319 L450.5,316 L448,311.5 L445.5,306.5 L443.5,301 L441.5,296 L439.5,292.5 L438.5,290 L438,289.5 L438,289 L438,288.5 L438,287 L438.5,283.5 L441.5,278 L444.5,271 L447,265.5 L449,261 L450,257 L451,253.5 L451.5,251.5 L451.5,249.5 L451.5,249" stroke="black" stroke-width="2" fill="none"/>
<path d="M24.5,255.5 L25,232 L25,232 L25,225 L25,216.5 L24.5,207 L24,197.5 L23.5,188.5 L23,179 L22,170 L21.5,160.5 L21.5,151 L21.5,142 L21.5,132.5 L21.5,123.5 L21.5,114 L21.5,105 L21.5,95 L21.5,85 L21.5,77 L22,68.5 L23,61 L23,54 L23.5,46.5 L24,40.5 L25,35 L26,30.5 L27,26.5 L27,24 L27,22.5" stroke="black" stroke-width="2" fill="none"/>
<path d="M52.5,174.5 L35,174 L35,174 L33,174 L31.5,174 L30.5,174 L30,174 L29.5,174 L29,174 L28,174 L27,174 L26.5,174 L26,174 L25.5,174 L25,174 L24.5,174.5 L24,174.5 L23.5,174.5 L23,175" stroke="black" stroke-width="2" fill="none"/>
<path d="M42.5,70 L19,69.5 L19,69.5 L14,69.5 L10,69.5 L6.5,69.5 L5,69.5 L4,69.5 L3.5,69.5 L3,70" stroke="black" stroke-width="2" fill="none"/>
<path d="M119,191 L98,190 L98,190 L94,190 L89.5,190 L84.5,190 L79,190 L74,190 L69,190 L65,190 L61,190 L57.5,190 L55,190 L53,190 L51.5,190 L51,190 L50.5,190 L50.5,190.5 L50,190.5" stroke="black" stroke-width="2" fill="none"/>
<path d="M112.5,189 L112,215 L112,215 L112,222 L112,229.5 L112,237.5 L112,245 L112,252 L112,260.5 L112,269 L112,277.5 L112,284.5 L112.5,291 L113,297.5 L113.5,305 L114,311.5 L114.5,317 L115,321 L115.5,325.5 L116,329.5 L116,332.5 L116,335 L116.5,336 L116.5,336.5 L116.5,337 L116.5,337.5 L116.5,338 L117,338.5 L117,339 L117.5,339.5 L117.5,340 L116.5,340 L112.5,340 L107.5,340 L101.5,340 L96,340 L90.5,340 L85,340 L80,340 L76,340 L72.5,340 L70.5,340 L68.5,340 L67,340 L66,340 L65,340 L63,340 L62,340 L60.5,340 L59,340.5" stroke="black" stroke-width="2" fill="none"/>
<path d="M54,195 L62,215.5 L62,215.5 L64,221 L67,226 L69.5,231 L71.5,236.5 L74,240.5 L76,244.5 L77.5,249 L79,254.5 L80,259 L81.5,263 L83,267 L85,271.5 L87,276.5 L88.5,281.5 L89.5,285.5 L91,289 L92.5,292.5 L93.5,296 L94.5,300.5 L95.5,304 L96.5,307.5 L98,310.5 L99.5,314 L101,316.5 L102.5,319.5 L104,322 L105.5,325 L107.5,327.5 L108.5,329.5 L109.5,331.5 L110.5,333.5 L111.5,335 L112.5,336.5 L113,337.5 L113.5,338.5 L114,339.5 L114.5,340.5 L114.5,341" stroke="black" stroke-width="2" fill="none"/>
<path d="M115.5,192 L102,218 L102,218 L99.5,225 L97,232.5 L95,239 L92.5,246.5 L90,253 L88.5,258.5 L87,263.5 L86,269 L84.5,274.5 L83.5,280.5 L82,285.5 L81,290 L80,295 L79,300.5 L78,305.5 L77,309.5 L76,313.5 L74.5,317 L73.5,321 L72,324.5 L70.5,328 L69.5,331.5 L68,334.5 L66.5,338 L65.5,341 L64,344 L63.5,347 L63,349 L62.5,351 L62,353 L62,354 L61.5,354.5" stroke="black" stroke-width="2" fill="none"/>
<path d="M67,379.5 L68,412.5 L68,412.5 L68,422 L67.5,431 L67.5,439.5 L67.5,447 L67.5,452.5 L67.5,456 L68.5,459 L69,461.5 L69.5,462.5 L70,462.5 L71,462.5 L73,462.5 L78.5,462.5 L87,462.5 L96.5,462.5 L106,462.5 L116,462.5 L124,462.5 L132,463 L137.5,464 L140.5,465 L141.5,465 L141.5,461.5 L141.5,455 L140.5,446.5 L140,434.5 L140,422 L140,408.5 L139.5,398 L138.5,390 L138,385 L138,381.5 L137.5,379.5 L137.5,378 L137.5,377.5 L137,377.5 L136,377.5" stroke="black" stroke-width="2" fill="none"/>
<path d="M68.5,384 L95.5,410 L95.5,410 L103.5,419 L112.5,428 L120.5,436 L127,443.5 L133,448 L136,451.5 L138,453.5 L139,454.5 L139,455" stroke="black" stroke-width="2" fill="none"/>
<path d="M321.5,119.5 L300,139 L300,139 L295,144 L289,149 L283,154.5 L277.5,160 L271,167 L265.5,174 L260.5,180.5 L256,187.5 L251,193 L246,199 L241,205.5 L235.5,212.5 L230,219 L225,225 L220.5,230.5 L216,237 L211.5,243 L206.5,248.5 L202.5,253.5 L199,258.5 L194.5,263 L190.5,268 L185.5,273 L181.5,277.5 L178,281 L174.5,284 L170.5,287 L166,290.5 L162.5,294 L158.5,297.5 L155,301.5 L151.5,304.5 L148.5,308 L144.5,311.5 L141,315 L137.5,318 L134,321 L130.5,324.5 L127,328 L123.5,331 L120,334 L117,336.5 L113.5,339.5 L110,342 L106,345 L102,349 L99,351.5 L96.5,354 L93.5,356 L91,358 L89,360 L86.5,362 L84,364 L81.5,366 L79.5,368 L77,370.5 L75,372 L73.5,373.5 L72,375 L71,376 L70,377.5 L68.5,378.5 L68,379.5 L66.5,380 L66,381 L64,381.5 L63,382 L63,382.5 L62.5,382.5" stroke="black" stroke-width="2" fill="none"/>
<path d="M222.5,119 L223,157 L223,157 L223,171 L223,184 L223,196.5 L223,206 L223,214.5 L223.5,220 L224,223.5 L224,225.5 L224,226.5 L224,227.5 L224,228" stroke="black" stroke-width="2" fill="none"/>
<path d="M301.5,357 L312.5,351.5 L312.5,351.5 L307.5,353.5 L302.5,356.5 L298,359.5 L293.5,362 L289.5,364 L286.5,365.5 L284,366.5 L283,367.5 L282.5,369 L281.5,369.5" stroke="black" stroke-width="2" fill="none"/>
<path d="M301,316 L278,332 L278,332 L273.5,336 L269.5,339 L266,341 L264,342.5 L262.5,343.5 L261,343.5" stroke="black" stroke-width="2" fill="none"/>
<path d="M272,295.5 L244.5,317.5 L244.5,317.5 L239,321 L235,323.5 L233,325 L230.5,325.5 L229.5,325.5" stroke="black" stroke-width="2" fill="none"/>
<path d="M237.5,277.5 L216.5,295 L216.5,295 L213.5,297 L211,298.5 L209.5,299.5" stroke="black" stroke-width="2" fill="none"/>
<path d="M190,143 L167.5,149 L167.5,149 L158,150 L147.5,151 L137,152 L126,153 L116.5,154 L107,155 L98.5,155.5 L94,155.5 L91.5,155.5 L90,155.5 L88,156 L86,157 L83.5,158 L83,159" stroke="black" stroke-width="2" fill="none"/>
<path d="M187.5,177 L164.5,178 L164.5,178 L156,179.5 L147.5,180.5 L139.5,181 L130.5,181.5 L123,182.5 L118.5,183.5 L115,184.5 L113,186.5" stroke="black" stroke-width="2" fill="none"/>
<path d="M194,207.5 L168.5,214.5 L168.5,214.5 L163.5,215 L158.5,215.5 L153.5,218" stroke="black" stroke-width="2" fill="none"/>
<path d="M341,428 L315.5,425.5 L315.5,425.5 L308.5,425.5 L302,425.5 L296,425.5 L289.5,425.5 L282.5,425.5 L275.5,425.5 L268,425.5 L261.5,425.5 L255,425.5 L248.5,425.5 L242.5,425.5 L236,425.5 L229,425.5 L223,425.5 L217.5,425.5 L212,425.5 L206.5,425.5 L201.5,425.5 L196.5,426 L192,427 L186.5,427.5 L182,427.5 L178,428 L173.5,428 L170,428.5 L165.5,428.5 L162,428.5 L158.5,428.5 L155.5,428.5 L153,428.5 L150.5,428.5 L147.5,428.5 L145.5,428.5 L144,428.5 L142.5,428.5 L141,428.5 L140,428.5 L138.5,428.5 L138,428.5 L137.5,428.5" stroke="black" stroke-width="2" fill="none"/>
<path d="M289.5,402 L288,427.5 L288,427.5 L287.5,431.5 L287,436 L286.5,439.5 L286,442.5 L286,443.5 L286,444 L285,444 L284,444" stroke="black" stroke-width="2" fill="none"/>
<path d="M95.5,177 L78,178 L78,178 L75,178 L72.5,178 L70.5,178 L68,178 L65,178.5 L62.5,178.5 L60.5,179 L58.5,179 L57,179 L55.5,179.5 L54.5,179.5 L54,180 L53.5,180 L53,180 L52.5,180 L51,180" stroke="black" stroke-width="2" fill="none"/>
			</svg>
		