
			<svg xmlns="http://www.w3.org/2000/svg" width="500" height="500" >
				<path d="M66.70145416259766,169.42019653320312 L68.15904235839844,181.13504028320312 L68.3828125,185.17076110839844 L68.49497985839844,189.09486389160156 L68.49497985839844,194.02734375 L68.60713958740234,199.1841583251953 L68.71930694580078,204.0044708251953 L68.83147430419922,209.04966735839844 L69.16796875,214.0943145751953 L69.61607360839844,219.1953125 L70.06473541259766,224.12779235839844 L70.40067291259766,228.94810485839844 L70.625,233.88113403320312 L70.84932708740234,238.86941528320312 L71.07366180419922,243.97042846679688 L71.18582916259766,248.8470916748047 L71.29798889160156,253.5552520751953 L71.29798889160156,258.03961181640625 L71.52176666259766,262.1875 L71.52176666259766,266.50390625 L71.52176666259766,270.98773193359375 L71.63392639160156,275.5284729003906 L71.74609375,279.84429931640625 L71.85826110839844,283.82421875 L71.85826110839844,287.9157409667969 L72.08258819580078,292.2321472167969 L72.30692291259766,296.4358215332031 L72.41908264160156,300.64007568359375 L72.53069305419922,304.7879333496094 L72.53069305419922,308.5993347167969 L72.53069305419922,312.4112854003906 L72.53069305419922,316.1105041503906 L72.53069305419922,319.8660583496094 L72.64286041259766,323.62164306640625 L72.97935485839844,327.8258972167969 L73.31584930419922,331.8616027832031 L73.76395416259766,335.7293395996094 L74.32477569580078,339.65289306640625 L74.88504791259766,343.46429443359375 L75.55803680419922,347.33203125 L76.23046875,351.4241027832031 L76.79073333740234,355.515625 L77.23939514160156,359.2712097167969 L77.46372985839844,363.02679443359375 L77.68805694580078,366.55804443359375 L77.68805694580078,369.3046875 L77.68805694580078,371.37890625 L77.63169860839844,373.00445556640625 L77.57588958740234,373.7332458496094 L77.57588958740234,373.8448791503906" stroke="black" stroke-width="2" fill="none"/>
<path d="M310.4754333496094,153.38894653320312 L299.8258972167969,156.13560485839844 L295.62164306640625,156.6958770751953 L290.5206604003906,157.70480346679688 L284.4670715332031,158.32142639160156 L278.30133056640625,159.0502166748047 L271.9670715332031,159.5546875 L265.46539306640625,160.0591583251953 L258.85101318359375,160.56361389160156 L251.73214721679688,161.0122833251953 L244.9497833251953,161.4603729248047 L238.83984375,161.796875 L232.95423889160156,162.1333770751953 L227.23716735839844,162.35714721679688 L222.0240020751953,162.5814666748047 L217.2036895751953,162.91796875 L211.5982208251953,163.2544708251953 L206.49777221679688,163.7025604248047 L201.2845916748047,164.15122985839844 L195.84765625,164.59933471679688 L190.5786895751953,164.8236541748047 L185.64564514160156,165.04798889160156 L180.65736389160156,165.04798889160156 L175.27622985839844,165.04798889160156 L170.3431854248047,165.16015625 L165.63504028320312,165.49609375 L161.0384979248047,165.9447479248047 L156.61048889160156,166.39341735839844 L152.18191528320312,166.72935485839844 L148.14620971679688,166.84152221679688 L143.8861541748047,166.9536895751953 L139.5703125,166.9536895751953 L135.75892639160156,166.9536895751953 L133.1244354248047,166.9536895751953 L129.59263610839844,166.8978729248047 L125.83705139160156,166.84152221679688 L122.02567291259766,166.84152221679688 L118.43805694580078,166.72935485839844 L115.07533264160156,166.56138610839844 L112.10435485839844,166.39341735839844 L109.13336944580078,166.16908264160156 L106.38671875,165.88894653320312 L103.58426666259766,165.55245971679688 L101.00557708740234,165.21595764160156 L98.31529235839844,164.93582153320312 L95.40067291259766,164.76785278320312 L92.48604583740234,164.6556854248047 L89.40290069580078,164.6556854248047 L86.48828125,164.6556854248047 L83.68526458740234,164.88002014160156 L81.21930694580078,164.9916229248047 L78.97711944580078,165.21595764160156 L76.95926666259766,165.328125 L74.94140625,165.44029235839844 L72.81138610839844,165.55245971679688 L70.45703125,165.7767791748047 L68.10267639160156,166.0005645751953 L66.02901458740234,166.1127166748047 L64.45926666259766,166.22488403320312 L63.39453125,166.22488403320312 L62.77790069580078,166.22488403320312 L62.66573715209961,166.22488403320312 L64.34709930419922,166.1127166748047 L69.72823333740234,165.21595764160156" stroke="black" stroke-width="2" fill="none"/>
<path d="M311.484375,152.09988403320312 L312.0451965332031,162.1333770751953 L312.4938659667969,164.5435333251953 L312.8298034667969,166.9536895751953 L313.2784729003906,169.3080291748047 L313.6144104003906,171.99832153320312 L314.06304931640625,174.9693145751953 L314.51171875,178.6127166748047 L314.9598083496094,182.20033264160156 L315.4084777832031,185.28292846679688 L315.8565979003906,188.36607360839844 L316.30523681640625,191.56082153320312 L316.75390625,194.8119354248047 L317.08984375,197.8950958251953 L317.53851318359375,201.03404235839844 L317.87445068359375,204.17298889160156 L318.0987854003906,207.25558471679688 L318.2109375,209.4419708251953 L318.4352722167969,212.58091735839844 L318.7717590332031,216.05636596679688 L319.2198791503906,219.25111389160156 L319.4441833496094,222.2220916748047 L319.66851806640625,225.3046875 L319.8928527832031,228.66796875 L320.11663818359375,231.97488403320312 L320.3409729003906,235.17019653320312 L320.5652770996094,238.5892791748047 L320.90179443359375,242.06472778320312 L321.23773193359375,245.42800903320312 L321.4620666503906,248.79129028320312 L321.6863708496094,252.32254028320312 L321.91070556640625,255.68527221679688 L322.1344909667969,259.0485534667969 L322.35882568359375,262.5798034667969 L322.6953125,266.4475402832031 L322.9196472167969,270.0909729003906 L323.03179931640625,273.6785583496094 L323.2555847167969,277.26617431640625 L323.47991943359375,280.6852722167969 L323.7042541503906,284.2165222167969 L323.81640625,288.30859375 L324.15234375,292.2321472167969 L324.60101318359375,296.0998840332031 L324.9375,299.7433166503906 L325.1618347167969,302.9944152832031 L325.2734375,305.8526916503906 L325.3855895996094,308.82366943359375 L325.3855895996094,311.8504333496094 L325.3855895996094,314.8772277832031 L325.3855895996094,317.68023681640625 L325.3855895996094,320.5390625 L325.3855895996094,323.56585693359375 L325.3855895996094,326.3683166503906 L325.3855895996094,328.72265625 L325.4977722167969,331.0769958496094 L325.4977722167969,333.5993347167969 L325.4977722167969,336.12164306640625 L325.4977722167969,338.64398193359375 L325.60992431640625,340.9983215332031 L325.72210693359375,343.35211181640625 L325.8342590332031,345.7628479003906 L325.8342590332031,348.00445556640625 L325.8342590332031,350.3030090332031 L326.05859375,352.0965270996094 L326.1707458496094,353.89007568359375 L326.39453125,355.515625 L326.39453125,357.14117431640625 L326.5066833496094,358.9910583496094 L326.6188659667969,360.78460693359375 L326.73101806640625,362.4665222167969 L326.84320068359375,364.14788818359375 L326.9553527832031,365.7734375 L327.1796875,367.34320068359375 L327.2918395996094,368.7444152832031 L327.515625,370.2014465332031 L327.6277770996094,371.4910583496094 L327.7399597167969,372.3878479003906 L327.7399597167969,372.8923034667969 L327.7399597167969,373.11663818359375 L327.85211181640625,373.11663818359375 L327.85211181640625,372.9480895996094 L327.85211181640625,372.5558166503906 L327.85211181640625,371.9391784667969 L327.5719909667969,371.1545715332031" stroke="black" stroke-width="2" fill="none"/>
<path d="M327.85211181640625,373.45257568359375 L319.2198791503906,373.0602722167969 L316.8097229003906,373.3967590332031 L314.00726318359375,373.7332458496094 L311.2605895996094,373.95703125 L308.6819152832031,374.1813659667969 L306.04742431640625,374.1813659667969 L303.46929931640625,374.1813659667969 L300.55413818359375,374.0133972167969 L297.4151916503906,373.62109375 L294.2762145996094,373.3967590332031 L290.9129333496094,373.28460693359375 L286.59710693359375,373.28460693359375 L282.8415222167969,373.5089416503906 L279.3660583496094,373.62109375 L275.7790222167969,373.7332458496094 L272.0792541503906,373.8448791503906 L268.2678527832031,373.95703125 L264.45648193359375,373.95703125 L260.7566833496094,374.1813659667969 L257.1690979003906,374.29351806640625 L253.69419860839844,374.5178527832031 L249.82644653320312,374.7421875 L246.12667846679688,374.7421875 L242.5396270751953,374.7421875 L238.83984375,374.7421875 L234.97265625,374.8543395996094 L230.76841735839844,375.1902770996094 L226.73269653320312,375.41461181640625 L222.640625,375.6389465332031 L218.7728729248047,375.7511291503906 L214.84933471679688,375.7511291503906 L210.92578125,375.7511291503906 L207.28236389160156,375.69476318359375 L203.5267791748047,375.6389465332031 L199.71484375,375.6389465332031 L196.07142639160156,375.6389465332031 L192.484375,375.7511291503906 L188.6724395751953,375.86328125 L184.86105346679688,375.9748840332031 L181.38560485839844,376.0870666503906 L177.96652221679688,376.0870666503906 L174.8275604248047,376.0870666503906 L172.08091735839844,376.03125 L169.67076110839844,375.86328125 L167.26060485839844,375.7511291503906 L164.68191528320312,375.7511291503906 L162.10379028320312,375.69476318359375 L159.6372833251953,375.69476318359375 L157.3392791748047,375.58258056640625 L154.92857360839844,375.35882568359375 L153.19140625,375.3024597167969 L150.7806854248047,375.24664306640625 L148.42689514160156,375.24664306640625 L146.0161895751953,375.35882568359375 L143.49386596679688,375.58258056640625 L140.859375,375.8069152832031 L138.44921875,376.03125 L136.20703125,376.1434020996094 L134.02120971679688,376.2555847167969 L131.72265625,376.36773681640625 L129.3125,376.5915222167969 L126.84598541259766,376.81585693359375 L124.32366180419922,377.0401916503906 L121.80133819580078,377.2644958496094 L119.16685485839844,377.3766784667969 L116.70088958740234,377.6004333496094 L114.57086944580078,377.6004333496094 L112.77678680419922,377.6004333496094 L111.26338958740234,377.6004333496094 L109.86216735839844,377.5446472167969 L108.4609375,377.4324645996094 L106.94754791259766,377.3203125 L105.37779235839844,377.2644958496094 L103.80859375,377.2081604003906 L102.01506805419922,377.15234375 L100.4453125,377.0959777832031 L99.04408264160156,376.9280090332031 L97.69866180419922,376.70367431640625 L96.35323333740234,376.64788818359375 L95.06417083740234,376.5915222167969 L94.05524444580078,376.53570556640625 L92.82198333740234,376.4793395996094 L91.75725555419922,376.4793395996094 L90.91629791259766,376.4793395996094 L90.01953125,376.4793395996094 L89.12276458740234,376.4793395996094 L88.22600555419922,376.4235534667969 L87.32868194580078,376.36773681640625 L86.43192291259766,376.2555847167969 L85.64732360839844,376.2555847167969 L84.75055694580078,376.2555847167969 L83.85379791259766,376.2555847167969 L82.84486389160156,376.2555847167969 L81.8359375,376.2555847167969 L80.99497985839844,376.2555847167969 L80.32254791259766,376.2555847167969 L79.87388610839844,376.2555847167969 L79.76171875,376.1434020996094 L79.59375,375.9748840332031 L79.36942291259766,375.86328125 L79.14508819580078,375.86328125 L78.69698333740234,375.86328125 L78.19252014160156,375.86328125 L77.74385833740234,375.86328125 L77.3515625,375.8069152832031 L77.12723541259766,375.7511291503906 L76.90290069580078,375.6389465332031 L76.79073333740234,375.52679443359375 L76.73493194580078,375.41461181640625 L76.56696319580078,375.3024597167969 L76.3984375,375.078125 L76.17466735839844,374.9659729003906 L76.11830139160156,374.8543395996094 L76.11830139160156,374.6858215332031 L76.11830139160156,374.46148681640625 L76.23046875,374.23773193359375 L76.67913055419922,374.0133972167969 L76.90290069580078,373.7890625 L77.12723541259766,373.7890625 L77.3515625,373.7890625 L77.57588958740234,373.7890625 L77.96819305419922,373.7890625" stroke="black" stroke-width="2" fill="none"/>
<path d="M312.4938659667969,153.50111389160156 L317.8186340332031,160.95591735839844 L319.1640625,162.2455291748047 L320.5089416503906,163.7025604248047 L321.8543395996094,165.27232360839844 L323.19976806640625,166.84152221679688 L324.5451965332031,168.41127014160156 L325.89007568359375,169.98046875 L327.2355041503906,171.94252014160156 L328.5809020996094,173.6802520751953 L329.92633056640625,175.47377014160156 L331.2712097167969,177.43582153320312 L332.8409729003906,179.95814514160156 L334.69085693359375,182.48046875 L336.65234375,185.28292846679688 L338.44586181640625,188.0859375 L340.35211181640625,191.05636596679688 L342.2014465332031,193.91517639160156 L343.7712097167969,196.49386596679688 L345.28460693359375,198.90402221679688 L346.8537902832031,201.31417846679688 L348.4793395996094,203.6685333251953 L350.0491027832031,205.96652221679688 L351.6183166503906,208.20870971679688 L353.0758972167969,210.33872985839844 L354.42132568359375,212.58091735839844 L355.6545715332031,214.31863403320312 L357.7282409667969,217.12109375 L359.12945556640625,219.53125 L360.69921875,221.66127014160156 L362.60491943359375,223.79129028320312 L364.0061340332031,226.03347778320312 L365.5758972167969,228.27566528320312 L367.0329284667969,230.51785278320312 L368.21038818359375,232.6478729248047 L369.1629333496094,234.66574096679688 L370.34039306640625,236.57142639160156 L371.62945556640625,238.81361389160156 L373.19921875,241.39230346679688 L374.7126159667969,243.69029235839844 L376.0016784667969,245.76394653320312 L377.1785583496094,247.16574096679688 L378.2996520996094,248.5669708251953 L379.0284729003906,249.91183471679688 L379.7008972167969,251.2572479248047 L380.59765625,252.99497985839844 L381.4949645996094,254.39620971679688 L382.3917541503906,255.85379028320312 L383.28851318359375,256.75054931640625 L384.12945556640625,257.6473083496094 L384.8019104003906,258.31976318359375 L385.3063659667969,258.7684020996094 L385.7550354003906,259.2170715332031 L385.7550354003906,259.6651916503906 L385.7550354003906,260.11383056640625" stroke="black" stroke-width="2" fill="none"/>
<path d="M387.0998840332031,262.1875 L382.83984375,271.4363708496094 L381.4386291503906,274.1266784667969 L380.09320068359375,276.48101806640625 L378.63616943359375,278.55523681640625 L377.2907409667969,280.4609375 L375.9453125,282.53515625 L374.4319152832031,285.1696472167969 L372.9748840332031,288.4765625 L371.6852722167969,291.7276916503906 L370.34039306640625,294.4743347167969 L369.2751159667969,296.9402770996094 L367.9860534667969,299.1266784667969 L366.640625,301.3688659667969 L365.18359375,303.7790222167969 L363.72601318359375,306.24554443359375 L362.2684020996094,309.1037902832031 L360.8671875,312.01898193359375 L359.578125,314.8772277832031 L358.5691833496094,317.3995666503906 L357.5602722167969,319.6417541503906 L356.2712097167969,321.7717590332031 L355.0379333496094,324.1824645996094 L354.0290222167969,326.7048034667969 L352.68359375,329.1149597167969 L351.73046875,331.4129333496094 L350.6657409667969,333.6551208496094 L349.76898193359375,335.6171875 L349.0401916503906,337.4665222167969 L348.19921875,339.48492431640625 L347.3582458496094,341.55859375 L346.23773193359375,343.7449645996094 L345.28460693359375,346.04296875 L344.21929931640625,348.28515625 L342.9866027832031,350.24664306640625 L341.9776916503906,351.7600402832031 L341.0803527832031,353.1618347167969 L340.2957458496094,354.39453125 L339.39898681640625,355.7399597167969 L338.3342590332031,357.6456604003906 L337.26898193359375,359.83203125 L336.03570556640625,362.1863708496094 L334.8024597167969,364.31640625 L333.8498840332031,365.8855895996094 L333.12109375,367.1188659667969 L332.61663818359375,367.7912902832031 L332.2801208496094,368.35211181640625 L332,368.8565979003906 L331.7198791503906,369.4168395996094 L331.49554443359375,369.8655090332031 L331.2712097167969,370.2014465332031 L331.046875,370.2014465332031 L331.046875,369.8655090332031" stroke="black" stroke-width="2" fill="none"/>
<path d="M26.45535659790039,96.77567291259766 L25.670759201049805,88.59151458740234 L25.670759201049805,88.47935485839844 L25.670759201049805,88.59151458740234 L25.670759201049805,89.20814514160156 L25.670759201049805,90.32923889160156 L25.670759201049805,91.45033264160156 L25.78292465209961,92.90792083740234 L25.895090103149414,95.09375 L26.007253646850586,97.28013610839844 L26.231027603149414,99.91461944580078 L26.45535659790039,102.88504791259766 L26.6796875,106.41629791259766 L26.90401840209961,109.77957916259766 L27.128347396850586,113.19921875 L27.352121353149414,116.33817291259766 L27.464284896850586,119.64508819580078 L27.688615798950195,123.23213958740234 L27.80078125,126.70758819580078 L27.912946701049805,130.0708770751953 L28.137277603149414,133.4341583251953 L28.36104965209961,136.7974395751953 L28.809709548950195,140.16015625 L29.2578125,144.0279083251953 L29.706472396850586,148.6802520751953 L30.155134201049805,153.1646270751953 L30.37890625,156.5279083251953 L30.60323715209961,160.73158264160156 L31.051897048950195,164.48716735839844 L31.5,167.85044860839844 L32.00446319580078,171.26953125 L32.453125,174.6328125 L32.90178680419922,178.1640625 L33.12555694580078,181.8638458251953 L33.23772430419922,185.3950958251953 L33.46205520629883,188.36607360839844 L33.68638229370117,190.88839721679688 L33.91071319580078,193.5228729248047 L34.13448715209961,196.26953125 L34.35881805419922,199.07199096679688 L34.6953125,201.5943145751953 L34.91964340209961,204.28515625 L35.14341354370117,206.91964721679688 L35.36774444580078,209.49777221679688 L35.70424270629883,211.9642791748047 L35.92856979370117,214.5424041748047 L36.15234375,217.12109375 L36.37667465209961,219.81138610839844 L36.48883819580078,221.99777221679688 L36.48883819580078,224.18359375 L36.48883819580078,226.42578125 L36.48883819580078,228.8359375 L36.48883819580078,231.30245971679688 L36.60100555419922,233.7689666748047 L36.60100555419922,235.78683471679688 L36.71316909790039,237.63671875 L36.9375,239.76673889160156 L37.16183090209961,242.0083770751953 L37.38560104370117,244.30691528320312 L37.60993194580078,246.38058471679688 L37.83426284790039,248.17466735839844 L38.05859375,250.0240020751953 L38.28236770629883,251.87388610839844 L38.61886215209961,253.94810485839844 L38.95535659790039,256.1897277832031 L39.1796875,258.4319152832031 L39.40346145629883,260.6741027832031 L39.62778854370117,262.5798034667969 L39.85211944580078,263.9815979003906 L40.07645034790039,265.3264465332031 L40.07645034790039,266.22320556640625 L40.07645034790039,267.12054443359375 L40.07645034790039,267.79296875 L40.07645034790039,268.12945556640625 L40.07645034790039,268.12945556640625 L40.02008819580078,267.9051208496094" stroke="black" stroke-width="2" fill="none"/>
<path d="M69.39173889160156,208.65736389160156 L60.98381805419922,209.4419708251953 L59.19028854370117,209.4419708251953 L57.62109375,209.5541229248047 L55.93917465209961,209.7779083251953 L54.2578125,209.7779083251953 L52.68805694580078,209.7779083251953 L51.11886215209961,209.7779083251953 L49.60546875,209.7779083251953 L48.26004409790039,209.5541229248047 L47.25111770629883,209.32980346679688 L46.2421875,209.10546875 L45.34542465209961,208.99330139160156 L44.44866180419922,208.99330139160156 L43.66350555419922,208.99330139160156 L42.76674270629883,208.99330139160156 L41.92578125,208.99330139160156 L41.08538055419922,208.99330139160156 L40.24441909790039,208.99330139160156 L39.515625,209.10546875 L38.78683090209961,209.32980346679688 L38.11439895629883,209.5541229248047 L37.55413055419922,209.7779083251953 L37.10546875,209.7779083251953 L36.65680694580078,209.7779083251953 L36.15234375,209.7779083251953 L35.47991180419922,209.7779083251953 L34.80747604370117,209.8900604248047 L34.35881805419922,209.8900604248047 L33.85435104370117,210.00222778320312 L33.63002395629883,210.00222778320312 L33.57421875,210.00222778320312 L33.57421875,210.00222778320312 L33.57421875,209.7779083251953 L34.02231979370117,209.6099395751953 L34.47098159790039,209.49777221679688" stroke="black" stroke-width="2" fill="none"/>
<path d="M38.67522430419922,132.3130645751953 L28.473215103149414,132.81752014160156 L26.45535659790039,132.81752014160156 L24.04520034790039,132.81752014160156 L21.747209548950195,132.81752014160156 L20.233816146850586,132.81752014160156 L18.327566146850586,132.81752014160156 L16.758371353149414,132.81752014160156 L15.412946701049805,133.04185485839844 L14.404017448425293,133.265625 L13.450892448425293,133.48995971679688 L12.778459548950195,133.7142791748047 L12.330357551574707,133.93861389160156" stroke="black" stroke-width="2" fill="none"/>
<path d="M311.2042541503906,156.8080291748047 L303.5809020996094,164.93582153320312 L301.05859375,168.0189666748047 L298.5926208496094,170.98939514160156 L296.1261291503906,173.62388610839844 L293.65960693359375,176.0904083251953 L291.08148193359375,178.6685333251953 L288.0546875,181.91964721679688 L284.9157409667969,185.2271270751953 L282.2248840332031,188.421875 L279.4782409667969,191.50502014160156 L276.67578125,194.41964721679688 L273.81695556640625,197.50279235839844 L270.9581604003906,200.4174041748047 L268.04351806640625,203.5 L265.0725402832031,206.63894653320312 L261.8777770996094,209.83425903320312 L258.3465270996094,212.9732208251953 L254.703125,216 L250.8353729248047,219.13894653320312 L247.1919708251953,222.1099395751953 L244.05300903320312,224.91238403320312 L241.19419860839844,227.60324096679688 L238.0552520751953,230.06919860839844 L235.08425903320312,232.76004028320312 L231.9453125,235.0580291748047 L228.80636596679688,237.4681854248047 L225.44363403320312,240.21484375 L221.8002166748047,243.0736541748047 L218.3247833251953,245.87611389160156 L214.56919860839844,248.45480346679688 L211.03794860839844,250.8091583251953 L207.84263610839844,252.93917846679688 L204.42355346679688,255.18080139160156 L201.22879028320312,257.53515625 L197.7533416748047,260.0574645996094 L194.2779083251953,263.140625 L190.5786895751953,266.16741943359375 L187.2154083251953,269.1941833496094 L184.07644653320312,271.4363708496094 L181.7220916748047,273.11773681640625 L178.58314514160156,275.2477722167969 L175.44419860839844,277.54632568359375 L172.36105346679688,280.2366027832031 L169.16629028320312,283.20758056640625 L165.6908416748047,286.6266784667969 L162.0474395751953,290.55023193359375 L158.40402221679688,294.1378479003906 L155.04074096679688,297.16461181640625 L151.9017791748047,300.0792541503906 L148.98716735839844,302.6579284667969 L146.07254028320312,305.12445068359375 L142.98939514160156,307.42242431640625 L139.73828125,310.0569152832031 L136.88002014160156,312.5792541503906 L134.07701110839844,314.8772277832031 L131.49888610839844,317.1194152832031 L129.14453125,319.13726806640625 L126.90234375,321.04351806640625 L124.828125,322.8370666503906 L123.03459930419922,324.7985534667969 L120.9609375,326.98492431640625 L118.60658264160156,329.33929443359375 L116.14006805419922,331.91741943359375 L113.44977569580078,334.6640625 L110.75892639160156,337.07421875 L108.40457916259766,339.2605895996094 L106.27455139160156,341.1662902832031 L104.25669860839844,342.9598083496094 L102.40736389160156,345.0340270996094 L100.66963958740234,347.1640625 L98.87611389160156,349.1819152832031 L97.02622985839844,351.0876159667969 L95.34430694580078,352.6573791503906 L94.05524444580078,353.9464416503906 L93.27064514160156,354.7873840332031 L92.48604583740234,355.68414306640625 L91.58872985839844,356.80523681640625 L90.29966735839844,358.0379333496094 L89.01060485839844,359.49554443359375 L87.77734375,361.1769104003906 L86.76841735839844,362.69085693359375 L85.92745208740234,363.86773681640625 L85.25502014160156,364.82086181640625 L84.4140625,365.7176208496094 L83.34932708740234,366.89453125 L82.28404235839844,368.18359375 L80.82701110839844,369.6969909667969 L79.48158264160156,371.21038818359375 L78.36048889160156,372.3878479003906 L77.63169860839844,372.8923034667969 L77.23939514160156,373.11663818359375 L77.01506805419922,373.2287902832031 L76.95926666259766,373.11663818359375 L77.18359375,372.1076965332031 L77.40736389160156,371.37890625" stroke="black" stroke-width="2" fill="none"/>
<path d="M68.66350555419922,166.56138610839844 L78.13616180419922,172.390625 L81.61161041259766,174.8013458251953 L85.03069305419922,177.26730346679688 L88.95423889160156,180.01394653320312 L92.99051666259766,182.70480346679688 L97.08203125,185.5630645751953 L101.67857360839844,188.81417846679688 L106.05078125,192.00949096679688 L110.59095764160156,195.09207153320312 L114.68303680419922,197.95089721679688 L118.49442291259766,200.86550903320312 L122.41796875,203.72433471679688 L126.51004791259766,206.97544860839844 L130.9380645751953,210.28292846679688 L135.0859375,213.70201110839844 L139.2338104248047,217.17689514160156 L143.99832153320312,220.8208770751953 L149.04296875,224.3521270751953 L153.6958770751953,227.546875 L157.84375,230.7421875 L161.9916229248047,233.88113403320312 L165.97097778320312,237.07589721679688 L169.8950958251953,240.32701110839844 L173.5943145751953,243.578125 L177.29408264160156,246.82923889160156 L181.4419708251953,250.36048889160156 L185.47767639160156,254.00390625 L189.4575958251953,257.3108215332031 L193.49330139160156,260.73046875 L197.3046875,264.0373840332031 L201.06027221679688,267.45648193359375 L204.42355346679688,270.4832458496094 L207.61830139160156,273.6222229003906 L210.92578125,276.5373840332031 L214.2890625,279.3956604003906 L218.10044860839844,282.19866943359375 L221.51953125,284.9453125 L224.8828125,287.80413818359375 L227.7974395751953,290.3264465332031 L230.71261596679688,292.7366027832031 L233.29074096679688,294.6980895996094 L235.9252166748047,296.66015625 L238.72767639160156,298.8465270996094 L241.4185333251953,301.2003479003906 L244.1088104248047,303.6668395996094 L246.12667846679688,305.4045715332031 L248.7611541748047,307.7589416503906 L251.73214721679688,310.3370666503906 L254.64675903320312,312.5234375 L257.44976806640625,314.42913818359375 L259.97210693359375,316.2790222167969 L262.6623840332031,318.296875 L265.3532409667969,320.37054443359375 L268.04351806640625,322.78070068359375 L270.6222229003906,325.3030090332031 L273.14453125,327.6015625 L275.38671875,329.6194152832031 L277.62890625,331.5251159667969 L279.9826965332031,333.4871520996094 L282.2248840332031,335.5608215332031 L284.4670715332031,337.57867431640625 L286.7092590332031,339.48492431640625 L288.9514465332031,340.94195556640625 L290.8571472167969,342.1194152832031 L292.9871520996094,343.5206604003906 L295.1171875,344.9776916503906 L297.359375,346.4910583496094 L299.6015625,347.8928527832031 L301.84375,349.40625 L303.8616027832031,351.31195068359375 L305.87945556640625,352.8811340332031 L307.5608215332031,354.4508972167969 L308.90625,355.79632568359375 L310.2516784667969,357.14117431640625 L311.7087097167969,358.8230895996094 L313.2784729003906,360.67242431640625 L314.7355041503906,362.07421875 L316.0809020996094,363.5876159667969 L317.42633056640625,364.98883056640625 L318.37890625,366.1657409667969 L319.2762145996094,367.0625 L320.2287902832031,367.9598083496094 L321.40625,368.8565979003906 L322.52734375,369.75335693359375 L323.64788818359375,370.42578125 L324.32086181640625,370.93023681640625 L324.8253479003906,371.37890625 L324.9375,371.6032409667969 L324.8253479003906,371.6032409667969 L323.7600402832031,371.37890625 L321.5178527832031,370.3136291503906" stroke="black" stroke-width="2" fill="none"/>
<path d="M185.7578125,168.57923889160156 L187.10324096679688,176.48269653320312 L187.5513458251953,179.4536895751953 L188.11216735839844,183.2650604248047 L188.56082153320312,186.6841583251953 L188.89675903320312,189.0384979248047 L189.34542846679688,192.4017791748047 L189.68136596679688,196.1009979248047 L190.18582153320312,199.80078125 L190.69029235839844,203.55636596679688 L191.1953125,207.3119354248047 L191.64341735839844,210.95535278320312 L192.20423889160156,214.48660278320312 L192.70870971679688,218.29798889160156 L193.1568145751953,222.05357360839844 L193.60546875,225.52902221679688 L194.05357360839844,229.0044708251953 L194.2779083251953,232.5357208251953 L194.50222778320312,235.84263610839844 L194.7265625,239.15011596679688 L195.0625,242.73716735839844 L195.5669708251953,246.21261596679688 L196.015625,249.18359375 L196.23995971679688,252.0982208251953 L196.3521270751953,255.23716735839844 L196.57589721679688,258.2639465332031 L196.6880645751953,261.1785583496094 L196.91238403320312,264.09375 L197.13671875,267.12054443359375 L197.24888610839844,270.1473083496094 L197.36105346679688,272.5574645996094 L197.36105346679688,274.9118347167969 L197.36105346679688,277.26617431640625 L197.36105346679688,279.7321472167969 L197.36105346679688,282.25445556640625 L197.4732208251953,284.77679443359375 L197.69699096679688,287.4112854003906 L197.9213104248047,290.21429443359375 L198.03347778320312,293.0167541503906 L198.2578125,295.5954284667969 L198.48214721679688,298.0055847167969 L198.5943145751953,300.47210693359375 L198.70591735839844,302.8258972167969 L198.81808471679688,305.34820556640625 L199.0424041748047,307.8147277832031 L199.26673889160156,310.28125 L199.49107360839844,312.9715270996094 L199.71484375,315.6623840332031 L199.93917846679688,318.3526916503906 L200.0513458251953,321.04351806640625 L200.27566528320312,323.73382568359375 L200.5,326.5926208496094 L200.61216735839844,329.56304931640625 L200.72377014160156,332.4782409667969 L200.8359375,335.3928527832031 L200.94810485839844,338.2516784667969 L201.06027221679688,341.1105041503906 L201.2845916748047,343.6886291503906 L201.50892639160156,346.1551208496094 L201.95703125,348.62109375 L202.4056854248047,350.9196472167969 L202.7421875,353.1618347167969 L202.96595764160156,355.2355041503906 L202.96595764160156,357.25335693359375 L203.078125,358.9910583496094 L203.078125,360.33648681640625 L203.19029235839844,361.79351806640625 L203.19029235839844,363.2511291503906 L203.30245971679688,364.65234375 L203.30245971679688,365.4933166503906 L203.30245971679688,366.39007568359375 L203.30245971679688,367.34320068359375 L203.30245971679688,368.2399597167969 L203.30245971679688,369.4168395996094 L203.30245971679688,370.2578125 L203.30245971679688,371.1545715332031 L203.4146270751953,371.71484375 L203.5267791748047,372.3878479003906 L203.75111389160156,373.0602722167969 L203.97488403320312,373.7332458496094 L204.19921875,374.6300354003906 L204.31138610839844,375.52679443359375 L204.31138610839844,376.4793395996094 L204.31138610839844,377.3766784667969 L204.31138610839844,378.1612854003906 L204.42355346679688,378.3855895996094 L204.42355346679688,378.3855895996094 L204.5357208251953,377.5446472167969 L204.5357208251953,376.53570556640625" stroke="black" stroke-width="2" fill="none"/>
<path d="M317.42633056640625,265.7751159667969 L306.2717590332031,264.93414306640625 L302.4040222167969,265.2706604003906 L298.9285583496094,265.4949645996094 L295.5094909667969,265.71875 L292.09039306640625,265.71875 L288.390625,265.71875 L284.35491943359375,265.71875 L280.3191833496094,265.71875 L276.3956604003906,265.71875 L272.80804443359375,265.6629333496094 L269.6690979003906,265.4386291503906 L266.6980895996094,265.1026916503906 L263.67132568359375,264.8219909667969 L260.4201965332031,264.5418395996094 L257.1690979003906,264.4296875 L253.86216735839844,264.4296875 L250.27511596679688,264.4296875 L246.74330139160156,264.5418395996094 L243.60435485839844,264.5418395996094 L240.9140625,264.5418395996094 L238.2232208251953,264.26171875 L235.36495971679688,263.9815979003906 L232.3939666748047,263.81304931640625 L229.47935485839844,263.81304931640625 L226.56417846679688,263.75726318359375 L223.64955139160156,263.75726318359375 L220.8470916748047,263.7008972167969 L218.10044860839844,263.5887145996094 L215.18582153320312,263.47711181640625 L212.15904235839844,263.47711181640625 L209.07589721679688,263.47711181640625 L206.21707153320312,263.4207458496094 L203.5825958251953,263.1964416503906 L201.1724395751953,262.97265625 L198.98660278320312,262.63616943359375 L196.91238403320312,262.35601806640625 L194.67019653320312,262.1316833496094 L192.3158416748047,262.0753479003906 L189.6255645751953,262.0753479003906 L186.93527221679688,262.2996520996094 L184.30078125,262.52398681640625 L181.83425903320312,262.63616943359375 L179.42410278320312,262.63616943359375 L177.1255645751953,262.63616943359375 L174.6595916748047,262.63616943359375 L172.02511596679688,262.63616943359375 L169.390625,262.7483215332031 L166.6997833251953,262.97265625 L164.17745971679688,263.30859375 L161.48716735839844,263.30859375 L158.90847778320312,263.4207458496094 L156.3861541748047,263.5329284667969 L153.8638458251953,263.64508056640625 L151.4536895751953,263.8694152832031 L149.2115020751953,264.09375 L147.41796875,264.3175354003906 L145.62388610839844,264.5418395996094 L143.6060333251953,264.87835693359375 L141.4759979248047,265.1026916503906 L138.8978729248047,265.4386291503906 L136.20703125,265.7751159667969 L133.68470764160156,265.99945068359375 L131.2181854248047,266.33538818359375 L128.8080291748047,266.671875 L126.45368194580078,266.8962097167969 L124.09989166259766,267.12054443359375 L121.68917083740234,267.45648193359375 L119.16685485839844,267.79296875 L116.70088958740234,268.0173034667969 L114.40234375,268.24163818359375 L112.27232360839844,268.24163818359375 L110.31082916259766,268.46539306640625 L108.4609375,268.57757568359375 L106.66741180419922,268.8019104003906 L104.87332916259766,269.0262145996094 L103.80859375,269.1383972167969 L102.6875,269.1383972167969 L101.67857360839844,269.1383972167969 L100.33314514160156,269.1383972167969 L98.76395416259766,269.36273193359375 L96.85770416259766,269.58648681640625 L94.83984375,269.8108215332031 L93.04631805419922,270.03515625 L91.58872985839844,270.2594909667969 L90.1875,270.37164306640625 L88.84263610839844,270.5954284667969 L87.49720764160156,270.70758056640625 L86.20814514160156,270.81976318359375 L84.13392639160156,271.0440979003906 L82.90067291259766,271.15625 L81.33147430419922,271.2684020996094 L80.26618194580078,271.2684020996094 L79.53739166259766,271.2684020996094 L79.25725555419922,271.2684020996094 L79.03292083740234,271.2684020996094 L78.80915069580078,271.3805847167969 L78.58482360839844,271.4921875 L78.13616180419922,271.4921875 L77.68805694580078,271.6043395996094 L77.23939514160156,271.6043395996094 L76.84709930419922,271.6043395996094 L76.45479583740234,271.6043395996094 L76.00614166259766,271.6043395996094 L75.61383819580078,271.6043395996094 L75.16517639160156,271.6043395996094 L74.71707916259766,271.6043395996094 L74.26841735839844,271.6043395996094 L73.8203125,271.7165222167969 L73.37165069580078,271.82867431640625 L72.75502014160156,271.94085693359375 L72.25055694580078,272.0530090332031 L71.85826110839844,272.0530090332031 L71.63392639160156,272.0530090332031 L71.74609375,272.0530090332031 L72.53069305419922,272.0530090332031" stroke="black" stroke-width="2" fill="none"/>
<path d="M185.98214721679688,170.7650604248047 L185.02902221679688,162.02120971679688 L184.8052520751953,160.0033416748047 L184.58091735839844,157.42466735839844 L184.35658264160156,154.4536895751953 L183.90792846679688,150.81027221679688 L183.45982360839844,147.5591583251953 L183.0111541748047,144.0279083251953 L182.50669860839844,140.7767791748047 L181.8900604248047,137.9185333251953 L181.4419708251953,135.33984375 L180.99330139160156,132.87332153320312 L180.54519653320312,130.57533264160156 L180.26451110839844,128.50111389160156 L179.984375,126.59542083740234 L179.76004028320312,125.19419860839844 L179.42410278320312,122.95201110839844 L179.25558471679688,121.60713958740234 L178.97544860839844,120.26171875 L178.6953125,118.91629791259766 L178.3588104248047,117.51506805419922 L178.13449096679688,116.16963958740234 L177.9107208251953,115.21707916259766 L177.68638610839844,114.31975555419922 L177.46205139160156,113.47935485839844 L177.2377166748047,112.80635833740234 L177.01339721679688,112.24609375 L176.7896270751953,111.62946319580078 L176.56529235839844,110.95703125 L176.34095764160156,110.28404235839844 L176.1166229248047,109.66741180419922 L176.0044708251953,109.44364166259766 L175.89285278320312,109.33147430419922 L175.7806854248047,109.33147430419922 L175.55636596679688,109.44364166259766 L175.5,109.55524444580078" stroke="black" stroke-width="2" fill="none"/>
<path d="M176.84542846679688,109.21930694580078 L186.0943145751953,111.62946319580078 L188.4486541748047,112.4140625 L191.53125,113.31082916259766 L194.67019653320312,114.20814514160156 L198.20144653320312,115.38504791259766 L201.56472778320312,116.73046875 L204.8158416748047,118.01953125 L207.95480346679688,119.25279235839844 L210.98158264160156,120.4296875 L214.0083770751953,121.55078125 L217.2036895751953,122.39173889160156 L220.0625,123.28850555419922 L222.58482360839844,124.40959930419922 L225.27511596679688,125.64286041259766 L228.078125,126.53961944580078 L231.1049041748047,127.88504791259766 L234.07533264160156,129.2299041748047 L237.15847778320312,130.51953125 L240.07310485839844,131.75222778320312 L242.93191528320312,132.64955139160156 L245.62220764160156,133.5463104248047 L248.25669860839844,134.49888610839844 L251.05970764160156,135.39564514160156 L254.0865020751953,136.57310485839844 L257.11328125,137.69419860839844 L260.02789306640625,138.87109375 L262.9988708496094,139.9921875 L266.3621520996094,141.16908264160156 L269.5011291503906,142.40234375 L272.52789306640625,143.24330139160156 L275.38671875,143.91574096679688 L277.96484375,144.58872985839844 L280.3191833496094,145.1490020751953 L282.5050354003906,145.59765625 L284.7472229003906,146.04576110839844 L287.2137145996094,146.49441528320312 L289.79241943359375,147.0546875 L292.25836181640625,147.72767639160156 L294.8370666503906,148.40011596679688 L297.52734375,149.18470764160156 L300.0496520996094,149.85769653320312 L302.46038818359375,150.47433471679688 L304.7019958496094,151.09095764160156 L306.8883972167969,151.65122985839844 L308.9620666503906,152.3236541748047 L310.81195068359375,153.1088104248047 L312.2131652832031,153.89341735839844 L313.390625,154.51004028320312 L314.23101806640625,154.95814514160156 L314.6796875,155.4068145751953 L314.7918395996094,155.63113403320312 L314.7918395996094,155.74330139160156 L314.3995666503906,155.74330139160156 L313.05413818359375,155.6869354248047 L312.8298034667969,155.5747833251953" stroke="black" stroke-width="2" fill="none"/>
<path d="M184.86105346679688,180.51841735839844 L175.10769653320312,178.7806854248047 L172.36105346679688,178.7806854248047 L168.71763610839844,178.7806854248047 L165.13058471679688,178.7806854248047 L161.7109375,178.89285278320312 L158.3482208251953,178.89285278320312 L154.70480346679688,178.89285278320312 L151.06138610839844,178.89285278320312 L147.64173889160156,179.1171875 L143.94252014160156,179.1171875 L139.96261596679688,179.1171875 L136.26339721679688,179.1171875 L132.78794860839844,179.1171875 L129.20033264160156,179.1171875 L125.50111389160156,179.1171875 L121.80133819580078,179.34152221679688 L118.38225555419922,179.67800903320312 L115.13114166259766,179.9017791748047 L112.27232360839844,180.01394653320312 L109.63783264160156,180.12611389160156 L107.90010833740234,180.12611389160156 L105.37779235839844,180.23828125 L102.91182708740234,180.46261596679688 L100.55747985839844,180.6869354248047 L98.65178680419922,180.9107208251953 L97.19419860839844,181.13504028320312 L95.73661041259766,181.359375 L94.89620208740234,181.47154235839844 L93.99944305419922,181.58370971679688 L93.3828125,181.6958770751953 L93.10211944580078,181.6958770751953 L93.21428680419922,181.6958770751953 L93.94307708740234,181.6958770751953" stroke="black" stroke-width="2" fill="none"/>
<path d="M184.30078125,194.02734375 L175.61216735839844,194.47544860839844 L171.57644653320312,194.58761596679688 L166.6439666748047,194.6997833251953 L161.26283264160156,195.03627014160156 L155.2650604248047,195.26060485839844 L149.4916229248047,195.4849395751953 L143.99832153320312,195.70870971679688 L137.72042846679688,195.9330291748047 L132.11550903320312,196.04519653320312 L127.18247985839844,196.15736389160156 L122.75446319580078,196.26953125 L118.83091735839844,196.49386596679688 L115.63560485839844,196.60546875 L113.39341735839844,196.60546875 L112.32868194580078,196.60546875 L111.88002014160156,196.60546875 L111.93638610839844,196.60546875 L112.88895416259766,196.60546875" stroke="black" stroke-width="2" fill="none"/>
<path d="M189.5697479248047,214.48660278320312 L181.38560485839844,213.81417846679688 L176.0044708251953,213.47767639160156 L170.11886596679688,213.2533416748047 L163.6171875,213.02902221679688 L156.94642639160156,212.9174041748047 L151.00502014160156,212.8052520751953 L146.296875,212.69308471679688 L142.87722778320312,212.58091735839844 L140.13058471679688,212.52455139160156 L138.7857208251953,212.52455139160156 L138.28125,212.52455139160156 L138.39341735839844,212.74888610839844" stroke="black" stroke-width="2" fill="none"/>
<path d="M193.7734375,233.43247985839844 L183.62779235839844,233.43247985839844 L177.57421875,233.43247985839844 L172.1372833251953,233.3203125 L167.31640625,233.3203125 L163.05636596679688,233.3203125 L160.02957153320312,233.3203125 L158.29185485839844,233.3203125 L158.12388610839844,233.3203125" stroke="black" stroke-width="2" fill="none"/>
<path d="M124.21149444580078,207.87220764160156 L124.88448333740234,215.88783264160156 L124.99665069580078,218.13002014160156 L125.22098541259766,220.37220764160156 L125.33258819580078,222.7265625 L125.55692291259766,225.41685485839844 L125.78125,227.8833770751953 L125.89341735839844,230.4056854248047 L126.11774444580078,232.87220764160156 L126.34151458740234,235.73046875 L126.56584930419922,238.4213104248047 L126.90234375,240.9994354248047 L127.12667083740234,243.35379028320312 L127.46260833740234,245.4838104248047 L127.68694305419922,247.5580291748047 L127.91127014160156,249.74386596679688 L128.13560485839844,252.15402221679688 L128.3599395751953,254.56472778320312 L128.58370971679688,256.8063659667969 L128.8080291748047,259.0485534667969 L129.03236389160156,261.23492431640625 L129.25669860839844,263.4207458496094 L129.48046875,265.6629333496094 L129.8169708251953,267.9051208496094 L130.04129028320312,270.0909729003906 L130.265625,272.27734375 L130.48995971679688,274.2951965332031 L130.71372985839844,276.31304931640625 L130.82589721679688,278.1629333496094 L131.0502166748047,279.95648193359375 L131.16238403320312,281.8621520996094 L131.38671875,283.7120666503906 L131.61048889160156,285.6741027832031 L131.72265625,287.5798034667969 L131.72265625,289.3733215332031 L131.83482360839844,290.88671875 L131.94699096679688,292.45648193359375 L132.0591583251953,294.0256652832031 L132.1713104248047,295.4832458496094 L132.28347778320312,296.9402770996094 L132.28347778320312,298.39788818359375 L132.39564514160156,299.7433166503906 L132.39564514160156,300.9765625 L132.5078125,301.8733215332031 L132.5078125,302.77008056640625 L132.61997985839844,303.6668395996094 L132.61997985839844,304.2834777832031 L132.61997985839844,304.9559020996094 L132.73158264160156,305.62890625 L132.73158264160156,306.30133056640625 L132.73158264160156,306.9737854003906 L132.73158264160156,307.42242431640625 L132.73158264160156,307.87109375 L132.73158264160156,308.3191833496094 L132.73158264160156,308.7678527832031 L132.73158264160156,308.7678527832031 L132.73158264160156,308.8800354003906 L132.73158264160156,308.8800354003906 L132.73158264160156,308.8800354003906 L132.73158264160156,308.8800354003906 L132.73158264160156,308.8800354003906 L132.84375,308.71148681640625" stroke="black" stroke-width="2" fill="none"/>
<path d="M129.87332153320312,314.14898681640625 L121.18470764160156,315.55023193359375 L119.61551666259766,315.6623840332031 L118.04576110839844,315.6623840332031 L116.14006805419922,315.7745666503906 L114.34654235839844,315.9983215332031 L112.55301666259766,316.22265625 L110.75892639160156,316.4469909667969 L108.90904235839844,316.67132568359375 L106.89118194580078,316.89508056640625 L105.04185485839844,316.89508056640625 L103.47209930419922,316.89508056640625 L101.90290069580078,316.89508056640625 L100.33314514160156,316.89508056640625 L98.53961944580078,316.89508056640625 L96.96986389160156,316.89508056640625 L95.40067291259766,317.1194152832031 L93.99944305419922,317.2315979003906 L92.65401458740234,317.2315979003906 L91.58872985839844,317.2315979003906 L90.24385833740234,317.2315979003906 L89.23493194580078,317.2315979003906 L88.16963958740234,317.2315979003906 L86.88057708740234,317.2315979003906 L85.87165069580078,317.2315979003906 L84.91852569580078,317.2315979003906 L84.02176666259766,317.2315979003906 L83.18080139160156,317.2315979003906 L82.50836944580078,317.2315979003906 L81.8359375,317.2315979003906 L81.16294860839844,317.2315979003906 L80.32254791259766,317.2315979003906 L79.42522430419922,317.2315979003906 L78.52845764160156,317.2315979003906 L77.85602569580078,317.2315979003906 L76.95926666259766,317.2315979003906 L76.0625,317.4559020996094 L75.16517639160156,317.68023681640625 L74.38057708740234,317.9040222167969 L73.70814514160156,318.12835693359375 L73.03571319580078,318.3526916503906 L72.36272430419922,318.3526916503906 L71.91461944580078,318.3526916503906 L71.46595764160156,318.46484375 L71.01729583740234,318.6891784667969 L70.96149444580078,318.6891784667969 L70.96149444580078,318.6891784667969 L71.29798889160156,318.6891784667969 L72.69921875,318.6891784667969" stroke="black" stroke-width="2" fill="none"/>
<path d="M120.56807708740234,206.58314514160156 L112.72098541259766,208.71316528320312 L110.92745208740234,208.9375 L108.90904235839844,209.16183471679688 L106.89118194580078,209.2734375 L104.87332916259766,209.38560485839844 L102.85546875,209.6099395751953 L100.83760833740234,209.83425903320312 L98.87611389160156,210.05859375 L96.9140625,210.17076110839844 L95.12053680419922,210.17076110839844 L93.32645416259766,210.17076110839844 L91.53292083740234,210.17076110839844 L90.07533264160156,210.17076110839844 L88.50614166259766,210.17076110839844 L86.93638610839844,210.17076110839844 L85.3671875,210.28292846679688 L83.79743194580078,210.50669860839844 L82.22823333740234,210.7310333251953 L80.82701110839844,210.95535278320312 L79.48158264160156,211.1796875 L78.13616180419922,211.29185485839844 L76.84709930419922,211.40345764160156 L75.50167083740234,211.515625 L74.26841735839844,211.62779235839844 L73.25948333740234,211.62779235839844 L72.19475555419922,211.73995971679688 L70.90569305419922,211.8521270751953 L69.95256805419922,211.9642791748047 L69.28013610839844,212.07644653320312 L68.71930694580078,212.07644653320312 L68.27120208740234,212.07644653320312 L67.99051666259766,212.07644653320312 L67.99051666259766,212.18861389160156 L68.10267639160156,212.41238403320312" stroke="black" stroke-width="2" fill="none"/>
<path d="M121.46540069580078,207.70423889160156 L115.57979583740234,216.11216735839844 L114.17857360839844,219.6997833251953 L112.83314514160156,222.78236389160156 L111.48772430419922,225.7533416748047 L110.03013610839844,228.94810485839844 L108.4609375,231.86328125 L107.00334930419922,234.609375 L105.65848541259766,237.4681854248047 L104.59319305419922,240.32701110839844 L103.30413055419922,243.0736541748047 L102.40736389160156,245.70814514160156 L101.28627014160156,248.17466735839844 L100.4453125,250.640625 L99.21205139160156,253.3872833251953 L98.203125,256.24609375 L97.13838958740234,258.8805847167969 L95.84877014160156,261.40289306640625 L95.06417083740234,264.09375 L94.16741180419922,266.6160583496094 L93.27064514160156,269.1383972167969 L92.37388610839844,271.6043395996094 L91.08426666259766,274.18304443359375 L90.07533264160156,276.8733215332031 L89.01060485839844,279.5078125 L88.05747985839844,281.8621520996094 L87.04854583740234,284.16015625 L86.15178680419922,286.3465270996094 L85.25502014160156,288.7008972167969 L84.4140625,291.1110534667969 L83.51729583740234,293.3532409667969 L82.62053680419922,295.37109375 L81.72377014160156,297.3889465332031 L80.82701110839844,299.35101318359375 L80.15401458740234,301.3125 L79.48158264160156,303.1065979003906 L78.80915069580078,305.0680847167969 L77.96819305419922,306.8616027832031 L77.07142639160156,308.82366943359375 L76.17466735839844,310.8415222167969 L75.33370208740234,312.859375 L74.66071319580078,314.7092590332031 L74.15625,315.6623840332031 L73.70814514160156,316.5027770996094 L73.37165069580078,316.9514465332031 L73.14732360839844,317.17578125 L72.92354583740234,317.2879333496094 L72.8671875,317.2315979003906" stroke="black" stroke-width="2" fill="none"/>
<path d="M70.73716735839844,212.35658264160156 L75.38951110839844,219.41908264160156 L76.73493194580078,221.4369354248047 L78.08036041259766,223.45535278320312 L79.42522430419922,225.3046875 L80.77064514160156,227.09877014160156 L82.05970764160156,228.89230346679688 L83.18080139160156,230.68582153320312 L84.35826110839844,232.5357208251953 L85.64732360839844,234.49777221679688 L86.99274444580078,236.515625 L88.33760833740234,238.53347778320312 L89.62723541259766,240.5513458251953 L90.97265625,242.45703125 L92.09319305419922,244.2505645751953 L93.21428680419922,246.04464721679688 L94.44754791259766,247.83816528320312 L95.34430694580078,249.63169860839844 L96.57756805419922,251.53738403320312 L97.69866180419922,253.44363403320312 L98.81975555419922,255.34933471679688 L99.94084930419922,257.1428527832031 L100.78180694580078,258.9363708496094 L101.67857360839844,260.73046875 L102.57533264160156,262.52398681640625 L103.47209930419922,264.3738708496094 L104.36885833740234,266.33538818359375 L105.265625,268.29742431640625 L106.05078125,269.7550354003906 L106.94754791259766,271.77288818359375 L108.51673889160156,274.2951965332031 L108.96540069580078,275.80859375 L109.86216735839844,277.7706604003906 L110.75892639160156,279.67633056640625 L111.65569305419922,281.6378479003906 L112.55301666259766,283.65570068359375 L113.72991180419922,285.6741027832031 L114.57086944580078,287.7477722167969 L115.46763610839844,289.765625 L116.64453125,291.7834777832031 L117.765625,293.74554443359375 L118.60658264160156,295.70758056640625 L119.50334930419922,297.5569152832031 L120.40010833740234,299.4626159667969 L121.296875,301.3688659667969 L122.19364166259766,303.21820068359375 L123.31473541259766,305.01226806640625 L124.21149444580078,306.8058166503906 L125.10881805419922,308.5993347167969 L126.00557708740234,310.1690979003906 L126.90234375,311.73828125 L127.79911041259766,313.2516784667969 L128.6958770751953,314.6534729003906 L129.36886596679688,315.9983215332031 L130.04129028320312,317.17578125 L130.6015625,318.01617431640625 L130.9380645751953,318.6328125 L131.16238403320312,318.8571472167969 L131.16238403320312,318.96929931640625 L131.0502166748047,318.91351318359375 L130.37779235839844,318.1847229003906 L130.20925903320312,317.7360534667969" stroke="black" stroke-width="2" fill="none"/>
<path d="M235.86941528320312,287.80413818359375 L228.80636596679688,293.91351318359375 L227.01283264160156,295.7633972167969 L225.3314666748047,297.44476318359375 L224.2661895751953,298.734375 L223.48158264160156,299.4626159667969 L223.20144653320312,299.7991027832031 L223.03292846679688,300.0234375 L223.03292846679688,300.1355895996094" stroke="black" stroke-width="2" fill="none"/>
<path d="M261.0368347167969,300.0792541503906 L253.4140625,308.99163818359375 L250.8353729248047,311.9626159667969 L248.81752014160156,314.59710693359375 L247.4720916748047,316.72711181640625 L246.63113403320312,318.01617431640625 L245.95870971679688,318.6328125 L245.67857360839844,318.8571472167969 L245.67857360839844,318.8571472167969" stroke="black" stroke-width="2" fill="none"/>
<path d="M285.0837097167969,319.5859375 L280.5993347167969,327.3772277832031 L278.5256652832031,329.8995666503906 L276.00335693359375,332.87054443359375 L273.92913818359375,335.6730041503906 L272.2477722167969,337.9709777832031 L271.2946472167969,339.7087097167969 L270.6780090332031,340.4938659667969 L270.5100402832031,340.88616943359375 L270.5100402832031,340.9983215332031" stroke="black" stroke-width="2" fill="none"/>
<path d="M299.6015625,338.4196472167969 L296.74273681640625,346.04296875 L294.1640625,349.23773193359375 L291.92242431640625,351.9285583496094 L290.4084777832031,353.44195556640625 L288.55914306640625,354.4508972167969 L287.71820068359375,354.56304931640625" stroke="black" stroke-width="2" fill="none"/>
<path d="M77.12723541259766,372.6121520996094 L77.57588958740234,381.35601806640625 L77.68805694580078,383.3738708496094 L77.79966735839844,385.3923034667969 L78.02399444580078,387.578125 L78.24832916259766,390.0446472167969 L78.47265625,392.5105895996094 L78.69698333740234,394.97711181640625 L78.92076110839844,397.21929931640625 L79.25725555419922,399.46148681640625 L79.59375,401.70367431640625 L80.04185485839844,404.0574645996094 L80.49051666259766,406.97265625 L80.71484375,409.71875 L80.93917083740234,412.0730895996094 L81.05078125,414.3152770996094 L81.16294860839844,416.3331604003906 L81.27510833740234,418.1272277832031 L81.49944305419922,419.9207458496094 L81.72377014160156,421.4899597167969 L81.72377014160156,423.1155090332031 L81.72377014160156,424.6852722167969 L81.72377014160156,426.19866943359375 L81.72377014160156,427.0954284667969 L81.8359375,428.2723083496094 L81.8359375,429.1696472167969 L81.94810485839844,429.6741027832031 L81.94810485839844,430.1785583496094 L81.94810485839844,430.6266784667969 L82.05970764160156,430.73883056640625 L82.05970764160156,430.85101318359375 L82.28404235839844,430.85101318359375 L82.50836944580078,430.85101318359375 L82.73270416259766,430.85101318359375 L82.95703125,430.85101318359375 L83.29296875,430.85101318359375 L83.74163055419922,430.85101318359375 L84.18973541259766,430.85101318359375 L84.80635833740234,430.85101318359375 L85.47935485839844,430.85101318359375 L86.48828125,430.85101318359375 L87.609375,430.85101318359375 L88.95423889160156,430.85101318359375 L90.52399444580078,430.85101318359375 L92.4296875,430.85101318359375 L94.61607360839844,430.9631652832031 L96.9140625,431.0753479003906 L99.15625,431.1875 L101.34207916259766,431.4112854003906 L103.41629791259766,431.5234375 L105.65848541259766,431.5234375 L108.23661041259766,431.5234375 L111.48772430419922,431.35546875 L114.40234375,430.90679931640625 L116.98102569580078,430.2901916503906 L119.16685485839844,429.8420715332031 L121.01673889160156,429.56195068359375 L122.41796875,429.44976806640625 L123.98772430419922,429.44976806640625 L125.83705139160156,429.44976806640625 L127.51897430419922,429.6741027832031 L129.20033264160156,429.78570556640625 L130.6015625,429.78570556640625 L132.0033416748047,429.89788818359375 L132.90011596679688,429.89788818359375 L133.68470764160156,429.89788818359375 L134.1333770751953,429.89788818359375 L134.4693145751953,429.89788818359375 L134.80580139160156,429.89788818359375 L134.80580139160156,429.72991943359375 L134.91796875,429.5055847167969 L134.91796875,429.0574645996094 L134.91796875,428.44085693359375 L134.69363403320312,427.7120666503906 L134.4693145751953,426.87109375 L134.24497985839844,425.9743347167969 L134.02120971679688,424.6852722167969 L133.796875,423.67633056640625 L133.57254028320312,422.1065979003906 L133.3482208251953,420.0887145996094 L133.06808471679688,418.07086181640625 L132.84375,416.0530090332031 L132.61997985839844,414.03515625 L132.45144653320312,412.0173034667969 L132.39564514160156,409.99945068359375 L132.1713104248047,407.8694152832031 L131.94699096679688,405.34710693359375 L131.72265625,402.4319152832031 L131.44252014160156,399.62945556640625 L131.0502166748047,396.4905090332031 L130.71372985839844,393.5758972167969 L130.48995971679688,391.1657409667969 L130.265625,389.2594909667969 L130.04129028320312,387.6902770996094 L129.8169708251953,386.3448791503906 L129.59263610839844,385.2801208496094 L129.36886596679688,383.9905090332031 L129.14453125,382.6456604003906 L128.92019653320312,381.30023193359375 L128.8080291748047,380.2912902832031 L128.8080291748047,379.5066833496094 L128.8080291748047,379.05804443359375 L128.8080291748047,378.609375 L128.8080291748047,378.3855895996094 L128.8080291748047,378.1612854003906 L128.8080291748047,377.9933166503906 L128.8080291748047,377.82476806640625 L128.75222778320312,377.65679931640625" stroke="black" stroke-width="2" fill="none"/>
<path d="M79.76171875,377.93695068359375 L85.42298889160156,384.4391784667969 L86.99274444580078,385.84039306640625 L88.56194305419922,387.3537902832031 L90.57979583740234,389.2594909667969 L92.93415069580078,391.27734375 L95.12053680419922,393.18359375 L97.13838958740234,394.97711181640625 L99.15625,396.54632568359375 L101.00557708740234,398.1160583496094 L102.79966735839844,399.6852722167969 L104.59319305419922,401.0870666503906 L106.38671875,402.6004333496094 L108.18080139160156,404.1696472167969 L109.97432708740234,405.7394104003906 L111.37555694580078,407.1964416503906 L112.9453125,408.76617431640625 L114.51451110839844,410.33538818359375 L116.08426666259766,411.79296875 L117.48548889160156,413.0262145996094 L118.83091735839844,414.2594909667969 L120.17578125,415.5485534667969 L121.46540069580078,416.78179931640625 L122.75446319580078,417.90289306640625 L124.09989166259766,419.02398681640625 L125.55692291259766,419.8644104003906 L126.90234375,420.76171875 L128.19140625,421.6584777832031 L129.3125,422.55523681640625 L130.15345764160156,423.2276916503906 L130.65792846679688,423.78851318359375 L131.1060333251953,424.2366027832031 L131.1060333251953,424.6852722167969 L131.1060333251953,425.13336181640625 L130.9380645751953,425.4698791503906 L130.6015625,425.4698791503906" stroke="black" stroke-width="2" fill="none"/>
<path d="M242.6517791748047,406.80413818359375 L234.13169860839844,408.59820556640625 L231.4408416748047,408.59820556640625 L228.8627166748047,408.59820556640625 L225.5552520751953,408.59820556640625 L222.58482360839844,408.3175354003906 L219.33370971679688,407.47711181640625 L216.0825958251953,406.7483215332031 L213.11160278320312,406.1316833496094 L210.3091583251953,406.01953125 L207.61830139160156,406.01953125 L204.87220764160156,406.2438659667969 L202.06919860839844,406.2438659667969 L199.15457153320312,406.2438659667969 L196.23995971679688,406.1875 L193.3247833251953,406.0753479003906 L190.2421875,406.01953125 L188.05580139160156,406.01953125 L185.19754028320312,406.01953125 L182.28236389160156,406.01953125 L179.3119354248047,406.01953125 L176.67745971679688,406.01953125 L174.15513610839844,406.01953125 L171.6328125,406.01953125 L169.16629028320312,406.01953125 L166.6997833251953,406.1316833496094 L164.2896270751953,406.1316833496094 L162.0474395751953,406.2438659667969 L159.7494354248047,406.35601806640625 L157.5072479248047,406.5798034667969 L155.2650604248047,406.5798034667969 L153.13504028320312,406.69195556640625 L151.22935485839844,406.69195556640625 L149.43582153320312,406.80413818359375 L147.64173889160156,407.0284729003906 L145.8482208251953,407.0284729003906 L144.33482360839844,407.2527770996094 L142.98939514160156,407.47711181640625 L141.6439666748047,407.5887145996094 L140.57923889160156,407.5887145996094 L139.45814514160156,407.7008972167969 L138.56138610839844,407.81304931640625 L137.72042846679688,408.0373840332031 L136.8236541748047,408.26171875 L135.92689514160156,408.4860534667969 L135.19810485839844,408.7098083496094 L134.5814666748047,408.93414306640625 L133.96484375,409.1584777832031 L133.3482208251953,409.4949645996094 L132.78794860839844,409.9430847167969 L132.3392791748047,410.16741943359375 L131.8911895751953,410.3917541503906 L131.44252014160156,410.3917541503906 L130.99441528320312,410.50390625 L130.71372985839844,410.50390625 L130.6015625,410.50390625 L130.54576110839844,410.50390625 L130.54576110839844,410.50390625 L130.54576110839844,410.50390625" stroke="black" stroke-width="2" fill="none"/>
<path d="M199.93917846679688,399.0691833496094 L198.5943145751953,408.8219909667969 L198.70591735839844,411.12054443359375 L199.0424041748047,412.8019104003906 L199.26673889160156,414.3152770996094 L199.49107360839844,415.32421875 L199.49107360839844,416.2209777832031 L199.49107360839844,416.5574645996094 L199.49107360839844,416.5016784667969 L199.49107360839844,416.3894958496094" stroke="black" stroke-width="2" fill="none"/>
<path d="M384.3532409667969,264.9905090332031 L373.9274597167969,263.9815979003906 L370.7326965332031,264.4860534667969 L367.3694152832031,265.3264465332031 L364.2862854003906,265.7751159667969 L361.2594909667969,266.1116027832031 L357.84039306640625,266.33538818359375 L354.58929443359375,266.5597229003906 L351.7868347167969,266.7840270996094 L349.3203125,266.7840270996094 L346.91015625,266.8962097167969 L344.4436340332031,266.8962097167969 L341.9776916503906,266.8962097167969 L339.39898681640625,266.8962097167969 L336.98883056640625,267.12054443359375 L334.6344909667969,267.34429931640625 L332.16796875,267.6808166503906 L329.7019958496094,267.9051208496094 L327.79632568359375,267.9051208496094 L326.1144104003906,268.0173034667969 L324.6573791503906,268.0173034667969 L323.7042541503906,268.12945556640625 L323.03179931640625,268.3532409667969 L322.86328125,268.57757568359375" stroke="black" stroke-width="2" fill="none"/>
<path d="M336.9324645996094,189.8794708251953 L338.39007568359375,200.02511596679688 L338.89453125,204.1166229248047 L339.56695556640625,208.3208770751953 L340.18359375,212.24441528320312 L340.8565979003906,216.3365020751953 L341.6969909667969,221.04464721679688 L342.6501159667969,225.36105346679688 L343.1545715332031,229.4525604248047 L343.6590270996094,233.3203125 L344.16351318359375,236.96372985839844 L344.6121520996094,240.6634979248047 L344.9480895996094,244.58705139160156 L345.45257568359375,248.62277221679688 L345.95703125,252.8828125 L346.5178527832031,257.0870666503906 L347.0223083496094,260.8426208496094 L347.58258056640625,264.59820556640625 L348.0870666503906,268.57757568359375 L348.4235534667969,272.27734375 L348.8722229003906,275.8644104003906 L349.3203125,279.3956604003906 L349.8811340332031,282.703125 L350.3292541503906,285.6741027832031 L350.6657409667969,288.7566833496094 L351.11383056640625,292.1199645996094 L351.3381652832031,295.4269104003906 L351.6746520996094,298.734375 L351.89898681640625,301.9855041503906 L352.1227722167969,305.2366027832031 L352.4592590332031,308.0948791503906 L352.7957458496094,310.89788818359375 L353.02008056640625,313.7003479003906 L353.2438659667969,316.0546875 L353.46820068359375,318.1847229003906 L353.6925354003906,319.9782409667969 L353.9168395996094,321.37945556640625 L354.14117431640625,322.7248840332031 L354.3649597167969,324.0139465332031 L354.58929443359375,325.3030090332031 L354.8136291503906,326.81695556640625 L355.0379333496094,328.0496520996094 L355.1501159667969,328.72265625 L355.1501159667969,329.05859375 L355.1501159667969,329.05859375 L355.1501159667969,328.8348083496094" stroke="black" stroke-width="2" fill="none"/>
<path d="M217.25949096679688,163.5345916748047 L219.7259979248047,171.32589721679688 L219.95033264160156,173.34375 L220.17466735839844,175.47377014160156 L220.3984375,177.99609375 L220.8470916748047,181.30300903320312 L221.29519653320312,184.2740020751953 L221.74386596679688,187.02064514160156 L222.08035278320312,189.65513610839844 L222.3046875,192.1216583251953 L222.640625,194.58761596679688 L222.9771270751953,196.82980346679688 L223.31361389160156,198.90402221679688 L223.64955139160156,201.03404235839844 L223.87388610839844,203.1640625 L224.0982208251953,205.18191528320312 L224.32254028320312,207.14341735839844 L224.5463104248047,208.9375 L224.77064514160156,210.6752166748047 L224.99497985839844,212.41238403320312 L225.2193145751953,213.421875 L225.44363403320312,215.4955291748047 L225.5552520751953,217.34542846679688 L225.77957153320312,219.1953125 L226.00390625,220.9888458251953 L226.11607360839844,222.67019653320312 L226.3404083251953,224.18359375 L226.4525604248047,225.8091583251953 L226.6763458251953,227.60324096679688 L226.7884979248047,229.50892639160156 L226.90066528320312,231.02232360839844 L227.01283264160156,232.47935485839844 L227.01283264160156,233.37667846679688 L227.125,234.04910278320312 L227.23716735839844,234.66574096679688 L227.34933471679688,235.33816528320312 L227.34933471679688,236.0111541748047 L227.34933471679688,236.68359375 L227.34933471679688,237.3002166748047 L227.4615020751953,237.74832153320312 L227.5736541748047,238.08482360839844 L227.5736541748047,238.19699096679688 L227.7974395751953,238.3091583251953 L227.9095916748047,238.53347778320312 L228.02175903320312,238.7578125 L228.24609375,239.20591735839844 L228.24609375,239.65457153320312 L228.24609375,240.10267639160156 L228.35826110839844,240.43917846679688 L228.35826110839844,240.5513458251953 L228.35826110839844,240.49497985839844 L228.35826110839844,239.93470764160156 L228.30189514160156,239.76673889160156" stroke="black" stroke-width="2" fill="none"/>
			</svg>
		