
			<svg xmlns="http://www.w3.org/2000/svg" width="500" height="500" >
				<path d="M117.5,101 L116,128 L116,128 L116,136 L117,144 L118,152 L118.5,161 L119,170.5 L119.5,180 L120,190 L120,200 L120.5,210 L120.5,219.5 L120.5,229 L120.5,240 L120.5,251 L120.5,262 L120.5,271 L120.5,279.5 L120.5,288 L120.5,297 L120.5,306.5 L120.5,314.5 L120.5,322 L120.5,329.5 L120.5,338 L120.5,348 L120.5,358.5 L120.5,372 L120.5,383.5 L120.5,393.5 L120.5,400.5 L120.5,406.5 L120.5,411.5 L121,416 L121.5,419 L121.5,421.5 L121.5,423 L121.5,424.5 L121.5,425.5 L121.5,426" stroke="black" stroke-width="2" fill="none"/>
<path d="M106,102.5 L129,101.5 L129,101.5 L136.5,101 L144.5,101 L154.5,101 L164,101 L175,101 L185.5,101 L196,101 L205.5,101 L215,101 L223,101.5 L230,102 L236,102.5 L240.5,103 L244,103.5 L246,104 L247,105 L248,106 L248,107 L248,108.5 L248,111 L248,114 L247.5,118 L247.5,122.5 L247.5,128.5 L247.5,135.5 L247.5,144.5 L247.5,152.5 L247.5,159.5 L247.5,166 L247,171 L246.5,176.5 L246.5,182.5 L246,190.5 L246,197.5 L245.5,203.5 L245.5,209.5 L245.5,214.5 L245.5,219.5 L245.5,225 L245.5,231 L245.5,237 L245.5,242.5 L245.5,248.5 L245.5,255 L245.5,262 L245.5,270.5 L245.5,280.5 L245.5,289.5 L245.5,297.5 L245.5,306.5 L245.5,318.5 L245.5,333 L245.5,349.5 L245.5,365 L245.5,379.5 L245,393.5 L244.5,404 L244,412.5 L243.5,419.5 L243,424 L241.5,427 L239.5,429 L238,430 L235.5,431 L232.5,431 L227.5,431.5 L221.5,431.5 L214,431.5 L205.5,431.5 L198,431.5 L189,431.5 L179.5,431.5 L170,431.5 L160,431.5 L151.5,431.5 L144,431 L138.5,430 L134.5,429 L131,428.5 L128.5,428 L127,428 L126,427.5" stroke="black" stroke-width="2" fill="none"/>
<path d="M237,93.5 L266.5,124.5 L266.5,124.5 L275.5,135.5 L283.5,147 L292,158 L300.5,168.5 L309,178.5 L317,188 L324.5,196 L331,205.5 L337.5,215.5 L342.5,224 L346.5,232.5 L349.5,240 L351.5,245.5 L353,249.5 L353.5,252 L353.5,254.5 L353.5,257 L351.5,261.5 L347.5,268 L342,275 L336.5,283 L329.5,291.5 L321.5,304 L311.5,320.5 L304,335.5 L297,349.5 L290,361 L284.5,372.5 L279,383.5 L273.5,395 L267.5,404 L263,411.5 L259.5,417.5 L256.5,422 L254,425.5 L251.5,428 L250,430 L249,431.5 L249,432" stroke="black" stroke-width="2" fill="none"/>
<path d="M114,101.5 L137,158 L137,158 L144.5,175.5 L153,192 L160.5,210 L166.5,226.5 L172.5,243 L178,258.5 L182.5,272 L187,288.5 L192,305 L196,321.5 L200,338.5 L205,353.5 L209.5,366.5 L215.5,380.5 L220,394 L224,405.5 L227.5,417 L230.5,426.5 L234.5,435 L237.5,442.5 L239.5,446.5 L241,448.5 L241,449" stroke="black" stroke-width="2" fill="none"/>
<path d="M240,99 L230,143 L230,143 L224,162 L216.5,184.5 L206.5,209 L197.5,229 L187,249 L178.5,265.5 L171.5,280.5 L164.5,296 L158,311 L153,323 L149,333.5 L145,343 L142.5,352.5 L139,362.5 L134.5,374.5 L129.5,386.5 L124,397.5 L121,406.5 L119,413.5 L117.5,419.5 L116.5,424 L116,427.5 L115,429.5 L114.5,431 L114.5,431.5 L112,431.5" stroke="black" stroke-width="2" fill="none"/>
<path d="M118.5,229.5 L88.5,239 L88.5,239 L79.5,240.5 L72.5,241.5 L68,242 L64,242 L61.5,242 L59.5,242 L59,242 L59,240.5" stroke="black" stroke-width="2" fill="none"/>
<path d="M58.5,70 L58.5,110 L58.5,110 L58.5,126 L58.5,142.5 L58.5,158.5 L59.5,176.5 L60,199.5 L60,220.5 L60,240 L60,257 L60,268.5 L60,278 L60,286.5 L60,293.5 L60,299.5 L60,304 L60,307.5 L60,314 L58,318.5" stroke="black" stroke-width="2" fill="none"/>
			</svg>
		