
			<svg xmlns="http://www.w3.org/2000/svg" width="500" height="500" >
				<path d="M147.97824096679688,102.26841735839844 L150.55691528320312,114.76841735839844 L150.83705139160156,120.65401458740234 L151.00502014160156,126.81975555419922 L151.06138610839844,133.48995971679688 L151.06138610839844,140.9453125 L151.06138610839844,149.40904235839844 L151.22935485839844,158.37779235839844 L151.4536895751953,167.9068145751953 L151.7896270751953,178.05189514160156 L152.12611389160156,188.53404235839844 L152.51841735839844,199.1841583251953 L152.96707153320312,209.8900604248047 L153.41517639160156,221.1568145751953 L154.0318145751953,232.03125 L154.76060485839844,242.84933471679688 L155.71372985839844,253.4994354248047 L156.5541229248047,263.4765625 L157.84375,273.06195068359375 L158.57199096679688,282.19866943359375 L159.24497985839844,291.1668395996094 L159.86160278320312,298.90234375 L160.53404235839844,305.62890625 L161.2064666748047,311.23382568359375 L161.76730346679688,315.9425354003906 L162.1595916748047,319.6980895996094 L162.60826110839844,323.0613708496094 L163.1127166748047,325.86383056640625 L164.06529235839844,327.8816833496094 L165.01841735839844,329.39508056640625 L166.58761596679688,330.96484375 L168.7740020751953,332.7019958496094 L171.57644653320312,334.04742431640625 L175.5,334.7198791503906 L180.54519653320312,335.0563659667969 L185.98214721679688,335.16851806640625 L192.20423889160156,335.16851806640625 L198.9302520751953,335.2248840332031 L206.2734375,335.2248840332031 L214.625,335.2248840332031 L223.53738403320312,335.2248840332031 L233.01060485839844,335.33648681640625 L242.5396270751953,335.7293395996094 L252.74107360839844,336.40179443359375 L262.88671875,337.69085693359375 L273.0323791503906,339.2605895996094 L283.3459777832031,340.8298034667969 L294.0524597167969,342.6796875 L304.87054443359375,344.30523681640625 L315.5764465332031,345.87445068359375 L326.39453125,347.3878479003906 L336.5965270996094,349.40625 L346.40570068359375,351.19976806640625 L355.6545715332031,352.8811340332031 L364.7912902832031,354.3387145996094 L373.0870666503906,355.34765625 L380.7098083496094,356.02008056640625 L386.98773193359375,356.63671875 L392.2008972167969,356.8610534667969 L396.5167541503906,356.8610534667969 L399.5998840332031,356.4123840332031 L401.89788818359375,355.68414306640625 L403.5798034667969,354.0022277832031 L404.98101806640625,352.0965270996094 L406.27008056640625,349.2940979003906 L407.2790222167969,345.53851318359375 L408.51226806640625,340.8298034667969 L409.63336181640625,335.2248840332031 L410.6423034667969,328.9464416503906 L411.70758056640625,321.54742431640625 L412.9402770996094,313.0837097167969 L414.22991943359375,303.4988708496094 L415.68695068359375,292.9609375 L417.0881652832031,281.6378479003906 L419.21820068359375,269.86663818359375 L421.2366027832031,258.15179443359375 L423.3102722167969,246.54910278320312 L425.66461181640625,235.17019653320312 L428.5792541503906,224.07142639160156 L430.765625,216.39230346679688 L433.4001159667969,206.58314514160156 L436.03460693359375,197.83872985839844 L438.8370666503906,189.8794708251953 L441.4151916503906,182.92857360839844 L443.5451965332031,176.31472778320312 L444.7784729003906,170.6529083251953 L445.2829284667969,165.72042846679688 L444.6105041503906,161.68470764160156 L442.81695556640625,158.265625 L440.23828125,155.01451110839844 L436.9313659667969,151.76339721679688 L433.00726318359375,148.6802520751953 L428.1311340332031,145.59765625 L422.1891784667969,142.40234375 L415.57476806640625,139.5435333251953 L407.7834777832031,136.90904235839844 L399.31976318359375,134.33091735839844 L390.6316833496094,131.69642639160156 L381.3264465332031,129.34207153320312 L371.57366943359375,126.81975555419922 L361.31585693359375,124.57756805419922 L350.0491027832031,122.16741180419922 L338.3342590332031,120.37388610839844 L325.77789306640625,118.97209930419922 L312.77398681640625,117.51506805419922 L299.8258972167969,116.11383819580078 L286.7092590332031,114.76841735839844 L273.3688659667969,113.47935485839844 L260.2522277832031,112.24609375 L247.75222778320312,110.84486389160156 L236.26171875,108.93861389160156 L225.77957153320312,106.92076110839844 L216.0825958251953,104.73493194580078 L206.609375,102.77288055419922 L198.08984375,101.09151458740234 L190.13002014160156,99.63392639160156 L183.12332153320312,98.625 L176.84542846679688,97.78459930419922 L171.52064514160156,97.44810485839844 L167.1484375,97.44810485839844 L163.50502014160156,97.44810485839844 L160.81417846679688,97.78459930419922 L158.85267639160156,98.40067291259766 L157.45144653320312,99.29798889160156 L156.1060333251953,100.13838958740234 L155.20925903320312,101.20368194580078 L154.48046875,102.49274444580078 L154.1439666748047,103.44586944580078" stroke="black" stroke-width="2" fill="none"/>
			</svg>
		