
			<svg xmlns="http://www.w3.org/2000/svg" width="500" height="500" >
				<path d="M68.77567291259766,149.18470764160156 L68.88727569580078,159.2181854248047 L69.11161041259766,161.796875 L69.3359375,165.328125 L69.56026458740234,168.859375 L69.78459930419922,171.99832153320312 L70.00836944580078,174.85714721679688 L70.23270416259766,177.77175903320312 L70.68135833740234,180.8549041748047 L71.01729583740234,183.71372985839844 L71.52176666259766,187.52511596679688 L71.97042083740234,191.2806854248047 L72.08258819580078,194.92410278320312 L72.08258819580078,198.28738403320312 L72.08258819580078,201.4263458251953 L72.08258819580078,204.67745971679688 L72.19475555419922,208.04074096679688 L72.30692291259766,211.40345764160156 L72.53069305419922,214.99107360839844 L72.75502014160156,218.9146270751953 L72.75502014160156,222.83872985839844 L72.8671875,226.31361389160156 L73.09151458740234,230.01339721679688 L73.20368194580078,233.7689666748047 L73.31584930419922,237.52455139160156 L73.42801666259766,241.61607360839844 L73.76395416259766,245.87611389160156 L73.98828125,250.24832153320312 L74.32477569580078,255.01283264160156 L74.54911041259766,259.5530090332031 L74.54911041259766,264.09375 L74.66071319580078,268.9698791503906 L74.66071319580078,273.734375 L74.99720764160156,279.1155090332031 L75.44586944580078,284.3844909667969 L76.00614166259766,290.4386291503906 L76.56696319580078,296.2120666503906 L76.90290069580078,301.5926208496094 L77.23939514160156,307.0301208496094 L77.68805694580078,312.5234375 L78.02399444580078,318.12835693359375 L78.47265625,323.9581604003906 L78.69698333740234,330.2918395996094 L79.14508819580078,336.1774597167969 L79.25725555419922,341.4464416503906 L79.25725555419922,345.3141784667969 L79.25725555419922,348.2287902832031 L79.20145416259766,349.91070556640625 L79.14508819580078,350.24664306640625 L79.14508819580078,350.19085693359375" stroke="black" stroke-width="2" fill="none"/>
<path d="M327.79632568359375,155.12667846679688 L317.2019958496094,157.4810333251953 L313.22210693359375,157.8169708251953 L308.9620666503906,157.8169708251953 L304.0295715332031,157.8169708251953 L299.09710693359375,157.70480346679688 L294.1082458496094,157.59263610839844 L288.6149597167969,157.53683471679688 L282.6735534667969,157.53683471679688 L277.12445068359375,157.53683471679688 L271.2946472167969,157.7611541748047 L265.296875,158.0970916748047 L259.4676208496094,158.32142639160156 L253.75,158.43359375 L247.640625,158.65792846679688 L241.47433471679688,158.8822479248047 L235.08425903320312,158.99441528320312 L228.7505645751953,159.10658264160156 L222.3046875,159.10658264160156 L215.97042846679688,158.7700958251953 L209.52455139160156,158.20925903320312 L203.35826110839844,157.7611541748047 L197.13671875,157.25669860839844 L190.8588104248047,156.75222778320312 L184.86105346679688,156.3599395751953 L178.80747985839844,156.13560485839844 L173.14620971679688,155.85546875 L168.15736389160156,155.6869354248047 L163.1685333251953,155.46261596679688 L158.06752014160156,155.0703125 L153.07923889160156,154.67800903320312 L148.14620971679688,154.17355346679688 L143.1015625,153.61328125 L138.1127166748047,153.22097778320312 L133.796875,152.94029235839844 L129.48046875,152.66015625 L125.16461944580078,152.66015625 L120.9609375,152.66015625 L116.98102569580078,152.66015625 L113.16908264160156,152.77232360839844 L109.35770416259766,152.9966583251953 L105.32198333740234,153.1088104248047 L101.62220764160156,153.3325958251953 L98.31529235839844,153.55691528320312 L95.12053680419922,153.94921875 L92.14955139160156,154.4536895751953 L89.34709930419922,154.95814514160156 L86.65625,155.29464721679688 L84.078125,155.4068145751953 L81.72377014160156,155.5189666748047 L79.48158264160156,155.5189666748047 L77.79966735839844,155.5189666748047 L76.23046875,155.4068145751953 L74.88504791259766,155.4068145751953 L73.54017639160156,155.4068145751953 L72.81138610839844,155.4068145751953 L72.30692291259766,155.4068145751953 L71.69029235839844,155.4068145751953 L71.46595764160156,155.4068145751953 L71.24163055419922,155.4068145751953 L70.90569305419922,155.4068145751953 L70.45703125,155.4068145751953 L70.00836944580078,155.4068145751953 L69.78459930419922,155.29464721679688" stroke="black" stroke-width="2" fill="none"/>
<path d="M330.9910583496094,160.78794860839844 L329.92633056640625,169.1958770751953 L329.92633056640625,171.15792846679688 L329.92633056640625,173.73605346679688 L330.26226806640625,177.54798889160156 L330.7109375,181.6958770751953 L331.32757568359375,185.84375 L331.9441833496094,189.93527221679688 L332.8409729003906,194.86830139160156 L333.79351806640625,200.3052520751953 L335.1389465332031,206.3588104248047 L336.03570556640625,212.69308471679688 L336.8203125,219.58761596679688 L338.0535583496094,226.31361389160156 L338.7823791503906,233.04017639160156 L339.4548034667969,239.5982208251953 L340.0714416503906,246.04464721679688 L340.7444152832031,252.5463104248047 L341.1925354003906,259.10491943359375 L341.5290222167969,265.4949645996094 L341.75335693359375,271.66070556640625 L341.9776916503906,277.54632568359375 L342.2014465332031,283.03961181640625 L342.42578125,288.5323791503906 L342.5379333496094,294.0256652832031 L342.9866027832031,299.0144958496094 L343.21038818359375,304.00335693359375 L343.546875,308.71148681640625 L344.05133056640625,313.36383056640625 L344.6121520996094,317.6238708496094 L345.0602722167969,321.8839416503906 L345.5089416503906,325.97601318359375 L345.8448791503906,329.6194152832031 L346.0691833496094,332.7019958496094 L346.29351806640625,335.7293395996094 L346.40570068359375,338.02734375 L346.5178527832031,340.26953125 L346.5178527832031,342.06304931640625 L346.5178527832031,343.18414306640625 L346.6300354003906,344.6975402832031 L346.6300354003906,345.59429931640625 L346.6300354003906,346.3230895996094 L346.7421875,346.7717590332031 L346.7421875,347.2198791503906 L346.6858215332031,347.4441833496094 L346.46148681640625,347.66851806640625 L346.29351806640625,347.8928527832031 L346.12554931640625,347.8928527832031 L345.9012145996094,347.8928527832031 L345.6769104003906,347.8928527832031 L345.5647277832031,347.66851806640625 L345.5647277832031,347.2198791503906 L345.5647277832031,346.8839416503906" stroke="black" stroke-width="2" fill="none"/>
<path d="M347.86328125,346.71539306640625 L337.0446472167969,346.3230895996094 L333.73773193359375,346.7717590332031 L329.9821472167969,347.33203125 L326.3387145996094,347.66851806640625 L322.19085693359375,347.66851806640625 L318.2673034667969,347.66851806640625 L314.5675354003906,347.66851806640625 L310.64398193359375,347.66851806640625 L306.6082458496094,347.78070068359375 L302.0675354003906,347.8928527832031 L297.359375,348.11663818359375 L292.4269104003906,348.3409729003906 L287.3816833496094,348.453125 L282.11273193359375,348.453125 L277.0680847167969,348.2287902832031 L272.0234375,347.83648681640625 L266.58648681640625,347.4441833496094 L261.26116943359375,347.2762145996094 L255.9921875,347.2762145996094 L250.21875,347.5 L244.55747985839844,348.00445556640625 L238.95201110839844,348.62109375 L233.3470916748047,349.06976318359375 L227.40513610839844,349.2940979003906 L221.51953125,349.40625 L215.29798889160156,349.40625 L209.0200958251953,349.23773193359375 L203.078125,349.0139465332031 L197.13671875,348.78961181640625 L191.30691528320312,348.453125 L185.58984375,348.0608215332031 L179.92857360839844,347.7243347167969 L174.32310485839844,347.5 L169.2220916748047,347.2198791503906 L164.06529235839844,346.99554443359375 L158.90847778320312,346.9397277832031 L153.9759979248047,346.9397277832031 L149.04296875,346.9397277832031 L144.22265625,346.9397277832031 L140.57923889160156,347.0519104003906 L136.375,347.2762145996094 L132.28347778320312,347.3883972167969 L128.0234375,347.5 L123.59542083740234,347.7243347167969 L119.22321319580078,347.7243347167969 L115.01897430419922,347.7243347167969 L110.98326110839844,347.5 L107.00334930419922,347.33203125 L103.30413055419922,347.1640625 L100.10881805419922,347.0519104003906 L97.19419860839844,346.9397277832031 L94.44754791259766,346.71539306640625 L92.20536041259766,346.4910583496094 L90.29966735839844,346.4910583496094 L88.61830139160156,346.4910583496094 L87.27288055419922,346.4910583496094 L85.87165069580078,346.71539306640625 L84.58258819580078,346.9397277832031 L83.85379791259766,346.9397277832031 L83.23716735839844,346.9397277832031 L82.95703125,346.9397277832031 L82.95703125,346.9397277832031 L83.40513610839844,346.8839416503906 L83.74163055419922,346.7717590332031" stroke="black" stroke-width="2" fill="none"/>
<path d="M330.9352722167969,158.04129028320312 L336.14788818359375,167.5703125 L339.1746520996094,171.38169860839844 L342.42578125,174.9134979248047 L346.12554931640625,178.6685333251953 L350.0491027832031,183.20925903320312 L354.30914306640625,187.41294860839844 L358.3448791503906,191.39285278320312 L362.8850402832031,195.59654235839844 L367.59375,199.4642791748047 L371.4051208496094,202.8275604248047 L374.7684020996094,206.0786895751953 L378.01953125,209.10546875 L381.04632568359375,212.0200958251953 L384.24163818359375,215.15904235839844 L387.3805847167969,218.63449096679688 L390.4631652832031,221.94140625 L393.09765625,224.6322479248047 L395.67633056640625,227.15457153320312 L398.1423034667969,229.50892639160156 L400.49664306640625,231.80691528320312 L402.2901916503906,233.3203125 L403.0753479003906,234.66574096679688 L404.14007568359375,235.39453125 L404.7008972167969,236.0111541748047 L405.14898681640625,236.62779235839844 L405.26116943359375,237.0200958251953 L405.26116943359375,237.4681854248047 L405.26116943359375,237.97265625 L405.3733215332031,238.4213104248047 L405.4855041503906,239.03794860839844 L405.7098083496094,239.7103729248047 L405.93359375,240.3828125 L406.0457458496094,240.9994354248047 L406.1579284667969,241.6724395751953 L406.1579284667969,242.34486389160156 L405.9899597167969,243.01730346679688 L405.4855041503906,243.9146270751953 L404.7008972167969,245.14732360839844 L403.8035583496094,246.88504028320312 L402.3465270996094,249.40736389160156 L400.3844909667969,252.99497985839844 L398.19866943359375,256.9748840332031 L396.1808166503906,260.39398193359375 L393.88226318359375,264.1495666503906 L391.0798034667969,268.6339416503906 L387.94085693359375,273.3420715332031 L384.8576965332031,278.7795715332031 L381.9430847167969,283.8800354003906 L379.2527770996094,288.8688659667969 L376.6183166503906,294.08203125 L374.31976318359375,298.6222229003906 L372.3582458496094,303.05023193359375 L370.2840270996094,307.25445556640625 L368.6584777832031,311.23382568359375 L366.80914306640625,315.26953125 L365.1272277832031,319.13726806640625 L363.72601318359375,322.5569152832031 L362.32476806640625,326.0881652832031 L360.9793395996094,329.50726318359375 L359.6902770996094,332.6462097167969 L358.6813659667969,335.6171875 L357.4480895996094,338.7561340332031 L356.1590270996094,341.6707458496094 L355.09375,343.96875 L354.0290222167969,346.2673034667969 L352.9637145996094,348.0608215332031 L352.01116943359375,349.4620666503906 L351.11383056640625,350.9196472167969 L350.3292541503906,352.2644958496094 L349.82476806640625,353.2176208496094 L349.3766784667969,354.0022277832031 L349.0959777832031,354.4508972167969 L348.98382568359375,354.7873840332031 L348.98382568359375,354.89898681640625 L349.0959777832031,354.1707458496094" stroke="black" stroke-width="2" fill="none"/>
<path d="M330.20648193359375,166.67355346679688 L322.6953125,170.93359375 L318.71539306640625,174.6328125 L314.7918395996094,178.1640625 L310.1394958496094,182.48046875 L305.2628479003906,186.57199096679688 L300.27398681640625,190.60826110839844 L294.78070068359375,195.09207153320312 L289.0636291503906,200.02511596679688 L283.0094909667969,205.1255645751953 L276.9001159667969,210.2265625 L270.3415222167969,215.60769653320312 L263.67132568359375,221.1568145751953 L257.44976806640625,225.8091583251953 L250.77957153320312,230.5736541748047 L244.55747985839844,235.39453125 L238.83984375,240.43917846679688 L233.4029083251953,245.0357208251953 L227.7416229248047,249.40736389160156 L222.24832153320312,254.11607360839844 L216.69921875,258.7684020996094 L211.26171875,262.8605041503906 L206.16127014160156,266.6160583496094 L200.89230346679688,270.4274597167969 L195.5111541748047,274.6316833496094 L190.52232360839844,278.55523681640625 L185.70201110839844,282.36663818359375 L181.2734375,285.78570556640625 L176.73326110839844,288.98101806640625 L172.24888610839844,292.2321472167969 L167.9330291748047,295.3147277832031 L163.50502014160156,298.22991943359375 L159.1328125,301.2003479003906 L154.87277221679688,304.22711181640625 L150.6685333251953,307.3102722167969 L146.68917846679688,310.28125 L142.82142639160156,312.5792541503906 L138.8978729248047,314.76507568359375 L135.0859375,317.00726318359375 L131.61048889160156,318.8571472167969 L128.19140625,320.8191833496094 L124.66015625,322.8928527832031 L121.24107360839844,325.19140625 L117.93359375,327.5451965332031 L114.90680694580078,329.6194152832031 L112.21651458740234,331.4129333496094 L109.02120208740234,333.3186340332031 L105.65848541259766,335.28070068359375 L102.46317291259766,337.07421875 L99.54854583740234,338.4196472167969 L97.41852569580078,339.82086181640625 L94.671875,341.390625 L92.37388610839844,342.2873840332031 L90.35602569580078,343.46429443359375 L88.84263610839844,344.3610534667969 L87.49720764160156,344.921875 L86.03961944580078,345.7628479003906 L84.75055694580078,346.54742431640625 L83.40513610839844,347.4441833496094 L82.39620208740234,348.3409729003906 L81.38727569580078,349.12554931640625 L80.54631805419922,349.7985534667969 L79.81807708740234,350.24664306640625 L79.42522430419922,350.5831604003906 L79.31361389160156,350.6953125 L79.87388610839844,350.6953125" stroke="black" stroke-width="2" fill="none"/>
<path d="M71.12946319580078,159.10658264160156 L80.8828125,163.75892639160156 L84.69419860839844,166.0005645751953 L89.01060485839844,168.63504028320312 L93.71875,171.5502166748047 L98.42745208740234,174.6328125 L103.24776458740234,178.1640625 L109.30189514160156,182.08816528320312 L115.41127014160156,185.78738403320312 L121.296875,189.43080139160156 L126.51004791259766,192.68191528320312 L130.8822479248047,195.8208770751953 L135.03013610839844,198.90402221679688 L139.68247985839844,202.3794708251953 L144.8950958251953,205.96652221679688 L150.72488403320312,209.7220916748047 L156.77845764160156,214.31863403320312 L163.0005645751953,218.5786895751953 L169.1099395751953,222.4458770751953 L175.05189514160156,226.31361389160156 L181.66629028320312,230.4056854248047 L188.56082153320312,234.72154235839844 L195.28683471679688,239.03794860839844 L201.90122985839844,243.41015625 L208.40345764160156,248.00613403320312 L215.01730346679688,252.65847778320312 L221.74386596679688,256.91851806640625 L228.30189514160156,261.06640625 L234.4681854248047,265.3264465332031 L240.63392639160156,269.4743347167969 L246.46316528320312,273.6222229003906 L252.40457153320312,277.3219909667969 L258.40234375,281.07757568359375 L264.0078125,284.60882568359375 L269.5569152832031,288.3644104003906 L274.93804931640625,291.7276916503906 L280.0948791503906,294.9787902832031 L285.1394958496094,298.3420715332031 L290.80133056640625,301.8733215332031 L295.78961181640625,305.34820556640625 L300.3303527832031,308.9358215332031 L304.59039306640625,312.4670715332031 L308.45758056640625,315.8303527832031 L311.9894104003906,318.96929931640625 L315.46429443359375,322.3883972167969 L318.82757568359375,325.5837097167969 L321.9665222167969,328.4425354003906 L325.2176208496094,330.9084777832031 L328.4123840332031,333.4308166503906 L331.4397277832031,336.12164306640625 L334.41015625,338.53179931640625 L336.7644958496094,340.60546875 L338.7823791503906,342.00726318359375 L340.1277770996094,343.4084777832031 L341.47320556640625,344.75390625 L342.7059020996094,345.3699645996094 L343.6032409667969,346.2673034667969 L344.21929931640625,347.1076965332031 L344.7237854003906,347.7243347167969 L345.2287902832031,348.3973083496094 L345.8448791503906,349.06976318359375 L346.29351806640625,349.9665222167969 L346.7421875,350.6389465332031 L346.8537902832031,351.31195068359375 L346.8537902832031,351.6484375 L346.1813659667969,351.7600402832031" stroke="black" stroke-width="2" fill="none"/>
<path d="M215.41015625,159.10658264160156 L215.97042846679688,167.85044860839844 L215.97042846679688,171.49386596679688 L215.97042846679688,174.9134979248047 L216.0825958251953,178.55691528320312 L216.30691528320312,182.9849395751953 L216.53125,187.18861389160156 L216.97935485839844,191.67298889160156 L217.42800903320312,196.66183471679688 L217.98828125,201.2583770751953 L218.4927520751953,205.9107208251953 L218.99720764160156,210.33872985839844 L219.4458770751953,214.59877014160156 L219.8939666748047,218.80245971679688 L220.11830139160156,222.7265625 L220.5669708251953,226.53794860839844 L221.18359375,230.4615020751953 L221.8002166748047,234.49777221679688 L222.3046875,238.3091583251953 L222.86495971679688,242.51283264160156 L223.4252166748047,246.6049041748047 L223.87388610839844,250.41629028320312 L224.0982208251953,254.28404235839844 L224.2103729248047,257.7594909667969 L224.43470764160156,260.7862854003906 L224.65847778320312,263.8694152832031 L224.8828125,267.00836181640625 L225.2193145751953,270.1473083496094 L225.44363403320312,273.2862854003906 L225.6674041748047,276.8175354003906 L225.89173889160156,280.2366027832031 L226.11607360839844,282.6467590332031 L226.22824096679688,285.56195068359375 L226.4525604248047,288.1964416503906 L226.6763458251953,290.9430847167969 L226.90066528320312,293.74554443359375 L227.125,296.6043395996094 L227.34933471679688,299.51898193359375 L227.5736541748047,302.60211181640625 L227.68527221679688,305.6847229003906 L227.7974395751953,308.5993347167969 L227.9095916748047,311.5144958496094 L228.02175903320312,314.2605895996094 L228.13392639160156,316.67132568359375 L228.24609375,318.91351318359375 L228.47042846679688,321.21148681640625 L228.69419860839844,323.5094909667969 L228.80636596679688,325.7516784667969 L229.0306854248047,327.9938659667969 L229.25502014160156,329.8995666503906 L229.47935485839844,331.5251159667969 L229.7036895751953,332.7019958496094 L229.92745971679688,333.99163818359375 L230.1517791748047,335.11273193359375 L230.1517791748047,336.0094909667969 L230.1517791748047,336.90625 L230.26394653320312,338.02734375 L230.26394653320312,339.4285583496094 L230.37611389160156,340.9983215332031 L230.37611389160156,342.5675354003906 L230.37611389160156,343.96875 L230.48828125,344.8097229003906 L230.48828125,345.1462097167969 L230.48828125,345.1462097167969 L230.48828125,344.75390625 L230.48828125,344.0809020996094 L230.26394653320312,343.4084777832031 L230.20814514160156,343.2399597167969" stroke="black" stroke-width="2" fill="none"/>
<path d="M406.3264465332031,244.2505645751953 L394.1629333496094,246.04464721679688 L388.8376159667969,247.16574096679688 L383.2321472167969,248.0625 L377.23492431640625,249.18359375 L370.95703125,250.41629028320312 L364.67913818359375,251.59375 L358.4012145996094,252.3783416748047 L351.9548034667969,252.99497985839844 L345.8448791503906,253.4994354248047 L339.84765625,253.72377014160156 L333.79351806640625,254.06027221679688 L327.1796875,254.39620971679688 L320.8454284667969,254.73269653320312 L314.51171875,254.95703125 L308.5139465332031,254.95703125 L302.51617431640625,254.90066528320312 L296.85491943359375,254.84486389160156 L291.4737854003906,254.73269653320312 L286.0926208496094,254.6763458251953 L280.7678527832031,254.6763458251953 L275.6668395996094,254.6763458251953 L270.5100402832031,254.6763458251953 L265.5212097167969,254.6763458251953 L260.7008972167969,254.6763458251953 L256.66461181640625,254.6205291748047 L253.18972778320312,254.56472778320312 L249.37779235839844,254.5083770751953 L245.28627014160156,254.5083770751953 L241.64285278320312,254.5083770751953 L238.0552520751953,254.5083770751953 L234.6919708251953,254.5083770751953 L231.55300903320312,254.6205291748047 L228.8627166748047,254.6205291748047 L226.22824096679688,254.73269653320312 L223.76171875,254.84486389160156 L221.29519653320312,254.95703125 L218.71707153320312,254.95703125 L215.85826110839844,255.18080139160156 L212.8314666748047,255.40513610839844 L209.58035278320312,255.7416229248047 L207.2259979248047,255.96595764160156 L204.3677520751953,256.3019104003906 L201.67689514160156,256.4140625 L199.0424041748047,256.6383972167969 L196.6880645751953,256.6383972167969 L194.4458770751953,256.75054931640625 L192.20423889160156,256.9748840332031 L189.96205139160156,257.3108215332031 L187.6634979248047,257.6473083496094 L185.30970764160156,257.98382568359375 L183.06752014160156,258.31976318359375 L180.82533264160156,258.5440979003906 L178.58314514160156,258.7684020996094 L176.17298889160156,258.99273681640625 L173.8744354248047,259.3292541503906 L171.68861389160156,259.6651916503906 L169.44642639160156,260.11383056640625 L167.09207153320312,260.56195068359375 L164.4575958251953,260.8984375 L161.54296875,261.1227722167969 L158.6841583251953,261.4592590332031 L155.82589721679688,261.68304443359375 L153.0228729248047,262.01953125 L150.22042846679688,262.2438659667969 L147.64173889160156,262.46820068359375 L144.95144653320312,262.80413818359375 L141.86830139160156,263.140625 L138.22488403320312,263.5887145996094 L134.35714721679688,264.0373840332031 L131.1060333251953,264.3738708496094 L127.91127014160156,264.59820556640625 L124.4921875,264.93414306640625 L121.296875,265.2706604003906 L118.15792083740234,265.6071472167969 L115.35546875,265.9430847167969 L112.77678680419922,266.16741943359375 L110.47879791259766,266.2795715332031 L108.01227569580078,266.50390625 L105.48995208740234,266.7282409667969 L102.6875,267.0641784667969 L99.94084930419922,267.4006652832031 L97.30635833740234,267.7371520996094 L94.72767639160156,267.9609375 L92.26171875,268.40960693359375 L89.79520416259766,268.6339416503906 L87.55301666259766,268.8576965332031 L85.3671875,269.08203125 L83.40513610839844,269.3063659667969 L81.89173889160156,269.53070068359375 L80.37834930419922,269.7550354003906 L78.86495208740234,269.9787902832031 L77.46372985839844,270.203125 L76.11830139160156,270.4274597167969 L74.71707916259766,270.65179443359375 L73.20368194580078,270.8761291503906 L71.80245208740234,270.98773193359375 L70.84932708740234,271.2120666503906 L70.06473541259766,271.4363708496094 L69.44810485839844,271.5485534667969 L69.22377014160156,271.5485534667969 L69.05580139160156,271.5485534667969 L69.05580139160156,271.5485534667969 L68.99944305419922,271.5485534667969 L68.77567291259766,271.4921875 L68.55133819580078,271.4363708496094 L68.27120208740234,271.3805847167969 L67.82254791259766,271.32421875 L67.59821319580078,271.2684020996094" stroke="black" stroke-width="2" fill="none"/>
<path d="M357.3359375,189.31863403320312 L358.79351806640625,200.1372833251953 L359.24163818359375,204.17298889160156 L359.6902770996094,208.37667846679688 L360.0262145996094,211.9642791748047 L360.4748840332031,215.6634979248047 L360.69921875,219.53125 L360.8113708496094,223.3431854248047 L360.9235534667969,227.2103729248047 L360.9235534667969,231.19029235839844 L360.9235534667969,234.83370971679688 L361.1473083496094,238.4213104248047 L361.37164306640625,242.1205291748047 L361.5959777832031,245.6517791748047 L361.8203125,248.9029083251953 L362.15625,252.2661895751953 L362.60491943359375,255.7416229248047 L363.0535583496094,259.10491943359375 L363.3894958496094,262.46820068359375 L363.72601318359375,265.8309020996094 L364.0625,268.9698791503906 L364.5105895996094,271.77288818359375 L364.73492431640625,274.35101318359375 L365.18359375,276.7053527832031 L365.51953125,279.3956604003906 L365.7438659667969,281.9743347167969 L365.96820068359375,284.5530090332031 L366.3046875,287.2996520996094 L366.4162902832031,290.1579284667969 L366.640625,292.8487854003906 L366.8649597167969,295.3147277832031 L367.2014465332031,297.78125 L367.42523193359375,300.35992431640625 L367.5373840332031,302.93804931640625 L367.5373840332031,305.34820556640625 L367.5373840332031,307.1980895996094 L367.5373840332031,309.2159729003906 L367.5373840332031,311.23382568359375 L367.6495666503906,313.47601318359375 L367.76171875,315.55023193359375 L367.9860534667969,317.4559020996094 L368.21038818359375,318.8571472167969 L368.21038818359375,319.6980895996094 L368.21038818359375,320.37054443359375 L368.21038818359375,320.70703125 L368.21038818359375,320.8191833496094 L368.21038818359375,320.8191833496094 L367.8738708496094,320.5390625 L367.5373840332031,319.92242431640625" stroke="black" stroke-width="2" fill="none"/>
<path d="M215.578125,179.50949096679688 L207.0580291748047,178.83705139160156 L202.63002014160156,178.6127166748047 L197.9213104248047,178.27622985839844 L193.21316528320312,177.828125 L188.22433471679688,177.26730346679688 L183.1796875,176.875 L177.46205139160156,176.65066528320312 L172.1372833251953,176.59486389160156 L166.9799041748047,176.5384979248047 L162.10379028320312,176.31472778320312 L157.45144653320312,175.86607360839844 L153.19140625,175.0814666748047 L149.09933471679688,174.40904235839844 L144.8950958251953,174.0161895751953 L140.41127014160156,173.9603729248047 L136.26339721679688,174.07254028320312 L132.3392791748047,174.40904235839844 L128.6400604248047,174.6328125 L125.05245208740234,174.85714721679688 L121.80133819580078,174.9693145751953 L118.83091735839844,174.9693145751953 L116.08426666259766,174.9693145751953 L113.39341735839844,174.9693145751953 L110.75892639160156,174.9134979248047 L108.79743194580078,174.9134979248047 L106.05078125,174.9134979248047 L103.69642639160156,174.9134979248047 L101.90290069580078,174.9134979248047 L100.83760833740234,174.8013458251953 L100.05301666259766,174.68917846679688 L99.82868194580078,174.46484375 L100.38951110839844,174.07254028320312 L101.95870208740234,173.56808471679688 L102.51953125,173.45591735839844" stroke="black" stroke-width="2" fill="none"/>
<path d="M219.50167846679688,199.96875 L208.2349395751953,199.85658264160156 L202.7421875,199.68861389160156 L196.4642791748047,199.57644653320312 L189.6255645751953,199.4642791748047 L182.7310333251953,199.2963104248047 L175.8365020751953,199.0161895751953 L169.67076110839844,198.73548889160156 L164.1216583251953,198.51171875 L158.74050903320312,198.39955139160156 L154.1439666748047,198.3431854248047 L150.05245971679688,198.0630645751953 L146.40847778320312,197.7265625 L142.87722778320312,197.44642639160156 L140.0189666748047,197.0541229248047 L138.22488403320312,196.7740020751953 L136.88002014160156,196.60546875 L136.09486389160156,196.60546875 L135.5345916748047,196.60546875 L135.36607360839844,196.60546875 L135.36607360839844,196.60546875 L135.92689514160156,196.60546875 L136.375,196.60546875" stroke="black" stroke-width="2" fill="none"/>
<path d="M223.81808471679688,219.58761596679688 L214.84933471679688,219.58761596679688 L210.5892791748047,219.58761596679688 L205.88113403320312,219.47544860839844 L200.27566528320312,219.25111389160156 L194.2779083251953,219.08314514160156 L188.56082153320312,219.08314514160156 L183.23548889160156,218.97097778320312 L178.58314514160156,218.80245971679688 L174.8833770751953,218.52232360839844 L172.02511596679688,218.35435485839844 L170.2310333251953,218.35435485839844 L169.0541229248047,218.35435485839844 L168.71763610839844,218.35435485839844" stroke="black" stroke-width="2" fill="none"/>
<path d="M222.58482360839844,238.86941528320312 L210.86941528320312,238.4213104248047 L206.83370971679688,238.25279235839844 L202.5736541748047,238.25279235839844 L198.65011596679688,238.25279235839844 L195.0625,238.25279235839844 L194.2779083251953,238.25279235839844" stroke="black" stroke-width="2" fill="none"/>
<path d="M328.80523681640625,315.88616943359375 L319.2198791503906,322.1640625 L315.8565979003906,325.4151916503906 L313.1662902832031,328.1618347167969 L310.97991943359375,330.1796875 L309.6350402832031,331.1328125 L308.9620666503906,331.63726806640625 L308.6261291503906,331.74945068359375 L308.6261291503906,331.58148193359375" stroke="black" stroke-width="2" fill="none"/>
<path d="M308.5139465332031,300.0234375 L300.1618347167969,304.84375 L297.1350402832031,307.42242431640625 L294.2762145996094,310.00054931640625 L291.8102722167969,312.1305847167969 L289.2879333496094,313.98046875 L286.8772277832031,315.3816833496094 L284.7472229003906,316.55914306640625 L283.12164306640625,317.17578125 L282.3370666503906,317.3995666503906 L282.11273193359375,317.3995666503906" stroke="black" stroke-width="2" fill="none"/>
<path d="M281.7204284667969,287.80413818359375 L273.64898681640625,290.9988708496094 L271.0144958496094,293.0167541503906 L268.66015625,294.8102722167969 L266.6423034667969,296.3800354003906 L264.5680847167969,297.8934020996094 L262.9430847167969,299.1824645996094 L261.59765625,299.9676208496094 L261.09320068359375,300.0792541503906" stroke="black" stroke-width="2" fill="none"/>
<path d="M263.67132568359375,275.13616943359375 L254.2544708251953,279.7321472167969 L249.4341583251953,282.3108215332031 L245.56640625,283.9921875 L242.42745971679688,285.3376159667969 L239.84877014160156,286.1785583496094 L237.8872833251953,286.85101318359375 L237.43861389160156,287.01898193359375" stroke="black" stroke-width="2" fill="none"/>
<path d="M82.56417083740234,352.7131652832031 L81.49944305419922,360.8409729003906 L81.21930694580078,364.3722229003906 L80.99497985839844,368.0714416503906 L80.77064514160156,372.2756652832031 L80.60267639160156,376.3113708496094 L80.60267639160156,380.6277770996094 L80.60267639160156,383.8225402832031 L80.60267639160156,387.8024597167969 L80.60267639160156,391.61383056640625 L80.60267639160156,395.3694152832031 L80.71484375,398.8448791503906 L80.93917083740234,401.5915222167969 L81.27510833740234,403.6651916503906 L81.49944305419922,405.1785583496094 L81.49944305419922,407.0284729003906 L81.49944305419922,408.2053527832031 L81.61161041259766,409.04632568359375 L81.72377014160156,409.9430847167969 L81.94810485839844,410.7282409667969 L82.171875,411.2326965332031 L82.39620208740234,411.45648193359375 L82.62053680419922,411.5686340332031 L82.95703125,411.5686340332031 L83.40513610839844,411.6808166503906 L84.02176666259766,411.79296875 L84.69419860839844,411.9051208496094 L85.87165069580078,412.12945556640625 L87.77734375,412.3532409667969 L90.57979583740234,412.3532409667969 L94.72767639160156,412.3532409667969 L98.59542083740234,412.57757568359375 L101.95870208740234,412.9140625 L105.09765625,413.36273193359375 L108.4609375,413.69866943359375 L112.55301666259766,413.9230041503906 L117.09319305419922,413.9230041503906 L121.80133819580078,413.9230041503906 L126.06138610839844,413.9230041503906 L129.25669860839844,413.9230041503906 L131.44252014160156,413.9230041503906 L133.1244354248047,413.9230041503906 L134.3013458251953,414.03515625 L135.4224395751953,414.03515625 L136.6556854248047,413.8671875 L137.49609375,413.6428527832031 L138.28125,413.41851806640625 L138.72935485839844,413.3063659667969 L139.0658416748047,413.1941833496094 L139.17800903320312,412.9698791503906 L139.29017639160156,412.74609375 L139.40234375,412.46539306640625 L139.51451110839844,411.79296875 L139.62611389160156,410.3917541503906 L139.73828125,408.76617431640625 L139.73828125,406.97265625 L139.73828125,404.9542541503906 L139.73828125,402.82476806640625 L139.73828125,400.078125 L139.73828125,395.9860534667969 L139.73828125,391.8381652832031 L139.5703125,388.36273193359375 L139.29017639160156,385.0558166503906 L138.8978729248047,382.0290222167969 L138.6171875,379.22601318359375 L138.28125,376.4793395996094 L138.0005645751953,373.62109375 L137.7767791748047,370.5379333496094 L137.49609375,367.1746520996094 L137.21595764160156,363.53125 L136.9916229248047,360 L136.8236541748047,357.3097229003906 L136.8236541748047,355.96429443359375 L136.8236541748047,355.01116943359375 L136.8236541748047,354.2265625 L136.7115020751953,353.60992431640625 L136.48716735839844,353.0496520996094 L136.26339721679688,352.60101318359375 L136.0390625,352.15289306640625 L135.81472778320312,351.7042541503906 L135.5904083251953,351.5362854003906 L135.4224395751953,351.5362854003906" stroke="black" stroke-width="2" fill="none"/>
<path d="M82.34040069580078,351.5362854003906 L87.77734375,358.7109375 L88.8984375,360.50445556640625 L90.01953125,362.2980041503906 L91.140625,364.0920715332031 L92.37388610839844,365.8855895996094 L93.71875,367.67913818359375 L95.06417083740234,369.47320556640625 L96.40959930419922,371.1545715332031 L97.53069305419922,372.7243347167969 L98.65178680419922,374.12554931640625 L99.77288055419922,375.52679443359375 L100.89397430419922,376.98382568359375 L102.07086944580078,378.3855895996094 L103.41629791259766,379.9548034667969 L104.76116180419922,381.5803527832031 L106.10658264160156,383.26226806640625 L107.22767639160156,384.83148193359375 L108.40457916259766,386.2890625 L109.63783264160156,387.6339416503906 L110.92745208740234,388.8671875 L112.10435485839844,390.0446472167969 L113.28125,391.27734375 L114.51451110839844,392.6227722167969 L115.69196319580078,393.96820068359375 L116.86885833740234,395.3694152832031 L117.98995208740234,396.7706604003906 L119.11104583740234,398.1160583496094 L120.34430694580078,399.2371520996094 L121.46540069580078,400.078125 L122.58649444580078,401.03070068359375 L123.70703125,401.98382568359375 L124.828125,402.9363708496094 L125.66908264160156,403.8337097167969 L126.56584930419922,404.73046875 L127.46260833740234,405.6272277832031 L128.3599395751953,406.52398681640625 L129.25669860839844,407.3649597167969 L130.15345764160156,408.26171875 L131.0502166748047,409.1584777832031 L131.94699096679688,410.05523681640625 L132.84375,410.9519958496094 L133.74050903320312,411.8487854003906 L134.63783264160156,412.46539306640625 L135.47824096679688,413.1383972167969 L136.15122985839844,413.8108215332031 L136.8236541748047,414.4832458496094 L137.49609375,415.15625 L138.16908264160156,415.82867431640625 L138.72935485839844,416.5016784667969 L139.17800903320312,417.1741027832031 L139.62611389160156,417.7907409667969 L139.96261596679688,418.23883056640625 L140.1869354248047,418.6875 L140.41127014160156,418.6875 L140.63504028320312,418.7996520996094 L140.74720764160156,418.7996520996094 L140.63504028320312,418.7996520996094 L140.41127014160156,418.6875" stroke="black" stroke-width="2" fill="none"/>
<path d="M270.7901916503906,394.4162902832031 L260.30859375,393.96820068359375 L256.5530090332031,393.96820068359375 L252.74107360839844,393.96820068359375 L248.81752014160156,393.96820068359375 L244.7818145751953,393.85601806640625 L240.68972778320312,393.68804931640625 L236.48605346679688,393.68804931640625 L232.00167846679688,393.68804931640625 L227.7416229248047,393.68804931640625 L223.48158264160156,393.68804931640625 L219.6138458251953,393.68804931640625 L215.578125,393.5758972167969 L211.4302520751953,393.3515625 L207.50669860839844,393.18359375 L203.5825958251953,393.1272277832031 L199.71484375,393.1272277832031 L196.07142639160156,393.0714416503906 L192.65234375,393.0714416503906 L190.2421875,392.9592590332031 L186.15011596679688,392.67913818359375 L183.7963104248047,392.5105895996094 L180.65736389160156,392.23046875 L177.46205139160156,391.89398193359375 L174.43527221679688,391.55804443359375 L171.57644653320312,391.3337097167969 L168.54966735839844,391.2215270996094 L165.5228729248047,391.2215270996094 L162.55189514160156,391.3337097167969 L159.8052520751953,391.44586181640625 L157.5630645751953,391.44586181640625 L155.32142639160156,391.44586181640625 L153.24720764160156,391.3894958496094 L151.22935485839844,391.1657409667969 L149.3794708251953,390.9972229003906 L147.47377014160156,390.9972229003906 L145.62388610839844,391.109375 L144.27845764160156,391.2215270996094 L143.49386596679688,391.2215270996094 L142.7650604248047,391.2215270996094 L142.09263610839844,391.2215270996094 L141.53236389160156,391.2215270996094 L140.97154235839844,391.2215270996094 L140.29910278320312,391.2215270996094 L139.79464721679688,391.2215270996094 L139.40234375,391.2215270996094 L139.17800903320312,391.2215270996094 L139.17800903320312,391.2215270996094 L140.0189666748047,391.109375 L142.03683471679688,390.94140625" stroke="black" stroke-width="2" fill="none"/>
<path d="M72.81138610839844,207.59207153320312 L64.62723541259766,206.13449096679688 L60.64788055419922,206.2466583251953 L56.94810104370117,206.47097778320312 L53.52901840209961,206.58314514160156 L50.78236770629883,206.6953125 L49.15680694580078,206.80747985839844 L48.14788055419922,206.80747985839844 L47.81138229370117,206.80747985839844" stroke="black" stroke-width="2" fill="none"/>
<path d="M33.85435104370117,144.70089721679688 L33.7421875,154.1177520751953 L34.30301284790039,158.0970916748047 L34.91964340209961,162.3013458251953 L35.87221145629883,166.6171875 L36.71316909790039,170.98939514160156 L37.60993194580078,175.1372833251953 L38.2265625,179.39732360839844 L39.01116180419922,183.9375 L39.90792465209961,188.30970764160156 L40.58091354370117,192.5697479248047 L41.47768020629883,196.66183471679688 L42.15011215209961,200.97767639160156 L42.82310104370117,205.57421875 L43.49553680419922,210.05859375 L44.11216354370117,214.65457153320312 L44.78459930419922,219.75558471679688 L45.45758819580078,224.6880645751953 L46.07421875,229.67689514160156 L46.57868194580078,234.609375 L47.02678680419922,239.99050903320312 L47.36328125,245.2036895751953 L47.81138229370117,250.1361541748047 L48.31584930419922,254.90066528320312 L48.76450729370117,259.10491943359375 L49.21316909790039,262.8605041503906 L49.54910659790039,266.05523681640625 L49.88560104370117,268.8576965332031 L50.22209930419922,270.98773193359375 L50.22209930419922,272.6696472167969 L50.22209930419922,273.3984375 L50.22209930419922,273.6222229003906 L50.22209930419922,273.3984375 L50.22209930419922,271.94085693359375 L50.33426284790039,269.53070068359375 L50.44586944580078,267.4006652832031" stroke="black" stroke-width="2" fill="none"/>
<path d="M46.46651840209961,168.13058471679688 L34.63895034790039,170.4291229248047 L29.930803298950195,171.77455139160156 L26.007253646850586,172.33482360839844 L22.75613784790039,172.44699096679688 L20.794084548950195,172.44699096679688" stroke="black" stroke-width="2" fill="none"/>
<path d="M254.14230346679688,383.8225402832031 L253.80636596679688,392.6227722167969 L253.75,396.71484375 L253.75,400.3582458496094 L253.75,403.77734375 L253.86216735839844,407.1964416503906 L253.97433471679688,410.2795715332031 L254.1986541748047,411.9609375 L254.1986541748047,412.8576965332031 L254.1986541748047,413.4743347167969 L254.1986541748047,413.4743347167969 L254.1986541748047,413.41851806640625 L254.0865020751953,412.6897277832031 L253.86216735839844,411.79296875" stroke="black" stroke-width="2" fill="none"/>
<path d="M216.47488403320312,166.05691528320312 L216.47488403320312,156.58370971679688 L216.41908264160156,154.17355346679688 L216.41908264160156,151.48326110839844 L216.41908264160156,148.3443145751953 L216.41908264160156,145.31752014160156 L216.41908264160156,142.06640625 L216.41908264160156,139.15122985839844 L216.41908264160156,136.1244354248047 L216.30691528320312,132.81752014160156 L216.1947479248047,129.3984375 L216.02622985839844,126.31529235839844 L215.97042846679688,123.56864166259766 L215.80245971679688,120.87834930419922 L215.69029235839844,118.41182708740234 L215.52175903320312,116.00167083740234 L215.29798889160156,113.75948333740234 L215.0736541748047,111.79743194580078 L214.84933471679688,110.50836944580078 L214.68136596679688,109.44364166259766 L214.68136596679688,108.65848541259766 L214.51283264160156,107.98604583740234 L214.34486389160156,107.20145416259766 L214.1205291748047,106.36048889160156 L213.89620971679688,105.51953125 L213.72824096679688,104.84709930419922 L213.44810485839844,103.89397430419922 L213.3359375,103.50167083740234 L213.28013610839844,103.05357360839844 L213.28013610839844,102.60491180419922 L213.28013610839844,102.26841735839844 L213.28013610839844,102.04463958740234 L213.28013610839844,101.8203125 L213.28013610839844,101.48381805419922 L213.28013610839844,101.20368194580078 L213.39173889160156,100.97935485839844 L213.61607360839844,100.75502014160156 L213.8404083251953,100.64286041259766 L214.17689514160156,100.64286041259766 L214.625,100.64286041259766 L215.1294708251953,100.8671875 L215.80245971679688,101.09151458740234 L216.47488403320312,101.54017639160156 L217.70814514160156,101.98828125 L219.27734375,102.49274444580078 L220.8470916748047,103.38951110839844 L222.86495971679688,104.56696319580078 L225.05078125,105.85602569580078 L227.85379028320312,107.42522430419922 L230.65625,108.71484375 L233.01060485839844,109.55524444580078 L235.02845764160156,110.34040069580078 L236.9341583251953,111.18080139160156 L238.89620971679688,112.078125 L241.08203125,113.31082916259766 L243.32421875,114.48828125 L245.51060485839844,115.83370208740234 L247.640625,117.01060485839844 L249.65847778320312,117.8515625 L251.73214721679688,119.08426666259766 L253.86216735839844,119.98158264160156 L256.16015625,121.10267639160156 L258.4587097167969,122.22321319580078 L260.7008972167969,123.34430694580078 L262.7745666503906,124.52176666259766 L264.9609375,125.64286041259766 L267.0909729003906,126.76395416259766 L269.27679443359375,127.94084930419922 L271.51898193359375,129.28627014160156 L274.265625,130.85546875 L277.0680847167969,132.64955139160156 L279.70257568359375,134.33091735839844 L282.1690979003906,135.6763458251953 L284.35491943359375,136.7974395751953 L286.59710693359375,137.69419860839844 L288.7834777832031,138.64675903320312 L291.1936340332031,139.54408264160156 L293.6037902832031,140.6646270751953 L295.90179443359375,141.8978729248047 L298.03179931640625,143.0189666748047 L300.27398681640625,143.8599395751953 L302.4040222167969,144.75669860839844 L304.6462097167969,145.65345764160156 L306.8883972167969,146.5502166748047 L309.0184020996094,147.72767639160156 L311.0920715332031,148.90457153320312 L313.05413818359375,150.02566528320312 L314.7355041503906,150.9224395751953 L316.47320556640625,151.59542846679688 L318.2109375,152.38002014160156 L320.00445556640625,153.2767791748047 L321.8543395996094,154.17355346679688 L323.7042541503906,155.12667846679688 L325.4977722167969,156.3599395751953 L327.2918395996094,157.20033264160156 L328.97320556640625,158.0970916748047 L330.4308166503906,158.71372985839844 L331.7198791503906,159.16238403320312 L332.61663818359375,159.49888610839844 L333.5133972167969,159.83482360839844 L334.1858215332031,160.0591583251953 L334.5223083496094,160.1713104248047 L334.74664306640625,160.1713104248047 L334.4665222167969,160.1713104248047 L333.12109375,160.1713104248047 L332.8967590332031,160.11550903320312" stroke="black" stroke-width="2" fill="none"/>
<path d="M138.1127166748047,204.39732360839844" stroke="black" stroke-width="2" fill="none"/>
<path d="M138.84152221679688,198.0630645751953 L138.33705139160156,206.2466583251953 L138.67355346679688,209.66629028320312 L139.00949096679688,213.02902221679688 L139.45814514160156,216.84095764160156 L139.79464721679688,220.42800903320312 L140.13058471679688,223.79129028320312 L140.3549041748047,227.37890625 L140.80357360839844,230.96595764160156 L141.13951110839844,234.16127014160156 L141.58816528320312,237.3560333251953 L142.03683471679688,240.5513458251953 L142.54129028320312,243.63392639160156 L143.1015625,246.4927520751953 L143.5502166748047,249.46372985839844 L144.0546875,252.82701110839844 L144.6713104248047,256.1339416503906 L145.28794860839844,259.16070556640625 L145.73605346679688,262.01953125 L146.24050903320312,264.87835693359375 L146.8013458251953,267.6808166503906 L147.30580139160156,270.203125 L147.75390625,272.89398193359375 L148.14620971679688,274.9676208496094 L148.76283264160156,278.4430847167969 L149.2115020751953,281.13336181640625 L149.5474395751953,283.7678527832031 L149.88392639160156,285.72991943359375 L150.22042846679688,288.7566833496094 L150.4447479248047,291.6155090332031 L150.6685333251953,294.1936340332031 L150.7806854248047,296.7723083496094 L150.7806854248047,299.23883056640625 L150.89285278320312,301.48101806640625 L150.89285278320312,303.5546875 L151.00502014160156,304.9559020996094 L151.00502014160156,306.30133056640625 L151.1171875,307.6467590332031 L151.1171875,308.5993347167969 L151.1171875,309.3844909667969 L151.1171875,309.8889465332031 L151.1171875,310.3370666503906 L151.1171875,310.5613708496094 L151.1171875,310.6735534667969 L151.1171875,310.6735534667969 L151.1171875,310.6735534667969 L151.1171875,310.28125 L151.1171875,310.0569152832031" stroke="black" stroke-width="2" fill="none"/>
<path d="M149.09933471679688,309.2159729003906 L142.54129028320312,314.6534729003906 L140.57923889160156,314.8772277832031 L138.22488403320312,314.8772277832031 L135.31027221679688,314.8772277832031 L132.11550903320312,314.7092590332031 L129.20033264160156,314.6534729003906 L125.83705139160156,314.59710693359375 L122.69810485839844,314.59710693359375 L119.83984375,314.8214416503906 L116.98102569580078,315.1579284667969 L114.29017639160156,315.26953125 L111.54408264160156,315.26953125 L108.79743194580078,315.26953125 L105.93861389160156,315.26953125 L103.41629791259766,315.26953125 L101.06194305419922,315.4938659667969 L98.87611389160156,315.60601806640625 L96.63392639160156,315.60601806640625 L94.44754791259766,315.60601806640625 L92.37388610839844,315.55023193359375 L90.29966735839844,315.3258972167969 L88.44977569580078,315.26953125 L86.60044860839844,315.26953125 L85.08705139160156,315.26953125 L83.62946319580078,315.4938659667969 L82.11607360839844,315.60601806640625 L80.65848541259766,315.60601806640625 L79.31361389160156,315.60601806640625 L78.58482360839844,315.60601806640625 L77.96819305419922,315.60601806640625 L77.68805694580078,315.60601806640625 L77.57588958740234,315.43804931640625 L77.85602569580078,314.76507568359375" stroke="black" stroke-width="2" fill="none"/>
<path d="M137.88894653320312,201.48214721679688 L127.68694305419922,204.39732360839844 L124.77232360839844,204.84542846679688 L121.52120208740234,205.34988403320312 L118.38225555419922,205.79855346679688 L115.24330139160156,206.2466583251953 L112.21651458740234,206.47097778320312 L109.30189514160156,206.6953125 L106.44307708740234,206.6953125 L103.92076110839844,206.80747985839844 L101.56640625,206.80747985839844 L99.26841735839844,206.80747985839844 L96.80189514160156,206.91964721679688 L94.55970764160156,207.14341735839844 L92.14955139160156,207.3677520751953 L89.8515625,207.59207153320312 L87.44084930419922,207.70423889160156 L85.19866180419922,207.70423889160156 L83.06864166259766,207.70423889160156 L81.05078125,207.70423889160156 L79.48158264160156,207.70423889160156 L78.19252014160156,207.81640625 L76.84709930419922,208.04074096679688 L75.50167083740234,208.26451110839844 L74.15625,208.26451110839844 L73.09151458740234,208.26451110839844 L72.08258819580078,208.26451110839844 L71.29798889160156,208.1529083251953 L70.73716735839844,207.92857360839844 L70.51283264160156,207.70423889160156 L70.45703125,207.42410278320312 L70.45703125,207.3677520751953" stroke="black" stroke-width="2" fill="none"/>
<path d="M137.328125,201.81863403320312 L134.18917846679688,209.49777221679688 L131.83482360839844,213.7578125 L129.70480346679688,218.01785278320312 L127.46260833740234,221.99777221679688 L125.33258819580078,225.52902221679688 L123.14676666259766,229.2845916748047 L121.57701110839844,232.25558471679688 L118.71875,237.3002166748047 L116.42020416259766,241.44810485839844 L114.85100555419922,244.30691528320312 L112.77678680419922,247.7259979248047 L110.703125,251.2572479248047 L108.51673889160156,255.06919860839844 L106.44307708740234,258.6004333496094 L104.42522430419922,261.9073791503906 L102.29520416259766,265.1584777832031 L100.33314514160156,268.5217590332031 L98.37109375,271.77288818359375 L96.57756805419922,274.7433166503906 L95.00836944580078,277.26617431640625 L93.60713958740234,279.5641784667969 L92.26171875,281.6378479003906 L91.25279235839844,283.7678527832031 L89.96317291259766,285.8420715332031 L89.01060485839844,287.97210693359375 L87.72154235839844,290.3264465332031 L86.88057708740234,292.34429931640625 L86.03961944580078,294.1936340332031 L85.14286041259766,295.6512145996094 L84.30189514160156,297.6690979003906 L83.23716735839844,299.57476806640625 L81.89173889160156,301.5926208496094 L80.8828125,303.6668395996094 L79.59375,305.7410583496094 L78.58482360839844,307.59039306640625 L77.74385833740234,308.99163818359375 L77.07142639160156,309.83258056640625 L76.56696319580078,310.5613708496094 L76.11830139160156,311.12164306640625 L75.89397430419922,311.6261291503906 L75.67020416259766,312.1305847167969 L75.61383819580078,312.5792541503906 L75.55803680419922,313.02789306640625 L75.38951110839844,313.36383056640625 L75.38951110839844,313.5881652832031 L75.38951110839844,313.5881652832031 L75.38951110839844,313.5881652832031 L75.50167083740234,313.30804443359375 L75.61383819580078,313.19586181640625" stroke="black" stroke-width="2" fill="none"/>
<path d="M74.88504791259766,210.95535278320312 L79.36942291259766,218.46652221679688 L82.45256805419922,222.33425903320312 L85.42298889160156,226.14564514160156 L88.16963958740234,229.95703125 L90.46763610839844,233.26451110839844 L92.65401458740234,235.84263610839844 L94.55970764160156,238.1411895751953 L96.35323333740234,240.27120971679688 L97.86663055419922,242.40122985839844 L99.43638610839844,244.64285278320312 L100.89397430419922,246.99720764160156 L102.18303680419922,249.57589721679688 L103.64006805419922,252.2103729248047 L105.09765625,255.125 L107.00334930419922,258.03961181640625 L108.40457916259766,260.1696472167969 L110.31082916259766,263.0842590332031 L112.10435485839844,265.99945068359375 L113.95423889160156,268.8576965332031 L115.35546875,271.5485534667969 L117.37332916259766,274.1266784667969 L119.22321319580078,276.42523193359375 L121.07254791259766,278.6110534667969 L122.97879791259766,280.6852722167969 L124.88448333740234,282.4787902832031 L126.90234375,284.44085693359375 L129.08816528320312,286.6266784667969 L131.0502166748047,289.2053527832031 L133.2924041748047,291.8956604003906 L135.4224395751953,294.3621520996094 L136.9916229248047,296.4358215332031 L138.56138610839844,298.28570556640625 L139.9068145751953,299.85546875 L141.3080291748047,301.14453125 L142.4291229248047,302.0412902832031 L143.7740020751953,303.2745666503906 L145.0072479248047,304.3956604003906 L145.90402221679688,305.2366027832031 L146.68917846679688,306.13336181640625 L147.1372833251953,307.0301208496094 L147.5859375,307.9269104003906 L148.03404235839844,308.82366943359375 L148.3705291748047,309.2723083496094 L148.48269653320312,309.6082458496094 L148.48269653320312,309.6082458496094 L148.48269653320312,309.6082458496094 L148.0904083251953,309.5524597167969 L147.41796875,308.99163818359375 L147.02511596679688,308.65570068359375" stroke="black" stroke-width="2" fill="none"/>
			</svg>
		