
			<svg xmlns="http://www.w3.org/2000/svg" width="500" height="500" >
				<path d="M112.90792846679688,138.52389526367188 L114.44393920898438,155.41995239257812 L114.44393920898438,155.41995239257812 L114.44393920898438,158.49191284179688 L114.44393920898438,163.09994506835938 L115.97998046875,166.17190551757812 L115.97998046875,170.77996826171875 L117.51593017578125,175.38787841796875 L119.05194091796875,183.06787109375 L119.05194091796875,187.67596435546875 L119.05194091796875,192.28387451171875 L120.58792114257812,198.42791748046875 L120.58792114257812,201.4998779296875 L122.12393188476562,207.6439208984375 L122.12393188476562,212.251953125 L122.12393188476562,215.32391357421875 L125.19598388671875,238.36395263671875 L125.19598388671875,246.0439453125 L126.73193359375,252.1878662109375 L126.73193359375,261.40386962890625 L128.2679443359375,264.4759521484375 L129.80392456054688,270.619873046875 L129.80392456054688,279.83587646484375 L131.33993530273438,282.907958984375 L131.33993530273438,285.97991943359375 L131.33993530273438,290.58795166015625 L131.33993530273438,293.659912109375 L132.8759765625,298.2679443359375 L132.8759765625,299.803955078125 L132.8759765625,304.4119873046875 L132.8759765625,307.48382568359375 L134.41189575195312,312.0919189453125 L134.41189575195312,313.62786865234375 L134.41189575195312,316.699951171875 L134.41189575195312,319.77191162109375 L134.41189575195312,321.30792236328125 L134.41189575195312,324.37982177734375 L134.41189575195312,328.9879150390625 L134.41189575195312,330.52386474609375 L134.41189575195312,333.595947265625 L135.94793701171875,335.1319580078125 L139.01992797851562,335.1319580078125 L142.09197998046875,336.66790771484375 L145.1639404296875,336.66790771484375 L149.77191162109375,338.20391845703125 L154.37994384765625,338.20391845703125 L157.451904296875,338.20391845703125 L166.66790771484375,339.739990234375 L171.27593994140625,339.739990234375 L177.41998291015625,339.739990234375 L188.17193603515625,339.739990234375 L195.8519287109375,341.2760009765625 L205.06793212890625,341.2760009765625 L212.74786376953125,341.2760009765625 L218.89190673828125,341.2760009765625 L221.96392822265625,341.2760009765625 L231.179931640625,341.2760009765625 L237.323974609375,341.2760009765625 L245.00390625,341.2760009765625 L251.14794921875,341.2760009765625 L260.36395263671875,341.2760009765625 L263.43597412109375,341.2760009765625 L272.65185546875,341.2760009765625 L277.25994873046875,341.2760009765625 L295.69189453125,341.2760009765625 L297.2279052734375,341.2760009765625 L301.8359375,341.2760009765625 L306.44390869140625,341.2760009765625 L307.9798583984375,341.2760009765625 L311.05194091796875,341.2760009765625 L314.1239013671875,341.2760009765625 L315.65997314453125,341.2760009765625 L317.1959228515625,341.2760009765625 L318.73193359375,341.2760009765625 L318.73193359375,339.739990234375 L318.73193359375,338.20391845703125 L318.73193359375,336.66790771484375 L320.2679443359375,335.1319580078125 L320.2679443359375,332.05987548828125 L320.2679443359375,330.52386474609375 L321.80389404296875,327.451904296875 L321.80389404296875,324.37982177734375 L323.33990478515625,321.30792236328125 L323.33990478515625,318.2359619140625 L323.33990478515625,313.62786865234375 L324.8759765625,310.555908203125 L324.8759765625,305.947998046875 L326.4119873046875,287.515869140625 L327.94793701171875,275.22796630859375 L327.94793701171875,270.619873046875 L329.48388671875,266.011962890625 L329.48388671875,261.40386962890625 L331.0198974609375,258.33197021484375 L331.0198974609375,252.1878662109375 L331.0198974609375,249.115966796875 L331.0198974609375,244.50787353515625 L332.55584716796875,238.36395263671875 L332.55584716796875,232.219970703125 L334.09185791015625,227.61187744140625 L334.09185791015625,224.5399169921875 L334.09185791015625,221.46795654296875 L335.6279296875,218.3958740234375 L335.6279296875,213.7879638671875 L335.6279296875,212.251953125 L335.6279296875,207.6439208984375 L335.6279296875,204.57196044921875 L335.6279296875,199.96392822265625 L337.1639404296875,196.8919677734375 L337.1639404296875,193.8199462890625 L338.69989013671875,183.06787109375 L338.69989013671875,175.38787841796875 L340.23590087890625,172.31591796875 L340.23590087890625,169.24395751953125 L340.23590087890625,166.17190551757812 L340.23590087890625,164.63589477539062 L340.23590087890625,163.09994506835938 L340.23590087890625,161.56393432617188 L341.77197265625,161.56393432617188 L341.77197265625,160.0279541015625 L341.77197265625,158.49191284179688 L341.77197265625,156.95590209960938 L341.77197265625,155.41995239257812 L338.69989013671875,153.88394165039062 L334.09185791015625,153.88394165039062 L327.94793701171875,152.34796142578125 L323.33990478515625,150.81195068359375 L320.2679443359375,150.81195068359375 L314.1239013671875,149.27590942382812 L309.51593017578125,149.27590942382812 L303.3719482421875,147.73989868164062 L300.2999267578125,147.73989868164062 L291.0838623046875,146.20394897460938 L283.4039306640625,146.20394897460938 L278.7958984375,146.20394897460938 L274.18792724609375,146.20394897460938 L271.11590576171875,146.20394897460938 L268.0439453125,146.20394897460938 L263.43597412109375,146.20394897460938 L258.82794189453125,146.20394897460938 L255.755859375,146.20394897460938 L251.14794921875,146.20394897460938 L246.53997802734375,146.20394897460938 L241.93194580078125,146.20394897460938 L235.78790283203125,146.20394897460938 L234.251953125,146.20394897460938 L220.427978515625,146.20394897460938 L217.35595703125,146.20394897460938 L214.283935546875,146.20394897460938 L211.21197509765625,146.20394897460938 L208.13995361328125,146.20394897460938 L206.60394287109375,146.20394897460938 L205.06793212890625,146.20394897460938 L201.99591064453125,146.20394897460938 L200.45989990234375,146.20394897460938 L198.9239501953125,146.20394897460938 L197.387939453125,146.20394897460938 L195.8519287109375,146.20394897460938 L194.31597900390625,146.20394897460938 L192.7799072265625,146.20394897460938 L191.24395751953125,146.20394897460938 L189.70794677734375,146.20394897460938 L186.6358642578125,146.20394897460938 L182.0279541015625,146.20394897460938 L178.9559326171875,146.20394897460938 L174.347900390625,146.20394897460938 L171.27593994140625,146.20394897460938 L160.52386474609375,146.20394897460938 L158.98797607421875,146.20394897460938 L157.451904296875,146.20394897460938 L155.91595458984375,146.20394897460938 L154.37994384765625,146.20394897460938 L152.84393310546875,146.20394897460938 L149.77191162109375,146.20394897460938 L148.23593139648438,146.20394897460938 L148.23593139648438,144.66793823242188 L146.69992065429688,144.66793823242188 L145.1639404296875,144.66793823242188 L143.6279296875,144.66793823242188 L143.6279296875,143.1319580078125 L142.09197998046875,143.1319580078125 L140.55593872070312,143.1319580078125 L139.01992797851562,143.1319580078125 L137.48391723632812,143.1319580078125 L134.41189575195312,143.1319580078125 L132.8759765625,143.1319580078125 L131.33993530273438,143.1319580078125 L129.80392456054688,143.1319580078125 L128.2679443359375,143.1319580078125 L125.19598388671875,143.1319580078125 L123.65994262695312,143.1319580078125 L122.12393188476562,143.1319580078125 L120.58792114257812,143.1319580078125 L120.58792114257812,144.66793823242188 L123.65994262695312,146.20394897460938" stroke="black" stroke-width="2" fill="none"/>
<path d="M335.6279296875,160.0279541015625 L350.98785400390625,169.24395751953125 L350.98785400390625,169.24395751953125 L354.0599365234375,172.31591796875 L358.66796875,173.8519287109375 L358.66796875,175.38787841796875 L363.27593994140625,175.38787841796875 L369.419921875,179.9959716796875 L374.02789306640625,181.53192138671875 L377.0999755859375,181.53192138671875 L381.7078857421875,184.60394287109375 L383.243896484375,187.67596435546875 L386.31585693359375,189.21197509765625 L389.387939453125,192.28387451171875 L393.9959716796875,195.35595703125 L397.06793212890625,198.42791748046875 L400.139892578125,201.4998779296875 L413.9639892578125,212.251953125 L420.10784912109375,216.85992431640625 L423.17987060546875,218.3958740234375 L423.17987060546875,219.93194580078125 L424.71588134765625,219.93194580078125 L426.251953125,219.93194580078125 L426.251953125,221.46795654296875 L427.7879638671875,221.46795654296875 L427.7879638671875,223.00396728515625 L427.7879638671875,224.5399169921875 L427.7879638671875,227.61187744140625 L427.7879638671875,230.6839599609375 L426.251953125,235.2918701171875 L421.6439208984375,241.4359130859375 L420.10784912109375,246.0439453125 L415.4998779296875,250.65191650390625 L412.427978515625,255.25994873046875 L410.8919677734375,259.867919921875 L407.81988525390625,266.011962890625 L401.67584228515625,272.15594482421875 L398.6038818359375,276.763916015625 L397.06793212890625,282.907958984375 L393.9959716796875,285.97991943359375 L390.92388916015625,290.58795166015625 L389.387939453125,295.19586181640625 L384.77984619140625,299.803955078125 L383.243896484375,304.4119873046875 L380.17193603515625,309.0198974609375 L377.0999755859375,312.0919189453125 L375.56390380859375,315.1639404296875 L363.27593994140625,332.05987548828125 L361.739990234375,336.66790771484375 L360.2039794921875,339.739990234375 L358.66796875,341.2760009765625 L357.13189697265625,344.347900390625 L355.595947265625,347.41986083984375 L354.0599365234375,350.491943359375 L352.52392578125,353.56390380859375 L352.52392578125,355.09991455078125 L350.98785400390625,356.635986328125 L349.45184326171875,358.1719970703125 L347.9158935546875,359.70782470703125 L346.3798828125,361.243896484375 L344.843994140625,361.243896484375 L344.843994140625,362.7799072265625 L343.3079833984375,362.7799072265625 L341.77197265625,362.7799072265625 L340.23590087890625,362.7799072265625 L338.69989013671875,362.7799072265625 L335.6279296875,362.7799072265625 L334.09185791015625,362.7799072265625 L326.4119873046875,362.7799072265625 L324.8759765625,362.7799072265625 L323.33990478515625,362.7799072265625 L321.80389404296875,362.7799072265625 L320.2679443359375,361.243896484375 L318.73193359375,361.243896484375 L317.1959228515625,361.243896484375 L315.65997314453125,361.243896484375 L315.65997314453125,359.70782470703125" stroke="black" stroke-width="2" fill="none"/>
<path d="M119.05194091796875,160.0279541015625 L146.69992065429688,186.13995361328125 L146.69992065429688,186.13995361328125 L157.451904296875,193.8199462890625 L172.81195068359375,204.57196044921875 L188.17193603515625,215.32391357421875 L205.06793212890625,226.07586669921875 L221.96392822265625,236.82794189453125 L238.85986328125,247.5799560546875 L258.82794189453125,258.33197021484375 L272.65185546875,266.011962890625 L288.01190185546875,273.69195556640625 L300.2999267578125,282.907958984375 L312.587890625,290.58795166015625 L314.1239013671875,292.12396240234375 L318.73193359375,295.19586181640625 L318.73193359375,296.73187255859375 L320.2679443359375,298.2679443359375 L321.80389404296875,299.803955078125 L323.33990478515625,302.87591552734375 L323.33990478515625,304.4119873046875 L324.8759765625,309.0198974609375 L326.4119873046875,309.0198974609375 L327.94793701171875,312.0919189453125 L327.94793701171875,313.62786865234375 L327.94793701171875,315.1639404296875 L327.94793701171875,318.2359619140625 L327.94793701171875,319.77191162109375 L329.48388671875,319.77191162109375" stroke="black" stroke-width="2" fill="none"/>
			</svg>
		