
			<svg xmlns="http://www.w3.org/2000/svg" width="500" height="500" >
				<path d="M116.08489990234375,160.73497009277344 L133.36492919921875,178.97496032714844 L133.36492919921875,178.97496032714844 L143.9249267578125,189.5349578857422 L166.96490478515625,207.7749786376953 L178.48492431640625,213.5349884033203 L190.00494384765625,221.21495056152344 L202.48492431640625,230.8149871826172 L223.60491943359375,246.1749725341797 L237.04498291015625,255.7749481201172 L246.6448974609375,262.49497985839844 L258.16497802734375,269.21495056152344 L263.9249267578125,274.0149688720703 L270.64495849609375,280.7349395751953 L281.2049560546875,287.45494079589844 L295.60491943359375,298.9749298095703 L306.1649169921875,305.69493103027344 L318.64483642578125,316.2549285888672 L326.324951171875,322.9749298095703 L334.00494384765625,326.81492614746094 L339.76483154296875,330.6549530029297 L348.40496826171875,333.5349578857422 L351.28485107421875,334.49497985839844 L352.2449951171875,334.49497985839844 L353.2049560546875,334.49497985839844 L354.1649169921875,334.49497985839844" stroke="black" stroke-width="2" fill="none"/>
<path d="M354.1649169921875,206.81495666503906 L334.9649658203125,214.49497985839844 L334.9649658203125,214.49497985839844 L307.1248779296875,229.85496520996094 L282.16497802734375,247.1349639892578 L247.60498046875,268.2549591064453 L228.40496826171875,280.7349395751953 L211.12493896484375,292.2549285888672 L199.60491943359375,302.81495666503906 L183.28497314453125,313.37498474121094 L170.804931640625,321.05494689941406 L156.4049072265625,327.7749481201172 L136.24493408203125,333.5349578857422 L128.56500244140625,336.41502380371094 L113.20489501953125,338.33494567871094 L86.32501220703125,340.2549285888672 L70.96490478515625,342.17491149902344 L57.52490234375,345.05491638183594 L45.04498291015625,349.8549041748047 L29.6849365234375,353.69493103027344 L25.84490966796875,355.6149139404297 L24.88494873046875,357.53501892089844 L23.92498779296875,357.53501892089844" stroke="black" stroke-width="2" fill="none"/>
			</svg>
		