
			<svg xmlns="http://www.w3.org/2000/svg" width="500" height="500" >
				<path d="M325.8342590332031,137.6724395751953 L318.71539306640625,145.07142639160156 L315.80078125,147.64955139160156 L312.7176208496094,150.6763458251953 L309.07421875,154.26394653320312 L305.1506652832031,158.91629028320312 L300.6662902832031,164.63392639160156 L295.9581604003906,170.74330139160156 L290.5769958496094,176.7974395751953 L284.5792541503906,184.0279083251953 L277.96484375,192.3236541748047 L270.45367431640625,202.52566528320312 L262.6065979003906,213.45591735839844 L254.703125,224.2181854248047 L246.57533264160156,234.75613403320312 L237.8872833251953,245.96652221679688 L229.59152221679688,255.60769653320312 L221.8002166748047,263.6233215332031 L214.40122985839844,270.7421875 L207.28236389160156,278.3649597167969 L199.9955291748047,286.1004333496094 L193.1568145751953,293.8917541503906 L186.93527221679688,301.1785583496094 L181.21763610839844,307.79296875 L175.7806854248047,314.18304443359375 L170.62388610839844,320.12445068359375 L165.5786895751953,326.06640625 L160.7583770751953,331.7276916503906 L156.49832153320312,337.27679443359375 L152.40625,342.60211181640625 L149.09933471679688,347.7589416503906 L146.0161895751953,351.9626159667969 L143.49386596679688,355.43804931640625 L142.3169708251953,357.5680847167969 L141.8125,358.5206604003906 L141.75613403320312,359.08148193359375 L142.37277221679688,359.1936340332031" stroke="black" stroke-width="2" fill="none"/>
			</svg>
		