
			<svg xmlns="http://www.w3.org/2000/svg" width="500" height="500" >
				<path d="M85,160.5 L88,186.5 L88,186.5 L89,197.5 L89.5,208.5 L90.5,221.5 L91.5,233.5 L92.5,245 L93.5,256.5 L94,269 L94.5,281 L95,291.5 L96,301 L97,310.5 L98,318.5 L98.5,326 L99,332.5 L99,338.5 L99,343.5 L99,348 L99.5,352 L100,354.5 L100,356 L100,356.5 L100.5,356.5 L101,356.5 L101.5,356.5 L102.5,356.5 L103,356.5 L104,356.5 L105.5,356.5 L108,356.5 L111.5,356.5 L116.5,356.5 L122,356.5 L129,356.5 L136,356.5 L143.5,356.5 L151,356.5 L158.5,356.5 L166.5,356.5 L175.5,356 L183.5,356 L193,355.5 L202.5,355.5 L214,355 L226,354.5 L241,354 L253.5,353.5 L266,353.5 L277,353 L285.5,352.5 L293.5,352 L300.5,351.5 L306,350 L310.5,349.5 L314.5,349.5 L318.5,349 L320.5,348.5 L322,348.5 L323,348.5 L324,348.5 L324,348 L324,347.5 L324,347 L324,346 L324,345 L324,342.5 L324,336.5 L322.5,327 L321,316 L319.5,303.5 L317.5,291 L315.5,277 L313,261 L311,245 L309,228.5 L308,215 L306.5,201 L305.5,187.5 L304,175 L303,163 L302.5,153 L302,144 L302,137.5 L301.5,134 L301.5,131.5 L301.5,131 L301,131 L300.5,131 L299.5,131 L298.5,131.5 L297.5,132 L296.5,133 L295,133.5 L291,134.5 L287,134.5 L281,135 L273.5,135 L264.5,135 L255.5,135 L245.5,135 L235.5,135 L224.5,135.5 L214,136.5 L203.5,137.5 L193.5,138.5 L183.5,139.5 L174,140.5 L164.5,141.5 L156.5,142.5 L148.5,143.5 L140,144.5 L132.5,144.5 L125.5,144.5 L119.5,144.5 L114,144.5 L109,144.5 L104.5,144.5 L101.5,145 L99.5,145 L97.5,146.5 L95.5,147 L94.5,147.5 L93.5,148 L93,148 L92,148.5 L91.5,149 L90.5,149.5 L90,149.5 L89.5,150 L89,150 L88.5,150 L88,150 L88,150.5 L87.5,150.5 L87,150.5 L87,151 L86.5,151 L86,151.5 L85,151.5 L84.5,151.5 L84,151.5 L83.5,152 L83,152 L82.5,152 L82.5,152.5 L81.5,152.5" stroke="black" stroke-width="2" fill="none"/>
<path d="M291,132.5 L319,162 L319,162 L326.5,170.5 L334.5,179 L343,187.5 L351,196 L359,202.5 L366.5,209 L374,215.5 L381,222 L387,228 L393.5,234 L400,240.5 L405.5,245.5 L410,250.5 L413.5,254 L416.5,257 L418,259 L419,260.5 L419,261.5 L419,262 L419,262.5 L418,263 L416.5,264 L414.5,266 L411.5,270 L407,276.5 L401.5,284.5 L395,292 L389,299 L383.5,306 L378.5,312 L372.5,317 L367.5,322 L362,327 L356.5,332 L351,336.5 L346,340 L341.5,343.5 L338,346 L335.5,347 L334.5,348 L334,348 L333.5,348" stroke="black" stroke-width="2" fill="none"/>
<path d="M302,132.5 L277.5,157.5 L277.5,157.5 L271,163.5 L264.5,170.5 L257.5,177 L250,183.5 L242.5,190.5 L235,198 L227.5,205.5 L220,213.5 L212.5,222 L204.5,229.5 L197.5,237.5 L191.5,244.5 L184.5,251 L179,257 L173.5,263.5 L167,269 L161.5,274.5 L156,281 L150,288 L144,294.5 L139,300.5 L134.5,307 L130.5,312 L127,317 L123.5,322 L120,326 L117,330.5 L114,334 L111.5,337 L109.5,339.5 L107.5,341.5 L105.5,343 L104.5,344 L104,345 L103.5,346 L103.5,345.5" stroke="black" stroke-width="2" fill="none"/>
<path d="M76.5,147 L105.5,170 L105.5,170 L115.5,177 L125.5,185 L137,193.5 L147.5,202 L158.5,209 L169.5,217 L180,225 L191.5,232.5 L202,240.5 L213,248.5 L224,257 L236,267 L247,276.5 L258.5,286.5 L269,296 L279,304 L288.5,311.5 L297.5,318 L304.5,324 L310.5,329 L316,332.5 L319.5,334.5 L321,336 L321.5,336.5" stroke="black" stroke-width="2" fill="none"/>
<path d="M35,88.5 L33.5,116.5 L33.5,116.5 L34,128 L36,140.5 L37.5,153 L39,163.5 L40,174.5 L41,184.5 L41.5,196 L41.5,207 L42,217 L42,226 L42,236 L42,247.5 L42,257.5 L42,264.5 L42,267 L42,268 L42,267.5 L42,266" stroke="black" stroke-width="2" fill="none"/>
<path d="M38.5,200 L70,199.5 L70,199.5 L77,199.5 L83,199.5 L88.5,200.5 L91,201.5 L92,201.5 L90.5,201.5" stroke="black" stroke-width="2" fill="none"/>
<path d="M52.5,134 L15,133 L15,133 L6,134 L0,134 L-4,134 L-6,134" stroke="black" stroke-width="2" fill="none"/>
<path d="M95.5,336 L99.5,373 L99.5,373 L100.5,383.5 L101.5,392.5 L102,400 L102.5,406 L102.5,411 L102.5,414.5 L102.5,416.5 L102.5,417.5 L103,417.5 L103.5,417.5 L104,417.5 L105,417.5 L107.5,417.5 L112.5,417.5 L120,417.5 L130,417.5 L139.5,417.5 L148.5,417.5 L156,418 L162.5,418.5 L166,418.5 L167,418.5 L167,417.5 L167,413.5 L165.5,406 L163.5,395.5 L161.5,384.5 L160,373.5 L159.5,366 L159,361 L159,359 L158.5,358 L158.5,357.5 L157,357.5 L154.5,357.5" stroke="black" stroke-width="2" fill="none"/>
<path d="M94,354.5 L124.5,380 L124.5,380 L132,387 L138.5,393.5 L144,399.5 L150,405 L155,409.5 L158.5,412.5 L160.5,414.5 L161.5,415" stroke="black" stroke-width="2" fill="none"/>
<path d="M158,382 L187.5,382.5 L187.5,382.5 L197.5,382.5 L207.5,382.5 L218,383.5 L227,384.5 L235,385.5 L240.5,386 L244,386 L246,386 L246.5,386 L245,386.5" stroke="black" stroke-width="2" fill="none"/>
<path d="M213.5,364.5 L215.5,389.5 L215.5,389.5 L216.5,397 L217.5,401.5 L218.5,404 L219,404.5" stroke="black" stroke-width="2" fill="none"/>
<path d="M191.5,135 L191.5,165 L191.5,165 L192.5,174 L193.5,181.5 L194.5,188.5 L195.5,196.5 L196,205.5 L196.5,215 L197,224 L198,232 L198.5,240 L199.5,247 L200,254 L200.5,260.5 L201,266.5 L201.5,272 L201.5,277.5 L202,284 L202.5,289.5 L203,295 L204,300.5 L204.5,306.5 L205,312 L206,317 L206.5,321.5 L207,325.5 L207.5,329.5 L208,332.5 L208.5,335 L209,337 L209,338.5 L209,340 L209.5,341.5 L209.5,343 L210,344.5 L210,345.5 L210,346.5 L210,347.5 L211,348 L211.5,348" stroke="black" stroke-width="2" fill="none"/>
<path d="M415,256 L382.5,255.5 L382.5,255.5 L374,255.5 L366,255.5 L357.5,255.5 L348,255.5 L340,255.5 L331,255.5 L323,255.5 L314,255.5 L305,255.5 L295.5,255.5 L286,255.5 L277.5,255.5 L268,255.5 L260,255.5 L251.5,255.5 L244,255.5 L237,255.5 L230.5,255.5 L224.5,255.5 L218.5,255.5 L212.5,255.5 L206,255.5 L201,255.5 L196,255.5 L191,255.5 L186,255.5 L181.5,255.5 L177,255.5 L172.5,255.5 L167.5,255.5 L163.5,255.5 L159.5,255.5 L155,255.5 L150.5,255.5 L145.5,255.5 L140,255.5 L135,255.5 L130,255.5 L123.5,255.5 L117.5,255.5 L112,255.5 L107,255.5 L102,255.5 L98.5,255.5 L95.5,255.5 L92.5,255.5 L90,255.5 L88.5,255.5 L87,255.5 L85,255.5 L84.5,255.5 L84,255.5" stroke="black" stroke-width="2" fill="none"/>
<path d="M147,196.5 L149,226.5 L149,226.5 L150,235 L151,244 L151.5,252 L151.5,260 L151.5,266 L151.5,270.5 L151.5,274.5 L151.5,278.5 L151.5,283 L152,286 L152.5,287.5 L152.5,288.5 L148.5,288.5 L141,289 L132,290 L122.5,291 L114.5,292 L108.5,292.5 L103,292.5 L99.5,292.5 L97,292.5 L96,292.5 L95,292.5 L94,292.5 L93,292.5 L91.5,292.5 L89,292.5" stroke="black" stroke-width="2" fill="none"/>
<path d="M145.5,195 L122,196 L122,196 L115.5,196 L110,196 L105,196 L101.5,196 L99,196 L97.5,196 L97,196 L96,196 L95,196.5" stroke="black" stroke-width="2" fill="none"/>
<path d="M146,203 L129.5,227 L129.5,227 L126,233.5 L123.5,239.5 L121,245 L119,250.5 L116,256.5 L113,263.5 L110,269 L107.5,273.5 L105.5,276.5 L104,279 L103,280.5 L102,282 L101,283.5 L100.5,284.5 L100,285" stroke="black" stroke-width="2" fill="none"/>
<path d="M94,191.5 L103,211.5 L103,211.5 L108.5,219 L115,228.5 L121.5,239 L128,248 L134,256 L139,262.5 L143.5,267 L146.5,270.5 L148.5,272.5 L150,273.5 L151,275 L151,276 L151,277.5 L151,278.5 L151,279" stroke="black" stroke-width="2" fill="none"/>
<path d="M215,130.5 L214.5,167 L214.5,167 L214.5,178 L214.5,188 L215.5,197 L216.5,203 L217.5,206.5 L218,207.5 L218,208" stroke="black" stroke-width="2" fill="none"/>
<path d="M184,143 L185,118.5 L185,118.5 L185,112 L185,104.5 L185,96.5 L185,88 L185,82 L185,78 L185,75 L185,73.5 L185.5,72 L186,71 L186.5,69.5 L187,68.5 L187.5,67.5 L188,67.5 L189,67.5 L190.5,67.5 L191.5,67.5 L195,67.5 L200,69 L205.5,72 L212,75.5 L220,80.5 L228.5,86.5 L238.5,92 L247,97 L255,101.5 L262.5,106 L269.5,110 L276.5,115 L282.5,120 L287.5,124.5 L292,128.5 L295.5,131 L298,133.5 L300,135 L301,136 L301,136.5 L300.5,137" stroke="black" stroke-width="2" fill="none"/>
<path d="M173,158 L133,160.5 L133,160.5 L120.5,160.5 L110,160.5 L100.5,160.5 L95,160 L91.5,159.5 L90.5,159" stroke="black" stroke-width="2" fill="none"/>
<path d="M206,169.5 L174.5,174.5 L174.5,174.5 L161,175.5 L147.5,175.5 L136.5,175.5 L128.5,175.5 L123,175.5 L120.5,175.5 L120.5,175" stroke="black" stroke-width="2" fill="none"/>
<path d="M199.5,197.5 L168,198 L168,198 L159,198 L152,198 L147.5,198 L145,198" stroke="black" stroke-width="2" fill="none"/>
<path d="M256,259 L239.5,281 L239.5,281 L238,284 L236,286 L234.5,290" stroke="black" stroke-width="2" fill="none"/>
<path d="M284,279.5 L271,302 L271,302 L268,306.5 L265.5,309.5 L264,311.5 L263.5,314" stroke="black" stroke-width="2" fill="none"/>
<path d="M301,293.5 L291,318.5 L291,318.5 L288,323.5 L286,326.5" stroke="black" stroke-width="2" fill="none"/>
<path d="M327.5,160.5 L328.5,211.5 L328.5,211.5 L330.5,235.5 L333,262 L336.5,287.5 L339.5,308 L342.5,323 L344.5,334.5 L346,340 L346.5,341.5" stroke="black" stroke-width="2" fill="none"/>
			</svg>
		