
			<svg xmlns="http://www.w3.org/2000/svg" width="500" height="500" >
				<path d="M113.20489501953125,103.719970703125 L114.1649169921875,121.95999145507812 L114.1649169921875,121.95999145507812 L114.1649169921875,137.31997680664062 L115.12493896484375,157.47998046875 L115.12493896484375,184.35995483398438 L115.12493896484375,197.79995727539062 L117.04498291015625,212.19998168945312 L117.04498291015625,227.5599365234375 L118.0050048828125,234.27996826171875 L118.0050048828125,240.99996948242188 L118.9649658203125,250.5999755859375 L118.9649658203125,265.9599609375 L118.9649658203125,279.3999328613281 L118.9649658203125,288.9999694824219 L118.9649658203125,300.5199279785156 L118.9649658203125,305.3199462890625 L119.92498779296875,312.03997802734375 L120.885009765625,325.47991943359375 L122.804931640625,339.87994384765625 L122.804931640625,350.43994140625 L122.804931640625,360.99993896484375 L122.804931640625,364.83990478515625 L122.804931640625,366.760009765625 L122.804931640625,368.679931640625 L122.804931640625,369.63995361328125 L123.764892578125,369.63995361328125 L125.6849365234375,369.63995361328125 L128.56500244140625,369.63995361328125 L135.284912109375,369.63995361328125 L145.84490966796875,369.63995361328125 L152.56500244140625,369.63995361328125 L159.284912109375,369.63995361328125 L173.68499755859375,369.63995361328125 L183.28497314453125,369.63995361328125 L195.76495361328125,369.63995361328125 L210.1649169921875,369.63995361328125 L216.88494873046875,368.679931640625 L228.40496826171875,366.760009765625 L245.6849365234375,363.87994384765625 L258.16497802734375,362.919921875 L266.804931640625,362.919921875 L277.36492919921875,361.95989990234375 L283.12493896484375,360.99993896484375 L287.9249267578125,360.99993896484375 L294.64495849609375,360.0399169921875 L297.52490234375,360.0399169921875 L302.324951171875,359.0799560546875 L304.2449951171875,359.0799560546875 L309.044921875,358.11993408203125 L312.88494873046875,357.15997314453125 L317.68487548828125,356.20001220703125 L324.40496826171875,354.2799072265625 L330.16497802734375,352.35992431640625 L333.04498291015625,351.39990234375 L336.88494873046875,349.47991943359375 L337.844970703125,349.47991943359375 L339.76483154296875,349.47991943359375 L340.7249755859375,349.47991943359375 L342.64495849609375,349.47991943359375" stroke="black" stroke-width="2" fill="none"/>
<path d="M114.1649169921875,94.1199951171875 L131.44500732421875,96.03994750976562 L131.44500732421875,96.03994750976562 L149.68499755859375,96.99993896484375 L167.9249267578125,96.99993896484375 L201.52490234375,96.99993896484375 L226.4849853515625,96.99993896484375 L253.36492919921875,96.99993896484375 L283.12493896484375,96.99993896484375 L298.48492431640625,96.99993896484375 L310.0048828125,96.99993896484375 L320.56494140625,98.91998291015625 L325.364990234375,99.87997436523438 L326.324951171875,100.83993530273438 L328.244873046875,101.79995727539062 L331.12493896484375,104.67999267578125 L331.12493896484375,107.5599365234375 L330.16497802734375,110.43997192382812 L329.204833984375,115.239990234375 L327.28485107421875,121.95999145507812 L325.364990234375,135.39993286132812 L325.364990234375,146.91998291015625 L326.324951171875,159.39996337890625 L330.16497802734375,178.59994506835938 L333.04498291015625,191.07998657226562 L336.88494873046875,204.51992797851562 L340.7249755859375,230.43994140625 L344.56494140625,247.71994018554688 L346.4849853515625,263.0799255371094 L348.40496826171875,279.3999328613281 L349.3648681640625,288.03997802734375 L350.3248291015625,295.7199401855469 L350.3248291015625,308.1999206542969 L350.3248291015625,318.75994873046875 L350.3248291015625,330.2799072265625 L350.3248291015625,350.43994140625 L350.3248291015625,360.99993896484375 L350.3248291015625,367.719970703125 L351.28485107421875,376.35992431640625 L351.28485107421875,380.199951171875 L351.28485107421875,384.99993896484375 L351.28485107421875,389.79986572265625" stroke="black" stroke-width="2" fill="none"/>
			</svg>
		