
			<svg xmlns="http://www.w3.org/2000/svg" width="500" height="500" >
				<path d="M218,109 L261.5,154 L261.5,154 L282.5,178.5 L304.5,209 L327.5,242.5 L350.5,278.5 L372.5,317 L389,351.5 L401,379.5 L407.5,399 L409,408 L406.5,409 L388.5,391.5 L364,357 L334,315.5 L300,270 L263,222 L226.5,181 L199,151 L178,133.5 L163.5,126.5 L155,126 L153.5,130.5 L158.5,150.5 L177,180 L200,218 L224.5,257 L248.5,297.5 L267.5,334 L280,364 L284.5,387 L285,401.5" stroke="black" stroke-width="2" fill="none"/>
<path d="M139.5,238.5 L124,317.5 L124,317.5 L119.5,351 L113,382.5 L105,407 L97.5,423 L88.5,433 L80.5,435.5 L75,435.5 L72,427 L71.5,412 L71.5,397 L76,379.5 L84.5,361 L97,341 L114,317.5 L134,295.5 L153.5,277.5 L177,258 L201.5,239.5 L226,223.5 L253,210.5 L278,198 L302.5,185 L325,172 L345.5,157 L363.5,141 L376.5,123 L384,106" stroke="black" stroke-width="2" fill="none"/>
<path d="M363.5,81.5 L359,137 L359,137 L355.5,171.5 L349.5,210.5 L341,250 L329,292 L318,329 L306,362.5 L293,392 L283,410.5 L274,422.5 L265.5,425.5 L260,424 L255,410.5 L248,388 L238.5,356.5 L224,317 L204.5,273.5 L178.5,224 L147,178 L118.5,141 L95.5,118.5 L77,106 L66,103.5 L62.5,103.5" stroke="black" stroke-width="2" fill="none"/>
<path d="M99,176 L135,225.5 L135,225.5 L148.5,255.5 L161.5,294.5 L172.5,337.5 L179.5,383.5 L182.5,428.5" stroke="black" stroke-width="2" fill="none"/>
			</svg>
		