
			<svg xmlns="http://www.w3.org/2000/svg" width="500" height="500" >
				<path d="M410.5,101.5 L360,154.5 L360,154.5 L334,181 L304.5,212.5 L272,245 L235.5,279.5 L198,315.5 L162.5,353.5 L130.5,389 L100,421.5 L71.5,449" stroke="black" stroke-width="2" fill="none"/>
<path d="M454.5,402 L401.5,363 L401.5,363 L364.5,337 L322,305.5 L272.5,265.5 L222,225.5 L174,194 L126.5,164 L104,149.5" stroke="black" stroke-width="2" fill="none"/>
<path d="M460.5,290 L435,258.5 L435,258.5 L416,242 L394,222.5 L369.5,202 L347,182 L327,165 L308.5,150 L293,137.5 L280.5,127.5 L269.5,119.5 L261,113 L255.5,109.5 L251.5,107.5 L250,106.5 L249,106.5 L248.5,106.5 L247.5,106.5 L246.5,106.5 L244.5,107.5 L241,112 L236,119.5 L228.5,129.5 L219,143 L207,157.5 L193.5,176 L178.5,195 L162.5,216 L147,238 L131.5,259.5 L116.5,280 L101.5,298 L86.5,314" stroke="black" stroke-width="2" fill="none"/>
			</svg>
		