
			<svg xmlns="http://www.w3.org/2000/svg" width="500" height="500" >
				<path d="M116,134.5 L111.5,173 L111.5,173 L109.5,187 L108,200 L107,212.5 L107,224 L106,236.5 L106,250 L106,266 L106,283.5 L106,301.5 L107,315 L108,329 L109,342 L110,354.5 L111,363.5 L111.5,370.5 L111.5,374.5 L111.5,376.5 L111.5,378 L111.5,379 L111.5,379.5 L112,379.5 L112.5,379.5 L112.5,379 L113,378" stroke="black" stroke-width="2" fill="none"/>
<path d="M357.5,387.5 L304.5,395 L304.5,395 L282.5,396.5 L259,397 L235,397 L211,397 L188.5,397 L170.5,396 L153.5,395.5 L140.5,395 L130,394.5 L122,394.5 L116.5,394 L113,394 L110.5,394 L108.5,394 L107,394 L105,394 L104.5,394 L102.5,394" stroke="black" stroke-width="2" fill="none"/>
<path d="M380,114.5 L337,110.5 L337,110.5 L316,110 L292.5,109.5 L268.5,108.5 L244,107.5 L221,105.5 L199,104 L179.5,103.5 L164,103.5 L151.5,103 L143,103 L138.5,103 L136.5,103 L136,103 L135.5,103" stroke="black" stroke-width="2" fill="none"/>
<path d="M380,111.5 L385,163.5 L385,163.5 L388,176 L390,190 L391,206 L391.5,224.5 L391.5,247.5 L391.5,271 L391.5,289.5 L391,307 L390,322 L388.5,337 L386,353.5 L383.5,367 L381,379 L379,387 L377.5,392.5 L377,394 L374,394" stroke="black" stroke-width="2" fill="none"/>
<path d="M363,107 L316.5,168 L316.5,168 L294.5,191 L271,215 L247.5,238.5 L225.5,260 L202.5,282 L183.5,300.5 L167,316 L152.5,331 L140.5,343 L130,352.5 L120.5,361.5 L111.5,370 L103.5,377.5 L98.5,383 L96.5,386 L96,386.5 L95.5,386.5" stroke="black" stroke-width="2" fill="none"/>
<path d="M108.5,89 L139,118.5 L139,118.5 L150.5,128 L163.5,138.5 L176,149.5 L190.5,161 L207,176.5 L224.5,193 L240,207.5 L256.5,224.5 L272,241 L288.5,258.5 L304,275 L319.5,291.5 L331.5,305 L343.5,317 L352.5,327.5 L360.5,337 L367,346.5 L373.5,356 L379.5,365.5 L384.5,373.5 L388,379 L390,381.5 L391,382.5" stroke="black" stroke-width="2" fill="none"/>
			</svg>
		