
			<svg xmlns="http://www.w3.org/2000/svg" width="500" height="500" >
				<path d="M344.5,91 L319.5,110 L319.5,110 L309,123.5 L297,141.5 L283,160 L269.5,178 L255,198 L242.5,217.5 L230,236 L217,258 L203.5,277.5 L192,294 L180.5,309 L171.5,321.5 L162.5,333 L153,346 L144.5,356.5 L138,366 L133,373 L129.5,378 L128,381 L126,383 L124.5,385 L123,386.5 L122.5,387.5 L122.5,388 L123,388 L123.5,388 L124,388 L124.5,388 L125,388 L126,388 L127,388 L129,388 L133.5,388 L142,388 L154,388 L166.5,388 L179.5,388 L191,388 L202,388.5 L216.5,388.5 L234.5,387.5 L250,385 L264.5,383.5 L277.5,382.5 L290,381 L305.5,378.5 L322,375.5 L337,373.5 L348.5,373 L356,373 L361,373 L363,373 L363.5,373 L363,373" stroke="black" stroke-width="2" fill="none"/>
<path d="M339,99.5 L344,132.5 L344,132.5 L344.5,147.5 L346,166 L348,184 L350.5,203 L352,221 L353.5,238.5 L354.5,256.5 L355.5,274 L356.5,290.5 L357.5,305 L358.5,317 L359.5,328 L360.5,337.5 L361,345 L361,352 L361.5,357 L361.5,360.5 L361.5,363 L361.5,365 L361.5,367 L361.5,369 L361.5,370 L361.5,371 L361.5,372 L361.5,373" stroke="black" stroke-width="2" fill="none"/>
			</svg>
		