
			<svg xmlns="http://www.w3.org/2000/svg" width="500" height="500" >
				<path d="M93.044921875,132.99998474121094 L90.1649169921875,157.95994567871094 L90.1649169921875,157.95994567871094 L89.2049560546875,170.4399871826172 L83.4449462890625,216.5199432373047 L79.60491943359375,248.19993591308594 L76.7249755859375,280.83995056152344 L74.80499267578125,336.51991271972656 L75.7650146484375,369.15992736816406 L76.7249755859375,397.9599151611328 L77.68499755859375,422.91993713378906 L79.60491943359375,430.5999298095703 L79.60491943359375,432.51991271972656" stroke="black" stroke-width="2" fill="none"/>
<path d="M79.60491943359375,432.51991271972656 L107.44500732421875,433.4799346923828 L107.44500732421875,433.4799346923828 L134.324951171875,433.4799346923828 L161.2049560546875,431.55995178222656 L188.08489990234375,430.5999298095703 L219.764892578125,427.71998596191406 L267.764892578125,426.7599639892578 L295.60491943359375,426.7599639892578 L318.64483642578125,426.7599639892578 L341.6849365234375,427.71998596191406 L349.3648681640625,428.6798858642578 L356.0849609375,428.6798858642578 L361.8448486328125,429.63990783691406 L370.48486328125,429.63990783691406 L372.40478515625,430.5999298095703 L374.324951171875,430.5999298095703 L375.284912109375,430.5999298095703 L377.2049560546875,430.5999298095703 L378.1649169921875,430.5999298095703 L378.1649169921875,420.9999542236328 L379.125,399.8799591064453 L383.9248046875,325.9599151611328 L391.60498046875,257.7999725341797 L397.364990234375,204.0399627685547 L403.1248779296875,140.67994689941406 L403.1248779296875,113.79994201660156 L406.0050048828125,96.51994323730469 L404.0848388671875,87.87998962402344 L403.1248779296875,82.11997985839844 L403.1248779296875,81.15995788574219 L403.1248779296875,80.19996643066406 L398.324951171875,80.19996643066406 L391.60498046875,80.19996643066406 L352.2449951171875,85.95994567871094 L320.56494140625,88.83998107910156 L274.48492431640625,89.79997253417969 L218.80499267578125,91.71995544433594 L139.125,91.71995544433594 L104.56494140625,91.71995544433594 L79.60491943359375,91.71995544433594 L63.28497314453125,91.71995544433594 L61.36492919921875,91.71995544433594 L60.4049072265625,91.71995544433594" stroke="black" stroke-width="2" fill="none"/>
			</svg>
		