
			<svg xmlns="http://www.w3.org/2000/svg" width="500" height="500" >
				<path d="M103.5,162.5 L102.5,186.5 L102.5,186.5 L102.5,194.5 L102.5,203 L103.5,213 L104.5,224 L105.5,234 L107,246 L107.5,260 L108.5,274 L109.5,289 L110.5,302.5 L111.5,314 L113,324.5 L114,335.5 L114,345.5 L114,355.5 L114,363 L114,368.5 L114,372 L114,375.5 L114,377.5 L114,379 L114,380 L114,380.5 L115,380.5 L117,380.5 L121,381.5 L127,382.5 L135.5,383.5 L144,385 L154,387 L165,389 L177,390.5 L190,391.5 L203,392 L217,392.5 L231,392.5 L246.5,392.5 L262,392.5 L277.5,392.5 L295.5,392.5 L311,392.5 L325.5,392.5 L339.5,392.5 L352,392.5 L364,392 L375.5,392 L386.5,392 L396.5,391.5 L404.5,391 L410,390.5 L413,390.5 L415,390.5 L416,390.5 L416.5,390.5 L416.5,390 L416.5,389.5 L416.5,389 L416.5,388 L416.5,386.5 L416.5,382 L415.5,373 L414.5,362.5 L413.5,350 L412.5,336.5 L411,320 L410,302 L408.5,284 L407.5,264.5 L406.5,244.5 L405.5,227.5 L404,213.5 L403,200 L401.5,188.5 L400.5,180 L400,173.5 L400,170 L400,167 L400,164 L399.5,161.5 L399.5,159.5 L399,158 L399,157.5 L398,157.5 L397.5,157.5 L397,157.5 L396.5,157.5 L395.5,157.5 L394,157.5 L391.5,157.5 L388,157.5 L383,157 L376,156 L367.5,155.5 L357.5,155 L345.5,155 L333,155 L320,154 L306,153 L292,152.5 L278,152.5 L264,152.5 L250,152 L236.5,152 L222.5,152 L209.5,152 L198,152 L186.5,151.5 L176.5,151.5 L167,151 L159,150.5 L152.5,150.5 L146.5,150.5 L142,150.5 L137.5,150.5 L134,150.5 L131,150.5 L128,150.5 L124.5,151 L121,151.5 L118,152.5 L115.5,152.5 L113.5,152.5 L112,153 L110,153 L108.5,153.5 L107,154 L105.5,154 L104.5,154 L104,154.5 L105,154.5" stroke="black" stroke-width="2" fill="none"/>
<path d="M396.5,153.5 L369.5,177.5 L369.5,177.5 L363,183 L354.5,188 L346.5,194 L338.5,199 L329.5,204.5 L322,209.5 L313.5,214.5 L306,219.5 L298.5,225 L290.5,230.5 L283,235.5 L276,241 L268.5,246 L261.5,252 L254.5,257.5 L247,264 L240,269.5 L233.5,275 L226.5,280.5 L220,287 L213.5,292.5 L207,298 L200.5,303 L194.5,308.5 L187.5,313.5 L181.5,318 L176,323 L170.5,328.5 L164,333 L158.5,337.5 L153,342.5 L147.5,347 L142.5,351.5 L138.5,355.5 L134,359 L130.5,362.5 L127,365.5 L123.5,368.5 L121,370.5 L118,372.5 L115.5,374.5 L112.5,376.5 L110.5,377.5 L109.5,378.5" stroke="black" stroke-width="2" fill="none"/>
<path d="M97.5,158 L123,182 L123,182 L132,190 L140.5,198 L150,205 L159,211.5 L167.5,218.5 L176.5,225 L185,232 L193.5,238.5 L201,244 L208.5,249 L217,255 L225,262 L234,268.5 L243,274.5 L251,280.5 L259.5,287 L267,293 L275,299 L282.5,306 L290.5,311.5 L298.5,316.5 L306,322 L313.5,327.5 L322,333 L329,337.5 L336.5,342 L343.5,346 L351,351.5 L358.5,356.5 L365,361.5 L371.5,365.5 L377.5,369.5 L383.5,373 L389,377.5 L394,381 L399,383.5 L402.5,386 L405.5,388.5 L408,390 L409.5,391.5 L410,392" stroke="black" stroke-width="2" fill="none"/>
			</svg>
		