
			<svg xmlns="http://www.w3.org/2000/svg" width="500" height="500" >
				<path d="M88.07595825195312,160.97592163085938 L88.07595825195312,177.87191772460938 L88.07595825195312,177.87191772460938 L88.07595825195312,184.01596069335938 L88.07595825195312,191.69595336914062 L89.61195373535156,200.91195678710938 L89.61195373535156,211.66390991210938 L91.14796447753906,219.34390258789062 L91.14796447753906,233.16796875 L92.68391418457031,242.38397216796875 L92.68391418457031,253.13592529296875 L94.21994018554688,262.3519287109375 L94.21994018554688,273.1038818359375 L94.21994018554688,277.71197509765625 L95.75593566894531,283.85595703125 L95.75593566894531,289.9998779296875 L97.29196166992188,296.1439208984375 L97.29196166992188,302.2879638671875 L98.82795715332031,306.8958740234375 L98.82795715332031,314.575927734375 L101.89991760253906,319.1839599609375 L101.89991760253906,323.79193115234375 L103.43594360351562,331.471923828125 L103.43594360351562,337.615966796875 L104.97193908691406,343.75994873046875 L104.97193908691406,349.90386962890625 L108.04396057128906,379.08782958984375 L109.57998657226562,388.303955078125 L109.57998657226562,391.37591552734375 L109.57998657226562,392.91192626953125 L109.57998657226562,397.51983642578125 L111.11593627929688,400.5919189453125 L111.11593627929688,403.66387939453125 L111.11593627929688,406.7359619140625 L111.11593627929688,408.27191162109375 L111.11593627929688,412.8800048828125 L111.11593627929688,414.41583251953125 L111.11593627929688,415.951904296875 L111.11593627929688,417.4879150390625 L111.11593627929688,419.02386474609375 L111.11593627929688,420.55987548828125 L111.11593627929688,422.095947265625 L111.11593627929688,423.6319580078125 L111.11593627929688,426.70391845703125 L112.65193176269531,426.70391845703125 L115.72395324707031,426.70391845703125 L117.25996398925781,425.16796875 L117.25996398925781,423.6319580078125 L120.33193969726562,422.095947265625 L121.86793518066406,420.55987548828125 L123.40396118164062,419.02386474609375 L124.93997192382812,419.02386474609375 L141.83596801757812,409.80792236328125 L144.90789794921875,408.27191162109375 L147.97991943359375,406.7359619140625 L149.51596069335938,406.7359619140625 L154.1239013671875,405.199951171875 L157.1959228515625,405.199951171875 L161.80389404296875,403.66387939453125 L166.41195678710938,403.66387939453125 L169.48394775390625,403.66387939453125 L174.0919189453125,403.66387939453125 L178.69998168945312,403.66387939453125 L183.30792236328125,403.66387939453125 L189.45193481445312,403.66387939453125 L192.52395629882812,403.66387939453125 L198.66793823242188,403.66387939453125 L203.27593994140625,405.199951171875 L207.88394165039062,405.199951171875 L214.02789306640625,405.199951171875 L218.63595581054688,405.199951171875 L221.70797729492188,406.7359619140625 L227.85195922851562,406.7359619140625 L230.92388916015625,406.7359619140625 L235.53192138671875,408.27191162109375 L238.60394287109375,408.27191162109375 L257.035888671875,414.41583251953125 L263.1799621582031,415.951904296875 L266.25189208984375,415.951904296875 L270.8599548339844,417.4879150390625 L273.9319152832031,417.4879150390625 L277.00390625,417.4879150390625 L280.0759582519531,419.02386474609375 L283.14788818359375,419.02386474609375 L287.7559509277344,420.55987548828125 L292.3638916015625,420.55987548828125 L295.4359436035156,420.55987548828125 L300.0439147949219,420.55987548828125 L301.57989501953125,420.55987548828125 L306.1879577636719,420.55987548828125 L309.2598876953125,422.095947265625 L313.8679504394531,422.095947265625 L315.4039306640625,423.6319580078125 L318.47589111328125,423.6319580078125 L320.01190185546875,423.6319580078125 L324.61993408203125,426.70391845703125 L327.69189453125,426.70391845703125 L330.7639465332031,428.23992919921875 L333.8359375,429.7760009765625 L339.9799499511719,429.7760009765625 L358.4119567871094,435.919921875 L359.94793701171875,435.919921875 L363.0198974609375,435.919921875 L366.0919494628906,435.919921875 L367.6279296875,437.45587158203125 L369.1639099121094,437.45587158203125 L369.1639099121094,440.5279541015625 L370.69989013671875,440.5279541015625 L372.23590087890625,440.5279541015625 L373.7719421386719,440.5279541015625 L375.3079528808594,440.5279541015625 L378.3798828125,440.5279541015625 L379.9159240722656,440.5279541015625 L381.4518737792969,440.5279541015625 L381.4518737792969,438.99188232421875 L382.9879455566406,438.99188232421875 L384.5239562988281,437.45587158203125 L384.5239562988281,434.3839111328125 L384.5239562988281,432.847900390625 L386.0599670410156,432.847900390625 L386.0599670410156,429.7760009765625 L386.0599670410156,426.70391845703125 L386.0599670410156,425.16796875 L386.0599670410156,414.41583251953125 L386.0599670410156,409.80792236328125 L386.0599670410156,408.27191162109375 L386.0599670410156,406.7359619140625 L386.0599670410156,400.5919189453125 L386.0599670410156,397.51983642578125 L387.5959167480469,392.91192626953125 L387.5959167480469,388.303955078125 L387.5959167480469,383.6959228515625 L387.5959167480469,379.08782958984375 L387.5959167480469,371.407958984375 L387.5959167480469,366.7999267578125 L387.5959167480469,362.19183349609375 L387.5959167480469,354.511962890625 L387.5959167480469,349.90386962890625 L387.5959167480469,345.29595947265625 L387.5959167480469,337.615966796875 L387.5959167480469,333.00787353515625 L387.5959167480469,326.86395263671875 L387.5959167480469,323.79193115234375 L387.5959167480469,317.64794921875 L387.5959167480469,311.50396728515625 L386.0599670410156,306.8958740234375 L386.0599670410156,302.2879638671875 L386.0599670410156,296.1439208984375 L386.0599670410156,293.07196044921875 L384.5239562988281,277.71197509765625 L384.5239562988281,274.63995361328125 L384.5239562988281,273.1038818359375 L384.5239562988281,270.03192138671875 L384.5239562988281,266.9599609375 L384.5239562988281,263.88787841796875 L381.4518737792969,262.3519287109375 L381.4518737792969,260.81597900390625 L381.4518737792969,257.74395751953125 L381.4518737792969,256.2078857421875 L381.4518737792969,254.67193603515625 L381.4518737792969,253.13592529296875 L381.4518737792969,251.5999755859375 L378.3798828125,236.23992919921875 L378.3798828125,230.09588623046875 L378.3798828125,227.02392578125 L376.84393310546875,227.02392578125 L376.84393310546875,225.48797607421875 L376.84393310546875,223.95196533203125 L376.84393310546875,222.41595458984375 L376.84393310546875,220.87991333007812 L375.3079528808594,217.80795288085938 L375.3079528808594,213.19992065429688 L375.3079528808594,211.66390991210938 L373.7719421386719,207.05596923828125 L373.7719421386719,203.98391723632812 L372.23590087890625,202.44790649414062 L372.23590087890625,200.91195678710938 L372.23590087890625,199.37594604492188 L372.23590087890625,197.8399658203125 L372.23590087890625,194.76791381835938 L372.23590087890625,193.23190307617188 L370.69989013671875,190.15994262695312 L367.6279296875,187.08792114257812 L367.6279296875,185.55191040039062 L367.6279296875,180.9439697265625 L366.0919494628906,179.407958984375 L366.0919494628906,177.87191772460938 L366.0919494628906,176.33590698242188 L366.0919494628906,174.79995727539062 L366.0919494628906,173.26394653320312 L364.5559387207031,173.26394653320312 L364.5559387207031,174.79995727539062 L363.0198974609375,174.79995727539062 L361.48388671875,174.79995727539062 L361.48388671875,176.33590698242188 L358.4119567871094,176.33590698242188 L356.8759460449219,176.33590698242188 L341.51593017578125,179.407958984375 L338.4439392089844,179.407958984375 L336.90789794921875,179.407958984375 L335.37188720703125,179.407958984375 L333.8359375,179.407958984375 L332.2999572753906,180.9439697265625 L329.2279052734375,180.9439697265625 L327.69189453125,180.9439697265625 L326.1558837890625,180.9439697265625 L324.61993408203125,180.9439697265625 L321.5479431152344,184.01596069335938 L320.01190185546875,184.01596069335938 L316.93994140625,184.01596069335938 L312.3319396972656,184.01596069335938 L307.72393798828125,184.01596069335938 L303.11590576171875,184.01596069335938 L298.5079345703125,184.01596069335938 L295.4359436035156,184.01596069335938 L289.2919616699219,184.01596069335938 L286.2199401855469,182.47994995117188 L281.6119384765625,182.47994995117188 L277.00390625,182.47994995117188 L273.9319152832031,182.47994995117188 L243.2119140625,182.47994995117188 L238.60394287109375,182.47994995117188 L235.53192138671875,182.47994995117188 L230.92388916015625,180.9439697265625 L229.387939453125,180.9439697265625 L226.31591796875,180.9439697265625 L221.70797729492188,180.9439697265625 L214.02789306640625,180.9439697265625 L207.88394165039062,179.407958984375 L201.73995971679688,179.407958984375 L197.13189697265625,179.407958984375 L190.98794555664062,177.87191772460938 L187.9158935546875,177.87191772460938 L184.84396362304688,177.87191772460938 L181.77194213867188,177.87191772460938 L178.69998168945312,176.33590698242188 L174.0919189453125,176.33590698242188 L172.55593872070312,176.33590698242188 L171.0198974609375,176.33590698242188 L167.94796752929688,174.79995727539062 L164.87594604492188,174.79995727539062 L161.80389404296875,174.79995727539062 L158.73196411132812,174.79995727539062 L155.65994262695312,173.26394653320312 L154.1239013671875,173.26394653320312 L152.58798217773438,173.26394653320312 L141.83596801757812,171.72796630859375 L135.69192504882812,171.72796630859375 L134.15594482421875,171.72796630859375 L131.08392333984375,171.72796630859375 L129.54794311523438,171.72796630859375 L128.01190185546875,171.72796630859375 L123.40396118164062,171.72796630859375 L121.86793518066406,171.72796630859375 L120.33193969726562,171.72796630859375 L118.79591369628906,171.72796630859375 L115.72395324707031,168.65591430664062 L114.18795776367188,168.65591430664062 L111.11593627929688,168.65591430664062 L109.57998657226562,168.65591430664062 L108.04396057128906,168.65591430664062 L106.50796508789062,168.65591430664062 L104.97193908691406,167.11990356445312 L103.43594360351562,167.11990356445312 L101.89991760253906,167.11990356445312 L98.82795715332031,167.11990356445312 L97.29196166992188,167.11990356445312 L95.75593566894531,167.11990356445312 L94.21994018554688,167.11990356445312 L92.68391418457031,167.11990356445312" stroke="black" stroke-width="2" fill="none"/>
<path d="M97.29196166992188,302.2879638671875 L115.72395324707031,299.21588134765625 L115.72395324707031,299.21588134765625 L118.79591369628906,299.21588134765625 L146.44393920898438,299.21588134765625 L154.1239013671875,299.21588134765625 L158.73196411132812,299.21588134765625 L163.33993530273438,299.21588134765625 L169.48394775390625,299.21588134765625 L171.0198974609375,299.21588134765625 L175.62796020507812,299.21588134765625 L178.69998168945312,299.21588134765625 L184.84396362304688,299.21588134765625 L186.37994384765625,299.21588134765625 L190.98794555664062,299.21588134765625 L194.05996704101562,299.21588134765625 L200.20391845703125,299.21588134765625 L201.73995971679688,299.21588134765625 L206.34793090820312,299.21588134765625 L210.95596313476562,299.21588134765625 L215.56393432617188,299.21588134765625 L217.09991455078125,299.21588134765625 L220.17196655273438,300.751953125 L226.31591796875,300.751953125 L229.387939453125,300.751953125 L233.99594116210938,300.751953125 L238.60394287109375,300.751953125 L257.035888671875,302.2879638671875 L260.10791015625,302.2879638671875 L266.25189208984375,302.2879638671875 L269.3239440917969,302.2879638671875 L272.39593505859375,302.2879638671875 L275.4678955078125,302.2879638671875 L278.5399475097656,302.2879638671875 L283.14788818359375,302.2879638671875 L284.68389892578125,302.2879638671875 L286.2199401855469,302.2879638671875 L287.7559509277344,302.2879638671875 L289.2919616699219,302.2879638671875 L290.82794189453125,302.2879638671875 L295.4359436035156,302.2879638671875 L296.9719543457031,302.2879638671875 L298.5079345703125,302.2879638671875 L300.0439147949219,302.2879638671875 L303.11590576171875,303.823974609375 L306.1879577636719,303.823974609375 L310.7958984375,303.823974609375 L312.3319396972656,303.823974609375 L315.4039306640625,303.823974609375 L320.01190185546875,303.823974609375 L321.5479431152344,303.823974609375 L324.61993408203125,305.35992431640625 L327.69189453125,305.35992431640625 L333.8359375,305.35992431640625 L336.90789794921875,305.35992431640625 L349.1959533691406,306.8958740234375 L352.26788330078125,306.8958740234375 L353.80389404296875,308.431884765625 L355.33990478515625,308.431884765625 L356.8759460449219,308.431884765625 L358.4119567871094,308.431884765625 L359.94793701171875,308.431884765625 L361.48388671875,309.96795654296875 L363.0198974609375,309.96795654296875 L364.5559387207031,309.96795654296875 L366.0919494628906,309.96795654296875 L367.6279296875,309.96795654296875 L370.69989013671875,309.96795654296875 L372.23590087890625,309.96795654296875 L373.7719421386719,309.96795654296875 L373.7719421386719,308.431884765625 L375.3079528808594,308.431884765625 L375.3079528808594,306.8958740234375 L376.84393310546875,306.8958740234375 L378.3798828125,306.8958740234375 L379.9159240722656,306.8958740234375 L381.4518737792969,306.8958740234375" stroke="black" stroke-width="2" fill="none"/>
<path d="M247.81997680664062,188.62396240234375 L249.35589599609375,203.98391723632812 L249.35589599609375,203.98391723632812 L249.35589599609375,208.59194946289062 L249.35589599609375,213.19992065429688 L249.35589599609375,219.34390258789062 L250.89193725585938,223.95196533203125 L250.89193725585938,227.02392578125 L252.42791748046875,233.16796875 L252.42791748046875,236.23992919921875 L252.42791748046875,237.77587890625 L255.49993896484375,248.5279541015625 L255.49993896484375,254.67193603515625 L255.49993896484375,259.27996826171875 L257.035888671875,263.88787841796875 L257.035888671875,266.9599609375 L257.035888671875,270.03192138671875 L257.035888671875,276.17596435546875 L258.5719299316406,280.78387451171875 L258.5719299316406,283.85595703125 L258.5719299316406,288.46392822265625 L258.5719299316406,291.53594970703125 L258.5719299316406,294.60797119140625 L258.5719299316406,296.1439208984375 L258.5719299316406,302.2879638671875 L258.5719299316406,305.35992431640625 L258.5719299316406,308.431884765625 L263.1799621582031,316.11187744140625 L263.1799621582031,320.719970703125 L263.1799621582031,326.86395263671875 L263.1799621582031,334.54388427734375 L263.1799621582031,342.223876953125 L260.10791015625,351.43988037109375 L260.10791015625,360.656005859375 L260.10791015625,368.33587646484375 L260.10791015625,395.9840087890625 L260.10791015625,400.5919189453125 L260.10791015625,402.12786865234375 L260.10791015625,403.66387939453125 L260.10791015625,406.7359619140625 L260.10791015625,408.27191162109375 L260.10791015625,409.80792236328125 L260.10791015625,411.343994140625 L260.10791015625,412.8800048828125 L260.10791015625,414.41583251953125" stroke="black" stroke-width="2" fill="none"/>
<path d="M92.68391418457031,171.72796630859375 L108.04396057128906,177.87191772460938 L108.04396057128906,177.87191772460938 L111.11593627929688,180.9439697265625 L115.72395324707031,182.47994995117188 L118.79591369628906,187.08792114257812 L123.40396118164062,188.62396240234375 L128.01190185546875,193.23190307617188 L132.61996459960938,196.303955078125 L154.1239013671875,217.80795288085938 L160.2679443359375,222.41595458984375 L161.80389404296875,223.95196533203125 L164.87594604492188,227.02392578125 L166.41195678710938,231.6319580078125 L169.48394775390625,234.7039794921875 L171.0198974609375,234.7039794921875 L172.55593872070312,236.23992919921875 L172.55593872070312,239.31195068359375 L175.62796020507812,242.38397216796875 L180.23590087890625,246.99188232421875 L181.77194213867188,246.99188232421875 L184.84396362304688,250.06396484375 L186.37994384765625,253.13592529296875 L187.9158935546875,256.2078857421875 L189.45193481445312,256.2078857421875 L194.05996704101562,260.81597900390625 L194.05996704101562,262.3519287109375 L197.13189697265625,263.88787841796875 L198.66793823242188,265.4239501953125 L200.20391845703125,266.9599609375 L201.73995971679688,270.03192138671875 L204.81192016601562,271.56793212890625 L207.88394165039062,274.63995361328125 L221.70797729492188,288.46392822265625 L226.31591796875,294.60797119140625 L229.387939453125,296.1439208984375 L230.92388916015625,300.751953125 L233.99594116210938,302.2879638671875 L235.53192138671875,305.35992431640625 L237.06796264648438,305.35992431640625 L238.60394287109375,306.8958740234375 L241.67593383789062,309.96795654296875 L244.74795532226562,313.03997802734375 L247.81997680664062,316.11187744140625 L250.89193725585938,317.64794921875 L252.42791748046875,319.1839599609375 L255.49993896484375,320.719970703125 L258.5719299316406,322.25592041015625 L263.1799621582031,323.79193115234375 L266.25189208984375,328.39996337890625 L267.78790283203125,329.93597412109375 L269.3239440917969,331.471923828125 L270.8599548339844,333.00787353515625 L273.9319152832031,333.00787353515625 L277.00390625,334.54388427734375 L280.0759582519531,336.0799560546875 L281.6119384765625,340.68792724609375 L284.68389892578125,342.223876953125 L284.68389892578125,343.75994873046875 L298.5079345703125,351.43988037109375 L301.57989501953125,352.9759521484375 L303.11590576171875,354.511962890625 L304.6519470214844,356.0479736328125 L306.1879577636719,357.58392333984375 L309.2598876953125,359.1199951171875 L309.2598876953125,360.656005859375 L310.7958984375,360.656005859375 L313.8679504394531,362.19183349609375 L315.4039306640625,365.263916015625 L315.4039306640625,366.7999267578125 L316.93994140625,368.33587646484375 L318.47589111328125,368.33587646484375 L320.01190185546875,368.33587646484375 L320.01190185546875,369.8719482421875 L321.5479431152344,371.407958984375 L323.0839538574219,371.407958984375 L324.61993408203125,372.9439697265625 L326.1558837890625,374.47991943359375 L327.69189453125,374.47991943359375 L327.69189453125,377.552001953125 L330.7639465332031,379.08782958984375 L336.90789794921875,383.6959228515625 L338.4439392089844,383.6959228515625 L339.9799499511719,385.23187255859375 L341.51593017578125,386.76788330078125 L341.51593017578125,388.303955078125 L343.0519104003906,388.303955078125 L344.587890625,389.8399658203125 L344.587890625,391.37591552734375 L346.1239013671875,391.37591552734375 L346.1239013671875,392.91192626953125 L349.1959533691406,392.91192626953125 L350.73193359375,394.447998046875 L352.26788330078125,395.9840087890625 L353.80389404296875,397.51983642578125 L355.33990478515625,397.51983642578125 L355.33990478515625,400.5919189453125 L356.8759460449219,402.12786865234375 L358.4119567871094,403.66387939453125 L361.48388671875,403.66387939453125 L361.48388671875,405.199951171875 L366.0919494628906,408.27191162109375 L366.0919494628906,409.80792236328125 L367.6279296875,409.80792236328125 L369.1639099121094,412.8800048828125 L370.69989013671875,412.8800048828125 L370.69989013671875,414.41583251953125 L372.23590087890625,414.41583251953125 L372.23590087890625,415.951904296875 L373.7719421386719,415.951904296875 L373.7719421386719,417.4879150390625 L375.3079528808594,417.4879150390625 L375.3079528808594,419.02386474609375 L375.3079528808594,420.55987548828125 L376.84393310546875,420.55987548828125 L376.84393310546875,422.095947265625" stroke="black" stroke-width="2" fill="none"/>
			</svg>
		