
			<svg xmlns="http://www.w3.org/2000/svg" width="500" height="500" >
				<path d="M144,190.5 L143,230.5 L143,230.5 L143,244 L143,257 L142,271.5 L141,285.5 L140,299 L139,312.5 L138,324.5 L137,335.5 L136.5,344.5 L136.5,352 L136.5,358 L136.5,362 L136.5,364 L136.5,365 L137,365.5 L138.5,365.5 L142,365.5 L153.5,366 L168.5,367 L185.5,368 L202.5,368.5 L219.5,368.5 L236.5,368.5 L254,367.5 L272,366 L291,364.5 L309,364 L325,363.5 L339.5,363.5 L350,363 L359,363 L365,363 L369,362.5 L371,361.5 L372.5,360 L373,356 L373,348 L373,339.5 L372,329.5 L370.5,319 L369.5,308 L368.5,296 L368,283.5 L368,270 L368,257 L368,246 L368,236.5 L368,230 L368,225 L368,221.5 L368,219.5 L368,218.5 L368.5,218 L368,218 L365,218 L360,218 L352.5,218 L343.5,218 L332.5,217.5 L320.5,217 L307,216.5 L293.5,216.5 L280.5,216.5 L268.5,216.5 L256,215.5 L243,215 L229.5,213 L218.5,212.5 L207.5,212 L198,212 L190,212 L182,211.5 L176,211.5 L171.5,211.5 L168,211.5 L165.5,211.5 L164.5,211.5 L164,211.5 L163.5,211.5 L162.5,211.5 L161.5,211.5 L159.5,211.5 L157,211 L153.5,210.5 L150.5,209.5 L148.5,209 L146,208.5 L144.5,208 L143.5,207.5 L143,207.5" stroke="black" stroke-width="2" fill="none"/>
<path d="M376.5,217.5 L346,228 L346,228 L334.5,235 L321.5,245 L308,255 L294.5,265.5 L279.5,276 L264,287 L246,299 L228,310.5 L211.5,321 L194,332.5 L178.5,343 L165,352.5 L153,360.5 L143,367 L135.5,371.5 L131.5,374.5 L130.5,375.5 L130.5,373" stroke="black" stroke-width="2" fill="none"/>
<path d="M134,213 L165.5,237.5 L165.5,237.5 L178.5,247 L193.5,257 L209,267.5 L225,276.5 L240,286.5 L254.5,298 L271,314 L288,330 L303,342.5 L317.5,351.5 L328,356.5 L336.5,360 L341.5,362 L344.5,364 L346.5,365.5 L348,366.5 L349,367" stroke="black" stroke-width="2" fill="none"/>
			</svg>
		