
			<svg xmlns="http://www.w3.org/2000/svg" width="500" height="500" >
				<path d="M437,102 L406.5,99 L406.5,99 L392,99 L375,99 L356.5,99 L338.5,99 L319.5,99 L299.5,99.5 L278,100.5 L254,101.5 L229,102 L203.5,102.5 L178.5,102.5 L155,103 L134.5,103.5 L114,104 L95.5,104.5 L78,104.5 L63.5,104.5 L51,105 L40,105 L31.5,105.5 L26,106 L23,106.5 L21.5,107 L21.5,107.5 L21.5,108.5 L21.5,109.5 L21.5,111.5 L21.5,114.5 L21.5,119 L21.5,124 L21.5,131.5 L21.5,142 L21.5,154.5 L21.5,172 L21.5,192.5 L21.5,213.5 L21.5,238 L21.5,260 L22,279.5 L23.5,297 L24,312.5 L24,327.5 L24,343.5 L24,359.5 L24,373.5 L24,386 L24,397 L24,406 L24,414.5 L24,421.5 L24,427 L24,431 L24,433 L24,433.5 L24.5,433.5 L25,433 L26,432.5 L27,432 L28,431 L29,430.5 L32,430 L38.5,430 L48.5,430 L59.5,430 L71,430 L82,430 L95,430 L109.5,431 L125,432 L141,432.5 L158.5,433 L177,433 L196.5,433 L216.5,433 L237.5,433.5 L256.5,434 L277,434.5 L297.5,435 L317.5,436 L336.5,436.5 L353.5,437.5 L368.5,438 L382,438 L393.5,438 L404,438 L413,438 L421,438 L427,438 L431.5,438 L435,438 L437,438 L438,438 L438.5,438 L438.5,437.5 L438.5,436 L438.5,434.5 L438.5,428.5 L438.5,418 L438.5,406 L438.5,394 L438.5,381 L438.5,364 L438.5,346 L438.5,327.5 L438,309 L437,292 L436.5,276.5 L435,258.5 L434,239 L432,219.5 L430.5,202 L429,188 L427,175 L426,163.5 L425.5,152.5 L425,142 L424.5,133.5 L424.5,127 L424.5,122.5 L424.5,119 L424.5,115.5 L424.5,112.5 L424.5,110.5 L424.5,109 L424.5,108.5 L424,108.5 L423,108.5 L422.5,108.5" stroke="black" stroke-width="2" fill="none"/>
<path d="M224,114.5 L220,153.5 L220,153.5 L220,166.5 L220,179 L220,195 L220,210.5 L220,225.5 L220,242.5 L220,258.5 L220,273 L220,288 L220,304 L220.5,318 L221.5,331.5 L222.5,343.5 L223,355 L224,365.5 L225,376 L225.5,385 L226.5,393.5 L227,400.5 L227.5,406.5 L228,411 L228,415.5 L228,419 L228,422 L228,424.5 L228,427 L228,428.5 L228,430 L228,431.5 L228,433 L228,434.5 L228,435.5" stroke="black" stroke-width="2" fill="none"/>
<path d="M435.5,264 L404,260.5 L404,260.5 L387.5,260.5 L370,260.5 L352,260 L333,260 L314,259.5 L294.5,258 L274,256.5 L251.5,255 L232,253.5 L208.5,252 L186.5,251 L166,251 L145.5,251 L125.5,251 L107,251 L89.5,251 L73,251 L59,251 L47,251 L36,251 L27.5,251 L20.5,251 L16.5,251 L14,251 L13.5,251" stroke="black" stroke-width="2" fill="none"/>
<path d="M427.5,432.5 L414.5,414.5 L414.5,414.5 L407.5,408 L399.5,401.5 L389.5,393 L379.5,383 L368,373.5 L355.5,362.5 L343.5,352 L330,340 L316.5,328 L302.5,315.5 L288.5,304 L275,293 L261.5,283 L249,273 L236,263 L223.5,252.5 L212.5,243 L201,234 L191,225 L180.5,217 L171,209 L161.5,201 L153.5,193.5 L145.5,187 L138.5,180.5 L132.5,174.5 L126,169.5 L120.5,164 L115.5,159 L110.5,154.5 L105.5,150.5 L101.5,147 L98,143.5 L94.5,140.5 L91,137 L87.5,134 L83.5,131 L80.5,128.5 L78,126.5 L76.5,125 L74.5,123.5 L73,122 L72,121 L70.5,120 L69.5,119 L68.5,118.5 L68,118" stroke="black" stroke-width="2" fill="none"/>
<path d="M396.5,341 L366,376 L366,376 L356,386 L347,396.5 L339,404 L333,409 L328.5,411 L326,411.5 L325,411.5" stroke="black" stroke-width="2" fill="none"/>
<path d="M342.5,315.5 L308.5,346.5 L308.5,346.5 L299.5,354.5 L291,361 L283.5,365.5 L280.5,366" stroke="black" stroke-width="2" fill="none"/>
<path d="M300.5,289.5 L269,309 L269,309 L261.5,315.5 L255,320.5 L248.5,325.5 L245,328.5" stroke="black" stroke-width="2" fill="none"/>
			</svg>
		