
			<svg xmlns="http://www.w3.org/2000/svg" width="500" height="500" >
				<path d="M81.61161041259766,152.5825958251953 L82.11607360839844,160.9341583251953 L82.45256805419922,171.1361541748047 L82.56417083740234,182.6830291748047 L82.90067291259766,196.07923889160156 L83.34932708740234,210.87722778320312 L83.68526458740234,226.74050903320312 L83.90959930419922,244.34095764160156 L84.35826110839844,261.7176208496094 L84.58258819580078,278.8136291503906 L84.69419860839844,295.79742431640625 L84.91852569580078,312.1651916503906 L85.03069305419922,328.02789306640625 L85.14286041259766,339.23883056640625 L85.25502014160156,353.47601318359375 L85.25502014160156,365.80804443359375 L85.25502014160156,376.1774597167969 L85.25502014160156,384.75390625 L85.47935485839844,390.7511291503906 L85.81529235839844,394.56304931640625 L86.31975555419922,395.85211181640625 L86.60044860839844,395.79632568359375" stroke="black" stroke-width="2" fill="none"/>
<path d="M412.2120666503906,140.41908264160156 L400.16015625,140.13839721679688 L392.48101806640625,139.85826110839844 L383.7371520996094,139.41015625 L373.9274597167969,138.73716735839844 L363.44586181640625,137.89675903320312 L352.23492431640625,136.9994354248047 L340.2957458496094,136.49497985839844 L327.515625,136.3828125 L314.1194152832031,136.3828125 L300.10601806640625,136.3828125 L285.36383056640625,136.27120971679688 L270.39788818359375,135.8783416748047 L254.81529235839844,135.15011596679688 L239.1763458251953,134.4771270751953 L223.1450958251953,133.91685485839844 L207.50669860839844,133.58035278320312 L192.26004028320312,133.4681854248047 L177.29408264160156,133.4681854248047 L163.3365020751953,133.69252014160156 L149.88392639160156,133.91685485839844 L137.10379028320312,134.1411895751953 L125.50111389160156,134.36495971679688 L114.85100555419922,134.81361389160156 L105.43415069580078,135.76673889160156 L97.97879791259766,136.49497985839844 L91.86942291259766,137.6724395751953 L89.45870208740234,138.2890625" stroke="black" stroke-width="2" fill="none"/>
<path d="M418.3777770996094,150.84486389160156 L418.3777770996094,161.49497985839844 L417.81695556640625,167.60435485839844 L417.0323791503906,174.5552520751953 L416.3035583496094,183.41127014160156 L415.9670715332031,193.78125 L415.85546875,206.22488403320312 L415.85546875,220.01394653320312 L416.69586181640625,234.6997833251953 L418.0412902832031,250.28292846679688 L420.1155090332031,265.9776916503906 L421.96484375,281.67242431640625 L423.42242431640625,296.8063659667969 L424.9358215332031,311.7165222167969 L426.11273193359375,326.3465270996094 L426.89788818359375,339.57476806640625 L427.5703125,352.01898193359375 L428.1305847167969,362.66851806640625 L428.35491943359375,371.58148193359375 L428.5792541503906,379.0362854003906 L428.5792541503906,382.7355041503906" stroke="black" stroke-width="2" fill="none"/>
<path d="M429.0837097167969,413.2287902832031 L417.3688659667969,408.63226318359375 L409.91351318359375,405.8298034667969 L402.0100402832031,403.0831604003906 L393.4899597167969,400.50445556640625 L386.9319152832031,398.7667541503906 L377.2907409667969,396.8610534667969 L367.25726318359375,395.4598083496094 L356.3269958496094,394.3387145996094 L345.2287902832031,393.55413818359375 L333.45758056640625,393.3298034667969 L321.2940979003906,393.2734375 L309.1305847167969,393.2734375 L296.4626159667969,393.2734375 L283.06585693359375,393.6662902832031 L269.6690979003906,394.2829284667969 L256.0485534667969,395.1796875 L242.09095764160156,396.46875 L228.02175903320312,397.8699645996094 L213.56027221679688,399.32757568359375 L199.60324096679688,400.7287902832031 L185.53347778320312,401.8498840332031 L171.80078125,403.0831604003906 L158.5161895751953,403.9235534667969 L146.0161895751953,405.10101318359375 L134.4693145751953,405.8298034667969 L123.81919860839844,406.5022277832031 L114.34654235839844,407.34320068359375 L105.93861389160156,407.84765625 L99.66071319580078,407.84765625 L94.78404235839844,406.89453125" stroke="black" stroke-width="2" fill="none"/>
<path d="M423.42242431640625,140.0825958251953 L415.57476806640625,148.93917846679688 L409.91351318359375,152.4140625 L402.6266784667969,156.50613403320312 L394.21875,161.15847778320312 L385.4743347167969,166.9877166748047 L375.77734375,173.4341583251953 L365.2951965332031,181.11328125 L354.0848083496094,189.5775604248047 L342.59429931640625,198.71372985839844 L330.3186340332031,209.08370971679688 L317.70648193359375,219.7896270751953 L305.03851318359375,230.43972778320312 L291.9782409667969,241.20201110839844 L278.75,251.7963104248047 L265.296875,262.3342590332031 L251.171875,272.98382568359375 L237.60714721679688,283.9704284667969 L224.32254028320312,294.8448791503906 L210.02902221679688,305.9430847167969 L196.85658264160156,317.2098083496094 L183.7963104248047,328.1964416503906 L171.1283416748047,338.56585693359375 L159.4693145751953,348.71148681640625 L148.42689514160156,358.5206604003906 L137.44029235839844,368.1618347167969 L126.79017639160156,377.41070556640625 L116.53236389160156,386.54742431640625 L109.18973541259766,392.8811340332031 L100.72544860839844,400.2243347167969 L91.53292083740234,407.51116943359375 L85.703125,411.546875 L82.39620208740234,413.5647277832031 L80.04185485839844,414.7421875 L79.9296875,414.8543395996094" stroke="black" stroke-width="2" fill="none"/>
<path d="M114.79463958740234,168.38951110839844 L122.30580139160156,174.8353729248047 L126.39788055419922,178.31082153320312 L130.43359375,181.5619354248047 L135.47824096679688,185.65345764160156 L141.75613403320312,190.8666229248047 L149.6595916748047,197.14453125 L158.7963104248047,204.6556854248047 L169.390625,212.8392791748047 L181.2734375,222.08816528320312 L194.61439514160156,232.17745971679688 L208.62722778320312,243.33203125 L223.76171875,254.99107360839844 L239.51283264160156,267.04241943359375 L255.6556854248047,279.6545715332031 L272.19140625,291.93023681640625 L288.67132568359375,303.8694152832031 L305.2628479003906,315.8644104003906 L321.23773193359375,327.4676208496094 L337.15679931640625,338.734375 L352.2912902832031,349.66461181640625 L366.5284729003906,359.8660583496094 L380.0373840332031,369.50726318359375 L392.42523193359375,378.2516784667969 L403.9157409667969,386.37945556640625 L414.1735534667969,393.1618347167969 L423.0859375,398.8230895996094 L430.0926208496094,403.4190979003906 L435.92242431640625,407.0066833496094 L440.40625,409.75335693359375 L443.26507568359375,411.6032409667969 L445.1707458496094,413.11663818359375 L445.4514465332031,413.45257568359375" stroke="black" stroke-width="2" fill="none"/>
<path d="M260.7566833496094,137.16796875 L258.85101318359375,145.91183471679688 L257.3934020996094,150.6205291748047 L256.0485534667969,155.83370971679688 L254.703125,162.0552520751953 L254.0865020751953,169.734375 L253.86216735839844,178.2544708251953 L253.80636596679688,187.5033416748047 L253.80636596679688,197.03236389160156 L254.0865020751953,207.01004028320312 L254.31082153320312,216.65066528320312 L254.31082153320312,226.01171875 L254.14230346679688,234.92410278320312 L253.86216735839844,243.7806854248047 L253.58203125,252.30078125 L253.4140625,260.4280090332031 L253.18972778320312,268.2198791503906 L253.1333770751953,275.7868347167969 L253.02120971679688,281.2801208496094 L253.02120971679688,285.03570556640625 L253.2455291748047,286.94140625" stroke="black" stroke-width="2" fill="none"/>
<path d="M347.9748840332031,144.28627014160156 L341.3046875,150.7884979248047 L336.8766784667969,155.21707153320312 L331.7198791503906,159.98158264160156 L325.72210693359375,165.97879028320312 L319.6121520996094,172.64955139160156 L313.05413818359375,180.4408416748047 L306.32757568359375,188.90457153320312 L299.9375,197.7611541748047 L294.0524597167969,207.0658416748047 L288.0546875,216.14620971679688 L282.6171875,224.890625 L277.46038818359375,233.01841735839844 L272.4157409667969,240.75390625 L267.98773193359375,247.0318145751953 L264.0636291503906,252.30078125 L260.4765625,256.61663818359375 L257.89788818359375,259.97991943359375 L255.76785278320312,262.55804443359375 L255.26339721679688,263.1188659667969" stroke="black" stroke-width="2" fill="none"/>
<path d="M182.28236389160156,141.3158416748047 L189.17689514160156,148.77064514160156 L192.70870971679688,153.59152221679688 L196.5200958251953,159.36495971679688 L199.65904235839844,164.35324096679688 L204.25558471679688,172.08872985839844 L209.0200958251953,180.83314514160156 L214.1205291748047,190.30580139160156 L219.16574096679688,200.1713104248047 L224.3783416748047,210.37277221679688 L229.08705139160156,220.6869354248047 L233.8515625,230.94419860839844 L238.2232208251953,241.20201110839844 L242.59542846679688,250.28292846679688 L246.29519653320312,257.90570068359375 L249.5463104248047,264.1277770996094 L252.0122833251953,268.6121520996094 L253.4140625,272.1434020996094 L254.2544708251953,274.5535583496094 L254.42298889160156,275.73046875" stroke="black" stroke-width="2" fill="none"/>
<path d="M180.20870971679688,217.4916229248047 L181.66629028320312,228.9263458251953 L182.17076110839844,235.4849395751953 L182.50669860839844,242.43527221679688 L182.8431854248047,250.5630645751953 L183.29185485839844,260.2600402832031 L183.62779235839844,270.7421875 L184.07644653320312,281.8967590332031 L184.63671875,292.8828125 L185.1411895751953,302.46820068359375 L185.36550903320312,310.7639465332031 L185.47767639160156,316.42523193359375 L185.47767639160156,320.4051208496094 L185.30970764160156,322.7589416503906 L184.74888610839844,323.37554931640625" stroke="black" stroke-width="2" fill="none"/>
<path d="M131.77902221679688,178.81529235839844 L136.0390625,188.6244354248047 L136.5435333251953,192.54798889160156 L136.6556854248047,197.25669860839844 L136.6556854248047,203.19810485839844 L136.76785278320312,210.20480346679688 L137.328125,218.89285278320312 L138.1127166748047,226.57199096679688 L139.34597778320312,237.7265625 L141.42019653320312,249.7779083251953 L143.5502166748047,262.3342590332031 L145.73605346679688,275.1701965332031 L147.97824096679688,287.5016784667969 L149.4916229248047,299.16070556640625 L150.83705139160156,310.3152770996094 L152.01394653320312,320.7410583496094 L152.51841735839844,329.59765625 L152.8549041748047,336.5480041503906 L153.07923889160156,341.7048034667969 L153.19140625,345.5725402832031 L153.19140625,347.7589416503906 L153.19140625,347.9269104003906" stroke="black" stroke-width="2" fill="none"/>
<path d="M242.93191528320312,267.6590270996094 L233.17857360839844,266.87445068359375 L226.6205291748047,266.6501159667969 L218.82923889160156,266.59429931640625 L210.36495971679688,266.8180847167969 L201.56472778320312,267.1545715332031 L192.1478729248047,267.71484375 L182.11439514160156,268.8923034667969 L172.19308471679688,269.7332458496094 L162.0474395751953,270.5178527832031 L151.9017791748047,271.1902770996094 L141.86830139160156,272.1434020996094 L132.73158264160156,273.3766784667969 L123.87555694580078,274.89007568359375 L115.91573333740234,276.4034729003906 L108.40457916259766,277.2438659667969 L101.95870208740234,278.14117431640625 L96.40959930419922,278.58929443359375 L91.64508819580078,278.8136291503906 L87.72154235839844,279.43023681640625 L84.80635833740234,280.21484375 L83.74163055419922,280.7756652832031" stroke="black" stroke-width="2" fill="none"/>
<path d="M48.93247604370117,154.93638610839844 L44.67243194580078,162.72824096679688 L42.54241180419922,167.04408264160156 L40.52455520629883,171.69642639160156 L38.28236770629883,177.1333770751953 L36.48883819580078,182.79464721679688 L34.97544479370117,188.5122833251953 L33.40625,193.61328125 L32.00446319580078,197.59263610839844 L30.77176284790039,200.95591735839844 L29.81863784790039,203.36607360839844 L29.202009201049805,204.7115020751953 L28.86551284790039,205.49609375 L28.809709548950195,205.72042846679688" stroke="black" stroke-width="2" fill="none"/>
<path d="M52.35211944580078,160.4296875 L57.73325729370117,168.4453125 L60.19921875,172.98548889160156 L62.77790069580078,178.1986541748047 L65.74832916259766,183.41127014160156 L68.55133819580078,188.84877014160156 L71.52176666259766,193.72544860839844 L74.26841735839844,198.04129028320312 L76.3984375,201.90904235839844 L78.3046875,204.31919860839844 L79.70591735839844,206.33705139160156 L80.15401458740234,206.44921875" stroke="black" stroke-width="2" fill="none"/>
<path d="M77.07142639160156,208.13058471679688 L71.80245208740234,216.98716735839844 L69.22377014160156,220.8549041748047 L66.14118194580078,225.61941528320312 L62.94586944580078,230.3275604248047 L60.19921875,234.86830139160156 L57.62109375,239.40847778320312 L55.546875,243.1640625 L53.58481979370117,246.0228729248047 L52.07143020629883,248.26451110839844 L50.78236770629883,250.05859375 L50.05356979370117,251.57199096679688 L49.54910659790039,252.46875 L49.26897430419922,253.1411895751953 L49.04464340209961,253.36550903320312 L48.98883819580078,253.0853729248047 L48.98883819580078,251.73995971679688" stroke="black" stroke-width="2" fill="none"/>
<path d="M33.46205520629883,211.83035278320312 L38.28236770629883,221.91964721679688 L42.03794479370117,228.70201110839844 L46.07421875,235.4849395751953 L49.54910659790039,241.7064666748047 L52.52008819580078,246.41517639160156 L54.2578125,249.6099395751953 L54.93024444580078,251.40345764160156 L55.15457534790039,251.90792846679688 L55.09877395629883,252.0200958251953" stroke="black" stroke-width="2" fill="none"/>
<path d="M342.1456604003906,204.26339721679688 L349.6004333496094,213.06361389160156 L353.35601806640625,216.93136596679688 L357.7282409667969,221.07923889160156 L362.8850402832031,225.6752166748047 L367.76171875,230.43972778320312 L372.75054931640625,235.8208770751953 L377.68304443359375,240.921875 L382.50390625,245.63002014160156 L386.98773193359375,250.17076110839844 L391.1355895996094,254.5424041748047 L395.4519958496094,259.0831604003906 L399.65570068359375,263.67913818359375 L403.4676208496094,268.16351318359375 L407.0546875,272.7600402832031 L410.0256652832031,276.5714416503906 L412.66015625,279.71038818359375 L414.734375,282.5128479003906 L416.19140625,284.25054931640625 L417.0881652832031,285.5959777832031 L417.5926208496094,286.43695068359375 L417.7048034667969,286.6612854003906" stroke="black" stroke-width="2" fill="none"/>
<path d="M23.1484375,66.93359375 L23.1484375,74.94921875 L23.09207534790039,79.20926666259766 L23.036272048950195,83.80524444580078 L22.979909896850586,88.96205139160156 L22.979909896850586,94.90401458740234 L22.979909896850586,100.84542083740234 L22.979909896850586,107.45982360839844 L23.204240798950195,114.69084930419922 L23.428571701049805,122.08928680419922 L23.652902603149414,129.37667846679688 L23.765066146850586,136.5513458251953 L23.765066146850586,143.33370971679688 L23.765066146850586,150.171875 L23.70870590209961,157.01060485839844 L23.484375,163.4564666748047 L23.31640625,170.0708770751953 L23.09207534790039,176.18080139160156 L22.92410659790039,182.40234375 L22.643972396850586,188.11997985839844 L22.25167465209961,193.66908264160156 L21.915178298950195,198.8822479248047 L21.46651840209961,204.48716735839844 L21.07421875,210.1490020751953 L20.794084548950195,216.03404235839844 L20.51395034790039,221.8080291748047 L20.233816146850586,228.02957153320312 L20.233816146850586,234.6997833251953 L20.233816146850586,242.09877014160156 L20.233816146850586,248.9375 L20.34542465209961,255.27120971679688 L20.17745590209961,260.9324645996094 L19.729352951049805,266.1456604003906 L18.83203125,271.35882568359375 L18.10379409790039,276.6277770996094 L17.430803298950195,280.83148193359375 L16.926340103149414,284.19476318359375 L16.590402603149414,286.8850402832031 L16.366071701049805,288.56695556640625 L16.141740798950195,289.2957458496094 L16.02957534790039,289.6316833496094 L16.02957534790039,289.3515625 L16.366071701049805,287.61383056640625" stroke="black" stroke-width="2" fill="none"/>
<path d="M51.28683090209961,109.36551666259766 L39.45981979370117,111.66350555419922 L35.36774444580078,112.89676666259766 L31.444196701049805,113.73772430419922 L27.520647048950195,114.29798889160156 L23.820871353149414,114.63448333740234 L20.68191909790039,114.85881805419922 L18.383928298950195,115.1953125 L16.534040451049805,115.41908264160156 L15.1328125,115.64341735839844 L14.123884201049805,115.86774444580078 L13.282923698425293,116.09207916259766 L12.610490798950195,116.42801666259766" stroke="black" stroke-width="2" fill="none"/>
<path d="M90.46763610839844,405.3811340332031 L90.57979583740234,397.08538818359375 L90.57979583740234,396.7488708496094 L90.46763610839844,396.91741943359375 L90.24385833740234,398.5987854003906 L89.96317291259766,402.1300354003906 L89.73939514160156,408.35211181640625 L89.73939514160156,416.36773681640625 L90.07533264160156,424.4949645996094 L90.63616180419922,433.4073791503906 L91.58872985839844,442.7684020996094 L92.37388610839844,451.34429931640625 L92.70982360839844,458.4631652832031 L92.93415069580078,464.29296875 L93.04631805419922,469.0574645996094 L93.04631805419922,472.64453125 L93.04631805419922,474.9988708496094 L93.04631805419922,476.0078125 L93.15848541259766,476.45648193359375 L93.3828125,476.45648193359375" stroke="black" stroke-width="2" fill="none"/>
<path d="M190.41015625,405.94140625 L190.35435485839844,415.3024597167969 L190.35435485839844,420.515625 L190.13002014160156,426.1769104003906 L189.9056854248047,433.2394104003906 L189.7377166748047,440.86273193359375 L189.68136596679688,448.0373840332031 L189.68136596679688,454.8761291503906 L189.68136596679688,460.3688659667969 L189.9056854248047,465.3019104003906 L190.13002014160156,469.61773681640625 L190.69029235839844,472.8688659667969 L191.36328125,475.0546875 L191.75558471679688,475.67132568359375 L192.0357208251953,475.8956604003906" stroke="black" stroke-width="2" fill="none"/>
<path d="M194.05357360839844,476.7366027832031 L182.50669860839844,478.41796875 L176.453125,479.2589416503906 L169.7265625,480.15570068359375 L162.27175903320312,481.10882568359375 L154.20033264160156,481.94921875 L145.90402221679688,482.734375 L138.22488403320312,483.68695068359375 L130.82589721679688,484.5837097167969 L123.65122985839844,485.14453125 L116.86885833740234,485.3688659667969 L110.53459930419922,485.3125 L105.265625,484.35992431640625 L101.00557708740234,483.1266784667969 L97.58649444580078,482.3420715332031 L95.06417083740234,481.8376159667969 L93.55078125,481.8934020996094" stroke="black" stroke-width="2" fill="none"/>
<path d="M96.24163055419922,411.21038818359375 L102.51953125,419.73046875 L108.62890625,424.9436340332031 L117.03682708740234,431.1657409667969 L126.45368194580078,437.8917541503906 L136.5435333251953,444.7862854003906 L147.19363403320312,452.8019104003906 L158.06752014160156,460.9296875 L167.9330291748047,468.44085693359375 L176.0044708251953,474.8309020996094 L182.17076110839844,479.8191833496094 L187.046875,483.4626159667969 L189.9056854248047,486.2092590332031 L191.58761596679688,487.8348083496094 L191.81138610839844,489.0680847167969" stroke="black" stroke-width="2" fill="none"/>
<path d="M338.10992431640625,420.34710693359375" stroke="black" stroke-width="2" fill="none"/>
<path d="M393.9944152832031,437.4436340332031 L383.45648193359375,438.8448791503906 L379.0284729003906,438.95703125 L374.31976318359375,439.0691833496094 L369.38726806640625,439.0691833496094 L364.5105895996094,438.9006652832031 L359.07366943359375,438.67633056640625 L353.8046875,438.45257568359375 L348.64788818359375,438.2282409667969 L342.9866027832031,438.171875 L337.26898193359375,438.171875 L331.55133056640625,438.2840270996094 L325.77789306640625,438.7326965332031 L319.5563659667969,439.1808166503906 L313.7265625,439.6852722167969 L307.5050354003906,440.3582458496094 L301.1707458496094,441.03070068359375 L294.7248840332031,441.5915222167969 L287.9983215332031,441.9274597167969 L281.328125,441.9274597167969 L274.8258972167969,441.7594909667969 L268.04351806640625,441.53515625 L261.3733215332031,441.3108215332031 L254.703125,441.1428527832031 L247.58425903320312,441.1428527832031 L241.19419860839844,441.3671875 L234.6919708251953,441.70367431640625 L228.5825958251953,442.2081604003906 L222.86495971679688,442.5440979003906 L217.14732360839844,442.5440979003906 L211.48605346679688,442.65625 L206.32923889160156,442.7684020996094 L201.4525604248047,442.99273681640625 L196.6322479248047,443.3292541503906 L192.3158416748047,443.77734375 L188.3365020751953,444.11383056640625 L185.0853729248047,444.3381652832031 L182.05859375,444.3381652832031 L179.6478729248047,444.1696472167969 L178.2466583251953,443.7215270996094 L178.0228729248047,443.6651916503906" stroke="black" stroke-width="2" fill="none"/>
<path d="M337.60546875,411.1545715332031 L337.6612854003906,422.25335693359375 L337.26898193359375,428.6428527832031 L336.8203125,435.3136291503906 L335.97991943359375,442.2081604003906 L334.9709777832031,449.4949645996094 L334.07421875,457.0061340332031 L333.0652770996094,463.78851318359375 L332.5608215332031,468.49664306640625" stroke="black" stroke-width="2" fill="none"/>
<path d="M263.4475402832031,78.87276458740234 L263.67132568359375,89.01841735839844 L263.67132568359375,97.08984375 L263.6155090332031,105.38560485839844 L263.4475402832031,114.80245208740234 L263.33538818359375,124.27567291259766 L262.9988708496094,133.52455139160156 L262.6623840332031,141.8203125 L262.3264465332031,149.10714721679688 L261.8219909667969,155.1049041748047 L261.6534729003906,157.62722778320312" stroke="black" stroke-width="2" fill="none"/>
<path d="M261.09320068359375,71.30580139160156 L269.8370666503906,77.19140625 L273.5368347167969,79.99385833740234 L277.62890625,83.07645416259766 L282.1690979003906,86.27176666259766 L286.8214416503906,89.41071319580078 L292.4269104003906,92.54966735839844 L298.4241027832031,95.80078125 L304.59039306640625,98.77176666259766 L311.2605895996094,101.96651458740234 L318.2673034667969,105.72209930419922 L325.55413818359375,109.92633819580078 L333.1769104003906,113.90569305419922 L340.63226318359375,117.88560485839844 L348.2555847167969,121.92131805419922 L355.8225402832031,125.50892639160156 L363.6701965332031,129.20814514160156 L371.57366943359375,132.79576110839844 L379.30859375,136.27120971679688 L386.9319152832031,139.69029235839844 L394.2751159667969,143.38951110839844 L401.6741027832031,147.20144653320312 L408.5680847167969,150.84486389160156 L414.6222229003906,154.26394653320312 L420.05914306640625,157.17857360839844 L424.2633972167969,159.53292846679688 L427.5144958496094,161.2142791748047 L429.5881652832031,162.61607360839844 L430.2048034667969,163.2884979248047" stroke="black" stroke-width="2" fill="none"/>
<path d="M420.05914306640625,153.75949096679688 L426.44921875,164.9140625 L428.8035583496094,170.2388458251953 L431.71820068359375,176.18080139160156 L435.24945068359375,183.9720916748047 L439.56585693359375,193.66908264160156 L444.38616943359375,203.31027221679688 L449.5993347167969,212.390625 L454.8683166503906,220.7427520751953 L460.0251159667969,228.64620971679688 L464.8454284667969,235.7650604248047 L469.3855895996094,242.6595916748047 L473.8141784667969,249.21763610839844 L477.5133972167969,255.43972778320312 L480.98883056640625,261.5491027832031 L483.67913818359375,267.04241943359375 L485.80914306640625,272.0870666503906 L487.2667541503906,276.23492431640625 L488.16351318359375,279.26226806640625 L488.7801208496094,281.4480895996094 L489.11663818359375,283.1858215332031 L489.11663818359375,283.3537902832031" stroke="black" stroke-width="2" fill="none"/>
<path d="M485.8655090332031,279.3180847167969 L480.31585693359375,287.6701965332031 L476.8409729003906,291.8738708496094 L473.14117431640625,296.86273193359375 L468.5451965332031,302.63616943359375 L464.11663818359375,309.4743347167969 L459.5206604003906,317.1540222167969 L454.7561340332031,325.1696472167969 L449.99163818359375,333.296875 L445.50726318359375,341.3688659667969 L441.359375,349.77679443359375 L437.2673034667969,357.9040222167969 L433.34375,365.9196472167969 L430.5412902832031,371.63726806640625 L427.06585693359375,378.81195068359375 L423.8147277832031,385.3141784667969 L420.7879333496094,390.6389465332031 L418.6015625,394.05859375" stroke="black" stroke-width="2" fill="none"/>
<path d="M139.68247985839844,185.37332153320312 L130.99441528320312,185.4291229248047 L125.83705139160156,186.32644653320312 L120.28794860839844,186.94308471679688 L114.234375,187.44754028320312 L108.06864166259766,187.95201110839844 L102.63114166259766,188.28794860839844 L97.64286041259766,188.28794860839844 L93.15848541259766,188.28794860839844 L89.73939514160156,188.28794860839844 L87.10491180419922,188.40011596679688 L85.31082916259766,188.9609375 L84.91852569580078,189.5775604248047" stroke="black" stroke-width="2" fill="none"/>
<path d="M154.53627014160156,344.9559020996094 L143.49386596679688,346.91796875 L136.88002014160156,347.1423034667969 L129.6490020751953,346.91796875 L121.57701110839844,346.24554443359375 L113.61774444580078,345.62890625 L105.88225555419922,345.2366027832031 L99.21205139160156,344.9001159667969 L93.10211944580078,344.3956604003906 L87.72154235839844,343.72265625 L83.40513610839844,342.93804931640625 L79.98604583740234,342.2092590332031 L77.68805694580078,341.64898681640625 L76.51060485839844,341.2003479003906 L76.34263610839844,341.0881652832031" stroke="black" stroke-width="2" fill="none"/>
<path d="M140.0747833251953,189.12890625 L136.59933471679688,201.4603729248047 L134.18917846679688,207.85044860839844 L131.66685485839844,215.1372833251953 L128.5279083251953,223.4330291748047 L125.61328125,232.4575958251953 L122.64229583740234,242.2109375 L119.44754791259766,252.0200958251953 L116.30803680419922,261.7176208496094 L113.16908264160156,270.1813659667969 L109.69419860839844,278.0848083496094 L106.49888610839844,285.5959777832031 L103.52845764160156,292.8269958496094 L100.83760833740234,299.5530090332031 L98.37109375,306.50390625 L96.24163055419922,313.56640625 L94.16741180419922,319.78851318359375 L92.37388610839844,325.0574645996094 L90.80413055419922,329.4855041503906 L89.57086944580078,333.1847229003906 L88.78627014160156,336.4358215332031 L88.00167083740234,339.35101318359375 L87.32868194580078,342.0412902832031 L86.99274444580078,343.9469909667969 L86.71260833740234,344.9559020996094 L86.60044860839844,345.2366027832031" stroke="black" stroke-width="2" fill="none"/>
<path d="M82.62053680419922,187.83984375 L85.53515625,196.5279083251953 L87.32868194580078,200.39564514160156 L89.45870208740234,204.20703125 L92.09319305419922,208.91574096679688 L95.51283264160156,214.57701110839844 L99.26841735839844,221.19140625 L103.47209930419922,228.421875 L107.78850555419922,236.7740020751953 L112.60881805419922,245.51841735839844 L117.48548889160156,254.48660278320312 L122.02567291259766,263.39898681640625 L126.22991180419922,272.03125 L130.32142639160156,280.046875 L134.07701110839844,287.61383056640625 L137.27232360839844,295.0691833496094 L140.13058471679688,302.1875 L142.87722778320312,309.53070068359375 L145.39955139160156,316.2566833496094 L148.2025604248047,322.4230041503906 L150.83705139160156,328.02789306640625 L153.24720764160156,333.12890625 L155.32142639160156,337.16461181640625 L157.17076110839844,340.9765625 L158.74050903320312,344.67578125 L159.97377014160156,347.3660583496094 L160.5904083251953,349.0480041503906 L160.9263458251953,350.28125 L160.9263458251953,350.7293395996094 L160.64620971679688,350.6735534667969" stroke="black" stroke-width="2" fill="none"/>
<path d="M442.14398193359375,207.68247985839844 L442.48046875,218.72488403320312 L442.48046875,222.76060485839844 L442.48046875,227.30078125 L442.48046875,231.84095764160156 L442.48046875,236.71763610839844 L442.2561340332031,241.76283264160156 L442.2003479003906,247.1997833251953 L442.3125,253.1411895751953 L442.6484375,258.9709777832031 L442.98492431640625,265.3046875 L443.4894104003906,271.24664306640625 L443.9375,277.35601806640625 L444.38616943359375,283.12945556640625 L444.890625,289.01507568359375 L445.33929443359375,294.50836181640625 L445.67523193359375,299.9453125 L446.2360534667969,305.04632568359375 L446.68414306640625,310.1473083496094 L447.1328125,315.0798034667969 L447.58148193359375,319.84429931640625 L448.0859375,324.44085693359375 L448.421875,328.5323791503906 L448.75836181640625,332.5686340332031 L448.87054443359375,336.15570068359375 L448.9826965332031,339.1266784667969 L448.9826965332031,341.92913818359375 L448.9826965332031,344.1155090332031 L448.9826965332031,345.29241943359375" stroke="black" stroke-width="2" fill="none"/>
<path d="M487.0987854003906,280.4949645996094 L480.98883056640625,275.2823791503906 L477.1769104003906,274.6657409667969 L473.14117431640625,274.2734375 L469.2176208496094,274.0491027832031 L465.23773193359375,273.7126159667969 L460.75390625,273.4324645996094 L456.5496520996094,273.2081604003906 L452.1774597167969,273.0401916503906 L447.58148193359375,272.81585693359375 L442.6484375,272.4235534667969 L437.65960693359375,272.2555847167969 L432.6149597167969,272.2555847167969 L427.3459777832031,272.2555847167969 L422.0769958496094,272.4793395996094 L416.9201965332031,272.9280090332031 L411.70758056640625,273.3766784667969 L406.4944152832031,273.82476806640625 L401.3934020996094,274.2734375 L396.3487854003906,274.7215270996094 L390.9676208496094,275.6183166503906 L385.58648681640625,276.5714416503906 L380.3738708496094,277.8605041503906 L375.0485534667969,278.9815979003906 L369.8359375,280.3269958496094 L364.73492431640625,281.50390625 L359.91461181640625,282.3448791503906 L354.8694152832031,283.24163818359375 L349.76898193359375,284.1383972167969 L344.8923034667969,284.8113708496094 L339.84765625,285.7639465332031 L334.85882568359375,286.2126159667969 L330.09429931640625,286.5491027832031 L325.2734375,286.8850402832031 L320.28515625,286.9972229003906 L315.46429443359375,286.9972229003906 L310.7561340332031,286.9972229003906 L305.99163818359375,286.8850402832031 L301.05859375,286.77288818359375 L296.1261291503906,286.6612854003906 L290.96929931640625,286.60491943359375 L285.8125,286.60491943359375 L280.375,286.60491943359375 L275.4425354003906,286.8292541503906 L270.734375,286.8292541503906 L266.25,286.60491943359375 L261.8219909667969,285.8761291503906 L257.3376159667969,285.0915222167969 L252.51673889160156,284.69921875 L247.3041229248047,284.4748840332031 L241.92298889160156,284.4748840332031 L236.70982360839844,284.9235534667969 L231.1607208251953,285.5959777832031 L226.11607360839844,286.2126159667969 L221.07142639160156,286.6612854003906 L216.2505645751953,286.77288818359375 L211.03794860839844,286.77288818359375 L205.9369354248047,286.9972229003906 L200.8359375,287.2215270996094 L195.2310333251953,287.44586181640625 L189.5697479248047,287.6701965332031 L183.9642791748047,288.1183166503906 L178.30300903320312,288.73492431640625 L172.5853729248047,289.2394104003906 L167.20423889160156,289.5758972167969 L161.76730346679688,290.02398681640625 L156.2740020751953,290.2483215332031 L150.83705139160156,290.5848083496094 L145.39955139160156,291.08929443359375 L139.68247985839844,291.76171875 L133.90904235839844,292.54632568359375 L128.30357360839844,293.33148193359375 L122.86663055419922,294.00390625 L117.42913055419922,294.7326965332031 L112.10435485839844,295.2371520996094 L107.00334930419922,295.6852722167969 L101.67857360839844,296.1339416503906 L96.63392639160156,296.69476318359375 L91.92522430419922,297.2550354003906 L87.49720764160156,297.70367431640625 L83.51729583740234,298.03961181640625 L80.04185485839844,298.15179443359375 L77.29520416259766,298.15179443359375 L75.44586944580078,298.0959777832031 L74.32477569580078,297.8152770996094" stroke="black" stroke-width="2" fill="none"/>
			</svg>
		