
			<svg xmlns="http://www.w3.org/2000/svg" width="500" height="500" >
				<path d="M58,271" stroke="black" stroke-width="2" fill="none"/>
<path d="M243.5,38 L224,64.5 L224,64.5 L218.5,74 L212.5,84 L205.5,95.5 L199,107.5 L192.5,120 L184.5,133.5 L176.5,148 L168,162 L159.5,178 L151,194 L142,211 L133.5,226.5 L124,243.5 L115,260 L105.5,275 L96.5,289.5 L89,302 L81.5,313.5 L75,323 L70,331 L66,337.5 L63,341 L63,342" stroke="black" stroke-width="2" fill="none"/>
<path d="M239.5,47.5 L257,70.5 L257,70.5 L262,78.5 L268.5,87.5 L277.5,99.5 L286,110.5 L296.5,125 L307,139 L318,154.5 L328.5,169 L339.5,183 L350,198.5 L361,214 L372,229 L382.5,243.5 L391.5,257 L399,267 L404.5,275.5 L408,281.5 L410.5,284.5 L412.5,286.5 L413.5,287.5 L414.5,288 L415,288 L416.5,288" stroke="black" stroke-width="2" fill="none"/>
<path d="M411,287 L382,286.5 L382,286.5 L373,286.5 L362.5,286.5 L350.5,287.5 L337,288 L323,289 L306.5,291 L290,292.5 L273.5,294.5 L255.5,296.5 L238.5,299 L221.5,302.5 L205,305 L188.5,308 L173,311 L158,313.5 L144.5,316.5 L130.5,319.5 L118,321.5 L106,324.5 L94,326.5 L83,328" stroke="black" stroke-width="2" fill="none"/>
<path d="M323,157.5 L302,159 L302,159 L296,160 L288.5,161 L281.5,162 L274,164 L264.5,166 L256,168.5 L246.5,170.5 L237,173 L227.5,175.5 L218,177.5 L208.5,180 L199.5,182 L191,184.5 L182,187 L174,188.5 L166,190 L159.5,191.5 L154,192.5 L149.5,193.5 L145.5,194.5 L142,195 L139.5,195.5 L137.5,196 L136,196.5 L135.5,196.5 L135,196.5 L135,197" stroke="black" stroke-width="2" fill="none"/>
<path d="M147.5,198.5 L153,230.5 L153,230.5 L155.5,240.5 L158.5,250.5 L161.5,261.5 L164.5,272 L166.5,281 L168.5,288.5 L170.5,295 L171.5,301 L172.5,305 L173,307.5 L173,309 L173,310 L173,311 L173,311.5" stroke="black" stroke-width="2" fill="none"/>
<path d="M304,154.5 L309,179 L309,179 L311.5,188 L315.5,197 L318.5,207.5 L322,219 L325,231 L327.5,243 L330,253 L332,262 L333.5,269 L334.5,274 L335.5,278 L336.5,279.5 L336.5,280.5" stroke="black" stroke-width="2" fill="none"/>
			</svg>
		