
			<svg xmlns="http://www.w3.org/2000/svg" width="500" height="500" >
				<path d="M70.5,118.5 L70.5,137 L70.5,137 L70.5,140 L70.5,143 L70.5,147.5 L70.5,152 L70.5,158 L70.5,164 L70.5,170 L70.5,175 L70.5,180 L70.5,185.5 L70.5,193 L70.5,199.5 L70.5,205 L70.5,210 L70.5,215.5 L70.5,222 L70.5,228 L70.5,234 L70.5,240.5 L70.5,246.5 L70.5,253.5 L70.5,260.5 L70.5,266 L70.5,271 L70.5,276.5 L70.5,283.5 L71.5,290.5 L72,297 L72,303.5 L73,311 L73,317 L73.5,322.5 L73.5,327 L73.5,332 L73.5,336 L73.5,339.5 L73.5,343 L73.5,346 L74,348.5 L74,350.5 L74.5,352 L74.5,353.5 L75,354.5 L75,355.5 L75.5,356 L76,356.5 L76.5,356.5 L77,356.5 L77.5,356.5 L78.5,356.5 L79,356.5 L80,356.5 L82,356.5 L86,357 L91.5,357.5 L97.5,358 L104,358 L111,358 L117,358.5 L123.5,358.5 L130.5,358.5 L137,358.5 L143.5,358.5 L150.5,358.5 L157.5,358.5 L165.5,358.5 L173.5,358.5 L181.5,358.5 L189,358.5 L196.5,358.5 L203,359 L210,359.5 L218,359.5 L226,360 L234,360.5 L241.5,360.5 L249,360.5 L256.5,360.5 L263.5,360.5 L271,360.5 L279,360.5 L287.5,360.5 L295.5,360.5 L302.5,360.5 L308.5,360.5 L314.5,360.5 L321.5,360.5 L327,360.5 L332.5,360.5 L338,360.5 L343.5,360.5 L348.5,361 L353.5,362 L358.5,362.5 L362,362.5 L365,362.5 L367,362.5 L368,362.5 L369,362.5 L369,362 L369,361 L369,359.5 L369,358.5 L369,357 L369,355.5 L369,354 L369,352.5 L369,350 L369,348 L368.5,346 L368.5,343.5 L368.5,340.5 L368.5,336.5 L368.5,331.5 L368.5,325 L368.5,318.5 L368.5,311.5 L368.5,304 L368.5,297.5 L368.5,291 L368.5,285 L368,278.5 L367.5,272.5 L367,267 L367,261.5 L366.5,255.5 L366.5,248.5 L366,240.5 L365.5,232.5 L365.5,225.5 L365.5,219.5 L365,212 L365,205 L365,198.5 L365,192 L364.5,186 L364.5,180.5 L364,175.5 L363.5,169.5 L362.5,162 L361.5,155 L361,148.5 L360,142.5 L359.5,138.5 L359,135.5 L358.5,133.5 L358.5,132 L358,131 L357.5,131 L356,131 L355.5,131 L354.5,131 L353.5,131 L352,131 L350,131 L348,131 L345,132 L339.5,132.5 L333,132.5 L324.5,132.5 L316.5,132.5 L308.5,132.5 L300.5,132.5 L292.5,132.5 L284.5,132.5 L277,132.5 L269,132.5 L261.5,132.5 L253,132.5 L244.5,132.5 L236.5,132 L227.5,132 L220,132 L213,131.5 L206,131.5 L199,131.5 L192,131.5 L184,131.5 L177,131.5 L170,131.5 L163,131.5 L157,131.5 L151.5,131.5 L145.5,131.5 L140.5,131.5 L135.5,131.5 L130,131.5 L123,131 L116.5,130.5 L110.5,130 L104.5,129 L100,128.5 L95,128 L90.5,128 L86.5,128 L82.5,128 L79.5,128 L77.5,128 L76,128 L74,127.5 L72.5,127.5 L71,127.5 L69.5,127.5 L68.5,127.5 L68,127.5 L68,127 L68,126.5" stroke="black" stroke-width="2" fill="none"/>
<path d="M348,128.5 L370.5,148.5 L370.5,148.5 L378.5,157.5 L386,165.5 L393,172.5 L397.5,176.5 L402.5,180 L406,182.5 L410,186.5 L414,189.5 L417.5,194 L422,197.5 L425.5,201.5 L429,205.5 L432.5,209 L435.5,213 L438,217.5 L441,221.5 L443.5,224.5 L445.5,227.5 L447,229.5 L448,231.5 L449,232.5 L449,233.5 L449,234.5 L449,235.5 L449,236 L449,236.5 L449,238 L448.5,239 L446.5,240.5 L444,244.5 L439.5,251 L435,258 L430.5,264.5 L426.5,270 L422,276 L417,282 L413,288.5 L408.5,294 L405,299 L401.5,303.5 L398,308 L394.5,311.5 L391,315 L387.5,319 L384,323 L380.5,326.5 L377,330.5 L373.5,334 L371,337.5 L368.5,340.5 L367,342.5 L365.5,345 L364.5,346.5 L363.5,348 L363,349.5 L362,351.5 L361.5,352.5 L361.5,353 L361.5,353.5 L362,353.5" stroke="black" stroke-width="2" fill="none"/>
<path d="M345.5,139.5 L306.5,175 L306.5,175 L293,186.5 L282,196 L271,204 L261.5,212 L250,222 L240.5,230 L230.5,239 L221,247 L212,254 L204,261 L196.5,266.5 L190,272 L183,278 L177,283.5 L171.5,288 L166,292.5 L160.5,297 L155.5,301.5 L150,306.5 L144.5,310.5 L139.5,314.5 L135,318 L130.5,321 L125,324.5 L120.5,329 L116.5,332 L113,335 L109.5,337.5 L106,340 L102.5,342.5 L100,345 L97,347 L95,348.5 L93.5,350 L92,351.5 L91.5,352.5 L91,353 L90.5,353 L90,353 L89.5,353.5 L88.5,353.5 L88,353.5 L87.5,354 L86.5,354.5 L86,355 L85,355 L84.5,355.5 L84,356 L83.5,356.5 L83,357 L82.5,357 L82.5,357.5" stroke="black" stroke-width="2" fill="none"/>
<path d="M66,127 L93,149.5 L93,149.5 L98.5,154.5 L104,159.5 L109.5,163.5 L115,167.5 L119.5,171.5 L124,174.5 L129,178 L135,182 L141.5,186.5 L148.5,191.5 L155,195.5 L161,199.5 L167,203.5 L173,207 L178.5,210.5 L184.5,214.5 L190.5,218.5 L196.5,222.5 L202,226.5 L207.5,230 L213.5,233.5 L219,237.5 L224,241 L229,244.5 L234,248 L239,251 L243.5,254.5 L247.5,257.5 L251.5,260.5 L256,263.5 L260,266.5 L264.5,269.5 L268.5,272.5 L272,276 L276,279 L279,282 L283,285.5 L286.5,288 L290.5,291 L294.5,294 L298,297 L301.5,299.5 L304.5,302.5 L307.5,305 L311,308.5 L314,311 L317,313 L320,315.5 L322.5,318 L325,320 L327,322.5 L329.5,324.5 L331.5,327 L334,330 L337,332 L339.5,334.5 L342,337 L344.5,339.5 L346.5,342 L348.5,344 L350.5,346 L352,347.5 L353,349 L354,350 L355.5,351.5 L356.5,352.5 L357.5,353.5 L358,353.5 L358.5,354 L359,354.5" stroke="black" stroke-width="2" fill="none"/>
<path d="M222.5,129 L222,161.5 L222,161.5 L222,171.5 L222,180.5 L222,188.5 L222,196 L222,203 L222,209.5 L222,216 L222,222 L222,228 L222,233.5 L222,240 L222,246 L222,252 L222,257.5 L222,263.5 L222,268.5 L222,273.5 L222,278.5 L222,283.5 L222.5,288.5 L223,293.5 L223,299 L223.5,304.5 L223.5,310.5 L224,316 L224.5,321.5 L224.5,326.5 L225,331.5 L225,335.5 L225,339 L225.5,342 L225.5,345 L225.5,347.5 L226,350 L226,353 L226,354.5 L226,355.5 L226.5,357 L226.5,358 L226.5,359 L226.5,360 L226.5,360.5" stroke="black" stroke-width="2" fill="none"/>
<path d="M362.5,247 L339,244 L339,244 L331,244 L323,244 L315.5,244 L307.5,243.5 L300,243.5 L292,243 L285,242.5 L278.5,242.5 L273.5,242.5 L268,242.5 L263,242.5 L259,242.5 L255,242.5 L250.5,242.5 L246,242.5 L241,242.5 L236.5,242.5 L232.5,242.5 L228,242.5 L223.5,242.5 L219.5,242.5 L215,242.5 L211,242.5 L206.5,242.5 L202.5,242.5 L198.5,242.5 L194.5,242.5 L190.5,242.5 L186,242.5 L182.5,242.5 L178.5,242.5 L175,242.5 L171,242.5 L166.5,242.5 L163.5,242.5 L160.5,242.5 L157,242.5 L154.5,242.5 L151.5,242.5 L148.5,242.5 L145,242.5 L142.5,242.5 L139.5,242.5 L136.5,242.5 L133.5,242.5 L130.5,242.5 L126.5,242.5 L123.5,242.5 L120,242.5 L116.5,242.5 L113.5,242.5 L110.5,242.5 L107.5,242.5 L104.5,242.5 L101.5,242.5 L99,242.5 L96,242.5 L93.5,242.5 L90.5,242.5 L88,242.5 L85,243 L82.5,243 L80,243 L78.5,243 L77,243 L76,243.5 L75,243.5 L74.5,243.5" stroke="black" stroke-width="2" fill="none"/>
			</svg>
		