
			<svg xmlns="http://www.w3.org/2000/svg" width="500" height="500" >
				<path d="M248.4252166748047,258.07421875 L245.51060485839844,246.86328125 L243.26841735839844,242.9955291748047 L240.68972778320312,238.56752014160156 L237.77511596679688,233.5228729248047 L234.5240020751953,228.64620971679688 L230.93638610839844,223.76953125 L227.125,219.1171875 L223.03292846679688,214.57701110839844 L218.26841735839844,209.98046875 L213.56027221679688,205.88894653320312 L208.8515625,202.18917846679688 L203.80691528320312,198.54576110839844 L198.31361389160156,195.63113403320312 L192.76451110839844,193.22097778320312 L187.27120971679688,190.97879028320312 L181.7220916748047,189.07310485839844 L176.62109375,188.06361389160156 L171.85658264160156,187.3353729248047 L167.59654235839844,187.11105346679688 L163.78515625,187.3911895751953 L160.70201110839844,188.28794860839844 L158.23605346679688,189.96986389160156 L156.2181854248047,191.7075958251953 L154.76060485839844,193.50111389160156 L153.6958770751953,195.3509979248047 L152.96707153320312,197.4810333251953 L152.5747833251953,200.39564514160156 L152.5747833251953,203.5904083251953 L153.0228729248047,207.0658416748047 L153.9759979248047,210.93359375 L155.48939514160156,215.19363403320312 L157.2271270751953,219.39732360839844 L159.1328125,223.48939514160156 L160.9263458251953,227.4693145751953 L163.05636596679688,231.50502014160156 L165.3549041748047,235.9330291748047 L168.1009979248047,240.64173889160156 L170.6796875,245.0697479248047 L173.4263458251953,249.5541229248047 L176.06082153320312,253.81417846679688 L178.6953125,257.73773193359375 L181.5541229248047,261.7734375 L184.9732208251953,265.9776916503906 L188.28013610839844,270.23773193359375 L191.47544860839844,274.77789306640625 L194.7265625,279.2059020996094 L197.7533416748047,283.12945556640625 L200.61216735839844,286.8292541503906 L203.02232360839844,290.3605041503906 L205.3203125,294.00390625 L207.45033264160156,297.7594909667969 L209.69252014160156,301.8515625 L211.93470764160156,306.16741943359375 L214.17689514160156,310.9319152832031 L216.53125,315.5284729003906 L218.94140625,320.01226806640625 L221.40736389160156,324.8331604003906 L223.76171875,329.6534729003906 L226.00390625,334.6980895996094 L228.35826110839844,339.40679931640625 L230.60044860839844,344.3956604003906 L232.67410278320312,349.2159729003906 L234.6361541748047,353.47601318359375 L236.54185485839844,357.51171875 L238.3353729248047,360.9871520996094 L239.9609375,363.9581604003906 L241.30636596679688,366.9285583496094 L242.76394653320312,369.4514465332031 L243.6607208251953,371.46929931640625 L244.16517639160156,372.8141784667969 L244.38951110839844,373.71148681640625 L244.50111389160156,374.1037902832031 L244.50111389160156,374.5519104003906 L244.33314514160156,374.7762145996094 L244.1088104248047,374.7762145996094 L243.9966583251953,374.7762145996094 L243.9408416748047,374.7762145996094 L243.9408416748047,374.7762145996094 L243.9408416748047,374.7762145996094 L243.9408416748047,374.6082458496094 L243.9408416748047,374.3839416503906 L243.9408416748047,373.99163818359375 L243.9408416748047,373.6551208496094 L243.9408416748047,373.2628479003906 L244.05300903320312,372.8141784667969 L244.05300903320312,372.3660583496094 L244.05300903320312,372.0295715332031 L244.16517639160156,371.46929931640625 L244.16517639160156,370.5719909667969 L244.27734375,369.67523193359375 L244.27734375,368.3303527832031 L244.38951110839844,366.81695556640625 L244.61328125,365.2472229003906 L244.72544860839844,363.5094909667969 L244.9497833251953,361.49163818359375 L245.17410278320312,359.24945068359375 L245.62220764160156,356.390625 L246.2388458251953,353.30804443359375 L247.13560485839844,350.44921875 L248.25669860839844,347.7589416503906 L249.99441528320312,344.5636291503906 L252.0122833251953,341.2566833496094 L253.9185333251953,338.0055847167969 L256.3844909667969,334.3058166503906 L258.68304443359375,330.4386291503906 L260.98101806640625,326.2901916503906 L262.9988708496094,322.25445556640625 L265.1847229003906,318.38671875 L267.37109375,314.7433166503906 L269.5569152832031,311.0440979003906 L271.7991027832031,306.7282409667969 L274.5457458496094,301.40289306640625 L277.2360534667969,295.125 L279.59039306640625,289.2394104003906 L282.00054931640625,283.41015625 L284.24273681640625,278.3649597167969 L286.42913818359375,273.7126159667969 L288.6149597167969,269.00445556640625 L290.6891784667969,264.52008056640625 L292.1462097167969,259.69976806640625 L293.37945556640625,254.31863403320312 L294.50054931640625,248.65736389160156 L295.3415222167969,243.33203125 L296.1261291503906,238.73548889160156 L296.4626159667969,234.6439666748047 L296.68695068359375,231.2806854248047 L296.68695068359375,228.25390625 L296.23828125,224.94699096679688 L294.8928527832031,221.75167846679688 L293.4358215332031,218.7806854248047 L292.0340270996094,216.3705291748047 L290.2405090332031,214.40904235839844 L288.67132568359375,212.8392791748047 L287.1579284667969,211.8861541748047 L285.64398193359375,211.1015625 L284.07476806640625,210.65345764160156 L282.5050354003906,210.54129028320312 L280.4871520996094,210.65345764160156 L278.3571472167969,211.26953125 L275.4425354003906,212.50279235839844 L272.52789306640625,213.7924041748047 L269.78125,215.2494354248047 L267.3147277832031,217.26730346679688 L265.1847229003906,219.6216583251953 L263.0546875,222.36830139160156 L261.4855041503906,225.05859375 L259.9157409667969,227.41294860839844 L258.5144958496094,229.59933471679688 L257.11328125,231.6171875 L256.2165222167969,233.5786895751953 L255.3755645751953,235.87722778320312 L254.92745971679688,238.56752014160156 L254.75892639160156,241.08984375 L254.64675903320312,243.61216735839844 L254.64675903320312,246.0786895751953 L254.64675903320312,248.26451110839844 L254.47879028320312,249.83425903320312 L254.14230346679688,251.34765625 L253.86216735839844,252.69308471679688 L253.52566528320312,254.03794860839844 L253.2455291748047,255.3833770751953 L253.02120971679688,256.78460693359375 L252.7974395751953,258.3543395996094 L252.57310485839844,259.97991943359375 L252.34877014160156,261.5491027832031 L252.18080139160156,263.0625 L251.9564666748047,264.015625 L251.6763458251953,264.8565979003906 L251.33984375,265.4168395996094 L251.0033416748047,265.8655090332031 L250.61105346679688,265.9776916503906" stroke="black" stroke-width="2" fill="none"/>
			</svg>
		