<?xml version="1.0" ?>
<svg xmlns="http://www.w3.org/2000/svg" xmlns:ev="http://www.w3.org/2001/xml-events" xmlns:xlink="http://www.w3.org/1999/xlink" baseProfile="full" height="600px" version="1.1" viewBox="-23.025750000000002 -5.375750000000004 508.05150000000003 542.2515" width="563px">
	<defs/>
	<path d="M 192.0,456.0 L 147.5,58.0" fill="none" stroke="#000000" stroke-width="0.4515"/>
	<path d="M 65.5,297.5 L 341.5,236.0" fill="none" stroke="#000000" stroke-width="0.4515"/>
	<path d="M 341.5,236.0 L 349.0,270.5" fill="none" stroke="#000000" stroke-width="0.4515"/>
	<path d="M 349.0,270.5 L 256.0,353.0" fill="none" stroke="#000000" stroke-width="0.4515"/>
	<path d="M 256.0,353.0 L 140.5,348.5" fill="none" stroke="#000000" stroke-width="0.4515"/>
	<path d="M 140.5,348.5 L 102.5,325.0" fill="none" stroke="#000000" stroke-width="0.4515"/>
	<path d="M 102.5,325.0 L 94.0,274.0" fill="none" stroke="#000000" stroke-width="0.4515"/>
	<path d="M 94.0,274.0 L 183.5,159.0" fill="none" stroke="#000000" stroke-width="0.4515"/>
	<path d="M 183.5,159.0 L 278.0,160.0" fill="none" stroke="#000000" stroke-width="0.4515"/>
	<path d="M 278.0,160.0 L 313.5,209.0" fill="none" stroke="#000000" stroke-width="0.4515"/>
	<path d="M 313.5,209.0 L 305.5,265.5" fill="none" stroke="#000000" stroke-width="0.4515"/>
	<path d="M 305.5,265.5 L 159.5,297.5" fill="none" stroke="#000000" stroke-width="0.4515"/>
	<path d="M 159.5,297.5 L 142.5,288.5" fill="none" stroke="#000000" stroke-width="0.4515"/>
	<path d="M 243.5,62.5 L 409.0,235.0" fill="none" stroke="#000000" stroke-width="0.4515"/>
	<path d="M 441.0,314.5 L 442.5,330.5" fill="none" stroke="#000000" stroke-width="0.4515"/>
	<path d="M 442.5,330.5 L 128.5,71.0" fill="none" stroke="#000000" stroke-width="0.4515"/>
	<path d="M 126.5,71.0 L 345.5,342.0" fill="none" stroke="#000000" stroke-width="0.4515"/>
	<path d="M 345.5,342.0 L 294.5,338.5" fill="none" stroke="#000000" stroke-width="0.4515"/>
	<path d="M 225.0,491.5 L 20.5,194.0" fill="none" stroke="#000000" stroke-width="0.4515"/>
	<path d="M 19.5,194.0 L 115.5,397.5" fill="none" stroke="#000000" stroke-width="0.4515"/>
	<path d="M 115.5,397.5 L 111.5,403.0" fill="none" stroke="#000000" stroke-width="0.4515"/>
	<path d="M 111.5,403.0 L 75.0,405.5" fill="none" stroke="#000000" stroke-width="0.4515"/>
	<path d="M 75.0,406.5 L 390.5,384.0" fill="none" stroke="#000000" stroke-width="0.4515"/>
	<path d="M 390.5,384.0 L 79.0,304.0" fill="none" stroke="#000000" stroke-width="0.4515"/>
	<path d="M 79.0,304.0 L 73.0,294.5" fill="none" stroke="#000000" stroke-width="0.4515"/>
	<path d="M 73.0,294.5 L 242.5,199.0" fill="none" stroke="#000000" stroke-width="0.4515"/>
	<path d="M 242.5,199.0 L 247.5,146.0" fill="none" stroke="#000000" stroke-width="0.4515"/>
	<path d="M 247.5,146.0 L 172.0,74.5" fill="none" stroke="#000000" stroke-width="0.4515"/>
	<path d="M 96.5,189.5 L 92.5,97.0" fill="none" stroke="#000000" stroke-width="0.4515"/>
	<path d="M 92.0,96.5 L 74.0,257.5" fill="none" stroke="#000000" stroke-width="0.4515"/>
	<path d="M 74.0,257.5 L 48.0,267.0" fill="none" stroke="#000000" stroke-width="0.4515"/>
	<path d="M 44.5,265.5 L 45.0,257.0" fill="none" stroke="#000000" stroke-width="0.4515"/>
	<path d="M 45.0,257.0 L 252.5,40.0" fill="none" stroke="#000000" stroke-width="0.4515"/>
	<path d="M 252.5,40.0 L 254.5,50.0" fill="none" stroke="#000000" stroke-width="0.4515"/>
	<path d="M 408.0,418.5 L 329.5,143.0" fill="none" stroke="#000000" stroke-width="0.4515"/>
	<path d="M 408.0,362.5 L 154.0,325.0" fill="none" stroke="#000000" stroke-width="0.4515"/>
	<path d="M 154.0,325.0 L 139.0,350.0" fill="none" stroke="#000000" stroke-width="0.4515"/>
</svg>
