<?xml version="1.0" ?>
<svg xmlns="http://www.w3.org/2000/svg" xmlns:ev="http://www.w3.org/2001/xml-events" xmlns:xlink="http://www.w3.org/1999/xlink" style="background-color: white;" baseProfile="full" height="600px" version="1.1" viewBox="-38.73025 -55.78025 540.4605 553.0605" width="587px">
	<defs/>
	<path d="M 413.5,56.0 L 435.0,439.5" fill="none" stroke="#000000" stroke-width="0.4605"/>
	<path d="M 63.0,63.5 L 129.5,451.0" fill="none" stroke="#000000" stroke-width="0.4605"/>
	<path d="M 423.0,114.5 L 115.5,135.5" fill="none" stroke="#000000" stroke-width="0.4605"/>
	<path d="M 115.5,135.5 L 6.5,127.5" fill="none" stroke="#000000" stroke-width="0.4605"/>
	<path d="M 420.5,272.5 L 177.5,273.5" fill="none" stroke="#000000" stroke-width="0.4605"/>
	<path d="M 177.5,273.5 L 55.0,260.5" fill="none" stroke="#000000" stroke-width="0.4605"/>
	<path d="M 241.5,12.0 L 244.5,434.5" fill="none" stroke="#000000" stroke-width="0.4605"/>
	<path d="M 456.5,225.0 L 222.5,231.0" fill="none" stroke="#000000" stroke-width="0.4605"/>
	<path d="M 222.5,231.0 L 19.5,199.5" fill="none" stroke="#000000" stroke-width="0.4605"/>
	<path d="M 388.5,57.5 L 153.5,390.5" fill="none" stroke="#000000" stroke-width="0.4605"/>
	<path d="M 150.0,78.5 L 387.5,394.0" fill="none" stroke="#000000" stroke-width="0.4605"/>
	<path d="M 426.5,412.5 L 358.0,-1.0" fill="none" stroke="#000000" stroke-width="0.4605"/>
	<path d="M 358.0,-1.0 L 344.0,-9.5" fill="none" stroke="#000000" stroke-width="0.4605"/>
	<path d="M 117.0,363.0 L 62.5,359.0" fill="none" stroke="#000000" stroke-width="0.4605"/>
	<path d="M 62.5,359.0 L 56.5,353.0" fill="none" stroke="#000000" stroke-width="0.4605"/>
	<path d="M 56.5,353.0 L 57.0,346.5" fill="none" stroke="#000000" stroke-width="0.4605"/>
	<path d="M 57.0,346.5 L 360.5,258.5" fill="none" stroke="#000000" stroke-width="0.4605"/>
	<path d="M 360.5,258.5 L 362.5,251.5" fill="none" stroke="#000000" stroke-width="0.4605"/>
	<path d="M 95.5,81.5 L 450.5,385.5" fill="none" stroke="#000000" stroke-width="0.4605"/>
	<path d="M 451.5,384.5 L 262.0,147.0" fill="none" stroke="#000000" stroke-width="0.4605"/>
	<path d="M 262.0,147.0 L 248.5,153.0" fill="none" stroke="#000000" stroke-width="0.4605"/>
	<path d="M 31.5,297.0 L 120.5,114.5" fill="none" stroke="#000000" stroke-width="0.4605"/>
	<path d="M 120.5,114.5 L 129.0,115.0" fill="none" stroke="#000000" stroke-width="0.4605"/>
	<path d="M 129.0,115.0 L 142.5,264.5" fill="none" stroke="#000000" stroke-width="0.4605"/>
</svg>
