<?xml version="1.0" ?>
<svg xmlns="http://www.w3.org/2000/svg" xmlns:ev="http://www.w3.org/2001/xml-events" xmlns:xlink="http://www.w3.org/1999/xlink" baseProfile="full" height="512px" version="1.1" viewBox="-0.16225000000000023 -14.91225 509.8245 434.8245" width="600px">
	<defs/>
	<path d="M 341.0,115.5 L 351.5,378.0" fill="none" stroke="#000000" stroke-width="0.4245"/>
	<path d="M 350.5,381.0 L 76.0,373.0" fill="none" stroke="#000000" stroke-width="0.4245"/>
	<path d="M 76.0,373.0 L 57.0,373.0" fill="none" stroke="#000000" stroke-width="0.4245"/>
	<path d="M 47.5,371.0 L 48.5,105.0" fill="none" stroke="#000000" stroke-width="0.4245"/>
	<path d="M 45.5,110.5 L 326.0,108.5" fill="none" stroke="#000000" stroke-width="0.4245"/>
	<path d="M 327.5,109.5 L 337.0,110.0" fill="none" stroke="#000000" stroke-width="0.4245"/>
	<path d="M 328.0,107.5 L 467.0,221.5" fill="none" stroke="#000000" stroke-width="0.4245"/>
	<path d="M 466.5,224.0 L 341.5,378.5" fill="none" stroke="#000000" stroke-width="0.4245"/>
	<path d="M 328.5,117.5 L 42.5,363.5" fill="none" stroke="#000000" stroke-width="0.4245"/>
	<path d="M 48.0,106.5 L 358.0,380.5" fill="none" stroke="#000000" stroke-width="0.4245"/>
	<path d="M 203.0,106.5 L 201.0,383.5" fill="none" stroke="#000000" stroke-width="0.4245"/>
	<path d="M 350.5,236.5 L 136.5,234.0" fill="none" stroke="#000000" stroke-width="0.4245"/>
	<path d="M 136.5,234.0 L 54.5,234.0" fill="none" stroke="#000000" stroke-width="0.4245"/>
	<path d="M 460.5,224.5 L 339.5,237.5" fill="none" stroke="#000000" stroke-width="0.4245"/>
	<path d="M 379.5,147.5 L 380.5,338.5" fill="none" stroke="#000000" stroke-width="0.4245"/>
	<path d="M 202.0,23.0 L 200.0,119.5" fill="none" stroke="#000000" stroke-width="0.4245"/>
	<path d="M 199.0,21.5 L 337.5,111.5" fill="none" stroke="#000000" stroke-width="0.4245"/>
	<path d="M 121.5,169.5 L 123.0,301.0" fill="none" stroke="#000000" stroke-width="0.4245"/>
	<path d="M 123.0,301.0 L 52.5,305.5" fill="none" stroke="#000000" stroke-width="0.4245"/>
	<path d="M 125.0,169.5 L 46.0,173.0" fill="none" stroke="#000000" stroke-width="0.4245"/>
	<path d="M 124.0,172.5 L 55.5,305.5" fill="none" stroke="#000000" stroke-width="0.4245"/>
	<path d="M 47.0,162.5 L 123.5,307.0" fill="none" stroke="#000000" stroke-width="0.4245"/>
</svg>
