<?xml version="1.0" ?>
<svg xmlns="http://www.w3.org/2000/svg" xmlns:ev="http://www.w3.org/2001/xml-events" xmlns:xlink="http://www.w3.org/1999/xlink" style="background-color: white;" baseProfile="full" height="447px" version="1.1" viewBox="-51.51650000000001 55.083499999999994 520.033 386.833" width="600px">
	<defs/>
	<path d="M 70.5,168.0 L 83.5,354.5" fill="none" stroke="#000000" stroke-width="0.433"/>
	<path d="M 83.5,354.5 L 350.5,359.0" fill="none" stroke="#000000" stroke-width="0.433"/>
	<path d="M 350.5,359.0 L 334.0,163.5" fill="none" stroke="#000000" stroke-width="0.433"/>
	<path d="M 334.0,163.5 L 217.5,160.5" fill="none" stroke="#000000" stroke-width="0.433"/>
	<path d="M 217.5,160.5 L 72.0,162.5" fill="none" stroke="#000000" stroke-width="0.433"/>
	<path d="M 325.0,165.0 L 90.0,355.0" fill="none" stroke="#000000" stroke-width="0.433"/>
	<path d="M 66.5,163.5 L 345.5,365.0" fill="none" stroke="#000000" stroke-width="0.433"/>
	<path d="M 324.0,161.5 L 425.0,272.5" fill="none" stroke="#000000" stroke-width="0.433"/>
	<path d="M 425.0,274.5 L 348.5,360.5" fill="none" stroke="#000000" stroke-width="0.433"/>
	<path d="M 215.0,155.0 L 216.0,353.0" fill="none" stroke="#000000" stroke-width="0.433"/>
	<path d="M 421.0,275.0 L 255.0,267.5" fill="none" stroke="#000000" stroke-width="0.433"/>
	<path d="M 255.0,267.5 L 76.5,268.0" fill="none" stroke="#000000" stroke-width="0.433"/>
	<path d="M 354.5,193.0 L 367.5,334.5" fill="none" stroke="#000000" stroke-width="0.433"/>
	<path d="M 29.5,87.5 L 38.5,275.5" fill="none" stroke="#000000" stroke-width="0.433"/>
	<path d="M 76.5,210.5 L 48.5,210.5" fill="none" stroke="#000000" stroke-width="0.433"/>
	<path d="M 46.0,103.5 L 5.5,102.0" fill="none" stroke="#000000" stroke-width="0.433"/>
	<path d="M 5.5,102.0 L -8.0,102.0" fill="none" stroke="#000000" stroke-width="0.433"/>
	<path d="M 214.0,167.0 L 214.5,96.0" fill="none" stroke="#000000" stroke-width="0.433"/>
	<path d="M 214.5,96.0 L 328.5,171.0" fill="none" stroke="#000000" stroke-width="0.433"/>
	<path d="M 88.0,409.5 L 82.0,341.0" fill="none" stroke="#000000" stroke-width="0.433"/>
	<path d="M 84.5,405.5 L 142.5,407.0" fill="none" stroke="#000000" stroke-width="0.433"/>
	<path d="M 142.5,407.0 L 142.5,355.5" fill="none" stroke="#000000" stroke-width="0.433"/>
	<path d="M 88.5,353.0 L 145.5,402.5" fill="none" stroke="#000000" stroke-width="0.433"/>
	<path d="M 144.5,378.5 L 259.5,385.0" fill="none" stroke="#000000" stroke-width="0.433"/>
	<path d="M 235.5,401.0 L 234.5,370.5" fill="none" stroke="#000000" stroke-width="0.433"/>
	<path d="M 141.5,210.5 L 143.0,320.0" fill="none" stroke="#000000" stroke-width="0.433"/>
	<path d="M 143.5,321.0 L 93.0,320.0" fill="none" stroke="#000000" stroke-width="0.433"/>
	<path d="M 142.0,213.5 L 79.0,215.0" fill="none" stroke="#000000" stroke-width="0.433"/>
	<path d="M 144.0,213.5 L 82.5,327.5" fill="none" stroke="#000000" stroke-width="0.433"/>
	<path d="M 69.5,206.0 L 146.0,332.0" fill="none" stroke="#000000" stroke-width="0.433"/>
	<path d="M 250.0,285.0 L 225.0,314.0" fill="none" stroke="#000000" stroke-width="0.433"/>
	<path d="M 284.0,293.0 L 255.0,334.5" fill="none" stroke="#000000" stroke-width="0.433"/>
	<path d="M 314.0,314.5 L 283.5,348.0" fill="none" stroke="#000000" stroke-width="0.433"/>
	<path d="M 209.0,187.5 L 115.5,183.5" fill="none" stroke="#000000" stroke-width="0.433"/>
	<path d="M 115.5,183.5 L 109.5,183.5" fill="none" stroke="#000000" stroke-width="0.433"/>
	<path d="M 206.0,216.5 L 152.0,216.5" fill="none" stroke="#000000" stroke-width="0.433"/>
	<path d="M 214.5,236.5 L 169.5,238.5" fill="none" stroke="#000000" stroke-width="0.433"/>
	<path d="M 237.5,158.5 L 242.0,239.0" fill="none" stroke="#000000" stroke-width="0.433"/>
</svg>
