<?xml version="1.0" ?>
<svg xmlns="http://www.w3.org/2000/svg" xmlns:ev="http://www.w3.org/2001/xml-events" xmlns:xlink="http://www.w3.org/1999/xlink" baseProfile="full" height="518px" version="1.1" viewBox="-44.98063842096925 32.64408095440268 543.538285744965 469.0773547537923" width="600px">
	<defs/>
	<path d="M 81.10713958740234,149.89173889160156 L 86.09598541259766,377.07421875" fill="none" stroke="#000000" stroke-width="0.4525714285969734"/>
	<path d="M 350.77789306640625,139.29798889160156 L 180.82533264160156,141.87611389160156" fill="none" stroke="#000000" stroke-width="0.4525714285969734"/>
	<path d="M 180.82533264160156,141.87611389160156 L 79.59375,152.18972778320312" fill="none" stroke="#000000" stroke-width="0.4525714285969734"/>
	<path d="M 352.68359375,143.83816528320312 L 360.6428527832031,360.9313659667969" fill="none" stroke="#000000" stroke-width="0.4525714285969734"/>
	<path d="M 354.3649597167969,144.45480346679688 L 430.2048034667969,247.92857360839844" fill="none" stroke="#000000" stroke-width="0.4525714285969734"/>
	<path d="M 430.76507568359375,248.04074096679688 L 359.8024597167969,363.73382568359375" fill="none" stroke="#000000" stroke-width="0.4525714285969734"/>
	<path d="M 377.6272277832031,175.45201110839844 L 384.9140625,321.75" fill="none" stroke="#000000" stroke-width="0.4525714285969734"/>
	<path d="M 215.578125,144.95925903320312 L 225.2193145751953,368.1618347167969" fill="none" stroke="#000000" stroke-width="0.4525714285969734"/>
	<path d="M 428.859375,253.64564514160156 L 416.4715270996094,252.8052520751953" fill="none" stroke="#000000" stroke-width="0.4525714285969734"/>
	<path d="M 416.4715270996094,252.8052520751953 L 84.30189514160156,276.9637145996094" fill="none" stroke="#000000" stroke-width="0.4525714285969734"/>
	<path d="M 352.06695556640625,140.13839721679688 L 84.63838958740234,369.33929443359375" fill="none" stroke="#000000" stroke-width="0.4525714285969734"/>
	<path d="M 84.97489166259766,153.9838104248047 L 358.4012145996094,366.0881652832031" fill="none" stroke="#000000" stroke-width="0.4525714285969734"/>
	<path d="M 83.40513610839844,205.27232360839844 L 37.44196319580078,209.8125" fill="none" stroke="#000000" stroke-width="0.4525714285969734"/>
	<path d="M 37.44196319580078,209.8125 L 29.31417465209961,210.70925903320312" fill="none" stroke="#000000" stroke-width="0.4525714285969734"/>
	<path d="M 25.55859375,71.92243194580078 L 31.444196701049805,270.40570068359375" fill="none" stroke="#000000" stroke-width="0.4525714285969734"/>
	<path d="M 49.94140625,95.12834930419922 L 0.5027901530265808,108.69307708740234" fill="none" stroke="#000000" stroke-width="0.4525714285969734"/>
	<path d="M 87.21707916259766,373.71148681640625 L 98.42745208740234,462.4430847167969" fill="none" stroke="#000000" stroke-width="0.4525714285969734"/>
	<path d="M 98.42745208740234,462.4430847167969 L 166.6439666748047,456.10882568359375" fill="none" stroke="#000000" stroke-width="0.4525714285969734"/>
	<path d="M 166.6439666748047,456.10882568359375 L 154.92857360839844,373.7673034667969" fill="none" stroke="#000000" stroke-width="0.4525714285969734"/>
	<path d="M 89.62723541259766,377.859375 L 162.49609375,454.4832458496094" fill="none" stroke="#000000" stroke-width="0.4525714285969734"/>
	<path d="M 147.19363403320312,206.7857208251953 L 155.9375,320.4609375" fill="none" stroke="#000000" stroke-width="0.4525714285969734"/>
	<path d="M 153.91964721679688,322.25445556640625 L 84.47042083740234,330.21429443359375" fill="none" stroke="#000000" stroke-width="0.4525714285969734"/>
	<path d="M 144.8950958251953,211.83035278320312 L 84.52622985839844,334.25" fill="none" stroke="#000000" stroke-width="0.4525714285969734"/>
	<path d="M 86.99274444580078,215.5859375 L 151.39732360839844,325.8420715332031" fill="none" stroke="#000000" stroke-width="0.4525714285969734"/>
	<path d="M 211.5982208251953,73.26729583740234 L 217.8203125,151.34933471679688" fill="none" stroke="#000000" stroke-width="0.4525714285969734"/>
	<path d="M 211.99050903320312,77.86383819580078 L 350.3292541503906,141.14732360839844" fill="none" stroke="#000000" stroke-width="0.4525714285969734"/>
	<path d="M 333.56976318359375,421.0758972167969 L 163.56082153320312,419.05804443359375" fill="none" stroke="#000000" stroke-width="0.4525714285969734"/>
	<path d="M 293.6037902832031,397.3655090332031 L 293.65960693359375,444.28179931640625" fill="none" stroke="#000000" stroke-width="0.4525714285969734"/>
	<path d="M 431.6623840332031,250.50669860839844 L 420.2834777832031,295.46148681640625" fill="none" stroke="#000000" stroke-width="0.4525714285969734"/>
	<path d="M 420.2834777832031,295.46148681640625 L 439.90179443359375,314.07086181640625" fill="none" stroke="#000000" stroke-width="0.4525714285969734"/>
	<path d="M 440.68695068359375,313.1741027832031 L 452.90625,280.3828125" fill="none" stroke="#000000" stroke-width="0.4525714285969734"/>
	<path d="M 453.07421875,280.1590270996094 L 432.2790222167969,250.61886596679688" fill="none" stroke="#000000" stroke-width="0.4525714285969734"/>
	<path d="M 215.41015625,168.4453125 L 201.22879028320312,167.6607208251953" fill="none" stroke="#000000" stroke-width="0.4525714285969734"/>
	<path d="M 201.22879028320312,167.6607208251953 L 107.67633819580078,170.91183471679688" fill="none" stroke="#000000" stroke-width="0.4525714285969734"/>
	<path d="M 221.9681854248047,216.70703125 L 171.07199096679688,220.18247985839844" fill="none" stroke="#000000" stroke-width="0.4525714285969734"/>
	<path d="M 221.40736389160156,237.8950958251953 L 188.05580139160156,239.57644653320312" fill="none" stroke="#000000" stroke-width="0.4525714285969734"/>
	<path d="M 219.95033264160156,191.203125 L 181.6099395751953,190.25" fill="none" stroke="#000000" stroke-width="0.4525714285969734"/>
	<path d="M 181.6099395751953,190.25 L 135.36607360839844,194.17355346679688" fill="none" stroke="#000000" stroke-width="0.4525714285969734"/>
	<path d="M 360.36273193359375,371.9737854003906 L 94.671875,375.2248840332031" fill="none" stroke="#000000" stroke-width="0.4525714285969734"/>
	<path d="M 94.671875,375.2248840332031 L 82.90067291259766,375.33648681640625" fill="none" stroke="#000000" stroke-width="0.4525714285969734"/>
	<path d="M 333.0089416503906,331.1668395996094 L 310.1953125,351.1780090332031" fill="none" stroke="#000000" stroke-width="0.4525714285969734"/>
	<path d="M 306.21539306640625,310.81976318359375 L 280.99163818359375,337.0524597167969" fill="none" stroke="#000000" stroke-width="0.4525714285969734"/>
	<path d="M 282.28125,295.6852722167969 L 251.9564666748047,320.1808166503906" fill="none" stroke="#000000" stroke-width="0.4525714285969734"/>
	<path d="M 259.1875,283.9704284667969 L 234.6361541748047,299.77734375" fill="none" stroke="#000000" stroke-width="0.4525714285969734"/>
	<path d="M 248.3130645751953,146.75279235839844 L 242.76394653320312,246.63894653320312" fill="none" stroke="#000000" stroke-width="0.4525714285969734"/>
	<path d="M 131.49888610839844,190.02566528320312 L 87.27288055419922,194.1177520751953" fill="none" stroke="#000000" stroke-width="0.4525714285969734"/>
	<path d="M 147.97824096679688,205.9447479248047 L 81.89173889160156,214.40904235839844" fill="none" stroke="#000000" stroke-width="0.4525714285969734"/>
</svg>
