<?xml version="1.0" ?>
<svg xmlns="http://www.w3.org/2000/svg" xmlns:ev="http://www.w3.org/2001/xml-events" xmlns:xlink="http://www.w3.org/1999/xlink" style="background-color: white;" baseProfile="full" height="586px" version="1.1" viewBox="-42.076750000000004 -21.976750000000003 544.6535 531.4535" width="600px">
	<defs/>
	<path d="M 65.5,384.5 L 49.5,132.0" fill="none" stroke="#000000" stroke-width="0.4535"/>
	<path d="M 49.5,131.5 L 327.5,120.5" fill="none" stroke="#000000" stroke-width="0.4535"/>
	<path d="M 327.5,120.5 L 332.5,386.5" fill="none" stroke="#000000" stroke-width="0.4535"/>
	<path d="M 332.5,386.5 L 67.5,377.5" fill="none" stroke="#000000" stroke-width="0.4535"/>
	<path d="M 67.5,377.5 L 59.5,377.5" fill="none" stroke="#000000" stroke-width="0.4535"/>
	<path d="M 326.0,127.5 L 457.0,244.0" fill="none" stroke="#000000" stroke-width="0.4535"/>
	<path d="M 457.0,245.5 L 333.0,387.0" fill="none" stroke="#000000" stroke-width="0.4535"/>
	<path d="M 375.5,174.5 L 382.0,338.5" fill="none" stroke="#000000" stroke-width="0.4535"/>
	<path d="M 50.5,138.5 L 332.0,387.0" fill="none" stroke="#000000" stroke-width="0.4535"/>
	<path d="M 453.5,239.0 L 69.5,272.5" fill="none" stroke="#000000" stroke-width="0.4535"/>
	<path d="M 69.0,273.0 L 58.0,273.0" fill="none" stroke="#000000" stroke-width="0.4535"/>
	<path d="M 188.5,124.5 L 197.0,383.5" fill="none" stroke="#000000" stroke-width="0.4535"/>
	<path d="M 326.5,125.0 L 202.5,30.0" fill="none" stroke="#000000" stroke-width="0.4535"/>
	<path d="M 200.5,30.5 L 190.5,150.5" fill="none" stroke="#000000" stroke-width="0.4535"/>
	<path d="M 450.0,240.0 L 453.5,324.5" fill="none" stroke="#000000" stroke-width="0.4535"/>
	<path d="M 453.5,324.5 L 438.0,289.5" fill="none" stroke="#000000" stroke-width="0.4535"/>
	<path d="M 438.0,289.5 L 451.5,249.0" fill="none" stroke="#000000" stroke-width="0.4535"/>
	<path d="M 24.5,255.5 L 27.0,22.5" fill="none" stroke="#000000" stroke-width="0.4535"/>
	<path d="M 52.5,174.5 L 33.0,174.0" fill="none" stroke="#000000" stroke-width="0.4535"/>
	<path d="M 33.0,174.0 L 25.0,174.0" fill="none" stroke="#000000" stroke-width="0.4535"/>
	<path d="M 42.5,70.0 L 14.0,69.5" fill="none" stroke="#000000" stroke-width="0.4535"/>
	<path d="M 14.0,69.5 L 3.5,69.5" fill="none" stroke="#000000" stroke-width="0.4535"/>
	<path d="M 119.0,191.0 L 94.0,190.0" fill="none" stroke="#000000" stroke-width="0.4535"/>
	<path d="M 94.0,190.0 L 50.5,190.0" fill="none" stroke="#000000" stroke-width="0.4535"/>
	<path d="M 112.5,189.0 L 116.5,338.0" fill="none" stroke="#000000" stroke-width="0.4535"/>
	<path d="M 117.5,340.0 L 59.0,340.5" fill="none" stroke="#000000" stroke-width="0.4535"/>
	<path d="M 54.0,195.0 L 114.5,341.0" fill="none" stroke="#000000" stroke-width="0.4535"/>
	<path d="M 115.5,192.0 L 62.0,354.0" fill="none" stroke="#000000" stroke-width="0.4535"/>
	<path d="M 67.0,379.5 L 69.5,462.5" fill="none" stroke="#000000" stroke-width="0.4535"/>
	<path d="M 69.5,462.5 L 141.5,465.0" fill="none" stroke="#000000" stroke-width="0.4535"/>
	<path d="M 141.5,465.0 L 137.5,377.5" fill="none" stroke="#000000" stroke-width="0.4535"/>
	<path d="M 68.5,384.0 L 139.0,454.5" fill="none" stroke="#000000" stroke-width="0.4535"/>
	<path d="M 321.5,119.5 L 68.0,379.5" fill="none" stroke="#000000" stroke-width="0.4535"/>
	<path d="M 222.5,119.0 L 224.0,228.0" fill="none" stroke="#000000" stroke-width="0.4535"/>
	<path d="M 301.5,357.0 L 312.5,351.5" fill="none" stroke="#000000" stroke-width="0.4535"/>
	<path d="M 312.5,351.5 L 283.0,367.5" fill="none" stroke="#000000" stroke-width="0.4535"/>
	<path d="M 301.0,316.0 L 262.5,343.5" fill="none" stroke="#000000" stroke-width="0.4535"/>
	<path d="M 272.0,295.5 L 229.5,325.5" fill="none" stroke="#000000" stroke-width="0.4535"/>
	<path d="M 237.5,277.5 L 209.5,299.5" fill="none" stroke="#000000" stroke-width="0.4535"/>
	<path d="M 190.0,143.0 L 83.5,158.0" fill="none" stroke="#000000" stroke-width="0.4535"/>
	<path d="M 187.5,177.0 L 115.0,184.5" fill="none" stroke="#000000" stroke-width="0.4535"/>
	<path d="M 194.0,207.5 L 153.5,218.0" fill="none" stroke="#000000" stroke-width="0.4535"/>
	<path d="M 341.0,428.0 L 308.5,425.5" fill="none" stroke="#000000" stroke-width="0.4535"/>
	<path d="M 308.5,425.5 L 137.5,428.5" fill="none" stroke="#000000" stroke-width="0.4535"/>
	<path d="M 289.5,402.0 L 286.0,444.0" fill="none" stroke="#000000" stroke-width="0.4535"/>
	<path d="M 95.5,177.0 L 54.5,179.5" fill="none" stroke="#000000" stroke-width="0.4535"/>
</svg>
