<?xml version="1.0" ?>
<svg xmlns="http://www.w3.org/2000/svg" xmlns:ev="http://www.w3.org/2001/xml-events" xmlns:xlink="http://www.w3.org/1999/xlink" baseProfile="full" height="501px" version="1.1" viewBox="-42.27436261820793 29.200918572664257 560.0989442954063 467.27505799627306" width="600px">
	<defs/>
	<path d="M 57.50893020629883,146.86495971679688 L 56.61216354370117,382.5675354003906" fill="none" stroke="#000000" stroke-width="0.4663604865074158"/>
	<path d="M 58.96596145629883,385.70648193359375 L 353.5803527832031,397.8699645996094" fill="none" stroke="#000000" stroke-width="0.4663604865074158"/>
	<path d="M 354.92578125,166.48326110839844 L 356.6071472167969,400.67242431640625" fill="none" stroke="#000000" stroke-width="0.4663604865074158"/>
	<path d="M 58.68582534790039,152.30189514160156 L 353.02008056640625,163.4564666748047" fill="none" stroke="#000000" stroke-width="0.4663604865074158"/>
	<path d="M 204.7036895751953,159.25279235839844 L 202.79798889160156,389.4620666503906" fill="none" stroke="#000000" stroke-width="0.4663604865074158"/>
	<path d="M 353.7483215332031,165.8671875 L 56.38783645629883,383.8565979003906" fill="none" stroke="#000000" stroke-width="0.4663604865074158"/>
	<path d="M 127.51897430419922,216.98716735839844 L 125.38895416259766,334.9787902832031" fill="none" stroke="#000000" stroke-width="0.4663604865074158"/>
	<path d="M 122.86663055419922,335.8191833496094 L 64.29129791259766,338.28570556640625" fill="none" stroke="#000000" stroke-width="0.4663604865074158"/>
	<path d="M 64.29129791259766,338.28570556640625 L 59.02231979370117,338.6222229003906" fill="none" stroke="#000000" stroke-width="0.4663604865074158"/>
	<path d="M 132.78794860839844,216.31472778320312 L 65.52455139160156,213.8482208251953" fill="none" stroke="#000000" stroke-width="0.4663604865074158"/>
	<path d="M 65.52455139160156,213.8482208251953 L 53.41685104370117,214.85714721679688" fill="none" stroke="#000000" stroke-width="0.4663604865074158"/>
	<path d="M 126.79017639160156,221.8638458251953 L 58.06919479370117,340.0792541503906" fill="none" stroke="#000000" stroke-width="0.4663604865074158"/>
	<path d="M 56.5,216.81919860839844 L 123.81919860839844,338.45367431640625" fill="none" stroke="#000000" stroke-width="0.4663604865074158"/>
	<path d="M 211.82254028320312,68.33482360839844 L 205.04017639160156,161.2142791748047" fill="none" stroke="#000000" stroke-width="0.4663604865074158"/>
	<path d="M 213.8404083251953,72.42689514160156 L 352.06695556640625,162.72824096679688" fill="none" stroke="#000000" stroke-width="0.4663604865074158"/>
	<path d="M 360.1383972167969,401.45758056640625 L 462.3230895996094,291.7059020996094" fill="none" stroke="#000000" stroke-width="0.4663604865074158"/>
	<path d="M 462.04296875,291.93023681640625 L 466.6389465332031,287.0535583496094" fill="none" stroke="#000000" stroke-width="0.4663604865074158"/>
	<path d="M 356.4949645996094,168.61328125 L 465.12554931640625,285.2594909667969" fill="none" stroke="#000000" stroke-width="0.4663604865074158"/>
	<path d="M 390.23883056640625,201.85267639160156 L 391.0798034667969,370.0675354003906" fill="none" stroke="#000000" stroke-width="0.4663604865074158"/>
	<path d="M 468.9375,288.3984375 L 452.12164306640625,334.75445556640625" fill="none" stroke="#000000" stroke-width="0.4663604865074158"/>
	<path d="M 452.0094909667969,334.75445556640625 L 470.9553527832031,363.3415222167969" fill="none" stroke="#000000" stroke-width="0.4663604865074158"/>
	<path d="M 468.9375,286.8292541503906 L 470.7873840332031,366.03179931640625" fill="none" stroke="#000000" stroke-width="0.4663604865074158"/>
	<path d="M 239.2884979248047,162.11160278320312 L 238.61607360839844,257.5133972167969" fill="none" stroke="#000000" stroke-width="0.4663604865074158"/>
	<path d="M 52.63225555419922,279.8225402832031 L 469.55413818359375,285.8203125" fill="none" stroke="#000000" stroke-width="0.4663604865074158"/>
	<path d="M 59.91908645629883,385.3141784667969 L 60.03125,450.83984375" fill="none" stroke="#000000" stroke-width="0.4663604865074158"/>
	<path d="M 124.71651458740234,391.2555847167969 L 125.38895416259766,454.203125" fill="none" stroke="#000000" stroke-width="0.4663604865074158"/>
	<path d="M 60.53571319580078,451.17633056640625 L 128.58370971679688,456.4453125" fill="none" stroke="#000000" stroke-width="0.4663604865074158"/>
	<path d="M 63.78683090209961,389.7985534667969 L 128.0234375,456.78179931640625" fill="none" stroke="#000000" stroke-width="0.4663604865074158"/>
	<path d="M 127.18247985839844,424.66351318359375 L 294.66851806640625,433.0714416503906" fill="none" stroke="#000000" stroke-width="0.4663604865074158"/>
	<path d="M 252.29296875,416.36773681640625 L 248.9296875,457.3420715332031" fill="none" stroke="#000000" stroke-width="0.4663604865074158"/>
	<path d="M 21.354352951049805,84.47823333740234 L 21.915178298950195,276.1233215332031" fill="none" stroke="#000000" stroke-width="0.4663604865074158"/>
	<path d="M 54.98660659790039,195.46261596679688 L 24.941965103149414,197.59263610839844" fill="none" stroke="#000000" stroke-width="0.4663604865074158"/>
	<path d="M 39.79631805419922,108.97321319580078 L 4.5948662757873535,113.90569305419922" fill="none" stroke="#000000" stroke-width="0.4663604865074158"/>
	<path d="M 116.98102569580078,209.0279083251953 L 54.03348159790039,209.70033264160156" fill="none" stroke="#000000" stroke-width="0.4663604865074158"/>
	<path d="M 74.94140625,172.9296875 L 199.15457153320312,177.75" fill="none" stroke="#000000" stroke-width="0.4663604865074158"/>
	<path d="M 101.34207916259766,197.36886596679688 L 202.1255645751953,199.61105346679688" fill="none" stroke="#000000" stroke-width="0.4663604865074158"/>
	<path d="M 173.81863403320312,254.2622833251953 L 201.67689514160156,252.24441528320312" fill="none" stroke="#000000" stroke-width="0.4663604865074158"/>
	<path d="M 140.74720764160156,226.96484375 L 201.1166229248047,226.90847778320312" fill="none" stroke="#000000" stroke-width="0.4663604865074158"/>
	<path d="M 60.70368194580078,156.4497833251953 L 207.00222778320312,284.08258056640625" fill="none" stroke="#000000" stroke-width="0.4663604865074158"/>
	<path d="M 205.15234375,281.2237854003906 L 355.71038818359375,402.07421875" fill="none" stroke="#000000" stroke-width="0.4663604865074158"/>
	<path d="M 336.3722229003906,365.1350402832031 L 317.2019958496094,386.0987854003906" fill="none" stroke="#000000" stroke-width="0.4663604865074158"/>
	<path d="M 312.10101318359375,344.6199645996094 L 294.50054931640625,366.3125" fill="none" stroke="#000000" stroke-width="0.4663604865074158"/>
	<path d="M 285.8125,326.85101318359375 L 267.98773193359375,349.16015625" fill="none" stroke="#000000" stroke-width="0.4663604865074158"/>
	<path d="M 262.27008056640625,308.57757568359375 L 243.15625,332.79241943359375" fill="none" stroke="#000000" stroke-width="0.4663604865074158"/>
	<path d="M 240.4095916748047,291.8180847167969 L 221.91183471679688,314.01507568359375" fill="none" stroke="#000000" stroke-width="0.4663604865074158"/>
</svg>
