<?xml version="1.0" ?>
<svg xmlns="http://www.w3.org/2000/svg" xmlns:ev="http://www.w3.org/2001/xml-events" xmlns:xlink="http://www.w3.org/1999/xlink" style="background-color: white;" baseProfile="full" height="517px" version="1.1" viewBox="-42.09663608574868 32.35498454070091 564.0035400967598 485.2381357769966" width="600px">
	<defs/>
	<path d="M 77.29520416259766,173.2661895751953 L 83.79743194580078,395.96429443359375" fill="none" stroke="#000000" stroke-width="0.46961160707473754"/>
	<path d="M 76.95926666259766,174.6674041748047 L 370.5641784667969,180.3286895751953" fill="none" stroke="#000000" stroke-width="0.46961160707473754"/>	
	<path d="M 88.44977569580078,403.0831604003906 L 368.6584777832031,402.2421875" fill="none" stroke="#000000" stroke-width="0.46961160707473754"/>
	<path d="M 373.8152770996094,182.17857360839844 L 364.73492431640625,402.5223083496094" fill="none" stroke="#000000" stroke-width="0.46961160707473754"/>
	
	<path d="M 373.7594909667969,183.91574096679688 L 83.06864166259766,400.3923034667969" fill="none" stroke="#000000" stroke-width="0.46961160707473754"/>
	<path d="M 78.640625,179.3197479248047 L 363.2215270996094,402.57867431640625" fill="none" stroke="#000000" stroke-width="0.46961160707473754"/>
	
	<path d="M 369.1071472167969,401.90570068359375 L 453.2985534667969,294.171875" fill="none" stroke="#000000" stroke-width="0.46961160707473754"/>
	<path d="M 375.4972229003906,190.02566528320312 L 456.10101318359375,296.24609375" fill="none" stroke="#000000" stroke-width="0.46961160707473754"/>
	
	<path d="M 456.10101318359375,296.4704284667969 L 84.69419860839844,289.68804931640625" fill="none" stroke="#000000" stroke-width="0.46961160707473754"/>
	<path d="M 231.1049041748047,178.31082153320312 L 235.30859375,403.2511291503906" fill="none" stroke="#000000" stroke-width="0.46961160707473754"/>
	
	<path d="M 232.3939666748047,175.45201110839844 L 231.2728729248047,75.1171875" fill="none" stroke="#000000" stroke-width="0.46961160707473754"/>
	<path d="M 232.84263610839844,72.98716735839844 L 372.5262145996094,178.92745971679688" fill="none" stroke="#000000" stroke-width="0.46961160707473754"/>
	
	<path d="M 261.4855041503906,181.00111389160156 L 262.43804931640625,267.71484375" fill="none" stroke="#000000" stroke-width="0.46961160707473754"/>
	
	<path d="M 153.63951110839844,235.4849395751953 L 151.06138610839844,352.18695068359375" fill="none" stroke="#000000" stroke-width="0.46961160707473754"/>
	<path d="M 148.0904083251953,355.6623840332031 L 84.75055694580078,353.30804443359375" fill="none" stroke="#000000" stroke-width="0.46961160707473754"/>
	<path d="M 155.54519653320312,239.3521270751953 L 105.43415069580078,234.1953125" fill="none" stroke="#000000" stroke-width="0.46961160707473754"/>
	<path d="M 105.43415069580078,234.1953125 L 79.59375,234.6439666748047" fill="none" stroke="#000000" stroke-width="0.46961160707473754"/>
	<path d="M 154.53627014160156,240.64173889160156 L 79.98604583740234,353.98046875" fill="none" stroke="#000000" stroke-width="0.46961160707473754"/>
	<path d="M 83.79743194580078,236.66183471679688 L 151.06138610839844,356.55914306640625" fill="none" stroke="#000000" stroke-width="0.46961160707473754"/>
	
	<path d="M 87.32868194580078,398.4308166503906 L 88.50614166259766,473.09320068359375" fill="none" stroke="#000000" stroke-width="0.46961160707473754"/>
	<path d="M 157.78738403320312,472.7566833496094 L 93.27064514160156,472.98101806640625" fill="none" stroke="#000000" stroke-width="0.46961160707473754"/>
	<path d="M 93.27064514160156,472.98101806640625 L 85.81529235839844,473.765625" fill="none" stroke="#000000" stroke-width="0.46961160707473754"/>
	<path d="M 155.99386596679688,400.1121520996094 L 155.0970916748047,473.8777770996094" fill="none" stroke="#000000" stroke-width="0.46961160707473754"/>
	<path d="M 87.55301666259766,404.98883056640625 L 153.75167846679688,476.9609375" fill="none" stroke="#000000" stroke-width="0.46961160707473754"/>
	<path d="M 338.7823791503906,444.11383056640625 L 230.26394653320312,442.3761291503906" fill="none" stroke="#000000" stroke-width="0.46961160707473754"/>
	<path d="M 230.26394653320312,442.3761291503906 L 156.16183471679688,443.9453125" fill="none" stroke="#000000" stroke-width="0.46961160707473754"/>
	<path d="M 313.5027770996094,476.17578125 L 311.2605895996094,425.2237854003906" fill="none" stroke="#000000" stroke-width="0.46961160707473754"/>
	<path d="M 33.06975555419922,96.921875 L 37.44196319580078,318.4430847167969" fill="none" stroke="#000000" stroke-width="0.46961160707473754"/>
	<path d="M 62.16127395629883,123.09877014160156 L 5.099330425262451,120.015625" fill="none" stroke="#000000" stroke-width="0.46961160707473754"/>
	<path d="M 135.0859375,219.9017791748047 L 81.21930694580078,217.6595916748047" fill="none" stroke="#000000" stroke-width="0.46961160707473754"/>
	<path d="M 397.5256652832031,220.35044860839844 L 397.4140625,212.33482360839844" fill="none" stroke="#000000" stroke-width="0.46961160707473754"/>
	<path d="M 397.4140625,212.33482360839844 L 395.67633056640625,360.5948791503906" fill="none" stroke="#000000" stroke-width="0.46961160707473754"/>
	<path d="M 457.6707458496094,297.8152770996094 L 440.9670715332031,340.47210693359375" fill="none" stroke="#000000" stroke-width="0.46961160707473754"/>
	<path d="M 440.3504333496094,340.5837097167969 L 460.41741943359375,360.0340270996094" fill="none" stroke="#000000" stroke-width="0.46961160707473754"/>
	<path d="M 460.5295715332031,360.0340270996094 L 474.37445068359375,327.0753479003906" fill="none" stroke="#000000" stroke-width="0.46961160707473754"/>
	<path d="M 474.7109375,326.1785583496094 L 453.9709777832031,296.9748840332031" fill="none" stroke="#000000" stroke-width="0.46961160707473754"/>
	
	<path d="M 352.7394104003906,373.71148681640625 L 329.3097229003906,396.30078125" fill="none" stroke="#000000" stroke-width="0.46961160707473754"/>
	<path d="M 329.8699645996094,354.48492431640625 L 306.6640625,377.1863708496094" fill="none" stroke="#000000" stroke-width="0.46961160707473754"/>
	<path d="M 309.6350402832031,337.0524597167969 L 284.6350402832031,360.1462097167969" fill="none" stroke="#000000" stroke-width="0.46961160707473754"/>
	<path d="M 292.25836181640625,321.8621520996094 L 267.3147277832031,345.96484375" fill="none" stroke="#000000" stroke-width="0.46961160707473754"/> -->
	<path d="M 273.0881652832031,310.9319152832031 L 248.98548889160156,331.7276916503906" fill="none" stroke="#000000" stroke-width="0.46961160707473754"/>

	<path d="M 234.6919708251953,273.82476806640625 L 207.78683471679688,274.2170715332031" fill="none" stroke="#000000" stroke-width="0.46961160707473754"/>
	<path d="M 228.7505645751953,201.06808471679688 L 110.53013610839844,201.85267639160156" fill="none" stroke="#000000" stroke-width="0.46961160707473754"/>
	<path d="M 233.45870971679688,224.94699096679688 L 147.97824096679688,229.09486389160156" fill="none" stroke="#000000" stroke-width="0.46961160707473754"/>
	<path d="M 232.36048889160156,252.58091735839844 L 180.37667846679688,254.03794860839844" fill="none" stroke="#000000" stroke-width="0.46961160707473754"/>
	
	<path d="M 81.61161041259766,204.6556854248047 L 37.60993194580078,206.8978729248047" fill="none" stroke="#000000" stroke-width="0.46961160707473754"/>
</svg>
