<?xml version="1.0" ?>
<svg xmlns="http://www.w3.org/2000/svg" xmlns:ev="http://www.w3.org/2001/xml-events" xmlns:xlink="http://www.w3.org/1999/xlink" style="background-color: white;" baseProfile="full" height="547px" version="1.1" viewBox="-50.98875 -22.188750000000006 573.4775 521.8775" width="600px">
	<defs/>
	<path d="M 341.0,115.5 L 351.5,378.0" fill="none" stroke="#000000" stroke-width="0.47750000000000004"/>
	<path d="M 350.5,381.0 L 76.0,373.0" fill="none" stroke="#000000" stroke-width="0.47750000000000004"/>
	<path d="M 76.0,373.0 L 57.0,373.0" fill="none" stroke="#000000" stroke-width="0.47750000000000004"/>
	<path d="M 47.5,371.0 L 48.5,105.0" fill="none" stroke="#000000" stroke-width="0.47750000000000004"/>
	<path d="M 45.5,110.5 L 326.0,108.5" fill="none" stroke="#000000" stroke-width="0.47750000000000004"/>
	<path d="M 327.5,109.5 L 337.0,110.0" fill="none" stroke="#000000" stroke-width="0.47750000000000004"/>
	<path d="M 328.5,117.5 L 42.5,363.5" fill="none" stroke="#000000" stroke-width="0.47750000000000004"/>
	<path d="M 48.0,106.5 L 358.0,380.5" fill="none" stroke="#000000" stroke-width="0.47750000000000004"/>
	<path d="M 203.0,106.5 L 201.0,383.5" fill="none" stroke="#000000" stroke-width="0.47750000000000004"/>
	<path d="M 350.5,236.5 L 136.5,234.0" fill="none" stroke="#000000" stroke-width="0.47750000000000004"/>
	<path d="M 136.5,234.0 L 54.5,234.0" fill="none" stroke="#000000" stroke-width="0.47750000000000004"/>
	<path d="M 334.0,111.0 L 456.5,227.0" fill="none" stroke="#000000" stroke-width="0.47750000000000004"/>
	<path d="M 456.5,227.0 L 349.5,382.0" fill="none" stroke="#000000" stroke-width="0.47750000000000004"/>
	<path d="M 460.5,224.5 L 339.5,237.5" fill="none" stroke="#000000" stroke-width="0.47750000000000004"/>
	<path d="M 379.5,147.5 L 380.5,338.5" fill="none" stroke="#000000" stroke-width="0.47750000000000004"/>
	<path d="M 202.0,23.0 L 200.0,119.5" fill="none" stroke="#000000" stroke-width="0.47750000000000004"/>
	<path d="M 199.0,21.5 L 337.5,111.5" fill="none" stroke="#000000" stroke-width="0.47750000000000004"/>
	<path d="M 121.5,169.5 L 123.0,301.0" fill="none" stroke="#000000" stroke-width="0.47750000000000004"/>
	<path d="M 123.0,301.0 L 52.5,305.5" fill="none" stroke="#000000" stroke-width="0.47750000000000004"/>
	<path d="M 125.0,169.5 L 46.0,173.0" fill="none" stroke="#000000" stroke-width="0.47750000000000004"/>
	<path d="M 124.0,172.5 L 55.5,305.5" fill="none" stroke="#000000" stroke-width="0.47750000000000004"/>
	<path d="M 47.0,162.5 L 123.5,307.0" fill="none" stroke="#000000" stroke-width="0.47750000000000004"/>
	<path d="M 55.5,143.0 L 25.5,141.0" fill="none" stroke="#000000" stroke-width="0.47750000000000004"/>
	<path d="M 25.5,24.0 L 28.5,233.5" fill="none" stroke="#000000" stroke-width="0.47750000000000004"/>
	<path d="M 54.0,46.0 L -3.0,46.5" fill="none" stroke="#000000" stroke-width="0.47750000000000004"/>
	<path d="M 53.0,362.5 L 51.0,456.0" fill="none" stroke="#000000" stroke-width="0.47750000000000004"/>
	<path d="M 51.0,456.0 L 140.0,455.5" fill="none" stroke="#000000" stroke-width="0.47750000000000004"/>
	<path d="M 140.0,455.5 L 136.5,379.0" fill="none" stroke="#000000" stroke-width="0.47750000000000004"/>
	<path d="M 42.0,366.0 L 141.0,451.5" fill="none" stroke="#000000" stroke-width="0.47750000000000004"/>
	<path d="M 353.5,412.5 L 147.0,413.0" fill="none" stroke="#000000" stroke-width="0.47750000000000004"/>
	<path d="M 147.0,413.0 L 141.5,413.0" fill="none" stroke="#000000" stroke-width="0.47750000000000004"/>
	<path d="M 317.0,401.5 L 314.5,446.0" fill="none" stroke="#000000" stroke-width="0.47750000000000004"/>
	<path d="M 336.5,328.5 L 299.0,361.5" fill="none" stroke="#000000" stroke-width="0.47750000000000004"/>
	<path d="M 311.0,307.5 L 274.0,335.5" fill="none" stroke="#000000" stroke-width="0.47750000000000004"/>
	<path d="M 287.0,278.0 L 247.0,305.0" fill="none" stroke="#000000" stroke-width="0.47750000000000004"/>
	<path d="M 259.0,251.5 L 214.5,279.5" fill="none" stroke="#000000" stroke-width="0.47750000000000004"/>
	<path d="M 200.0,130.0 L 84.0,129.0" fill="none" stroke="#000000" stroke-width="0.47750000000000004"/>
	<path d="M 84.0,129.0 L 75.0,129.0" fill="none" stroke="#000000" stroke-width="0.47750000000000004"/>
	<path d="M 201.0,158.0 L 168.0,157.0" fill="none" stroke="#000000" stroke-width="0.47750000000000004"/>
	<path d="M 168.0,157.0 L 103.5,157.0" fill="none" stroke="#000000" stroke-width="0.47750000000000004"/>
	<path d="M 198.5,179.0 L 173.5,178.5" fill="none" stroke="#000000" stroke-width="0.47750000000000004"/>
	<path d="M 173.5,178.5 L 138.5,178.5" fill="none" stroke="#000000" stroke-width="0.47750000000000004"/>
	<path d="M 206.0,206.5 L 180.0,204.0" fill="none" stroke="#000000" stroke-width="0.47750000000000004"/>
	<path d="M 180.0,204.0 L 156.5,204.0" fill="none" stroke="#000000" stroke-width="0.47750000000000004"/>
	
	<path d="M 458.5,225.0 L 474.0,273.0" fill="none" stroke="#000000" stroke-width="0.47750000000000004"/>
	<path d="M 474.5,273.0 L 456.0,319.0" fill="none" stroke="#000000" stroke-width="0.47750000000000004"/>
	<path d="M 456.0,319.0 L 444.5,266.0" fill="none" stroke="#000000" stroke-width="0.47750000000000004"/>
	<path d="M 444.5,266.0 L 462.5,226.0" fill="none" stroke="#000000" stroke-width="0.47750000000000004"/>
	<path d="M 230.5,108.5 L 232.5,211.5" fill="none" stroke="#000000" stroke-width="0.47750000000000004"/>
	<path d="M 107.0,158.5 L 53.0,160.5" fill="none" stroke="#000000" stroke-width="0.47750000000000004"/>
</svg>
