<svg width="50" height="50" xmlns="http://www.w3.org/2000/svg" style="background-color: white;">
  <circle cx="36.64305191040039" cy="40.231221771240236" r="0.1" fill="black" />
  <circle cx="45.05661239624023" cy="35.028096771240236" r="0.1" fill="black" />
  <circle cx="8.919735972086588" cy="47.32799479166667" r="0.1" fill="black" />
  <circle cx="7.862667655944824" cy="18.297725677490234" r="0.1" fill="black" />
  <circle cx="15.569949722290039" cy="46.68851776123047" r="0.1" fill="black" />
  <circle cx="15.007106018066406" cy="35.480282592773435" r="0.1" fill="black" />
  <circle cx="12.281045532226562" cy="20.78690439860026" r="0.1" fill="black" />
  <circle cx="37.32324768066407" cy="18.307522583007813" r="0.1" fill="black" />
  <circle cx="25.815010833740235" cy="33.88462677001953" r="0.1" fill="black" />
  <circle cx="8.633125" cy="22.55632781982422" r="0.1" fill="black" />
  <circle cx="15.452697245279946" cy="23.64188995361328" r="0.1" fill="black" />
  <circle cx="31.79868927001953" cy="38.67435760498047" r="0.1" fill="black" />
  <circle cx="0.5099330425262452" cy="12.0015625" r="0.1" fill="black" />
  <circle cx="39.746986389160156" cy="21.634263610839845" r="0.1" fill="black" />
  <circle cx="3.744196319580078" cy="31.84430847167969" r="0.1" fill="black" />
  <circle cx="47.45426940917969" cy="32.6626953125" r="0.1" fill="black" />
  <circle cx="15.599386596679688" cy="40.01121520996094" r="0.1" fill="black" />
  <circle cx="45.54284606933594" cy="29.633571166992187" r="0.1" fill="black" />
  <circle cx="8.603950958251954" cy="40.05718811035156" r="0.1" fill="black" />
  <circle cx="28.26732635498047" cy="31.639703369140626" r="0.1" fill="black" />
  <circle cx="3.7609931945800783" cy="20.689787292480467" r="0.1" fill="black" />
  <circle cx="23.843373489379882" cy="18.39580078125" r="0.1" fill="black" />
  <circle cx="8.236830139160157" cy="35.36442565917969" r="0.1" fill="black" />
  <circle cx="31.058778889973958" cy="33.77998453776042" r="0.1" fill="black" />
  <circle cx="23.205775451660156" cy="7.4052177429199215" r="0.1" fill="black" />
  <circle cx="22.161309814453126" cy="26.687425231933595" r="0.1" fill="black" />
  <circle cx="22.931096649169923" cy="23.304645919799803" r="0.1" fill="black" />
  <circle cx="8.469419860839844" cy="28.968804931640626" r="0.1" fill="black" />
  <circle cx="6.216127395629883" cy="12.309877014160156" r="0.1" fill="black" />
  <circle cx="31.126058959960936" cy="42.522378540039064" r="0.1" fill="black" />
  <circle cx="31.350277709960938" cy="47.617578125" r="0.1" fill="black" />
  <circle cx="23.530859375" cy="40.325112915039064" r="0.1" fill="black" />
  <circle cx="28.620461018880206" cy="36.109914143880204" r="0.1" fill="black" />
  <circle cx="34.13046875" cy="36.409820556640625" r="0.1" fill="black" />
  <circle cx="23.026394653320313" cy="44.237612915039065" r="0.1" fill="black" />
  <circle cx="24.856501007080077" cy="27.076980590820312" r="0.1" fill="black" />
  <circle cx="3.306975555419922" cy="9.6921875" r="0.1" fill="black" />
  <circle cx="39.567633056640624" cy="36.059487915039064" r="0.1" fill="black" />
  <circle cx="33.878237915039065" cy="44.411383056640624" r="0.1" fill="black" />
</svg>