
			<svg xmlns="http://www.w3.org/2000/svg" width="500" height="500">
				<path d="M56,266.5 L79,147 L79,147 L84.5,109.5 L88,87 L90,74 L91,71.5 L92.5,73.5 L95,105 L96.5,157.5 L97.5,216.5 L100,273 L103.5,323.5 L107,356.5 L110,376.5 L111.5,382 L114.5,375 L120.5,341.5 L126,294 L129.5,242 L129.5,193.5 L124,160 L120,139 L118.5,132 L118.5,131.5 L122.5,151 L132,196.5 L138.5,252.5 L146,316 L153.5,370.5 L160.5,410 L166,432.5 L170,441 L172.5,433 L174,397.5 L171.5,345 L159.5,283.5 L142.5,225 L122,170 L106,130.5 L97,111.5 L94.5,106.5 L95,109 L110.5,136 L129.5,179.5 L149.5,227.5 L171.5,274.5 L190,313.5 L203.5,340 L211,352.5 L213,354 L209,336 L194.5,294 L172.5,243 L143,185.5 L114.5,137.5 L94.5,108.5 L84,95 L82,92.5 L91,106.5 L116,148 L146.5,200.5 L182,259.5 L212.5,308 L235,343.5 L247,361.5 L250,365 L244.5,349.5 L222.5,303 L191.5,242.5 L158,187 L127,143.5 L110,119.5 L102.5,111 L102,110 L121,129 L152.5,165 L184.5,209.5 L218.5,255 L245.5,291 L263,312 L269,318 L269.5,318 L257.5,290.5 L233.5,247.5 L203.5,200 L174,156.5 L153.5,127.5 L142,113.5 L139.5,110.5 L143.5,115 L166,141.5 L198,185.5 L233,239.5 L264,287.5 L288.5,324 L302,342.5 L305.5,346.5 L301,338 L275.5,297 L239.5,239.5 L197.5,178 L162.5,129.5 L138.5,101 L129,89.5 L128,88 L141.5,101 L172,136.5 L206,182.5 L240,231.5 L268.5,274 L284.5,298.5 L289,307 L289.5,308 L268.5,293.5 L233.5,253.5 L191,199 L152.5,152.5 L123.5,120.5 L108,106.5 L103.5,104.5 L105.5,113 L125.5,151.5 L153.5,209.5 L184,274 L209,327 L223.5,357 L227,365.5 L223.5,362.5 L198.5,330 L167,281.5 L131.5,225 L101.5,183.5 L82,160.5 L74.5,154 L73,154.5 L83.5,180.5 L105,226.5 L132,284.5 L155,333.5 L171.5,374 L178.5,398.5 L180,408 L174,408.5 L151,386 L123.5,346.5 L98.5,306.5 L77,276 L61.5,261 L55,256 L54,257.5 L56,286 L67.5,338 L82.5,396 L97.5,442 L107.5,470.5 L110.5,478.5 L109.5,471.5 L95.5,434.5 L77,391.5 L56,353 L35.5,322 L23,308 L17.5,305.5 L17.5,312.5 L25.5,328.5 L39.5,341.5 L46.5,344.5" stroke="black" stroke-width="2" fill="none"/>
<path d="M351,300.5 L386.5,217.5 L386.5,217.5 L399.5,176.5 L407.5,136.5 L411,110.5 L412.5,100.5 L413,99.5 L413,102 L412.5,129 L400,173.5 L382.5,224.5 L360.5,273.5 L346,305 L338.5,319.5 L334,324 L332,324 L331.5,318.5 L331.5,297.5 L348,258 L375,202.5 L400,153.5 L414,118.5 L421.5,103 L423.5,98 L424,98 L424,101 L415,118.5 L399,152.5 L377.5,197.5 L356,240 L340,269.5 L328,289 L323.5,297 L323,297.5 L323.5,295.5 L334,277 L358.5,239.5 L384,195 L405,152.5 L414,128.5 L418,116.5 L420,113.5 L420,114 L418,122 L409,144 L392.5,183 L373.5,226 L356,258.5 L346.5,273.5 L341,278 L339.5,278 L339.5,266 L349.5,232.5 L371,187 L389.5,139 L400,112.5 L404,102 L405,100.5 L405,105 L401,117.5 L389,147.5 L373,187.5 L358,221.5 L344,246.5 L335,259 L330,262 L329.5,261 L329.5,251 L337.5,227.5 L355.5,193.5 L374,157 L387,124 L393.5,107 L395.5,101.5 L394.5,107.5 L388.5,120.5 L376,144 L360.5,173.5 L345,205 L332.5,224.5 L325,236 L322.5,239 L322.5,238 L324.5,227.5 L337.5,198.5 L352.5,166 L362.5,140 L368,119 L369,109.5 L369,108.5 L366.5,112.5 L362,122.5 L356.5,131.5 L351,139.5 L340.5,153.5" stroke="black" stroke-width="2" fill="none"/>
<path d="M205,80.5 L215.5,64 L215.5,64 L221,59 L229,54 L238,50 L247,49 L256.5,49 L265.5,49 L275,53 L283.5,58.5 L292,66 L299.5,75.5 L305.5,86.5 L310.5,101 L313.5,113.5 L315.5,127 L316,139 L316,148.5 L311.5,157 L305,165 L297,172 L287,177 L277,179.5 L266.5,180 L256.5,180 L247,178.5 L238,173.5 L229,167 L221.5,158 L215.5,149.5 L210,139.5 L205.5,129 L202.5,117 L200,105 L199,94.5 L199,86.5 L199,79.5 L199,73.5 L201,68 L204.5,64 L209,61 L213.5,59.5 L216,59 L217.5,58.5" stroke="black" stroke-width="2" fill="none"/>
			</svg>
		