<svg width="4310" height="1903" viewBox="0 0 4310 1903" fill="none" xmlns="http://www.w3.org/2000/svg">
<rect width="4310" height="1903" fill="#F5F5F5"/>
<rect width="1150" height="1171" transform="translate(0 58)" fill="white"/>
<circle cx="574" cy="623" r="247" fill="#FFD700" stroke="#FFA500" stroke-width="6"/>
<path d="M574 421L618.903 559.197H764.211L646.654 644.607L691.557 782.803L574 697.393L456.443 782.803L501.346 644.607L383.789 559.197H529.097L574 421Z" fill="#FFA500"/>
<path d="M574 424L618.903 562.197H764.211L646.654 647.607L691.557 785.803L574 700.393L456.443 785.803L501.346 647.607L383.789 562.197H529.097L574 424Z" fill="#FFF8C6"/>
<path d="M574 423L618.903 561.197H764.211L646.654 646.607L691.557 784.803L574 699.393L456.443 784.803L501.346 646.607L383.789 561.197H529.097L574 423Z" fill="#FDDF3E"/>
<rect opacity="0.6" x="370.45" y="489.539" width="100" height="486" rx="40" transform="rotate(-55 370.45 489.539)" fill="#FFF8C6" fill-opacity="0.15"/>
<rect opacity="0.6" x="326.4" y="557.202" width="50" height="481" rx="25" transform="rotate(-55 326.4 557.202)" fill="#FFF8C6" fill-opacity="0.15"/>
<rect width="1150" height="1171" transform="translate(3160 183)" fill="white"/>
<path d="M3988 814C3988 846.769 3961.36 877.244 3916.44 899.705C3871.69 922.076 3809.67 936 3741 936C3672.33 936 3610.31 922.076 3565.56 899.705C3520.64 877.244 3494 846.769 3494 814C3494 781.231 3520.64 750.756 3565.56 728.295C3610.31 705.924 3672.33 692 3741 692C3809.67 692 3871.69 705.924 3916.44 728.295C3961.36 750.756 3988 781.231 3988 814Z" fill="#F1C232" stroke="#FFA500" stroke-width="6"/>
<path d="M3988 764C3988 796.769 3961.36 827.244 3916.44 849.705C3871.69 872.076 3809.67 886 3741 886C3672.33 886 3610.31 872.076 3565.56 849.705C3520.64 827.244 3494 796.769 3494 764C3494 731.231 3520.64 700.756 3565.56 678.295C3610.31 655.924 3672.33 642 3741 642C3809.67 642 3871.69 655.924 3916.44 678.295C3961.36 700.756 3988 731.231 3988 764Z" fill="#FFD700" stroke="#FFA500" stroke-width="6"/>
<path d="M3741 669.149L3785.9 738.658L3931.21 738.658L3813.65 781.617L3858.56 851.126L3741 808.167L3623.44 851.126L3668.35 781.617L3550.79 738.658L3696.1 738.658L3741 669.149Z" fill="#FFA500"/>
<path d="M3741 672.149L3785.9 741.658L3931.21 741.658L3813.65 784.617L3858.56 854.126L3741 811.167L3623.44 854.126L3668.35 784.617L3550.79 741.658L3696.1 741.658L3741 672.149Z" fill="#FFF8C6"/>
<path d="M3741 671.149L3785.9 740.658L3931.21 740.658L3813.65 783.617L3858.56 853.126L3741 810.167L3623.44 853.126L3668.35 783.617L3550.79 740.658L3696.1 740.658L3741 671.149Z" fill="#FDDF3E"/>
<line x1="3495" y1="764.067" x2="3493.89" y2="814.054" stroke="#FFA500" stroke-width="6"/>
<line x1="3989" y1="764.067" x2="3987.89" y2="814.054" stroke="#FFA500" stroke-width="6"/>
<rect opacity="0.6" width="70.48" height="421.801" rx="35.24" transform="matrix(0.813815 -0.581124 0.943828 0.330438 3526.05 708.27)" fill="#FFF8C6" fill-opacity="0.15"/>
<rect opacity="0.6" width="35.24" height="401.84" rx="17.62" transform="matrix(0.813815 -0.581124 0.943828 0.330438 3478 749.601)" fill="#FFF8C6" fill-opacity="0.15"/>
<rect width="1564" height="1903" transform="translate(1476)" fill="white"/>
<path d="M2671.11 1539C2671.11 1571.77 2644.47 1602.24 2599.55 1624.71C2554.8 1647.08 2492.78 1661 2424.11 1661C2355.44 1661 2293.42 1647.08 2248.68 1624.71C2203.75 1602.24 2177.11 1571.77 2177.11 1539C2177.11 1506.23 2203.75 1475.76 2248.68 1453.29C2293.42 1430.92 2355.44 1417 2424.11 1417C2492.78 1417 2554.8 1430.92 2599.55 1453.29C2644.47 1475.76 2671.11 1506.23 2671.11 1539Z" fill="#F1C232" stroke="#FFA500" stroke-width="6"/>
<path d="M2671.11 1489C2671.11 1521.77 2644.47 1552.24 2599.55 1574.71C2554.8 1597.08 2492.78 1611 2424.11 1611C2355.44 1611 2293.42 1597.08 2248.68 1574.71C2203.75 1552.24 2177.11 1521.77 2177.11 1489C2177.11 1456.23 2203.75 1425.76 2248.68 1403.29C2293.42 1380.92 2355.44 1367 2424.11 1367C2492.78 1367 2554.8 1380.92 2599.55 1403.29C2644.47 1425.76 2671.11 1456.23 2671.11 1489Z" fill="#FFD700" stroke="#FFA500" stroke-width="6"/>
<path d="M2424.11 1394.15L2469.01 1463.66L2614.32 1463.66L2496.77 1506.62L2541.67 1576.13L2424.11 1533.17L2306.55 1576.13L2351.46 1506.62L2233.9 1463.66L2379.21 1463.66L2424.11 1394.15Z" fill="#FFA500"/>
<path d="M2424.11 1397.15L2469.01 1466.66L2614.32 1466.66L2496.77 1509.62L2541.67 1579.13L2424.11 1536.17L2306.55 1579.13L2351.46 1509.62L2233.9 1466.66L2379.21 1466.66L2424.11 1397.15Z" fill="#FFF8C6"/>
<path d="M2424.11 1396.15L2469.01 1465.66L2614.32 1465.66L2496.77 1508.62L2541.67 1578.13L2424.11 1535.17L2306.55 1578.13L2351.46 1508.62L2233.9 1465.66L2379.21 1465.66L2424.11 1396.15Z" fill="#FDDF3E"/>
<line x1="2178.11" y1="1489.07" x2="2177" y2="1539.05" stroke="#FFA500" stroke-width="6"/>
<line x1="2672.11" y1="1489.07" x2="2671" y2="1539.05" stroke="#FFA500" stroke-width="6"/>
<path d="M2672.11 1473C2672.11 1505.77 2645.47 1536.24 2600.55 1558.71C2555.8 1581.08 2493.78 1595 2425.11 1595C2356.44 1595 2294.42 1581.08 2249.68 1558.71C2204.75 1536.24 2178.11 1505.77 2178.11 1473C2178.11 1440.23 2204.75 1409.76 2249.68 1387.29C2294.42 1364.92 2356.44 1351 2425.11 1351C2493.78 1351 2555.8 1364.92 2600.55 1387.29C2645.47 1409.76 2672.11 1440.23 2672.11 1473Z" fill="#F1C232" stroke="#FFA500" stroke-width="6"/>
<path d="M2672.11 1423C2672.11 1455.77 2645.47 1486.24 2600.55 1508.71C2555.8 1531.08 2493.78 1545 2425.11 1545C2356.44 1545 2294.42 1531.08 2249.68 1508.71C2204.75 1486.24 2178.11 1455.77 2178.11 1423C2178.11 1390.23 2204.75 1359.76 2249.68 1337.29C2294.42 1314.92 2356.44 1301 2425.11 1301C2493.78 1301 2555.8 1314.92 2600.55 1337.29C2645.47 1359.76 2672.11 1390.23 2672.11 1423Z" fill="#FFD700" stroke="#FFA500" stroke-width="6"/>
<path d="M2425.11 1328.15L2470.01 1397.66L2615.32 1397.66L2497.77 1440.62L2542.67 1510.13L2425.11 1467.17L2307.55 1510.13L2352.46 1440.62L2234.9 1397.66L2380.21 1397.66L2425.11 1328.15Z" fill="#FFA500"/>
<path d="M2425.11 1331.15L2470.01 1400.66L2615.32 1400.66L2497.77 1443.62L2542.67 1513.13L2425.11 1470.17L2307.55 1513.13L2352.46 1443.62L2234.9 1400.66L2380.21 1400.66L2425.11 1331.15Z" fill="#FFF8C6"/>
<path d="M2425.11 1330.15L2470.01 1399.66L2615.32 1399.66L2497.77 1442.62L2542.67 1512.13L2425.11 1469.17L2307.55 1512.13L2352.46 1442.62L2234.9 1399.66L2380.21 1399.66L2425.11 1330.15Z" fill="#FDDF3E"/>
<line x1="2179.11" y1="1423.07" x2="2178" y2="1473.05" stroke="#FFA500" stroke-width="6"/>
<line x1="2673.11" y1="1423.07" x2="2672" y2="1473.05" stroke="#FFA500" stroke-width="6"/>
<path d="M2668.11 1403C2668.11 1435.77 2641.47 1466.24 2596.55 1488.71C2551.8 1511.08 2489.78 1525 2421.11 1525C2352.44 1525 2290.42 1511.08 2245.68 1488.71C2200.75 1466.24 2174.11 1435.77 2174.11 1403C2174.11 1370.23 2200.75 1339.76 2245.68 1317.29C2290.42 1294.92 2352.44 1281 2421.11 1281C2489.78 1281 2551.8 1294.92 2596.55 1317.29C2641.47 1339.76 2668.11 1370.23 2668.11 1403Z" fill="#F1C232" stroke="#FFA500" stroke-width="6"/>
<path d="M2668.11 1353C2668.11 1385.77 2641.47 1416.24 2596.55 1438.71C2551.8 1461.08 2489.78 1475 2421.11 1475C2352.44 1475 2290.42 1461.08 2245.68 1438.71C2200.75 1416.24 2174.11 1385.77 2174.11 1353C2174.11 1320.23 2200.75 1289.76 2245.68 1267.29C2290.42 1244.92 2352.44 1231 2421.11 1231C2489.78 1231 2551.8 1244.92 2596.55 1267.29C2641.47 1289.76 2668.11 1320.23 2668.11 1353Z" fill="#FFD700" stroke="#FFA500" stroke-width="6"/>
<path d="M2421.11 1258.15L2466.01 1327.66L2611.32 1327.66L2493.77 1370.62L2538.67 1440.13L2421.11 1397.17L2303.55 1440.13L2348.46 1370.62L2230.9 1327.66L2376.21 1327.66L2421.11 1258.15Z" fill="#FFA500"/>
<path d="M2421.11 1261.15L2466.01 1330.66L2611.32 1330.66L2493.77 1373.62L2538.67 1443.13L2421.11 1400.17L2303.55 1443.13L2348.46 1373.62L2230.9 1330.66L2376.21 1330.66L2421.11 1261.15Z" fill="#FFF8C6"/>
<path d="M2421.11 1260.15L2466.01 1329.66L2611.32 1329.66L2493.77 1372.62L2538.67 1442.13L2421.11 1399.17L2303.55 1442.13L2348.46 1372.62L2230.9 1329.66L2376.21 1329.66L2421.11 1260.15Z" fill="#FDDF3E"/>
<line x1="2175.11" y1="1353.07" x2="2174" y2="1403.05" stroke="#FFA500" stroke-width="6"/>
<line x1="2669.11" y1="1353.07" x2="2668" y2="1403.05" stroke="#FFA500" stroke-width="6"/>
<path d="M2667.11 1323C2667.11 1355.77 2640.47 1386.24 2595.55 1408.71C2550.8 1431.08 2488.78 1445 2420.11 1445C2351.44 1445 2289.42 1431.08 2244.68 1408.71C2199.75 1386.24 2173.11 1355.77 2173.11 1323C2173.11 1290.23 2199.75 1259.76 2244.68 1237.29C2289.42 1214.92 2351.44 1201 2420.11 1201C2488.78 1201 2550.8 1214.92 2595.55 1237.29C2640.47 1259.76 2667.11 1290.23 2667.11 1323Z" fill="#F1C232" stroke="#FFA500" stroke-width="6"/>
<path d="M2667.11 1273C2667.11 1305.77 2640.47 1336.24 2595.55 1358.71C2550.8 1381.08 2488.78 1395 2420.11 1395C2351.44 1395 2289.42 1381.08 2244.68 1358.71C2199.75 1336.24 2173.11 1305.77 2173.11 1273C2173.11 1240.23 2199.75 1209.76 2244.68 1187.29C2289.42 1164.92 2351.44 1151 2420.11 1151C2488.78 1151 2550.8 1164.92 2595.55 1187.29C2640.47 1209.76 2667.11 1240.23 2667.11 1273Z" fill="#FFD700" stroke="#FFA500" stroke-width="6"/>
<path d="M2420.11 1178.15L2465.01 1247.66L2610.32 1247.66L2492.77 1290.62L2537.67 1360.13L2420.11 1317.17L2302.55 1360.13L2347.46 1290.62L2229.9 1247.66L2375.21 1247.66L2420.11 1178.15Z" fill="#FFA500"/>
<path d="M2420.11 1181.15L2465.01 1250.66L2610.32 1250.66L2492.77 1293.62L2537.67 1363.13L2420.11 1320.17L2302.55 1363.13L2347.46 1293.62L2229.9 1250.66L2375.21 1250.66L2420.11 1181.15Z" fill="#FFF8C6"/>
<path d="M2420.11 1180.15L2465.01 1249.66L2610.32 1249.66L2492.77 1292.62L2537.67 1362.13L2420.11 1319.17L2302.55 1362.13L2347.46 1292.62L2229.9 1249.66L2375.21 1249.66L2420.11 1180.15Z" fill="#FDDF3E"/>
<line x1="2174.11" y1="1273.07" x2="2173" y2="1323.05" stroke="#FFA500" stroke-width="6"/>
<line x1="2668.11" y1="1273.07" x2="2667" y2="1323.05" stroke="#FFA500" stroke-width="6"/>
<path d="M2668 1254C2668 1286.77 2641.36 1317.24 2596.44 1339.71C2551.69 1362.08 2489.67 1376 2421 1376C2352.33 1376 2290.31 1362.08 2245.56 1339.71C2200.64 1317.24 2174 1286.77 2174 1254C2174 1221.23 2200.64 1190.76 2245.56 1168.29C2290.31 1145.92 2352.33 1132 2421 1132C2489.67 1132 2551.69 1145.92 2596.44 1168.29C2641.36 1190.76 2668 1221.23 2668 1254Z" fill="#F1C232" stroke="#FFA500" stroke-width="6"/>
<path d="M2668 1204C2668 1236.77 2641.36 1267.24 2596.44 1289.71C2551.69 1312.08 2489.67 1326 2421 1326C2352.33 1326 2290.31 1312.08 2245.56 1289.71C2200.64 1267.24 2174 1236.77 2174 1204C2174 1171.23 2200.64 1140.76 2245.56 1118.29C2290.31 1095.92 2352.33 1082 2421 1082C2489.67 1082 2551.69 1095.92 2596.44 1118.29C2641.36 1140.76 2668 1171.23 2668 1204Z" fill="#FFD700" stroke="#FFA500" stroke-width="6"/>
<path d="M2421 1109.15L2465.9 1178.66L2611.21 1178.66L2493.65 1221.62L2538.56 1291.13L2421 1248.17L2303.44 1291.13L2348.35 1221.62L2230.79 1178.66L2376.1 1178.66L2421 1109.15Z" fill="#FFA500"/>
<path d="M2421 1112.15L2465.9 1181.66L2611.21 1181.66L2493.65 1224.62L2538.56 1294.13L2421 1251.17L2303.44 1294.13L2348.35 1224.62L2230.79 1181.66L2376.1 1181.66L2421 1112.15Z" fill="#FFF8C6"/>
<path d="M2421 1111.15L2465.9 1180.66L2611.21 1180.66L2493.65 1223.62L2538.56 1293.13L2421 1250.17L2303.44 1293.13L2348.35 1223.62L2230.79 1180.66L2376.1 1180.66L2421 1111.15Z" fill="#FDDF3E"/>
<line x1="2175" y1="1204.07" x2="2173.89" y2="1254.05" stroke="#FFA500" stroke-width="6"/>
<line x1="2669" y1="1204.07" x2="2667.89" y2="1254.05" stroke="#FFA500" stroke-width="6"/>
<rect opacity="0.6" width="70.48" height="421.801" rx="35.24" transform="matrix(0.813815 -0.581124 0.943828 0.330438 2206.05 1148.27)" fill="#FFF8C6" fill-opacity="0.15"/>
<rect opacity="0.6" width="35.24" height="401.84" rx="17.62" transform="matrix(0.813815 -0.581124 0.943828 0.330438 2158 1189.6)" fill="#FFF8C6" fill-opacity="0.15"/>
<path d="M2139.11 1615C2139.11 1647.77 2112.47 1678.24 2067.55 1700.71C2022.8 1723.08 1960.78 1737 1892.11 1737C1823.44 1737 1761.42 1723.08 1716.68 1700.71C1671.75 1678.24 1645.11 1647.77 1645.11 1615C1645.11 1582.23 1671.75 1551.76 1716.68 1529.29C1761.42 1506.92 1823.44 1493 1892.11 1493C1960.78 1493 2022.8 1506.92 2067.55 1529.29C2112.47 1551.76 2139.11 1582.23 2139.11 1615Z" fill="#F1C232" stroke="#FFA500" stroke-width="6"/>
<path d="M2139.11 1565C2139.11 1597.77 2112.47 1628.24 2067.55 1650.71C2022.8 1673.08 1960.78 1687 1892.11 1687C1823.44 1687 1761.42 1673.08 1716.68 1650.71C1671.75 1628.24 1645.11 1597.77 1645.11 1565C1645.11 1532.23 1671.75 1501.76 1716.68 1479.29C1761.42 1456.92 1823.44 1443 1892.11 1443C1960.78 1443 2022.8 1456.92 2067.55 1479.29C2112.47 1501.76 2139.11 1532.23 2139.11 1565Z" fill="#FFD700" stroke="#FFA500" stroke-width="6"/>
<path d="M1892.11 1470.15L1937.01 1539.66L2082.32 1539.66L1964.77 1582.62L2009.67 1652.13L1892.11 1609.17L1774.55 1652.13L1819.46 1582.62L1701.9 1539.66L1847.21 1539.66L1892.11 1470.15Z" fill="#FFA500"/>
<path d="M1892.11 1473.15L1937.01 1542.66L2082.32 1542.66L1964.77 1585.62L2009.67 1655.13L1892.11 1612.17L1774.55 1655.13L1819.46 1585.62L1701.9 1542.66L1847.21 1542.66L1892.11 1473.15Z" fill="#FFF8C6"/>
<path d="M1892.11 1472.15L1937.01 1541.66L2082.32 1541.66L1964.77 1584.62L2009.67 1654.13L1892.11 1611.17L1774.55 1654.13L1819.46 1584.62L1701.9 1541.66L1847.21 1541.66L1892.11 1472.15Z" fill="#FDDF3E"/>
<line x1="1646.11" y1="1565.07" x2="1645" y2="1615.05" stroke="#FFA500" stroke-width="6"/>
<line x1="2140.11" y1="1565.07" x2="2139" y2="1615.05" stroke="#FFA500" stroke-width="6"/>
<path d="M2140.11 1549C2140.11 1581.77 2113.47 1612.24 2068.55 1634.71C2023.8 1657.08 1961.78 1671 1893.11 1671C1824.44 1671 1762.42 1657.08 1717.68 1634.71C1672.75 1612.24 1646.11 1581.77 1646.11 1549C1646.11 1516.23 1672.75 1485.76 1717.68 1463.29C1762.42 1440.92 1824.44 1427 1893.11 1427C1961.78 1427 2023.8 1440.92 2068.55 1463.29C2113.47 1485.76 2140.11 1516.23 2140.11 1549Z" fill="#F1C232" stroke="#FFA500" stroke-width="6"/>
<path d="M2140.11 1499C2140.11 1531.77 2113.47 1562.24 2068.55 1584.71C2023.8 1607.08 1961.78 1621 1893.11 1621C1824.44 1621 1762.42 1607.08 1717.68 1584.71C1672.75 1562.24 1646.11 1531.77 1646.11 1499C1646.11 1466.23 1672.75 1435.76 1717.68 1413.29C1762.42 1390.92 1824.44 1377 1893.11 1377C1961.78 1377 2023.8 1390.92 2068.55 1413.29C2113.47 1435.76 2140.11 1466.23 2140.11 1499Z" fill="#FFD700" stroke="#FFA500" stroke-width="6"/>
<path d="M1893.11 1404.15L1938.01 1473.66L2083.32 1473.66L1965.77 1516.62L2010.67 1586.13L1893.11 1543.17L1775.55 1586.13L1820.46 1516.62L1702.9 1473.66L1848.21 1473.66L1893.11 1404.15Z" fill="#FFA500"/>
<path d="M1893.11 1407.15L1938.01 1476.66L2083.32 1476.66L1965.77 1519.62L2010.67 1589.13L1893.11 1546.17L1775.55 1589.13L1820.46 1519.62L1702.9 1476.66L1848.21 1476.66L1893.11 1407.15Z" fill="#FFF8C6"/>
<path d="M1893.11 1406.15L1938.01 1475.66L2083.32 1475.66L1965.77 1518.62L2010.67 1588.13L1893.11 1545.17L1775.55 1588.13L1820.46 1518.62L1702.9 1475.66L1848.21 1475.66L1893.11 1406.15Z" fill="#FDDF3E"/>
<line x1="1647.11" y1="1499.07" x2="1646" y2="1549.05" stroke="#FFA500" stroke-width="6"/>
<line x1="2141.11" y1="1499.07" x2="2140" y2="1549.05" stroke="#FFA500" stroke-width="6"/>
<path d="M2136.11 1479C2136.11 1511.77 2109.47 1542.24 2064.55 1564.71C2019.8 1587.08 1957.78 1601 1889.11 1601C1820.44 1601 1758.42 1587.08 1713.68 1564.71C1668.75 1542.24 1642.11 1511.77 1642.11 1479C1642.11 1446.23 1668.75 1415.76 1713.68 1393.29C1758.42 1370.92 1820.44 1357 1889.11 1357C1957.78 1357 2019.8 1370.92 2064.55 1393.29C2109.47 1415.76 2136.11 1446.23 2136.11 1479Z" fill="#F1C232" stroke="#FFA500" stroke-width="6"/>
<path d="M2136.11 1429C2136.11 1461.77 2109.47 1492.24 2064.55 1514.71C2019.8 1537.08 1957.78 1551 1889.11 1551C1820.44 1551 1758.42 1537.08 1713.68 1514.71C1668.75 1492.24 1642.11 1461.77 1642.11 1429C1642.11 1396.23 1668.75 1365.76 1713.68 1343.29C1758.42 1320.92 1820.44 1307 1889.11 1307C1957.78 1307 2019.8 1320.92 2064.55 1343.29C2109.47 1365.76 2136.11 1396.23 2136.11 1429Z" fill="#FFD700" stroke="#FFA500" stroke-width="6"/>
<path d="M1889.11 1334.15L1934.01 1403.66L2079.32 1403.66L1961.77 1446.62L2006.67 1516.13L1889.11 1473.17L1771.55 1516.13L1816.46 1446.62L1698.9 1403.66L1844.21 1403.66L1889.11 1334.15Z" fill="#FFA500"/>
<path d="M1889.11 1337.15L1934.01 1406.66L2079.32 1406.66L1961.77 1449.62L2006.67 1519.13L1889.11 1476.17L1771.55 1519.13L1816.46 1449.62L1698.9 1406.66L1844.21 1406.66L1889.11 1337.15Z" fill="#FFF8C6"/>
<path d="M1889.11 1336.15L1934.01 1405.66L2079.32 1405.66L1961.77 1448.62L2006.67 1518.13L1889.11 1475.17L1771.55 1518.13L1816.46 1448.62L1698.9 1405.66L1844.21 1405.66L1889.11 1336.15Z" fill="#FDDF3E"/>
<line x1="1643.11" y1="1429.07" x2="1642" y2="1479.05" stroke="#FFA500" stroke-width="6"/>
<line x1="2137.11" y1="1429.07" x2="2136" y2="1479.05" stroke="#FFA500" stroke-width="6"/>
<path d="M2135.11 1399C2135.11 1431.77 2108.47 1462.24 2063.55 1484.71C2018.8 1507.08 1956.78 1521 1888.11 1521C1819.44 1521 1757.42 1507.08 1712.68 1484.71C1667.75 1462.24 1641.11 1431.77 1641.11 1399C1641.11 1366.23 1667.75 1335.76 1712.68 1313.29C1757.42 1290.92 1819.44 1277 1888.11 1277C1956.78 1277 2018.8 1290.92 2063.55 1313.29C2108.47 1335.76 2135.11 1366.23 2135.11 1399Z" fill="#F1C232" stroke="#FFA500" stroke-width="6"/>
<path d="M2135.11 1349C2135.11 1381.77 2108.47 1412.24 2063.55 1434.71C2018.8 1457.08 1956.78 1471 1888.11 1471C1819.44 1471 1757.42 1457.08 1712.68 1434.71C1667.75 1412.24 1641.11 1381.77 1641.11 1349C1641.11 1316.23 1667.75 1285.76 1712.68 1263.29C1757.42 1240.92 1819.44 1227 1888.11 1227C1956.78 1227 2018.8 1240.92 2063.55 1263.29C2108.47 1285.76 2135.11 1316.23 2135.11 1349Z" fill="#FFD700" stroke="#FFA500" stroke-width="6"/>
<path d="M1888.11 1254.15L1933.01 1323.66L2078.32 1323.66L1960.77 1366.62L2005.67 1436.13L1888.11 1393.17L1770.55 1436.13L1815.46 1366.62L1697.9 1323.66L1843.21 1323.66L1888.11 1254.15Z" fill="#FFA500"/>
<path d="M1888.11 1257.15L1933.01 1326.66L2078.32 1326.66L1960.77 1369.62L2005.67 1439.13L1888.11 1396.17L1770.55 1439.13L1815.46 1369.62L1697.9 1326.66L1843.21 1326.66L1888.11 1257.15Z" fill="#FFF8C6"/>
<path d="M1888.11 1256.15L1933.01 1325.66L2078.32 1325.66L1960.77 1368.62L2005.67 1438.13L1888.11 1395.17L1770.55 1438.13L1815.46 1368.62L1697.9 1325.66L1843.21 1325.66L1888.11 1256.15Z" fill="#FDDF3E"/>
<line x1="1642.11" y1="1349.07" x2="1641" y2="1399.05" stroke="#FFA500" stroke-width="6"/>
<line x1="2136.11" y1="1349.07" x2="2135" y2="1399.05" stroke="#FFA500" stroke-width="6"/>
<path d="M2181 1304C2181 1336.77 2154.36 1367.24 2109.44 1389.71C2064.69 1412.08 2002.67 1426 1934 1426C1865.33 1426 1803.31 1412.08 1758.56 1389.71C1713.64 1367.24 1687 1336.77 1687 1304C1687 1271.23 1713.64 1240.76 1758.56 1218.29C1803.31 1195.92 1865.33 1182 1934 1182C2002.67 1182 2064.69 1195.92 2109.44 1218.29C2154.36 1240.76 2181 1271.23 2181 1304Z" fill="#F1C232" stroke="#FFA500" stroke-width="6"/>
<path d="M2181 1254C2181 1286.77 2154.36 1317.24 2109.44 1339.71C2064.69 1362.08 2002.67 1376 1934 1376C1865.33 1376 1803.31 1362.08 1758.56 1339.71C1713.64 1317.24 1687 1286.77 1687 1254C1687 1221.23 1713.64 1190.76 1758.56 1168.29C1803.31 1145.92 1865.33 1132 1934 1132C2002.67 1132 2064.69 1145.92 2109.44 1168.29C2154.36 1190.76 2181 1221.23 2181 1254Z" fill="#FFD700" stroke="#FFA500" stroke-width="6"/>
<path d="M1934 1159.15L1978.9 1228.66L2124.21 1228.66L2006.65 1271.62L2051.56 1341.13L1934 1298.17L1816.44 1341.13L1861.35 1271.62L1743.79 1228.66L1889.1 1228.66L1934 1159.15Z" fill="#FFA500"/>
<path d="M1934 1162.15L1978.9 1231.66L2124.21 1231.66L2006.65 1274.62L2051.56 1344.13L1934 1301.17L1816.44 1344.13L1861.35 1274.62L1743.79 1231.66L1889.1 1231.66L1934 1162.15Z" fill="#FFF8C6"/>
<path d="M1934 1161.15L1978.9 1230.66L2124.21 1230.66L2006.65 1273.62L2051.56 1343.13L1934 1300.17L1816.44 1343.13L1861.35 1273.62L1743.79 1230.66L1889.1 1230.66L1934 1161.15Z" fill="#FDDF3E"/>
<line x1="1688" y1="1254.07" x2="1686.89" y2="1304.05" stroke="#FFA500" stroke-width="6"/>
<line x1="2182" y1="1254.07" x2="2180.89" y2="1304.05" stroke="#FFA500" stroke-width="6"/>
<rect opacity="0.6" width="70.48" height="421.801" rx="35.24" transform="matrix(0.813815 -0.581124 0.943828 0.330438 1719.05 1198.27)" fill="#FFF8C6" fill-opacity="0.15"/>
<rect opacity="0.6" width="35.24" height="401.84" rx="17.62" transform="matrix(0.813815 -0.581124 0.943828 0.330438 1671 1239.6)" fill="#FFF8C6" fill-opacity="0.15"/>
<path d="M2851.98 1755.52C2823.55 1771.81 2783.86 1763.84 2742.04 1736.02C2700.39 1708.32 2657.47 1661.43 2623.34 1601.84C2589.2 1542.26 2570.45 1481.52 2567.62 1431.57C2564.78 1381.43 2577.98 1343.16 2606.42 1326.87C2634.85 1310.59 2674.54 1318.55 2716.36 1346.37C2758.01 1374.07 2800.92 1420.96 2835.06 1480.55C2869.19 1540.14 2887.94 1600.87 2890.77 1650.82C2893.61 1700.96 2880.41 1739.23 2851.98 1755.52Z" fill="#F1C232" stroke="#FFA500" stroke-width="6"/>
<path d="M2895.36 1730.66C2866.93 1746.95 2827.24 1738.98 2785.42 1711.17C2743.77 1683.47 2700.86 1636.57 2666.72 1576.99C2632.59 1517.4 2613.84 1456.66 2611.01 1406.72C2608.17 1356.58 2621.37 1318.31 2649.8 1302.02C2678.23 1285.73 2717.92 1293.7 2759.74 1321.51C2801.39 1349.22 2844.31 1396.11 2878.44 1455.7C2912.58 1515.28 2931.33 1576.02 2934.16 1625.96C2937 1676.11 2923.8 1714.37 2895.36 1730.66Z" fill="#FFD700" stroke="#FFA500" stroke-width="6"/>
<path d="M2854.88 1469.19L2816.89 1542.71L2889.12 1668.79L2793.41 1588.14L2755.42 1661.65L2734.26 1538.3L2638.55 1457.65L2721.18 1462.06L2700.02 1338.7L2772.25 1464.78L2854.88 1469.19Z" fill="#FFA500"/>
<path d="M2852.28 1470.68L2814.29 1544.2L2886.52 1670.28L2790.81 1589.63L2752.82 1663.15L2731.66 1539.79L2635.94 1459.14L2718.58 1463.55L2697.42 1340.19L2769.65 1466.27L2852.28 1470.68Z" fill="#FFF8C6"/>
<path d="M2853.15 1470.19L2815.16 1543.7L2887.39 1669.78L2791.68 1589.13L2753.68 1662.65L2732.52 1539.29L2636.81 1458.64L2719.44 1463.05L2698.28 1339.69L2770.52 1465.78L2853.15 1470.19Z" fill="#FDDF3E"/>
<line x1="2650.24" y1="1302.92" x2="2606.31" y2="1326.8" stroke="#FFA500" stroke-width="6"/>
<line x1="2895.8" y1="1731.56" x2="2851.88" y2="1755.45" stroke="#FFA500" stroke-width="6"/>
<rect opacity="0.6" width="70.48" height="421.801" rx="35.24" transform="matrix(0.908782 0.417272 0.182451 0.983215 2714.09 1302.13)" fill="#FFF8C6" fill-opacity="0.15"/>
<rect opacity="0.6" width="35.24" height="401.84" rx="17.62" transform="matrix(0.908782 0.417272 0.182451 0.983215 2654.34 1280.98)" fill="#FFF8C6" fill-opacity="0.15"/>
<path d="M2132 1289L2137.61 1313.18L2155.78 1313.18L2141.08 1328.13L2146.69 1352.32L2132 1337.37L2117.31 1352.32L2122.92 1328.13L2108.22 1313.18L2126.39 1313.18L2132 1289Z" fill="#FFF8C6"/>
<path d="M2118.38 1353.37L2132 1339.51L2145.62 1353.37L2149.36 1357.17L2148.16 1351.98L2142.73 1328.6L2156.85 1314.24L2159.35 1311.68H2155.78L2138.8 1311.68L2133.46 1288.66H2130.54L2125.2 1311.68L2108.22 1311.68H2104.65L2107.15 1314.24L2121.27 1328.6L2115.84 1351.98L2114.64 1357.17L2118.38 1353.37Z" stroke="#FFF8C6" stroke-opacity="0.8" stroke-width="3"/>
<path d="M2118.38 1353.37L2132 1339.51L2145.62 1353.37L2149.36 1357.17L2148.16 1351.98L2142.73 1328.6L2156.85 1314.24L2159.35 1311.68H2155.78L2138.8 1311.68L2133.46 1288.66H2130.54L2125.2 1311.68L2108.22 1311.68H2104.65L2107.15 1314.24L2121.27 1328.6L2115.84 1351.98L2114.64 1357.17L2118.38 1353.37Z" stroke="#FFF8C6" stroke-opacity="0.5" stroke-width="3"/>
<path d="M2649.11 1179C2649.11 1211.77 2622.47 1242.24 2577.55 1264.71C2532.8 1287.08 2470.78 1301 2402.11 1301C2333.44 1301 2271.42 1287.08 2226.68 1264.71C2181.75 1242.24 2155.11 1211.77 2155.11 1179C2155.11 1146.23 2181.75 1115.76 2226.68 1093.29C2271.42 1070.92 2333.44 1057 2402.11 1057C2470.78 1057 2532.8 1070.92 2577.55 1093.29C2622.47 1115.76 2649.11 1146.23 2649.11 1179Z" fill="#F1C232" stroke="#FFA500" stroke-width="6"/>
<path d="M2649.11 1129C2649.11 1161.77 2622.47 1192.24 2577.55 1214.71C2532.8 1237.08 2470.78 1251 2402.11 1251C2333.44 1251 2271.42 1237.08 2226.68 1214.71C2181.75 1192.24 2155.11 1161.77 2155.11 1129C2155.11 1096.23 2181.75 1065.76 2226.68 1043.29C2271.42 1020.92 2333.44 1007 2402.11 1007C2470.78 1007 2532.8 1020.92 2577.55 1043.29C2622.47 1065.76 2649.11 1096.23 2649.11 1129Z" fill="#FFD700" stroke="#FFA500" stroke-width="6"/>
<path d="M2402.11 1034.15L2447.01 1103.66L2592.32 1103.66L2474.77 1146.62L2519.67 1216.13L2402.11 1173.17L2284.55 1216.13L2329.46 1146.62L2211.9 1103.66L2357.21 1103.66L2402.11 1034.15Z" fill="#FFA500"/>
<path d="M2402.11 1037.15L2447.01 1106.66L2592.32 1106.66L2474.77 1149.62L2519.67 1219.13L2402.11 1176.17L2284.55 1219.13L2329.46 1149.62L2211.9 1106.66L2357.21 1106.66L2402.11 1037.15Z" fill="#FFF8C6"/>
<path d="M2402.11 1036.15L2447.01 1105.66L2592.32 1105.66L2474.77 1148.62L2519.67 1218.13L2402.11 1175.17L2284.55 1218.13L2329.46 1148.62L2211.9 1105.66L2357.21 1105.66L2402.11 1036.15Z" fill="#FDDF3E"/>
<line x1="2156.11" y1="1129.07" x2="2155" y2="1179.05" stroke="#FFA500" stroke-width="6"/>
<line x1="2650.11" y1="1129.07" x2="2649" y2="1179.05" stroke="#FFA500" stroke-width="6"/>
<path d="M2650.11 1113C2650.11 1145.77 2623.47 1176.24 2578.55 1198.71C2533.8 1221.08 2471.78 1235 2403.11 1235C2334.44 1235 2272.42 1221.08 2227.68 1198.71C2182.75 1176.24 2156.11 1145.77 2156.11 1113C2156.11 1080.23 2182.75 1049.76 2227.68 1027.29C2272.42 1004.92 2334.44 991 2403.11 991C2471.78 991 2533.8 1004.92 2578.55 1027.29C2623.47 1049.76 2650.11 1080.23 2650.11 1113Z" fill="#F1C232" stroke="#FFA500" stroke-width="6"/>
<path d="M2650.11 1063C2650.11 1095.77 2623.47 1126.24 2578.55 1148.71C2533.8 1171.08 2471.78 1185 2403.11 1185C2334.44 1185 2272.42 1171.08 2227.68 1148.71C2182.75 1126.24 2156.11 1095.77 2156.11 1063C2156.11 1030.23 2182.75 999.756 2227.68 977.295C2272.42 954.924 2334.44 941 2403.11 941C2471.78 941 2533.8 954.924 2578.55 977.295C2623.47 999.756 2650.11 1030.23 2650.11 1063Z" fill="#FFD700" stroke="#FFA500" stroke-width="6"/>
<path d="M2403.11 968.149L2448.01 1037.66L2593.32 1037.66L2475.77 1080.62L2520.67 1150.13L2403.11 1107.17L2285.55 1150.13L2330.46 1080.62L2212.9 1037.66L2358.21 1037.66L2403.11 968.149Z" fill="#FFA500"/>
<path d="M2403.11 971.149L2448.01 1040.66L2593.32 1040.66L2475.77 1083.62L2520.67 1153.13L2403.11 1110.17L2285.55 1153.13L2330.46 1083.62L2212.9 1040.66L2358.21 1040.66L2403.11 971.149Z" fill="#FFF8C6"/>
<path d="M2403.11 970.149L2448.01 1039.66L2593.32 1039.66L2475.77 1082.62L2520.67 1152.13L2403.11 1109.17L2285.55 1152.13L2330.46 1082.62L2212.9 1039.66L2358.21 1039.66L2403.11 970.149Z" fill="#FDDF3E"/>
<line x1="2157.11" y1="1063.07" x2="2156" y2="1113.05" stroke="#FFA500" stroke-width="6"/>
<line x1="2651.11" y1="1063.07" x2="2650" y2="1113.05" stroke="#FFA500" stroke-width="6"/>
<path d="M2646.11 1043C2646.11 1075.77 2619.47 1106.24 2574.55 1128.71C2529.8 1151.08 2467.78 1165 2399.11 1165C2330.44 1165 2268.42 1151.08 2223.68 1128.71C2178.75 1106.24 2152.11 1075.77 2152.11 1043C2152.11 1010.23 2178.75 979.756 2223.68 957.295C2268.42 934.924 2330.44 921 2399.11 921C2467.78 921 2529.8 934.924 2574.55 957.295C2619.47 979.756 2646.11 1010.23 2646.11 1043Z" fill="#F1C232" stroke="#FFA500" stroke-width="6"/>
<path d="M2646.11 993C2646.11 1025.77 2619.47 1056.24 2574.55 1078.71C2529.8 1101.08 2467.78 1115 2399.11 1115C2330.44 1115 2268.42 1101.08 2223.68 1078.71C2178.75 1056.24 2152.11 1025.77 2152.11 993C2152.11 960.231 2178.75 929.756 2223.68 907.295C2268.42 884.924 2330.44 871 2399.11 871C2467.78 871 2529.8 884.924 2574.55 907.295C2619.47 929.756 2646.11 960.231 2646.11 993Z" fill="#FFD700" stroke="#FFA500" stroke-width="6"/>
<path d="M2399.11 898.149L2444.01 967.658L2589.32 967.658L2471.77 1010.62L2516.67 1080.13L2399.11 1037.17L2281.55 1080.13L2326.46 1010.62L2208.9 967.658L2354.21 967.658L2399.11 898.149Z" fill="#FFA500"/>
<path d="M2399.11 901.149L2444.01 970.658L2589.32 970.658L2471.77 1013.62L2516.67 1083.13L2399.11 1040.17L2281.55 1083.13L2326.46 1013.62L2208.9 970.658L2354.21 970.658L2399.11 901.149Z" fill="#FFF8C6"/>
<path d="M2399.11 900.149L2444.01 969.658L2589.32 969.658L2471.77 1012.62L2516.67 1082.13L2399.11 1039.17L2281.55 1082.13L2326.46 1012.62L2208.9 969.658L2354.21 969.658L2399.11 900.149Z" fill="#FDDF3E"/>
<line x1="2153.11" y1="993.067" x2="2152" y2="1043.05" stroke="#FFA500" stroke-width="6"/>
<line x1="2647.11" y1="993.067" x2="2646" y2="1043.05" stroke="#FFA500" stroke-width="6"/>
<path d="M2645.11 963C2645.11 995.769 2618.47 1026.24 2573.55 1048.71C2528.8 1071.08 2466.78 1085 2398.11 1085C2329.44 1085 2267.42 1071.08 2222.68 1048.71C2177.75 1026.24 2151.11 995.769 2151.11 963C2151.11 930.231 2177.75 899.756 2222.68 877.295C2267.42 854.924 2329.44 841 2398.11 841C2466.78 841 2528.8 854.924 2573.55 877.295C2618.47 899.756 2645.11 930.231 2645.11 963Z" fill="#F1C232" stroke="#FFA500" stroke-width="6"/>
<path d="M2645.11 913C2645.11 945.769 2618.47 976.244 2573.55 998.705C2528.8 1021.08 2466.78 1035 2398.11 1035C2329.44 1035 2267.42 1021.08 2222.68 998.705C2177.75 976.244 2151.11 945.769 2151.11 913C2151.11 880.231 2177.75 849.756 2222.68 827.295C2267.42 804.924 2329.44 791 2398.11 791C2466.78 791 2528.8 804.924 2573.55 827.295C2618.47 849.756 2645.11 880.231 2645.11 913Z" fill="#FFD700" stroke="#FFA500" stroke-width="6"/>
<path d="M2398.11 818.149L2443.01 887.658L2588.32 887.658L2470.77 930.617L2515.67 1000.13L2398.11 957.167L2280.55 1000.13L2325.46 930.617L2207.9 887.658L2353.21 887.658L2398.11 818.149Z" fill="#FFA500"/>
<path d="M2398.11 821.149L2443.01 890.658L2588.32 890.658L2470.77 933.617L2515.67 1003.13L2398.11 960.167L2280.55 1003.13L2325.46 933.617L2207.9 890.658L2353.21 890.658L2398.11 821.149Z" fill="#FFF8C6"/>
<path d="M2398.11 820.149L2443.01 889.658L2588.32 889.658L2470.77 932.617L2515.67 1002.13L2398.11 959.167L2280.55 1002.13L2325.46 932.617L2207.9 889.658L2353.21 889.658L2398.11 820.149Z" fill="#FDDF3E"/>
<line x1="2152.11" y1="913.067" x2="2151" y2="963.054" stroke="#FFA500" stroke-width="6"/>
<line x1="2646.11" y1="913.067" x2="2645" y2="963.054" stroke="#FFA500" stroke-width="6"/>
<path d="M2646 894C2646 926.769 2619.36 957.244 2574.44 979.705C2529.69 1002.08 2467.67 1016 2399 1016C2330.33 1016 2268.31 1002.08 2223.56 979.705C2178.64 957.244 2152 926.769 2152 894C2152 861.231 2178.64 830.756 2223.56 808.295C2268.31 785.924 2330.33 772 2399 772C2467.67 772 2529.69 785.924 2574.44 808.295C2619.36 830.756 2646 861.231 2646 894Z" fill="#F1C232" stroke="#FFA500" stroke-width="6"/>
<path d="M2646 844C2646 876.769 2619.36 907.244 2574.44 929.705C2529.69 952.076 2467.67 966 2399 966C2330.33 966 2268.31 952.076 2223.56 929.705C2178.64 907.244 2152 876.769 2152 844C2152 811.231 2178.64 780.756 2223.56 758.295C2268.31 735.924 2330.33 722 2399 722C2467.67 722 2529.69 735.924 2574.44 758.295C2619.36 780.756 2646 811.231 2646 844Z" fill="#FFD700" stroke="#FFA500" stroke-width="6"/>
<path d="M2399 749.149L2443.9 818.658L2589.21 818.658L2471.65 861.617L2516.56 931.126L2399 888.167L2281.44 931.126L2326.35 861.617L2208.79 818.658L2354.1 818.658L2399 749.149Z" fill="#FFA500"/>
<path d="M2399 752.149L2443.9 821.658L2589.21 821.658L2471.65 864.617L2516.56 934.126L2399 891.167L2281.44 934.126L2326.35 864.617L2208.79 821.658L2354.1 821.658L2399 752.149Z" fill="#FFF8C6"/>
<path d="M2399 751.149L2443.9 820.658L2589.21 820.658L2471.65 863.617L2516.56 933.126L2399 890.167L2281.44 933.126L2326.35 863.617L2208.79 820.658L2354.1 820.658L2399 751.149Z" fill="#FDDF3E"/>
<line x1="2153" y1="844.067" x2="2151.89" y2="894.054" stroke="#FFA500" stroke-width="6"/>
<line x1="2647" y1="844.067" x2="2645.89" y2="894.054" stroke="#FFA500" stroke-width="6"/>
<rect opacity="0.6" width="70.48" height="421.801" rx="35.24" transform="matrix(0.813815 -0.581124 0.943828 0.330438 2184.05 788.27)" fill="#FFF8C6" fill-opacity="0.15"/>
<rect opacity="0.6" width="35.24" height="401.84" rx="17.62" transform="matrix(0.813815 -0.581124 0.943828 0.330438 2136 829.601)" fill="#FFF8C6" fill-opacity="0.15"/>
<path d="M2603 863L2608.61 887.184L2626.78 887.184L2612.08 902.131L2617.69 926.316L2603 911.369L2588.31 926.316L2593.92 902.131L2579.22 887.184L2597.39 887.184L2603 863Z" fill="#FFF8C6"/>
<path d="M2589.38 927.367L2603 913.508L2616.62 927.367L2620.36 931.167L2619.16 925.976L2613.73 902.595L2627.85 888.236L2630.35 885.684H2626.78L2609.8 885.684L2604.46 862.661H2601.54L2596.2 885.684L2579.22 885.684H2575.65L2578.15 888.236L2592.27 902.595L2586.84 925.976L2585.64 931.167L2589.38 927.367Z" stroke="#FFF8C6" stroke-opacity="0.8" stroke-width="3"/>
<path d="M2589.38 927.367L2603 913.508L2616.62 927.367L2620.36 931.167L2619.16 925.976L2613.73 902.595L2627.85 888.236L2630.35 885.684H2626.78L2609.8 885.684L2604.46 862.661H2601.54L2596.2 885.684L2579.22 885.684H2575.65L2578.15 888.236L2592.27 902.595L2586.84 925.976L2585.64 931.167L2589.38 927.367Z" stroke="#FFF8C6" stroke-opacity="0.5" stroke-width="3"/>
<path d="M2612.5 1384L2615.76 1401.62L2626.29 1401.62L2617.77 1412.51L2621.02 1430.13L2612.5 1419.24L2603.98 1430.13L2607.23 1412.51L2598.71 1401.62L2609.24 1401.62L2612.5 1384Z" fill="#FFF8C6"/>
<path d="M2605.16 1431.05L2612.5 1421.67L2619.84 1431.05L2622.5 1429.86L2619.37 1412.9L2627.47 1402.54L2629.37 1400.12H2626.29L2617 1400.12L2613.98 1383.73H2611.02L2608 1400.12L2598.71 1400.12H2595.63L2597.53 1402.54L2605.63 1412.9L2602.5 1429.86L2605.16 1431.05Z" stroke="#FFF8C6" stroke-opacity="0.8" stroke-width="3"/>
<path d="M2605.16 1431.05L2612.5 1421.67L2619.84 1431.05L2622.5 1429.86L2619.37 1412.9L2627.47 1402.54L2629.37 1400.12H2626.29L2617 1400.12L2613.98 1383.73H2611.02L2608 1400.12L2598.71 1400.12H2595.63L2597.53 1402.54L2605.63 1412.9L2602.5 1429.86L2605.16 1431.05Z" stroke="#FFF8C6" stroke-opacity="0.5" stroke-width="3"/>
</svg>
