<svg width="500" height="500" viewBox="0 0 500 500" fill="none" xmlns="http://www.w3.org/2000/svg">
<g clip-path="url(#clip0_0_1)">
<circle cx="250" cy="250" r="247" fill="#FFD700" stroke="#FFA500" stroke-width="6"/>
<path d="M250 48L294.903 186.197H440.211L322.654 271.607L367.557 409.803L250 324.393L132.443 409.803L177.346 271.607L59.7887 186.197H205.097L250 48Z" fill="#FFA500"/>
<path d="M250 51L294.903 189.197H440.211L322.654 274.607L367.557 412.803L250 327.393L132.443 412.803L177.346 274.607L59.7887 189.197H205.097L250 51Z" fill="#FFF8C6"/>
<path d="M250 50L294.903 188.197H440.211L322.654 273.607L367.557 411.803L250 326.393L132.443 411.803L177.346 273.607L59.7887 188.197H205.097L250 50Z" fill="#FDDF3E"/>
<rect opacity="0.6" x="46.4495" y="116.539" width="100" height="486" rx="40" transform="rotate(-55 46.4495 116.539)" fill="#FFF8C6" fill-opacity="0.15"/>
<rect opacity="0.6" x="2.39978" y="184.202" width="50" height="481" rx="25" transform="rotate(-55 2.39978 184.202)" fill="#FFF8C6" fill-opacity="0.15"/>
</g>
<defs>
<clipPath id="clip0_0_1">
<rect width="500" height="500" fill="white"/>
</clipPath>
</defs>
</svg>
