<svg width="1150" height="1171" viewBox="0 0 1150 1171" fill="none" xmlns="http://www.w3.org/2000/svg">
<circle cx="574" cy="565" r="247" fill="#FFD700" stroke="#FFA500" stroke-width="6"/>
<path d="M574 363L618.903 501.197H764.211L646.654 586.607L691.557 724.803L574 639.393L456.443 724.803L501.346 586.607L383.789 501.197H529.097L574 363Z" fill="#FFA500"/>
<path d="M574 366L618.903 504.197H764.211L646.654 589.607L691.557 727.803L574 642.393L456.443 727.803L501.346 589.607L383.789 504.197H529.097L574 366Z" fill="#FFF8C6"/>
<path d="M574 365L618.903 503.197H764.211L646.654 588.607L691.557 726.803L574 641.393L456.443 726.803L501.346 588.607L383.789 503.197H529.097L574 365Z" fill="#FDDF3E"/>
<rect opacity="0.6" x="370.45" y="431.539" width="100" height="486" rx="40" transform="rotate(-55 370.45 431.539)" fill="#FFF8C6" fill-opacity="0.15"/>
<rect opacity="0.6" x="326.4" y="499.202" width="50" height="481" rx="25" transform="rotate(-55 326.4 499.202)" fill="#FFF8C6" fill-opacity="0.15"/>
</svg>
