<svg width="500" height="300" viewBox="0 0 500 300" fill="none" xmlns="http://www.w3.org/2000/svg">
<g clip-path="url(#clip0_0_1)">
<path d="M492 175C492 207.81 466.011 238.276 422.263 260.719C378.673 283.081 318.246 297 251.335 297C184.425 297 123.997 283.081 80.4077 260.719C36.6598 238.276 10.6707 207.81 10.6707 175C10.6707 142.19 36.6598 111.724 80.4077 89.2809C123.997 66.9194 184.425 53 251.335 53C318.246 53 378.673 66.9194 422.263 89.2809C466.011 111.724 492 142.19 492 175Z" fill="#F1C232" stroke="#FFA500" stroke-width="6"/>
<path d="M492 125C492 157.81 466.011 188.276 422.263 210.719C378.673 233.081 318.246 247 251.335 247C184.425 247 123.997 233.081 80.4077 210.719C36.6598 188.276 10.6707 157.81 10.6707 125C10.6707 92.1903 36.6598 61.7236 80.4077 39.2809C123.997 16.9194 184.425 3 251.335 3C318.246 3 378.673 16.9194 422.263 39.2809C466.011 61.7236 492 92.1903 492 125Z" fill="#FFD700" stroke="#FFA500" stroke-width="6"/>
<path d="M251.335 30.1487L295.1 99.658L436.727 99.658L322.148 142.617L365.913 212.126L251.335 169.167L136.757 212.126L180.522 142.617L65.9442 99.658L207.57 99.658L251.335 30.1487Z" fill="#FFA500"/>
<path d="M251.335 33.1487L295.1 102.658L436.727 102.658L322.148 145.617L365.913 215.126L251.335 172.167L136.757 215.126L180.522 145.617L65.9442 102.658L207.57 102.658L251.335 33.1487Z" fill="#FFF8C6"/>
<path d="M251.335 32.1487L295.1 101.658L436.727 101.658L322.148 144.617L365.913 214.126L251.335 171.167L136.757 214.126L180.522 144.617L65.9442 101.658L207.57 101.658L251.335 32.1487Z" fill="#FDDF3E"/>
<line y1="-3" x2="50" y2="-3" transform="matrix(-0.021654 0.999766 -0.99974 -0.0227941 8.64526 125)" stroke="#FFA500" stroke-width="6"/>
<line y1="-3" x2="50" y2="-3" transform="matrix(-0.021654 0.999766 -0.99974 -0.0227941 490.127 125)" stroke="#FFA500" stroke-width="6"/>
<rect opacity="0.6" width="69.3022" height="412.293" rx="34.6511" transform="matrix(0.806672 -0.591 0.941125 0.338058 41.8323 69.2696)" fill="#FFF8C6" fill-opacity="0.15"/>
<rect opacity="0.6" width="34.6511" height="392.781" rx="17.3256" transform="matrix(0.806672 -0.591 0.941125 0.338058 -5 110.601)" fill="#FFF8C6" fill-opacity="0.15"/>
</g>
<defs>
<clipPath id="clip0_0_1">
<rect width="500" height="300" fill="white"/>
</clipPath>
</defs>
</svg>
